<svg width="500" height="500" viewBox="0 0 500 500" fill="none" xmlns="http://www.w3.org/2000/svg">
<path d="M96.3789 405.5V413.02H152.679V405.5H96.3789Z" fill="#E0E0E0"/>
<path d="M104.059 405.8C104.249 405.8 104.409 407.38 104.409 409.33C104.409 411.28 104.249 412.85 104.059 412.85C103.869 412.85 103.699 411.27 103.699 409.33C103.699 407.39 103.859 405.8 104.059 405.8Z" fill="#FAFAFA"/>
<path d="M102.83 405.65C103.03 405.65 103.18 407.23 103.18 409.17C103.18 411.11 103.03 412.7 102.83 412.7C102.63 412.7 102.48 411.12 102.48 409.17C102.48 407.22 102.63 405.65 102.83 405.65Z" fill="#FAFAFA"/>
<path d="M148.33 405.8C148.53 405.8 148.69 407.38 148.69 409.33C148.69 411.28 148.53 412.85 148.33 412.85C148.13 412.85 147.98 411.27 147.98 409.33C147.98 407.39 148.14 405.8 148.33 405.8Z" fill="#FAFAFA"/>
<path d="M147.11 405.65C147.3 405.65 147.46 407.23 147.46 409.17C147.46 411.11 147.3 412.7 147.11 412.7C146.92 412.7 146.75 411.12 146.75 409.17C146.75 407.22 146.91 405.65 147.11 405.65Z" fill="#FAFAFA"/>
<path d="M139.749 409.48C139.749 409.68 133.299 409.83 125.349 409.83C117.399 409.83 110.949 409.68 110.949 409.48C110.949 409.28 117.399 409.13 125.349 409.13C133.299 409.13 139.749 409.28 139.749 409.48Z" fill="#FAFAFA"/>
<path d="M96.1406 439.36V454.4H152.441V439.36H96.1406Z" fill="#E0E0E0"/>
<path d="M153.16 450.17C153.16 450.17 153.07 450.24 152.86 450.34C152.65 450.44 152.34 450.59 151.92 450.77C150.696 451.289 149.413 451.655 148.1 451.86C145.995 452.241 143.824 451.933 141.91 450.98C140.725 450.349 139.715 449.435 138.97 448.32C138.113 447.049 137.757 445.507 137.97 443.99C138.092 443.166 138.438 442.391 138.97 441.75C139.254 441.399 139.616 441.118 140.027 440.931C140.439 440.744 140.888 440.654 141.34 440.67C141.804 440.708 142.256 440.841 142.668 441.061C143.079 441.281 143.44 441.584 143.73 441.95C144.345 442.676 144.725 443.572 144.82 444.52C144.896 445.495 144.763 446.476 144.428 447.395C144.093 448.315 143.565 449.152 142.88 449.85C141.455 451.357 139.533 452.298 137.47 452.5C135.344 452.704 133.2 452.438 131.19 451.72C129.041 451.048 127.133 449.766 125.7 448.03C124.96 447.097 124.514 445.966 124.42 444.78C124.36 444.163 124.436 443.54 124.644 442.956C124.851 442.372 125.184 441.841 125.62 441.4C126.096 440.942 126.72 440.669 127.38 440.63C128.031 440.612 128.673 440.794 129.22 441.15C130.275 441.841 131.018 442.918 131.29 444.15C131.525 445.353 131.444 446.596 131.055 447.758C130.666 448.92 129.982 449.961 129.07 450.78C127.282 452.289 125.063 453.192 122.73 453.36C120.518 453.614 118.278 453.392 116.16 452.71C114.08 452.055 112.305 450.675 111.16 448.82C110.59 447.94 110.237 446.937 110.129 445.894C110.021 444.851 110.162 443.798 110.54 442.82C110.727 442.33 111.035 441.895 111.435 441.555C111.835 441.216 112.315 440.984 112.83 440.88C113.324 440.791 113.832 440.805 114.321 440.923C114.809 441.04 115.269 441.257 115.67 441.56C116.371 442.176 116.874 442.988 117.112 443.891C117.351 444.794 117.315 445.747 117.01 446.63C116.462 448.206 115.477 449.593 114.17 450.63C112.004 452.464 109.286 453.521 106.45 453.63C104.723 453.691 103.003 453.389 101.401 452.743C99.799 452.097 98.3505 451.121 97.1495 449.88C96.9091 449.632 96.6821 449.372 96.4695 449.1C96.3945 449.009 96.3275 448.912 96.2695 448.81C97.4582 450.122 98.8787 451.203 100.46 452C102.322 452.915 104.387 453.341 106.46 453.24C109.196 453.084 111.804 452.03 113.88 450.24C115.098 449.253 116.013 447.943 116.52 446.46C116.784 445.687 116.815 444.853 116.606 444.063C116.398 443.273 115.961 442.562 115.35 442.02C115.014 441.77 114.63 441.591 114.222 441.495C113.815 441.398 113.392 441.387 112.98 441.46C112.561 441.546 112.173 441.739 111.85 442.019C111.528 442.299 111.283 442.658 111.14 443.06C110.811 443.943 110.695 444.891 110.801 445.828C110.907 446.764 111.232 447.662 111.75 448.45C112.823 450.163 114.477 451.434 116.41 452.03C118.437 452.673 120.577 452.877 122.69 452.63C124.873 452.467 126.95 451.624 128.63 450.22C129.453 449.478 130.071 448.535 130.421 447.484C130.772 446.432 130.843 445.307 130.63 444.22C130.404 443.162 129.777 442.234 128.88 441.63C128.475 441.33 127.978 441.182 127.476 441.212C126.973 441.241 126.497 441.445 126.13 441.79C125.766 442.158 125.488 442.601 125.315 443.088C125.142 443.576 125.079 444.095 125.13 444.61C125.214 445.66 125.607 446.662 126.26 447.49C127.607 449.117 129.395 450.322 131.41 450.96C133.33 451.651 135.377 451.913 137.41 451.73C139.312 451.546 141.085 450.688 142.41 449.31C143.041 448.678 143.529 447.918 143.841 447.081C144.153 446.245 144.282 445.351 144.22 444.46C144.186 443.651 143.879 442.877 143.348 442.265C142.818 441.653 142.096 441.238 141.3 441.09C140.929 441.078 140.56 441.151 140.222 441.304C139.884 441.456 139.586 441.684 139.35 441.97C138.862 442.538 138.54 443.23 138.42 443.97C138.215 445.37 138.539 446.796 139.33 447.97C140.023 449.038 140.967 449.92 142.08 450.54C143.927 451.488 146.029 451.821 148.08 451.49C149.377 451.312 150.651 450.994 151.88 450.54C152.72 450.33 153.15 450.14 153.16 450.17Z" fill="#FAFAFA"/>
<path d="M101.17 413.23V439.33H152.44V413.23H101.17Z" fill="#EBEBEB"/>
<path d="M109.69 414.13C109.88 414.13 110.04 419.78 110.04 426.76C110.04 433.74 109.88 439.39 109.69 439.39C109.5 439.39 109.33 433.74 109.33 426.76C109.33 419.78 109.49 414.13 109.69 414.13Z" fill="#E0E0E0"/>
<path d="M113.581 413.8C113.771 413.8 113.931 419.39 113.931 426.27C113.931 433.15 113.771 438.74 113.581 438.74C113.391 438.74 113.221 433.16 113.221 426.27C113.221 419.38 113.381 413.8 113.581 413.8Z" fill="#E0E0E0"/>
<path d="M146.649 413C146.839 413 146.999 418.88 146.999 426.14C146.999 433.4 146.839 439.27 146.649 439.27C146.459 439.27 146.289 433.39 146.289 426.14C146.289 418.89 146.449 413 146.649 413Z" fill="#E0E0E0"/>
<path d="M142.081 413.32C142.271 413.32 142.431 419.04 142.431 426.11C142.431 433.18 142.271 438.9 142.081 438.9C141.891 438.9 141.721 433.18 141.721 426.11C141.721 419.04 141.881 413.32 142.081 413.32Z" fill="#E0E0E0"/>
<path d="M418.069 356.26C423.389 353.51 429.639 353.16 435.549 354.13C438.719 354.66 442.019 355.6 444.179 357.99C446.339 360.38 446.739 364.56 444.269 366.6C442.789 367.82 440.739 368.01 438.819 367.98C434.199 367.93 429.079 367.12 425.389 369.9C423.279 371.48 421.879 374.12 419.389 374.9C416.899 375.68 414.149 374.21 412.849 371.99C411.647 369.674 411.382 366.985 412.109 364.48C412.404 362.744 413.095 361.099 414.128 359.673C415.162 358.247 416.51 357.079 418.069 356.26Z" fill="#EBEBEB"/>
<path d="M405.89 332.75C409.14 337.39 415.46 335.85 418.39 333.02C421.32 330.19 422.56 326.08 423.68 322.16C426.26 313.22 428.85 303.83 426.94 294.72C426.482 291.957 425.267 289.374 423.43 287.26C422.501 286.217 421.315 285.436 419.991 284.994C418.666 284.552 417.249 284.464 415.88 284.74C412.7 285.59 410.72 288.74 409.29 291.67C405.077 300.434 402.866 310.026 402.82 319.75C402.82 324.27 403.34 329.01 405.89 332.75Z" fill="#EBEBEB"/>
<path d="M397 339.41C400.53 335.22 401.2 329.11 399.63 323.87C398.06 318.63 394.51 314.15 390.42 310.51C385.608 306.226 380.007 302.921 373.93 300.78C371.579 299.833 369.052 299.404 366.52 299.52C365.255 299.593 364.026 299.975 362.942 300.632C361.858 301.289 360.951 302.202 360.3 303.29C358.56 306.6 360.23 310.61 362.03 313.89C365.203 319.656 368.82 325.167 372.85 330.37C376.1 334.56 379.85 338.69 384.76 340.58C389.67 342.47 394.85 342.24 397.47 338.81" fill="#EBEBEB"/>
<path d="M405.669 402.77C405.841 402.079 405.941 401.372 405.969 400.66C406.119 399.13 406.299 397.2 406.529 394.91C406.816 392.073 407.246 389.253 407.819 386.46C408.572 383.049 409.598 379.705 410.889 376.46C412.156 373.236 413.87 370.207 415.979 367.46C417.698 365.221 419.895 363.393 422.409 362.11C424.118 361.271 425.946 360.701 427.829 360.42C428.538 360.398 429.242 360.297 429.929 360.12C429.218 360.042 428.5 360.042 427.789 360.12C425.833 360.269 423.92 360.767 422.139 361.59C419.494 362.841 417.174 364.685 415.359 366.98C413.153 369.768 411.374 372.869 410.079 376.18C408.787 379.463 407.784 382.853 407.079 386.31C406.534 389.135 406.157 391.99 405.949 394.86C405.769 397.3 405.699 399.28 405.669 400.65C405.595 401.355 405.595 402.065 405.669 402.77Z" fill="#E0E0E0"/>
<path d="M406.07 398.34C406.13 398.01 406.15 397.674 406.13 397.34C406.13 396.61 406.13 395.68 406.13 394.54C406.13 392.12 406.13 388.6 406.25 384.26C406.47 375.58 407.25 366.26 408.66 353.06C410.03 340.68 411.86 326.26 413.8 316.89C414.21 314.76 414.63 312.84 415.03 311.16C415.43 309.48 415.72 308.03 416.03 306.86C416.34 305.69 416.51 304.86 416.68 304.14C416.77 303.813 416.83 303.478 416.86 303.14C416.707 303.431 416.593 303.74 416.52 304.06C416.3 304.76 416.03 305.65 415.7 306.74C415.37 307.83 414.97 309.34 414.55 311.02C414.13 312.7 413.65 314.61 413.2 316.74C410.798 327.822 408.992 339.024 407.79 350.3C406.35 363.5 405.7 375.52 405.64 384.22C405.59 388.57 405.64 392.09 405.79 394.52C405.86 395.66 405.92 396.59 405.96 397.32C405.954 397.663 405.991 398.006 406.07 398.34Z" fill="#E0E0E0"/>
<path d="M406.131 375.16C406.207 374.188 406.207 373.212 406.131 372.24C406.021 370.36 405.761 367.64 405.231 364.32C404.593 360.428 403.735 356.575 402.661 352.78C401.399 348.111 399.785 343.544 397.831 339.12C394.485 330.965 389.683 323.486 383.661 317.05C382.61 315.95 381.495 314.915 380.321 313.95C379.811 313.52 379.321 313.09 378.901 312.75L377.611 311.86C376.832 311.266 376.006 310.737 375.141 310.28C375.001 310.47 378.631 312.6 383.211 317.48C389.036 323.973 393.71 331.413 397.031 339.48C398.941 343.873 400.555 348.39 401.861 353C403.131 357.24 403.971 361.14 404.611 364.42C405.251 367.7 405.561 370.42 405.771 372.27C405.813 373.241 405.933 374.208 406.131 375.16Z" fill="#E0E0E0"/>
<path d="M382.17 412.53L384.5 444.35H425.37L427.7 412.53H382.17Z" fill="#EBEBEB"/>
<path d="M432.571 399.99H378.221V412.53H432.571V399.99Z" fill="#EBEBEB"/>
<path d="M378.221 443.13V446.61H380.781H431.681V443.13H378.221Z" fill="#E0E0E0"/>
<path d="M383.279 452.34L380.779 446.23H429.729L426.809 452.34H383.279Z" fill="#E0E0E0"/>
<path d="M426.941 422.93C426.89 423.034 426.827 423.132 426.751 423.22C426.581 423.44 426.381 423.7 426.141 424.03L423.751 427.08L423.651 427.22L423.551 427.07C422.051 425 420.051 422.24 417.701 418.98H418.001L412.241 427.14L412.061 427.39L411.861 427.15L405.061 419H405.451L405.081 419.47L399.001 427.15L398.791 427.41L398.611 427.14C396.531 424.21 394.611 421.46 392.841 418.99H393.181L386.081 427.08L385.961 427.22L385.861 427.06L383.641 423.33C383.401 422.92 383.221 422.59 383.071 422.33C382.997 422.221 382.936 422.103 382.891 421.98C382.983 422.073 383.063 422.177 383.131 422.29L383.761 423.29L386.091 426.96H385.871L392.871 418.77L393.041 418.57L393.201 418.79L399.021 426.91H398.621L404.721 419.24L405.091 418.76L405.291 418.52L405.491 418.76L412.301 426.9H411.921L417.741 418.78L417.911 418.54L418.071 418.78L423.801 426.96H423.591C424.641 425.7 425.461 424.71 426.071 423.96L426.731 423.19C426.851 423 426.931 422.92 426.941 422.93Z" fill="#F5F5F5"/>
<path d="M428.27 412.32C428.27 412.46 418.02 412.57 405.39 412.57C392.76 412.57 382.51 412.46 382.51 412.32C382.51 412.18 392.75 412.07 405.39 412.07C418.03 412.07 428.27 412.18 428.27 412.32Z" fill="#F5F5F5"/>
<path d="M195.21 80.8398C195.21 80.8398 195.12 80.8398 194.97 80.7698L194.31 80.5098L191.79 79.4598L182.54 75.4598L152.14 62.2198L151.08 61.7498H151.3L121.51 74.5398L112.51 78.3198L110.05 79.3198C109.769 79.4485 109.478 79.5522 109.18 79.6298C109.445 79.4715 109.723 79.3344 110.01 79.2198L112.43 78.1198L121.43 74.1698L151.15 61.2798H151.26H151.37L152.43 61.7398L182.77 75.1398L191.94 79.2498L194.42 80.3998L195.06 80.7098C195.115 80.7471 195.165 80.7907 195.21 80.8398Z" fill="#E0E0E0"/>
<path d="M242.63 76.48H47.3398V222.71H242.63V76.48Z" fill="#E0E0E0"/>
<path d="M236.54 83.2798H54.1699V216.7H236.54V83.2798Z" fill="#FAFAFA"/>
<path d="M94.4492 141.57C94.4492 141.57 94.6392 163.96 95.7792 170.8L123.869 169.47C123.869 169.47 121.409 147.47 122.359 141.57H94.4492Z" fill="#E0E0E0"/>
<path d="M108.289 144.73H108.699C109.09 144.715 109.482 144.736 109.869 144.79C110.485 144.881 111.084 145.06 111.649 145.32C112.397 145.69 113.058 146.215 113.589 146.86C114.241 147.644 114.703 148.568 114.939 149.56C115.159 150.722 115.058 151.921 114.649 153.03C114.44 153.633 114.175 154.215 113.859 154.77C113.523 155.334 113.223 155.919 112.959 156.52C112.399 157.795 112.015 159.141 111.819 160.52V160.61H111.729H108.959H106.049H105.939V160.51C105.814 159.138 105.35 157.818 104.589 156.67C104.249 156.09 103.879 155.56 103.589 155.01C103.226 154.492 102.892 153.955 102.589 153.4C102.076 152.338 101.922 151.138 102.149 149.98C102.312 148.981 102.684 148.027 103.239 147.18C103.713 146.5 104.336 145.935 105.059 145.53C105.952 145.056 106.932 144.767 107.939 144.68H108.339C108.339 144.68 108.339 144.68 108.239 144.68H107.939C107.557 144.725 107.18 144.799 106.809 144.9C106.218 145.054 105.649 145.286 105.119 145.59C104.411 145.99 103.806 146.548 103.349 147.22C102.833 148.059 102.492 148.995 102.349 149.97C102.131 151.092 102.285 152.254 102.789 153.28C103.095 153.827 103.429 154.357 103.789 154.87C104.139 155.4 104.509 155.95 104.849 156.53C105.638 157.704 106.117 159.06 106.239 160.47L106.129 160.36H109.039H111.819L111.709 160.46C111.909 159.063 112.299 157.701 112.869 156.41C113.144 155.804 113.451 155.213 113.789 154.64C114.1 154.098 114.361 153.529 114.569 152.94C114.974 151.865 115.081 150.701 114.879 149.57C114.651 148.602 114.21 147.697 113.589 146.92C113.073 146.283 112.429 145.762 111.699 145.39C111.146 145.122 110.556 144.937 109.949 144.84C109.568 144.782 109.184 144.748 108.799 144.74H108.489C108.329 144.74 108.289 144.74 108.289 144.73Z" fill="white"/>
<path d="M109.729 160.34C109.727 160.31 109.727 160.28 109.729 160.25V159.99C109.729 159.76 109.639 159.42 109.579 158.99C109.449 158.11 109.259 156.85 109.139 155.28C109.139 154.89 109.079 154.48 109.069 154.05C109.044 153.6 109.044 153.15 109.069 152.7C109.08 152.217 109.185 151.742 109.379 151.3C109.595 150.823 109.98 150.442 110.459 150.23C110.714 150.123 110.996 150.093 111.268 150.145C111.54 150.196 111.791 150.327 111.989 150.52C112.095 150.618 112.178 150.737 112.233 150.87C112.288 151.003 112.314 151.146 112.309 151.29C112.303 151.58 112.205 151.86 112.029 152.09C111.848 152.324 111.616 152.512 111.349 152.64C111.085 152.764 110.806 152.855 110.519 152.91C109.348 153.149 108.144 153.19 106.959 153.03C106.666 152.99 106.38 152.909 106.109 152.79C105.845 152.671 105.607 152.501 105.409 152.29C105.206 152.078 105.065 151.816 104.999 151.53C104.936 151.25 104.972 150.957 105.099 150.7C105.215 150.441 105.426 150.237 105.689 150.13C105.814 150.076 105.948 150.049 106.084 150.049C106.22 150.049 106.354 150.076 106.479 150.13C106.721 150.239 106.928 150.412 107.079 150.63C107.22 150.844 107.322 151.081 107.379 151.33C107.464 151.805 107.511 152.287 107.519 152.77L107.659 155.34C107.729 156.91 107.799 158.18 107.839 159.07C107.839 159.5 107.839 159.84 107.839 160.07V160.42C107.841 160.39 107.841 160.36 107.839 160.33C107.839 160.27 107.839 160.18 107.839 160.07C107.839 159.96 107.839 159.49 107.779 159.07C107.779 158.18 107.649 156.91 107.559 155.34C107.559 154.56 107.469 153.7 107.419 152.77C107.413 152.293 107.363 151.818 107.269 151.35C107.22 151.111 107.125 150.883 106.989 150.68C106.841 150.476 106.645 150.312 106.419 150.2C106.304 150.151 106.18 150.125 106.054 150.125C105.929 150.125 105.805 150.151 105.689 150.2C105.446 150.301 105.249 150.49 105.139 150.73C105.024 150.973 104.992 151.247 105.049 151.51C105.117 151.776 105.251 152.02 105.439 152.22C105.845 152.62 106.373 152.874 106.939 152.94C107.526 153.017 108.118 153.044 108.709 153.02C109.301 153.004 109.889 152.937 110.469 152.82C110.75 152.766 111.022 152.675 111.279 152.55C111.533 152.428 111.755 152.25 111.929 152.03C112.094 151.814 112.189 151.552 112.199 151.28C112.199 151.148 112.172 151.017 112.12 150.895C112.069 150.773 111.994 150.663 111.899 150.57C111.711 150.39 111.475 150.269 111.22 150.219C110.965 150.169 110.701 150.194 110.459 150.29C110.015 150.49 109.66 150.846 109.459 151.29C109.269 151.726 109.164 152.194 109.149 152.67C109.149 153.13 109.149 153.57 109.149 154C109.149 154.43 109.149 154.84 109.219 155.24C109.339 156.81 109.519 158.07 109.629 158.94C109.689 159.38 109.739 159.71 109.769 159.94V160.2C109.761 160.248 109.748 160.295 109.729 160.34Z" fill="white"/>
<path d="M106 160.49C106.046 160.798 106.072 161.108 106.08 161.42C106.08 162.086 106.12 162.896 106.2 163.85V163.79L108.1 166H108L110.19 165.88H110.1L111.18 164.56L111.73 163.89V163.98C111.73 162.69 111.67 161.48 111.65 160.38L111.77 160.49H107.68H106C106.129 160.471 106.261 160.471 106.39 160.49L107.54 160.43L111.7 160.27H111.82V160.39C111.82 161.5 111.89 162.71 111.93 163.99V164C111.75 164.22 111.57 164.45 111.38 164.67L110.29 166H110.23L108.04 166.11H108L106.14 163.9C106.14 162.9 106.14 162.1 106.14 161.4C106.075 161.099 106.029 160.796 106 160.49Z" fill="white"/>
<path d="M111.68 163.65C111.68 163.65 111.6 163.65 111.47 163.56C111.284 163.477 111.094 163.403 110.9 163.34C110.258 163.116 109.58 163.014 108.9 163.04C108.213 163.055 107.535 163.197 106.9 163.46L106.35 163.72L106.15 163.82C106.202 163.766 106.263 163.722 106.33 163.69C106.508 163.582 106.691 163.485 106.88 163.4C107.511 163.12 108.191 162.967 108.88 162.95C109.562 162.925 110.243 163.037 110.88 163.28C111.073 163.349 111.26 163.432 111.44 163.53L111.68 163.65Z" fill="white"/>
<path d="M111.67 162.78L111.47 162.69L110.9 162.46C110.257 162.242 109.58 162.14 108.9 162.16C108.215 162.185 107.538 162.327 106.9 162.58C106.66 162.68 106.48 162.77 106.35 162.84L106.15 162.94L106.33 162.81C106.506 162.702 106.69 162.609 106.88 162.53C107.51 162.246 108.19 162.09 108.88 162.07C109.562 162.055 110.24 162.167 110.88 162.4C111.12 162.5 111.31 162.59 111.44 162.66C111.57 162.73 111.68 162.77 111.67 162.78Z" fill="white"/>
<path d="M111.62 161.94L111.42 161.86C111.28 161.8 111.09 161.71 110.85 161.63C110.206 161.412 109.529 161.311 108.85 161.33C108.163 161.344 107.484 161.486 106.85 161.75C106.61 161.85 106.43 161.94 106.3 162.01L106.1 162.11L106.28 161.98C106.456 161.87 106.64 161.773 106.83 161.69C107.462 161.415 108.141 161.262 108.83 161.24C109.511 161.226 110.189 161.337 110.83 161.57C111.022 161.644 111.209 161.73 111.39 161.83C111.473 161.851 111.551 161.889 111.62 161.94Z" fill="white"/>
<path d="M63.1699 105C63.1699 105 63.3599 127.4 64.4999 134.23L92.5899 132.9C92.5899 132.9 90.1199 110.9 91.0699 105H63.1699Z" fill="#EBEBEB"/>
<path d="M86.8405 114.36C83.7227 114.821 80.5807 115.102 77.4305 115.2C74.2893 115.489 71.1334 115.586 67.9805 115.49C71.099 115.034 74.2406 114.754 77.3905 114.65C80.5323 114.372 83.6875 114.275 86.8405 114.36Z" fill="white"/>
<path d="M86.8402 119.1C83.7232 119.569 80.581 119.853 77.4302 119.95C74.2917 120.227 71.1399 120.324 67.9902 120.24C71.108 119.778 74.2499 119.497 77.4002 119.4C80.5384 119.116 83.6904 119.016 86.8402 119.1Z" fill="white"/>
<path d="M82.0701 123.76C80.3082 124.14 78.5124 124.341 76.7101 124.36C74.9214 124.542 73.1188 124.542 71.3301 124.36C73.0887 123.98 74.8811 123.779 76.6801 123.76C78.4721 123.578 80.278 123.578 82.0701 123.76Z" fill="white"/>
<path d="M61.8398 170.85C61.8398 170.85 62.0298 193.24 63.1698 200.08L91.2598 198.75C91.2598 198.75 88.7898 176.75 89.7398 170.85H61.8398Z" fill="#EBEBEB"/>
<path d="M85.5102 180.25C82.3929 180.718 79.2508 181.002 76.1002 181.1C72.9616 181.377 69.8098 181.474 66.6602 181.39C69.7745 180.927 72.9131 180.647 76.0602 180.55C79.2016 180.266 82.357 180.166 85.5102 180.25Z" fill="white"/>
<path d="M85.5102 185C82.3925 185.463 79.2505 185.743 76.1002 185.84C72.9616 186.118 69.8098 186.214 66.6602 186.13C69.7779 185.668 72.9199 185.387 76.0702 185.29C79.2087 185.012 82.3605 184.916 85.5102 185Z" fill="white"/>
<path d="M80.74 189.66C78.9815 190.039 77.1888 190.237 75.39 190.25C73.5996 190.449 71.7937 190.465 70 190.3C71.7586 189.92 73.551 189.719 75.35 189.7C77.1405 189.501 78.9467 189.488 80.74 189.66Z" fill="white"/>
<path d="M138.609 110.89L141.389 175.49L222.029 176.46L218.409 111.74L138.609 110.89Z" fill="#EBEBEB"/>
<path d="M217.78 110.43H137.67V170.92H217.78V110.43Z" fill="#F5F5F5"/>
<path d="M217.779 170.92C217.779 170.92 217.779 170.53 217.779 169.79C217.779 169.05 217.779 167.97 217.779 166.57C217.779 163.73 217.779 159.57 217.719 154.33C217.719 143.78 217.649 128.69 217.599 110.43L217.829 110.65H137.729L138.009 110.38C138.009 132.13 138.009 152.73 138.009 170.87L137.759 170.62L195.539 170.74L211.979 170.81H216.349H217.479H217.869H216.399L211.999 171L195.629 171.07L137.629 171.19H137.379V170.95C137.379 152.81 137.379 132.21 137.379 110.46V110.18H137.659H217.759H217.999V110.41C217.999 128.72 217.909 143.87 217.879 154.41C217.879 159.66 217.879 163.77 217.819 166.6C217.819 167.98 217.819 169.04 217.819 169.78C217.799 170.56 217.779 170.92 217.779 170.92Z" fill="#E0E0E0"/>
<path d="M179.81 123.24H147.34V164.11H179.81V123.24Z" fill="#F5F5F5"/>
<path d="M179.809 164.11C179.798 164.04 179.798 163.969 179.809 163.9V163.32C179.809 162.78 179.809 162.04 179.809 161.09C179.809 159.09 179.809 156.28 179.749 152.7C179.749 145.51 179.669 135.33 179.619 123.24L179.869 123.49H147.399C147.329 123.49 147.919 122.97 147.669 123.22V134.33C147.669 137.96 147.669 141.5 147.669 144.93C147.669 151.8 147.669 158.23 147.669 164.07L147.449 163.84L170.959 163.96L177.549 164.02H179.299H179.919C179.729 164.034 179.539 164.034 179.349 164.02H177.649L171.099 164.08L147.449 164.2H147.219V163.97C147.219 158.13 147.219 151.7 147.219 144.83C147.219 141.4 147.219 137.83 147.219 134.23V123.26C146.969 123.5 147.549 122.91 147.499 122.98H179.969H180.219V123.23C180.169 135.38 180.119 145.62 180.089 152.85L180.029 161.18C180.029 162.113 180.029 162.843 180.029 163.37C180.029 163.59 180.029 163.77 180.029 163.92C179.964 163.992 179.89 164.056 179.809 164.11Z" fill="#E0E0E0"/>
<path d="M210.81 113.89H148.58V119.78H210.81V113.89Z" fill="#F5F5F5"/>
<path d="M210.809 119.78C210.809 119.78 210.809 119.63 210.809 119.38C210.809 119.13 210.809 118.71 210.809 118.23C210.809 117.23 210.809 115.76 210.739 113.89L210.849 114C200.359 114.1 176.439 114.17 148.619 114.17C149.169 113.61 148.769 114.01 148.899 113.89V119.76L148.629 119.48L192.739 119.6L205.979 119.68H209.579H210.529C210.639 119.672 210.75 119.672 210.859 119.68H210.569H209.659H206.119L192.939 119.77L148.629 119.88H148.359V119.61C148.359 118.67 148.359 117.7 148.359 116.72V113.72L148.639 113.44C176.459 113.44 200.379 113.51 210.869 113.61H210.989V113.72C210.989 115.61 210.989 117.09 210.929 118.13C210.929 118.6 210.929 118.96 210.929 119.24C210.921 119.426 210.881 119.608 210.809 119.78Z" fill="#E0E0E0"/>
<path d="M210.809 123.24H183.779V147.87H210.809V123.24Z" fill="#F5F5F5"/>
<path d="M210.809 147.87C210.809 147.87 210.809 147.7 210.809 147.4V146.06C210.809 144.86 210.809 143.17 210.749 141.06C210.749 136.72 210.679 130.61 210.629 123.26L210.859 123.5H183.859L184.129 123.23V129.84C184.129 132 184.129 134.12 184.129 136.19C184.129 140.32 184.129 144.19 184.129 147.85L183.879 147.61L203.379 147.73L208.909 147.8H210.389C210.562 147.785 210.736 147.785 210.909 147.8C210.753 147.814 210.595 147.814 210.439 147.8H209.009L203.539 147.86L183.879 147.98H183.639V147.73C183.639 144.12 183.639 140.2 183.639 136.07C183.639 134 183.639 131.88 183.639 129.72V123.11C183.389 123.35 183.969 122.77 183.919 122.83H210.919H211.159V123.06C211.109 130.47 211.069 136.64 211.039 141.06C211.039 143.16 210.989 144.83 210.979 146.06C210.979 146.586 210.979 147.016 210.979 147.35C210.946 147.53 210.889 147.705 210.809 147.87Z" fill="#E0E0E0"/>
<path d="M210.809 151.73H183.779V164.11H210.809V151.73Z" fill="#F5F5F5"/>
<path d="M210.81 164.11C210.81 164.11 210.81 163.79 210.81 163.21L210.76 160.73C210.76 158.54 210.7 155.49 210.65 151.73L210.85 151.93L183.85 152.01C183.6 152.26 184.18 151.67 184.12 151.74V158.11C184.12 160.18 184.12 162.19 184.12 164.11L183.85 163.85L203.18 163.97L208.82 164.05H210.34H210.88C210.721 164.065 210.56 164.065 210.4 164.05H208.93L203.36 164.13L183.85 164.25H183.59V163.99C183.59 162.07 183.59 160.06 183.59 157.99V151.62C183.53 151.62 184.11 151.09 183.87 151.34L210.87 151.41H211V151.61C211 155.42 210.92 158.52 210.9 160.73C210.9 161.73 210.9 162.56 210.9 163.17C210.901 163.485 210.871 163.8 210.81 164.11Z" fill="#E0E0E0"/>
<path d="M179 123.31C168.94 137.2 157.38 150.22 147.33 164.11L179 123.31Z" fill="white"/>
<path d="M147.34 164.11C147.34 164.11 147.41 163.94 147.6 163.65L148.45 162.41C149.19 161.33 150.3 159.8 151.7 157.93C154.49 154.17 158.48 149.09 162.96 143.54C167.44 137.99 171.47 132.95 174.33 129.26L177.72 124.89L178.65 123.7C178.87 123.44 178.99 123.3 179.01 123.31C178.937 123.473 178.847 123.627 178.74 123.77L177.89 125.01C177.15 126.09 176.04 127.62 174.64 129.5C171.85 133.25 167.86 138.33 163.38 143.88C158.9 149.43 154.88 154.47 152.01 158.16L148.62 162.54L147.69 163.72C147.589 163.863 147.471 163.994 147.34 164.11Z" fill="#E0E0E0"/>
<path d="M179.809 164.11C179.689 164.2 172.319 155.11 163.359 143.85C154.399 132.59 147.219 123.34 147.359 123.24C147.499 123.14 154.839 132.24 163.809 143.51C172.779 154.78 179.929 164 179.809 164.11Z" fill="#E0E0E0"/>
<path d="M141.39 123.33C141.39 124.335 141.093 125.317 140.534 126.152C139.976 126.988 139.183 127.639 138.255 128.023C137.326 128.408 136.305 128.508 135.319 128.312C134.334 128.116 133.429 127.633 132.718 126.922C132.008 126.212 131.524 125.306 131.328 124.321C131.132 123.336 131.233 122.314 131.617 121.386C132.002 120.458 132.653 119.664 133.488 119.106C134.324 118.548 135.306 118.25 136.31 118.25C137.657 118.253 138.948 118.789 139.9 119.741C140.852 120.693 141.388 121.984 141.39 123.33Z" fill="#E0E0E0"/>
<path d="M224.48 111C224.48 112.005 224.182 112.987 223.624 113.822C223.066 114.658 222.273 115.309 221.344 115.693C220.416 116.078 219.395 116.178 218.409 115.982C217.424 115.786 216.519 115.302 215.808 114.592C215.098 113.882 214.614 112.976 214.418 111.991C214.222 111.006 214.323 109.984 214.707 109.056C215.091 108.128 215.743 107.334 216.578 106.776C217.413 106.218 218.396 105.92 219.4 105.92C220.747 105.923 222.037 106.459 222.989 107.411C223.942 108.363 224.478 109.653 224.48 111Z" fill="#E0E0E0"/>
<path d="M423.2 146.38H364.66V231.24H423.2V146.38Z" fill="#E0E0E0"/>
<path d="M420.27 146.38H361.73V231.24H420.27V146.38Z" fill="#F5F5F5"/>
<path d="M413 155.57H369V222.05H413V155.57Z" fill="white"/>
<path d="M412.999 222.05C412.999 222.05 412.999 221.93 412.999 221.72C412.999 221.51 412.999 221.19 412.999 220.78C412.999 219.94 412.999 218.72 412.999 217.13C412.999 213.95 412.999 209.3 412.999 203.44C412.999 191.72 412.999 175.12 412.929 155.57L413.079 155.72H368.999L369.159 155.56C369.159 180.64 369.159 203.76 369.159 222.04L369.029 221.91L401.029 221.98H409.879H412.199H413.009H412.229H409.929H401.109L369.009 222.04H368.879V221.92C368.879 203.64 368.879 180.52 368.879 155.44V155.28H368.999H412.999H413.139V155.42C413.139 175.01 413.089 191.64 413.069 203.42C413.069 209.27 413.069 213.9 413.069 217.08C413.069 218.65 413.069 219.86 413.069 220.69C413.069 221.1 413.069 221.4 413.069 221.62L412.999 222.05Z" fill="#E0E0E0"/>
<path d="M420.43 146.38C420.148 146.918 419.813 147.428 419.43 147.9C418.75 148.81 417.78 150.04 416.68 151.38C415.58 152.72 414.55 153.9 413.79 154.75C413.402 155.226 412.97 155.664 412.5 156.06C412.834 155.544 413.208 155.056 413.62 154.6L416.44 151.18L419.25 147.76C419.609 147.272 420.003 146.81 420.43 146.38Z" fill="#E0E0E0"/>
<path d="M413.221 221.83C415.405 225.31 417.978 228.531 420.891 231.43L413.221 221.83Z" fill="white"/>
<path d="M420.891 231.43C420.404 231.073 419.958 230.664 419.561 230.21C418.538 229.174 417.57 228.086 416.661 226.95C415.752 225.813 414.901 224.632 414.111 223.41C413.759 222.916 413.46 222.387 413.221 221.83C413.614 222.288 413.975 222.772 414.301 223.28C414.941 224.19 415.851 225.42 416.911 226.75C417.971 228.08 418.981 229.23 419.721 230.06C420.146 230.485 420.537 230.943 420.891 231.43Z" fill="#E0E0E0"/>
<path d="M361.721 231.17L369.391 221.71L361.721 231.17Z" fill="white"/>
<path d="M369.39 221.71C369.45 221.71 367.79 223.93 365.68 226.54C364.429 228.153 363.094 229.698 361.68 231.17C364.069 227.884 366.629 224.727 369.35 221.71H369.39Z" fill="#E0E0E0"/>
<path d="M361.73 146.38C363.044 147.8 364.286 149.285 365.45 150.83C366.692 152.315 367.85 153.867 368.92 155.48C367.602 154.053 366.361 152.558 365.2 151C363.956 149.528 362.797 147.985 361.73 146.38Z" fill="#E0E0E0"/>
<path d="M399.291 169.07H384.561V210.9H399.291V169.07Z" fill="#E0E0E0"/>
<path d="M409.708 56.2117L401.328 56.2571L401.554 97.9565L409.934 97.9111L409.708 56.2117Z" fill="#E0E0E0"/>
<path d="M350.43 56.3228L328.73 56.4402L328.855 79.4598L350.555 79.3424L350.43 56.3228Z" fill="#EBEBEB"/>
<path d="M372.018 56.2158L350.318 56.3333L350.443 79.3529L372.143 79.2355L372.018 56.2158Z" fill="#F5F5F5"/>
<path d="M328.761 62.8199C343.181 62.9399 357.641 62.8199 372.061 62.6199C372.122 62.6199 372.18 62.5957 372.223 62.5525C372.266 62.5094 372.291 62.4509 372.291 62.3899C372.291 62.3289 372.266 62.2704 372.223 62.2273C372.18 62.1841 372.122 62.1599 372.061 62.1599C357.627 62.0799 343.194 62.1666 328.761 62.4199C328.708 62.4199 328.657 62.441 328.619 62.4785C328.582 62.516 328.561 62.5669 328.561 62.6199C328.561 62.6729 328.582 62.7238 328.619 62.7613C328.657 62.7988 328.708 62.8199 328.761 62.8199Z" fill="#E0E0E0"/>
<path d="M354.623 78.9698L315.193 79.1831L315.295 97.9428L354.724 97.7295L354.623 78.9698Z" fill="#EBEBEB"/>
<path d="M393.871 78.7574L354.441 78.9707L354.543 97.7304L393.972 97.5171L393.871 78.7574Z" fill="#F5F5F5"/>
<path d="M315.22 84.4098C341.42 84.7098 367.7 84.4098 393.89 84.0198C393.951 84.0198 394.009 83.9956 394.052 83.9524C394.095 83.9093 394.12 83.8508 394.12 83.7898C394.12 83.7288 394.095 83.6703 394.052 83.6272C394.009 83.584 393.951 83.5598 393.89 83.5598C367.69 83.4198 341.41 83.4398 315.22 84.0098C315.167 84.0098 315.116 84.0309 315.078 84.0684C315.041 84.1059 315.02 84.1567 315.02 84.2098C315.02 84.2628 315.041 84.3137 315.078 84.3512C315.116 84.3887 315.167 84.4098 315.22 84.4098Z" fill="#E0E0E0"/>
<path d="M453.24 97.95H300.48V104.67H453.24V97.95Z" fill="#E0E0E0"/>
<path d="M331.69 101.18H325.49V124.11H331.69V101.18Z" fill="#E0E0E0"/>
<path d="M424.261 101.18H418.061V124.11H424.261V101.18Z" fill="#E0E0E0"/>
<path d="M417.884 40.6676L409.504 40.7129L409.814 98.062L418.194 98.0167L417.884 40.6676Z" fill="#EBEBEB"/>
<path d="M430.981 51.3465L417.961 51.417L418.212 97.8963L431.232 97.8259L430.981 51.3465Z" fill="#F5F5F5"/>
<path d="M430.891 60.3099C426.563 60.6156 422.219 60.6156 417.891 60.3099C422.219 60.0175 426.562 60.0175 430.891 60.3099Z" fill="#E0E0E0"/>
<path d="M430.891 58.3599C426.563 58.6657 422.219 58.6657 417.891 58.3599C422.219 58.0675 426.562 58.0675 430.891 58.3599Z" fill="#E0E0E0"/>
<path d="M430.891 90.8399C426.563 91.1456 422.219 91.1456 417.891 90.8399C422.219 90.5475 426.562 90.5475 430.891 90.8399Z" fill="#E0E0E0"/>
<path d="M430.891 88.89C426.563 89.1957 422.219 89.1957 417.891 88.89C422.219 88.5975 426.562 88.5975 430.891 88.89Z" fill="#E0E0E0"/>
<path d="M424.589 84.6299C424.459 84.6299 424.359 79.9399 424.359 74.1599C424.359 68.3799 424.459 63.6899 424.589 63.6899C424.719 63.6899 424.809 68.3799 424.809 74.1599C424.809 79.9399 424.709 84.6299 424.589 84.6299Z" fill="#E0E0E0"/>
<path d="M445.199 62.7698H431.029V97.8498H445.199V62.7698Z" fill="#EBEBEB"/>
<path d="M438.52 88.76C438.098 88.7846 437.676 88.7197 437.281 88.5698C436.886 88.4198 436.527 88.1881 436.228 87.8897C435.928 87.5914 435.696 87.2332 435.544 86.8386C435.393 86.444 435.327 86.0219 435.35 85.6C435.327 85.1401 435.421 84.6819 435.622 84.2677C435.823 83.8535 436.125 83.4966 436.5 83.23L436.82 83.68C436.52 83.8993 436.278 84.1891 436.116 84.5239C435.953 84.8587 435.876 85.2282 435.89 85.6C435.89 86.2975 436.167 86.9665 436.661 87.4597C437.154 87.9529 437.823 88.23 438.52 88.23C439.218 88.23 439.887 87.9529 440.38 87.4597C440.873 86.9665 441.15 86.2975 441.15 85.6C441.165 85.2271 441.087 84.8564 440.923 84.5212C440.759 84.186 440.514 83.897 440.21 83.68L440.54 83.23C440.911 83.5002 441.209 83.8581 441.408 84.2716C441.607 84.6852 441.701 85.1415 441.68 85.6C441.703 86.021 441.637 86.4422 441.487 86.8361C441.336 87.2299 441.104 87.5876 440.806 87.8858C440.508 88.184 440.15 88.4159 439.756 88.5666C439.362 88.7172 438.941 88.7831 438.52 88.76Z" fill="#FAFAFA"/>
<path d="M440.88 82.3599L440.41 82.0899C440.902 81.4432 441.165 80.6521 441.16 79.8399C441.16 78.5299 440.69 77.9999 439.99 77.9999C438.17 77.9999 439.51 82.1399 437.06 82.1399C436.12 82.1399 435.35 81.3499 435.35 79.7699C435.338 79.012 435.55 78.2674 435.96 77.6299L436.44 77.9099C436.063 78.4597 435.867 79.1135 435.88 79.7799C435.88 80.9999 436.38 81.5399 437.05 81.5399C438.92 81.5399 437.6 77.3999 439.98 77.3999C440.98 77.3999 441.68 78.2799 441.68 79.8699C441.71 80.7676 441.428 81.6479 440.88 82.3599Z" fill="#FAFAFA"/>
<path d="M440.88 76.6499L440.41 76.3799C440.902 75.7333 441.165 74.9422 441.16 74.1299C441.16 72.8199 440.69 72.2899 439.99 72.2899C438.17 72.2899 439.51 76.4199 437.06 76.4199C436.12 76.4199 435.35 75.6399 435.35 74.0599C435.338 73.302 435.55 72.5574 435.96 71.9199L436.44 72.1899C436.064 72.744 435.869 73.4006 435.88 74.0699C435.88 75.2899 436.38 75.8299 437.05 75.8299C438.92 75.8299 437.6 71.6899 439.98 71.6899C440.98 71.6899 441.68 72.5599 441.68 74.1499C441.712 75.0509 441.429 75.9349 440.88 76.6499Z" fill="#FAFAFA"/>
<path d="M413.57 52.8898C414.901 52.8898 415.98 51.8108 415.98 50.4798C415.98 49.1488 414.901 48.0698 413.57 48.0698C412.239 48.0698 411.16 49.1488 411.16 50.4798C411.16 51.8108 412.239 52.8898 413.57 52.8898Z" fill="#E0E0E0"/>
<path d="M414.31 57.0999H412.82V91.2199H414.31V57.0999Z" fill="#E0E0E0"/>
<path d="M470.809 454C470.809 454.14 374.219 454.26 255.099 454.26C135.979 454.26 39.3691 454.16 39.3691 454C39.3691 453.84 135.939 453.74 255.099 453.74C374.259 453.74 470.809 453.88 470.809 454Z" fill="#263238"/>
<path d="M156.18 110.24C140.13 135.48 141.18 170.48 158.72 194.71C170.41 210.87 187.94 221.71 201.86 235.97C215.78 250.23 226.36 271.28 219.01 289.82C211.53 308.69 189.62 316.36 173.22 328.32C155.126 341.499 142.842 361.177 138.948 383.221C135.055 405.265 139.855 427.96 152.34 446.54H322.76C322.76 446.54 352.7 389.49 314.21 346C275.72 302.51 255.05 301.81 256.47 273.29C257.89 244.77 277.85 235.52 289.26 224.82C300.67 214.12 356.26 189.19 323.47 110.23L156.18 110.24Z" fill="#FAFAFA"/>
<path d="M156.181 110.24H159.111H167.751H201.011L323.471 110.15H323.601V110.27C326.111 116.249 328.249 122.377 330.001 128.62C331.841 135.156 333.053 141.853 333.621 148.62C334.211 155.693 333.848 162.813 332.541 169.79C331.106 177.022 328.505 183.972 324.841 190.37C322.942 193.633 320.796 196.745 318.421 199.68C315.997 202.654 313.374 205.46 310.571 208.08C307.732 210.747 304.758 213.267 301.661 215.63C298.561 218.03 295.321 220.29 292.161 222.69C290.581 223.88 289.161 225.22 287.621 226.56C286.081 227.9 284.551 229.15 282.971 230.41C279.821 232.93 276.641 235.41 273.641 238.2C267.379 243.627 262.568 250.528 259.641 258.28C258.234 262.256 257.347 266.397 257.001 270.6C256.911 271.6 256.771 272.7 256.731 273.76C256.691 274.82 256.651 275.88 256.731 276.94C256.754 279.068 256.968 281.19 257.371 283.28C258.164 287.515 259.893 291.519 262.431 295C265.043 298.48 268.002 301.687 271.261 304.57C277.731 310.48 284.601 316.13 291.171 322.23C297.741 328.33 304.171 334.69 310.371 341.42C313.534 344.751 316.493 348.271 319.231 351.96C321.985 355.695 324.379 359.683 326.381 363.87C330.428 372.357 332.914 381.502 333.721 390.87C334.536 400.367 333.977 409.932 332.061 419.27C331.129 423.988 329.907 428.643 328.401 433.21C326.92 437.815 325.116 442.31 323.001 446.66L322.931 446.8H152.201L152.131 446.69C144.139 434.657 139.238 420.839 137.861 406.46C136.476 392.648 138.502 378.707 143.761 365.86C148.759 353.58 156.456 342.582 166.281 333.68C171.049 329.471 176.197 325.715 181.661 322.46C186.981 319.16 192.351 316.1 197.421 312.76C202.496 309.588 207.158 305.799 211.301 301.48C215.257 297.239 218.192 292.149 219.881 286.6C221.361 281.186 221.594 275.507 220.561 269.99C219.574 264.666 217.798 259.519 215.291 254.72C212.893 250.099 210.017 245.742 206.711 241.72C203.52 237.862 200.05 234.242 196.331 230.89C189.121 224.25 181.731 218.44 175.091 212.47C171.761 209.47 168.611 206.47 165.701 203.4C162.88 200.394 160.28 197.189 157.921 193.81C153.655 187.612 150.367 180.796 148.171 173.6C146.247 167.385 145.131 160.949 144.851 154.45C144.711 152.97 144.771 151.51 144.771 150.08C144.771 148.65 144.771 147.26 144.901 145.91C145.031 144.56 145.101 143.24 145.201 141.91C145.301 140.58 145.571 139.39 145.741 138.18C146.846 130.814 149.1 123.667 152.421 117C152.871 115.969 153.385 114.967 153.961 114L155.191 111.91C155.841 110.8 156.191 110.24 156.191 110.24L155.191 111.94L154.001 114C153.439 114.971 152.931 115.972 152.481 117C149.19 123.683 146.963 130.839 145.881 138.21C145.711 139.41 145.511 140.65 145.361 141.92C145.211 143.19 145.161 144.52 145.061 145.87C144.961 147.22 144.961 148.61 144.951 150.03C144.941 151.45 144.901 152.91 145.041 154.39C145.33 160.868 146.456 167.281 148.391 173.47C150.584 180.64 153.87 187.43 158.131 193.6C160.484 196.965 163.081 200.154 165.901 203.14C168.801 206.22 171.951 209.22 175.281 212.14C181.921 218.14 189.281 223.89 196.541 230.54C200.289 233.916 203.785 237.563 207.001 241.45C210.326 245.501 213.218 249.888 215.631 254.54C218.162 259.369 219.955 264.55 220.951 269.91C221.998 275.486 221.766 281.227 220.271 286.7C218.574 292.313 215.612 297.462 211.611 301.75C207.448 306.094 202.766 309.909 197.671 313.11C192.581 316.46 187.211 319.52 181.901 322.82C176.461 326.066 171.332 329.809 166.581 334C156.816 342.856 149.165 353.792 144.191 366C138.963 378.781 136.955 392.651 138.341 406.39C139.718 420.687 144.595 434.425 152.541 446.39L152.341 446.28H322.761L322.531 446.42C324.643 442.081 326.44 437.596 327.911 433C329.409 428.453 330.625 423.817 331.551 419.12C333.459 409.829 334.015 400.31 333.201 390.86C332.41 381.543 329.94 372.447 325.911 364.01C323.923 359.853 321.55 355.892 318.821 352.18C316.089 348.51 313.144 345.004 310.001 341.68C303.834 334.967 297.444 328.58 290.831 322.52C284.271 316.43 277.421 310.79 270.931 304.85C267.646 301.943 264.661 298.713 262.021 295.21C259.433 291.687 257.66 287.632 256.831 283.34C256.43 281.219 256.213 279.068 256.181 276.91C256.131 275.84 256.181 274.77 256.181 273.7C256.181 272.63 256.361 271.57 256.441 270.51C256.808 266.282 257.715 262.118 259.141 258.12C262.093 250.3 266.95 243.34 273.271 237.87C276.271 235.09 279.481 232.57 282.631 230.06C284.211 228.8 285.761 227.53 287.271 226.23C288.781 224.93 290.271 223.53 291.831 222.33C295.011 219.93 298.241 217.67 301.331 215.28C304.419 212.928 307.386 210.421 310.221 207.77C313.006 205.162 315.615 202.372 318.031 199.42C320.387 196.496 322.523 193.4 324.421 190.16C328.065 183.806 330.652 176.903 332.081 169.72C333.382 162.8 333.748 155.737 333.171 148.72C332.612 141.954 331.41 135.257 329.581 128.72C327.853 122.46 325.742 116.311 323.261 110.31L323.431 110.42L201.041 110.33H167.761H159.101L156.181 110.24Z" fill="#263238"/>
<path d="M316.671 156.53C341.771 160.66 302.201 205.12 279.791 222.66C266.791 232.81 252.891 243.83 246.731 259.11C239.731 276.45 244.921 295.93 241.541 313.37C241.432 313.971 241.099 314.509 240.61 314.876C240.121 315.242 239.512 315.41 238.904 315.345C238.296 315.281 237.735 314.989 237.334 314.528C236.933 314.067 236.721 313.471 236.741 312.86C236.901 301.41 236.601 289.97 234.741 278.7C232.051 262.7 225.911 246.91 214.741 235.2C205.591 225.63 193.601 219.28 183.851 210.34C169.611 197.29 154.981 180.46 153.551 161.2C153.551 161.2 180.891 139.2 196.071 141.95C213.811 145.2 231.271 172.57 258.751 169.44C277.871 167.25 287.561 151.75 316.671 156.53Z" fill="#F66E46"/>
<path d="M318.901 394.48C318.271 388.2 316.591 381.1 311.021 378.14C307.651 376.34 303.541 376.54 299.841 377.51C296.141 378.48 292.671 380.17 289.011 381.26C281.735 383.399 273.965 383.151 266.841 380.55C260.031 378.05 254.191 373.55 247.841 369.97C241.491 366.39 234.121 363.77 227.081 365.52C214.941 368.52 208.621 383.16 196.621 386.69C191.281 388.25 185.551 387.37 180.131 386.15C174.711 384.93 169.261 383.34 163.711 383.55C159.351 383.71 154.821 385.22 151.771 388.2L151.691 388.29C151.183 388.787 150.721 389.33 150.311 389.91C146.591 394.91 145.991 401.54 147.141 407.6C148.421 414.39 151.591 420.66 154.991 426.67C158.991 433.75 163.551 440.79 170.171 445.51C178.351 451.34 188.621 447.32 198.631 448.11C221.961 449.95 247.061 451.2 270.401 449.4C282.731 448.4 294.281 449.78 304.061 442.21C310.941 436.89 315.421 428.87 317.581 420.45C319.741 412.03 319.771 403.13 318.901 394.48Z" fill="#F66E46"/>
<g opacity="0.24">
<path d="M274.862 382.46C273.552 384.46 272.982 387.18 274.252 389.22C275.522 391.26 277.252 393.13 277.792 395.48C278.662 399.16 276.442 402.76 274.792 406.17C271.738 412.267 270.584 419.14 271.482 425.9C272.428 432.682 275.93 438.846 281.272 443.13C283.642 444.96 286.722 446.38 289.582 445.48C292.272 444.64 294.002 441.91 294.582 439.14C295.162 436.37 294.672 433.52 294.322 430.73C292.693 417.727 293.03 404.553 295.322 391.65C295.702 389.5 296.062 387.04 294.702 385.33C293.72 384.334 292.475 383.64 291.112 383.33C285.912 381.6 280.302 383.52 274.912 382.5" fill="black"/>
</g>
<path d="M139.831 454.28C139.831 454.28 139.361 446.46 149.561 442.1H328.811C328.811 442.1 338.161 446.84 339.311 454.1L139.831 454.28Z" fill="#263238"/>
<path d="M325 111.19L324.71 111.32L156.16 110.24C156.16 110.24 155.56 109.86 154.67 109.15C153.619 108.327 152.853 107.195 152.478 105.914C152.103 104.633 152.139 103.267 152.58 102.007C153.021 100.748 153.846 99.6577 154.938 98.8906C156.03 98.1235 157.335 97.7176 158.67 97.73L322.27 99.05C329 99.11 331.12 108.31 325 111.19Z" fill="#263238"/>
<g opacity="0.24">
<path d="M298.001 175.49C298.341 176.14 297.071 177.49 294.661 179.69C292.251 181.89 288.661 184.78 284.201 188.41C278.846 192.834 273.163 196.846 267.201 200.41C263.497 202.555 259.6 204.346 255.561 205.76C253.372 206.517 251.138 207.135 248.871 207.61C246.49 208.116 244.072 208.43 241.641 208.55C236.714 208.818 231.782 208.139 227.111 206.55C222.981 205.048 219.057 203.032 215.431 200.55C212.071 198.33 209.181 196.13 206.431 194.02C203.681 191.91 201.231 189.88 199.011 187.96C190.161 180.29 185.501 174.65 186.401 173.56C187.301 172.47 193.601 176.02 203.401 182.02L211.401 186.92C214.271 188.66 217.341 190.59 220.481 192.37C223.597 194.199 226.899 195.691 230.331 196.82C233.843 197.872 237.511 198.305 241.171 198.1C248.851 197.7 256.301 195 262.751 191.88C269.201 188.76 275.041 185.12 280.101 182.28C284.105 179.917 288.292 177.877 292.621 176.18C295.791 175.07 297.711 174.86 298.001 175.49Z" fill="black"/>
</g>
<path d="M236.861 334.26C237.57 333.978 238.361 333.987 239.063 334.284C239.765 334.581 240.322 335.143 240.613 335.847C240.905 336.552 240.907 337.343 240.619 338.049C240.331 338.755 239.776 339.32 239.076 339.62C238.375 339.921 237.584 339.933 236.874 339.654C236.164 339.376 235.592 338.829 235.283 338.132C234.973 337.435 234.951 336.644 235.22 335.931C235.489 335.217 236.028 334.639 236.721 334.32" fill="#F66E46"/>
<path d="M176.581 203.38C176.362 203.2 176.161 202.999 175.981 202.78L174.351 201C173.661 200.21 172.751 199.29 171.821 198.12L168.641 194.12C167.551 192.58 166.321 190.92 165.081 189.12L163.251 186.21C162.941 185.71 162.611 185.21 162.311 184.68L161.431 183.06C158.77 178.343 156.685 173.324 155.221 168.11C153.751 162.9 152.957 157.523 152.861 152.11C152.861 150.86 152.931 149.65 152.951 148.46C152.951 147.87 152.951 147.29 153.031 146.72C153.111 146.15 153.151 145.59 153.211 145.04C153.341 143.94 153.421 142.87 153.571 141.85C153.721 140.83 153.931 139.85 154.101 138.94C154.381 137.07 154.881 135.44 155.231 133.94C155.421 133.22 155.571 132.54 155.761 131.94L156.311 130.27L157.081 127.98C157.155 127.707 157.255 127.443 157.381 127.19C157.34 127.469 157.273 127.743 157.181 128.01C157.011 128.59 156.791 129.36 156.501 130.33L156.001 132C155.831 132.61 155.691 133.29 155.511 134C155.191 135.45 154.721 137.09 154.511 139C154.351 139.92 154.191 140.89 154.021 141.9C153.851 142.91 153.811 143.97 153.691 145.07C153.691 145.62 153.581 146.17 153.521 146.74C153.461 147.31 153.521 147.89 153.461 148.47C153.461 149.65 153.381 150.85 153.391 152.09C153.489 157.471 154.272 162.817 155.721 168C157.177 173.176 159.235 178.163 161.851 182.86C162.141 183.4 162.431 183.94 162.711 184.48C162.991 185.02 163.341 185.48 163.641 186L165.441 188.91C166.661 190.75 167.871 192.41 168.931 193.91L172.051 197.91C172.951 199.1 173.841 200.03 174.501 200.85L176.061 202.7C176.249 202.915 176.422 203.143 176.581 203.38Z" fill="#263238"/>
<path d="M167.092 351.94C167.141 351.825 167.202 351.714 167.272 351.61L167.872 350.67C168.142 350.25 168.472 349.75 168.872 349.15L169.502 348.15C169.752 347.82 170.042 347.49 170.332 347.15L172.332 344.75C173.102 343.92 173.982 343.06 174.912 342.12C177.068 340.044 179.36 338.113 181.772 336.34C187.082 332.34 193.932 328.34 201.352 323.65C205.253 321.246 209.004 318.604 212.582 315.74C216.42 312.683 219.81 309.101 222.652 305.1C227.853 297.108 230.679 287.805 230.802 278.27C230.929 270.499 229.627 262.771 226.962 255.47C225.196 250.543 222.98 245.79 220.342 241.27C219.412 239.66 218.652 238.44 218.132 237.61L217.542 236.67C217.412 236.46 217.352 236.34 217.352 236.34C217.441 236.43 217.518 236.531 217.582 236.64L218.222 237.56C218.772 238.36 219.562 239.56 220.512 241.17C223.232 245.665 225.509 250.414 227.312 255.35C230.049 262.681 231.405 270.455 231.312 278.28C231.269 280.536 231.086 282.787 230.762 285.02C230.438 287.356 229.947 289.665 229.292 291.93C227.926 296.726 225.802 301.274 223.002 305.4C220.131 309.444 216.704 313.063 212.822 316.15C209.223 319.017 205.452 321.662 201.532 324.07C194.082 328.72 187.222 332.68 181.912 336.65C179.5 338.399 177.202 340.3 175.032 342.34C174.102 343.27 173.212 344.11 172.432 344.93L170.432 347.28C170.132 347.64 169.842 347.97 169.592 348.28L168.942 349.23L167.942 350.72L167.302 351.63C167.24 351.739 167.17 351.843 167.092 351.94Z" fill="#263238"/>
<path d="M157.791 369.61C157.73 369.772 157.657 369.93 157.571 370.08L156.851 371.35C156.531 371.89 156.151 372.57 155.761 373.35C155.371 374.13 154.871 375.05 154.451 376.1C154.231 376.62 153.991 377.16 153.751 377.72C153.511 378.28 153.311 378.9 153.071 379.52C152.591 380.76 152.211 382.12 151.771 383.52C150.031 389.789 149.432 396.319 150.001 402.8C150.171 404.28 150.291 405.7 150.551 407C150.661 407.65 150.751 408.29 150.881 408.89C151.011 409.49 151.151 410.07 151.281 410.62C151.501 411.73 151.831 412.7 152.071 413.56C152.311 414.42 152.551 415.16 152.771 415.76L153.241 417.14C153.308 417.296 153.352 417.461 153.371 417.63C153.274 417.491 153.197 417.339 153.141 417.18C152.991 416.81 152.811 416.37 152.581 415.83C152.279 415.118 152.015 414.39 151.791 413.65C151.521 412.79 151.171 411.82 150.921 410.71C150.781 410.16 150.641 409.58 150.491 408.98C150.341 408.38 150.251 407.73 150.121 407.08C149.841 405.76 149.701 404.34 149.521 402.85C148.895 396.329 149.499 389.748 151.301 383.45C151.751 382.01 152.151 380.64 152.661 379.4C152.911 378.78 153.111 378.17 153.371 377.6L154.111 375.97C154.551 374.97 155.111 374.04 155.501 373.24C155.853 372.552 156.244 371.884 156.671 371.24L157.471 370.01C157.671 369.74 157.771 369.6 157.791 369.61Z" fill="#263238"/>
<path d="M281.422 393.65L281.222 393.79L280.602 394.18L278.172 395.64L276.412 396.64C275.752 397.01 275.022 397.35 274.242 397.74C272.662 398.5 270.922 399.47 268.862 400.25L265.662 401.56C264.552 402 263.342 402.35 262.122 402.77C259.692 403.66 256.992 404.3 254.182 405.03C241.844 407.92 229.046 408.26 216.572 406.03C213.712 405.45 210.992 404.95 208.512 404.19C207.272 403.83 206.052 403.55 204.912 403.19L201.652 402C199.562 401.33 197.762 400.46 196.152 399.78C195.352 399.43 194.602 399.12 193.932 398.78L192.112 397.83L189.612 396.5L188.972 396.14L188.762 396.01C188.762 396.01 188.852 396.01 189.002 396.1L189.662 396.41L192.202 397.65L194.032 398.55C194.712 398.87 195.472 399.16 196.272 399.5C197.882 400.14 199.682 400.99 201.782 401.63L205.002 402.8C206.142 403.18 207.362 403.45 208.602 403.8C211.072 404.54 213.782 405.01 216.602 405.58C229.018 407.73 241.738 407.39 254.022 404.58C256.822 403.86 259.512 403.25 261.942 402.38C263.162 401.97 264.362 401.64 265.472 401.2L268.672 399.93C270.732 399.17 272.482 398.23 274.062 397.5C274.842 397.12 275.582 396.79 276.242 396.5L278.022 395.5L280.492 394.12L281.142 393.78C281.342 393.67 281.422 393.64 281.422 393.65Z" fill="#263238"/>
<path d="M291.851 182C291.79 182.072 291.719 182.136 291.641 182.19L290.981 182.73C290.371 183.22 289.521 183.91 288.431 184.73C286.211 186.49 282.991 189.04 278.921 192.08C274.185 195.706 269.218 199.019 264.051 202C260.979 203.719 257.775 205.194 254.471 206.41C250.907 207.707 247.189 208.534 243.411 208.87C236.066 209.282 228.742 207.758 222.171 204.45C219.329 203.007 216.587 201.376 213.961 199.57C211.521 197.85 209.291 196.18 207.321 194.57C203.321 191.39 200.261 188.7 198.101 186.86L195.631 184.72L195.001 184.16L194.791 183.95C194.791 183.95 194.881 183.95 195.031 184.11L195.701 184.64L198.231 186.7C200.431 188.5 203.571 191.14 207.551 194.28C209.551 195.85 211.761 197.5 214.211 199.2C216.828 200.975 219.557 202.579 222.381 204C228.886 207.242 236.124 208.735 243.381 208.33C247.114 207.999 250.788 207.186 254.311 205.91C257.593 204.71 260.776 203.256 263.831 201.56C268.99 198.633 273.963 195.391 278.721 191.85C282.801 188.85 286.051 186.35 288.321 184.64L290.931 182.64L291.621 182.14C291.69 182.082 291.768 182.035 291.851 182Z" fill="#263238"/>
<g opacity="0.24">
<path d="M201.66 402.05C206.4 398.39 213.06 399.27 218.92 400.51C224.78 401.75 230.68 403.74 236.61 402.91C241.08 402.28 245.18 400.09 249.61 399.13C254.04 398.17 259.37 398.88 261.82 402.67C242.238 408.98 221.138 408.762 201.69 402.05" fill="black"/>
</g>
<path d="M367 374.91L345.5 350.8L345.28 380.11L351.76 398.91L287.34 410.08L284.61 359.25L279.97 320.25C279.695 317.925 280.196 315.574 281.398 313.564C282.599 311.554 284.432 309.998 286.61 309.14L304.34 302.14L329.34 306.72L339.39 310.54C343.604 312.145 347.36 314.757 350.33 318.15L380.57 352.73" fill="#F66E46"/>
<path d="M344 345C345.214 344.983 346.426 344.897 347.63 344.74C350.53 344.297 353.233 342.999 355.39 341.01C357.548 339.022 359.062 336.435 359.74 333.58C359.989 332.388 360.173 331.182 360.29 329.97C360.371 330.297 360.402 330.634 360.38 330.97C360.387 331.878 360.294 332.783 360.1 333.67C359.495 336.639 357.97 339.343 355.743 341.398C353.516 343.453 350.698 344.755 347.69 345.12C346.791 345.236 345.883 345.256 344.98 345.18C344.646 345.173 344.315 345.112 344 345Z" fill="white"/>
<path d="M345.87 378.86C346.02 378.86 346.06 368.7 345.96 356.18C345.86 343.66 345.65 333.51 345.5 333.51C345.35 333.51 345.31 343.66 345.41 356.19C345.51 368.72 345.72 378.86 345.87 378.86Z" fill="#263238"/>
<path d="M343.51 386.31L304.59 370.64C303.052 370.021 301.717 368.984 300.736 367.646C299.756 366.308 299.168 364.723 299.04 363.07L296.19 325.75C296.19 325.75 296.53 309.87 286.61 309.1L281 311.32C273.71 315.19 271.91 325.81 272.9 334C274.31 345.64 274.9 362.12 276.47 372.22C277.77 380.49 282.47 387.76 290.59 389.89L338.53 400.27L343.51 386.31Z" fill="#F66E46"/>
<path d="M296.751 331.44C296.816 331.719 296.856 332.004 296.871 332.29C296.931 332.9 297.021 333.72 297.121 334.75C297.321 336.94 297.601 340.02 297.941 343.8C298.281 347.58 298.661 352.19 299.101 357.23C299.201 358.5 299.311 359.79 299.421 361.11C299.498 362.453 299.665 363.789 299.921 365.11C300.192 366.445 300.87 367.664 301.861 368.6C302.927 369.538 304.14 370.294 305.451 370.84C316.181 375.48 326.071 379.32 333.251 382.01L341.781 385.15L344.101 386C344.372 386.09 344.636 386.2 344.891 386.33C344.608 386.278 344.33 386.201 344.061 386.1L341.711 385.34C339.711 384.66 336.711 383.65 333.131 382.34C325.901 379.74 316.001 375.96 305.231 371.34C303.869 370.768 302.609 369.977 301.501 369C300.437 367.99 299.711 366.677 299.421 365.24C299.163 363.9 298.999 362.543 298.931 361.18C298.821 359.85 298.721 358.56 298.621 357.29C298.231 352.29 297.871 347.69 297.621 343.85C297.371 340.01 297.121 336.98 296.961 334.79C296.891 333.79 296.841 332.93 296.811 332.32C296.765 332.029 296.745 331.734 296.751 331.44Z" fill="#263238"/>
<path d="M274.45 351.73C274.49 351.894 274.514 352.061 274.52 352.23L274.65 353.67C274.77 355 274.92 356.79 275.11 358.97C275.3 361.15 275.6 363.86 275.99 366.8C276.373 369.984 276.957 373.14 277.74 376.25C278.108 377.852 278.751 379.378 279.64 380.76C280.509 382.029 281.482 383.223 282.55 384.33C284.37 386.202 286.472 387.778 288.78 389C290.932 390.093 293.239 390.849 295.62 391.24C295.451 391.262 295.28 391.262 295.11 391.24C294.627 391.208 294.146 391.144 293.67 391.05C291.911 390.722 290.207 390.146 288.61 389.34C286.237 388.146 284.076 386.571 282.21 384.68C281.105 383.561 280.101 382.347 279.21 381.05C278.276 379.629 277.599 378.055 277.21 376.4C276.417 373.267 275.839 370.082 275.48 366.87C275.12 363.87 274.88 361.25 274.72 359.01C274.56 356.77 274.47 354.95 274.42 353.69C274.42 353.11 274.42 352.63 274.42 352.24C274.403 352.069 274.413 351.897 274.45 351.73Z" fill="#263238"/>
<path d="M291.09 377.84C291.192 377.111 291.433 376.408 291.8 375.77C292.602 374.176 293.714 372.758 295.07 371.599C296.427 370.44 298 369.563 299.7 369.02C300.389 368.757 301.123 368.631 301.86 368.65C301.205 368.923 300.538 369.163 299.86 369.37C298.252 369.992 296.761 370.881 295.45 372C294.142 373.121 293.03 374.453 292.16 375.94C291.46 377.09 291.17 377.87 291.09 377.84Z" fill="#263238"/>
<path d="M298.75 349.46C298.835 349.485 298.916 349.522 298.99 349.57L299.69 349.94C300.593 350.385 301.521 350.775 302.47 351.11C305.969 352.338 309.722 352.661 313.38 352.05C318.813 351.081 323.667 348.063 326.94 343.62C328.896 341.053 330.123 338.006 330.49 334.8C330.672 333.115 330.494 331.411 329.97 329.8C329.417 328.155 328.453 326.678 327.17 325.51C325.905 324.326 324.312 323.552 322.6 323.29C321.789 323.145 320.955 323.185 320.162 323.409C319.368 323.632 318.636 324.033 318.02 324.58C317.462 325.126 317.139 325.869 317.12 326.65C317.137 327.426 317.404 328.177 317.88 328.79C318.377 329.383 318.986 329.871 319.672 330.226C320.359 330.581 321.109 330.797 321.88 330.86C324.588 331.197 327.337 330.85 329.876 329.849C332.415 328.847 334.661 327.225 336.41 325.13C337.736 323.5 338.734 321.629 339.35 319.62C339.81 318.098 340.059 316.52 340.09 314.93C340.101 313.925 340.027 312.922 339.87 311.93C339.81 311.62 339.76 311.36 339.73 311.16C339.721 311.07 339.721 310.98 339.73 310.89C340.143 312.182 340.346 313.533 340.33 314.89C340.34 316.503 340.118 318.11 339.67 319.66C338.557 323.396 336.153 326.615 332.888 328.745C329.623 330.875 325.708 331.777 321.84 331.29C321.014 331.217 320.211 330.982 319.476 330.597C318.742 330.213 318.091 329.687 317.56 329.05C317.017 328.351 316.715 327.495 316.7 326.61C316.701 325.7 317.06 324.827 317.7 324.18C318.372 323.58 319.17 323.139 320.036 322.89C320.901 322.64 321.812 322.589 322.7 322.74C324.519 323.009 326.211 323.83 327.55 325.09C328.904 326.313 329.917 327.867 330.49 329.6C331.035 331.276 331.219 333.048 331.03 334.8C330.64 338.076 329.372 341.185 327.36 343.8C324.584 347.588 320.644 350.362 316.141 351.699C311.639 353.035 306.823 352.86 302.43 351.2C301.132 350.784 299.895 350.199 298.75 349.46Z" fill="white"/>
<path d="M273.25 339.51C273.419 339.211 273.635 338.94 273.89 338.71C274.529 338.033 275.232 337.421 275.99 336.88C278.543 335.126 281.512 334.074 284.6 333.83C286.294 333.639 288.007 333.71 289.68 334.04C291.039 334.322 292.355 334.786 293.59 335.42C294.419 335.838 295.215 336.319 295.97 336.86C296.262 337.039 296.525 337.261 296.75 337.52C296.69 337.6 295.53 336.72 293.43 335.75C290.693 334.481 287.657 333.996 284.66 334.35C281.651 334.587 278.746 335.559 276.2 337.18C274.27 338.47 273.32 339.58 273.25 339.51Z" fill="white"/>
<path d="M279.48 312.82C280.429 313.713 281.488 314.483 282.63 315.11C283.878 315.75 285.235 316.15 286.63 316.29C288.329 316.46 290.044 316.22 291.63 315.59C293.186 314.926 294.558 313.897 295.63 312.59C296.516 311.499 297.194 310.255 297.63 308.92C297.99 307.666 298.195 306.373 298.24 305.07C298.338 305.414 298.382 305.772 298.37 306.13C298.387 307.111 298.256 308.088 297.98 309.03C297.573 310.435 296.893 311.746 295.98 312.89C294.884 314.324 293.428 315.442 291.759 316.131C290.09 316.819 288.269 317.054 286.48 316.81C285.03 316.646 283.627 316.197 282.35 315.49C281.491 315.018 280.709 314.418 280.03 313.71C279.794 313.449 279.608 313.148 279.48 312.82Z" fill="white"/>
<path d="M313.4 374.19C313.402 373.941 313.429 373.693 313.48 373.45C313.62 372.756 313.852 372.083 314.17 371.45C315.442 369.121 317.507 367.325 319.99 366.39C323.645 364.937 327.691 364.792 331.44 365.98C333.5 366.59 335.86 367.35 337.44 369.36C337.838 369.873 338.089 370.485 338.166 371.129C338.244 371.774 338.145 372.427 337.88 373.02C337.277 374.177 336.301 375.096 335.11 375.63C333.961 376.199 332.702 376.513 331.42 376.55C330.148 376.612 328.894 376.222 327.88 375.45C327.412 375.051 327.031 374.56 326.759 374.008C326.488 373.456 326.331 372.854 326.3 372.24C326.235 371.092 326.416 369.943 326.83 368.87C328.337 365.224 331.208 362.311 334.83 360.75C337.234 359.679 339.867 359.225 342.49 359.43C343.446 359.503 344.387 359.701 345.29 360.02C345.29 360.09 344.29 359.76 342.47 359.63C340.297 359.512 338.123 359.839 336.08 360.59C334.037 361.342 332.169 362.502 330.59 364C329.124 365.404 327.981 367.11 327.24 369C326.852 370.01 326.685 371.09 326.75 372.17C326.779 372.717 326.92 373.252 327.165 373.742C327.409 374.233 327.751 374.667 328.17 375.02C329.085 375.722 330.219 376.077 331.37 376.02C332.573 375.989 333.753 375.695 334.83 375.16C335.918 374.675 336.812 373.841 337.37 372.79C337.596 372.279 337.679 371.717 337.612 371.163C337.545 370.609 337.331 370.083 336.99 369.64C336.293 368.759 335.399 368.054 334.38 367.58C333.393 367.108 332.365 366.723 331.31 366.43C327.66 365.249 323.715 365.351 320.13 366.72C317.701 367.599 315.656 369.301 314.35 371.53C313.917 372.371 313.598 373.265 313.4 374.19Z" fill="white"/>
<path d="M287.48 388.24C287.48 388.14 288.96 388.02 291.21 387.24C294.148 386.205 296.779 384.452 298.865 382.139C300.951 379.826 302.424 377.028 303.15 374C303.72 371.68 303.7 370.17 303.8 370.18C303.87 370.525 303.887 370.879 303.85 371.23C303.827 372.189 303.714 373.143 303.51 374.08C302.862 377.206 301.392 380.102 299.251 382.47C297.11 384.838 294.375 386.591 291.33 387.55C290.419 387.847 289.481 388.058 288.53 388.18C288.185 388.251 287.832 388.271 287.48 388.24Z" fill="white"/>
<path d="M274.861 359.23C275.009 359.147 275.167 359.083 275.331 359.04C275.651 358.94 276.111 358.8 276.721 358.64C278.452 358.184 280.244 358.002 282.031 358.1C283.273 358.194 284.489 358.494 285.631 358.99C286.961 359.564 288.119 360.473 288.991 361.63C289.949 362.942 290.413 364.55 290.301 366.17C290.237 367.032 289.974 367.867 289.531 368.61C289.084 369.393 288.376 369.994 287.531 370.31C287.086 370.462 286.608 370.494 286.147 370.402C285.685 370.311 285.255 370.1 284.901 369.79C284.301 369.128 283.976 368.263 283.991 367.37C283.94 365.776 284.255 364.192 284.911 362.74C285.824 360.67 287.402 358.964 289.395 357.893C291.388 356.822 293.681 356.448 295.911 356.83C296.391 356.904 296.863 357.021 297.321 357.18C297.631 357.3 297.791 357.37 297.781 357.39C297.771 357.41 297.111 357.18 295.881 357.03C294.143 356.82 292.38 357.046 290.751 357.69C288.339 358.658 286.408 360.542 285.381 362.93C284.771 364.317 284.48 365.825 284.531 367.34C284.51 368.105 284.782 368.849 285.291 369.42C285.578 369.664 285.923 369.829 286.293 369.899C286.663 369.969 287.045 369.942 287.401 369.82C288.142 369.546 288.764 369.023 289.161 368.34C289.559 367.666 289.799 366.91 289.861 366.13C289.966 364.628 289.546 363.136 288.671 361.91C287.859 360.809 286.773 359.94 285.521 359.39C284.427 358.893 283.258 358.582 282.061 358.47C280.313 358.339 278.554 358.464 276.841 358.84C275.551 359.09 274.881 359.27 274.861 359.23Z" fill="white"/>
<g opacity="0.3">
<path d="M332.32 381.86C328.16 379.51 324.09 377.7 319.74 375.73C315.39 373.76 311.12 371.21 308.27 367.37C302.9 360.13 303.51 349.68 298.02 342.54C298.38 347.34 298.736 352.143 299.09 356.95C299.42 361.35 298.75 365.71 301.58 368.7C303.97 371.22 308.63 373.15 311.93 374.24C318.56 376.43 325.7 379.68 332.32 381.86Z" fill="black"/>
</g>
<path d="M400.001 436.71C400.001 436.71 432.571 445.71 433.881 446.19C435.881 446.88 435.511 454.07 432.461 453.95C431.011 453.9 407.461 454.83 404.461 454.65C401.461 454.47 392.461 450.92 392.461 450.92L400.001 436.71Z" fill="#F66E46"/>
<path d="M413.531 449.14C413.934 447.943 414.415 446.774 414.971 445.64C415.672 444.591 416.441 443.589 417.271 442.64C416.113 443.274 415.151 444.216 414.491 445.36C413.831 446.505 413.499 447.809 413.531 449.13V449.14Z" fill="#263238"/>
<path d="M410.131 447.6C410.291 447.6 410.621 446.09 411.491 444.39C412.361 442.69 413.381 441.5 413.271 441.39C412.32 442.13 411.546 443.072 411.003 444.147C410.46 445.223 410.162 446.405 410.131 447.61V447.6Z" fill="#263238"/>
<path d="M407 446.75C407.159 445.585 407.414 444.434 407.76 443.31C408.27 442.249 408.862 441.23 409.53 440.26C408.497 440.955 407.701 441.949 407.249 443.109C406.797 444.269 406.71 445.539 407 446.75Z" fill="#263238"/>
<path d="M407.531 442.54C407.818 441.767 407.938 440.942 407.881 440.12C407.871 439.224 407.76 438.331 407.551 437.46C407.426 436.945 407.262 436.44 407.061 435.95C406.967 435.639 406.787 435.362 406.541 435.15C406.377 435.028 406.175 434.967 405.97 434.978C405.766 434.989 405.572 435.071 405.421 435.21C405.169 435.452 405.015 435.78 404.991 436.13C404.966 436.416 404.966 436.704 404.991 436.99C404.994 437.526 405.061 438.06 405.191 438.58C405.408 439.452 405.744 440.29 406.191 441.07C406.549 441.821 407.044 442.5 407.651 443.07C407.731 443.07 407.181 442.26 406.531 440.93C406.151 440.16 405.866 439.348 405.681 438.51C405.576 438.02 405.522 437.521 405.521 437.02C405.521 436.52 405.521 435.9 405.821 435.66C405.88 435.606 405.957 435.577 406.036 435.577C406.116 435.577 406.192 435.606 406.251 435.66C406.414 435.819 406.537 436.015 406.611 436.23C406.803 436.7 406.966 437.181 407.101 437.67C407.33 438.5 407.474 439.351 407.531 440.21C407.591 441.61 407.441 442.53 407.531 442.54Z" fill="#263238"/>
<path d="M407.491 442.21C406.827 441.933 406.108 441.816 405.391 441.87C404.613 441.87 403.837 441.964 403.081 442.15C402.615 442.255 402.165 442.42 401.741 442.64C401.474 442.775 401.259 442.994 401.127 443.263C400.995 443.532 400.955 443.836 401.011 444.13C401.086 444.411 401.233 444.667 401.439 444.872C401.644 445.078 401.9 445.225 402.181 445.3C402.66 445.42 403.162 445.42 403.641 445.3C404.412 445.124 405.135 444.783 405.761 444.3C406.354 443.903 406.866 443.397 407.271 442.81C406.669 443.162 406.092 443.553 405.541 443.98C404.936 444.395 404.257 444.69 403.541 444.85C403.144 444.95 402.728 444.95 402.331 444.85C402.143 444.802 401.971 444.706 401.832 444.571C401.694 444.436 401.593 444.266 401.541 444.08C401.511 443.897 401.541 443.708 401.628 443.544C401.714 443.38 401.853 443.248 402.021 443.17C402.392 442.965 402.789 442.811 403.201 442.71C403.919 442.505 404.656 442.378 405.401 442.33C406.671 442.17 407.471 442.3 407.491 442.21Z" fill="#263238"/>
<path d="M418.531 449.49C418.671 448.495 418.888 447.512 419.181 446.55C419.638 445.657 420.17 444.804 420.771 444C419.823 444.517 419.082 445.346 418.674 446.346C418.266 447.346 418.215 448.457 418.531 449.49Z" fill="#263238"/>
<path d="M395.811 451C396.205 451.25 396.628 451.451 397.071 451.6C398.253 452.049 399.462 452.423 400.691 452.72C404.775 453.611 408.952 454.007 413.131 453.9C418.011 453.84 422.411 453.62 425.601 453.49L429.371 453.29C429.834 453.282 430.295 453.235 430.751 453.15C430.291 453.078 429.825 453.054 429.361 453.08H425.591L413.131 453.32C408.99 453.426 404.85 453.091 400.781 452.32C397.661 451.69 395.851 450.89 395.811 451Z" fill="#263238"/>
<path d="M394.85 451.74C394.85 451.81 395.78 451.29 397.29 450.63C399.208 449.724 401.343 449.377 403.45 449.63C405.521 450.079 407.391 451.188 408.78 452.79C409.357 453.473 409.982 454.114 410.65 454.71C410.221 453.915 409.686 453.181 409.06 452.53C408.418 451.783 407.693 451.113 406.9 450.53C405.906 449.794 404.75 449.307 403.53 449.11C401.319 448.842 399.08 449.265 397.12 450.32C396.291 450.668 395.525 451.147 394.85 451.74Z" fill="#263238"/>
<path d="M365.39 427.72C365.39 427.72 334.57 447.9 333.47 448.72C331.81 449.97 333.71 455.94 336.59 454.91C337.95 454.42 363.81 447.22 366.59 446.14C369.37 445.06 376.86 439 376.86 439L365.39 427.72Z" fill="#F66E46"/>
<path d="M356.241 443.68C355.869 442.411 355.156 441.269 354.179 440.378C353.202 439.488 351.999 438.883 350.701 438.63C351.785 439.28 352.824 440.001 353.811 440.79C354.681 441.702 355.492 442.667 356.241 443.68Z" fill="#263238"/>
<path d="M359 441.18C358.608 440.039 357.968 438.998 357.126 438.134C356.284 437.269 355.261 436.602 354.13 436.18C354.05 436.32 355.4 437.18 356.73 438.5C358.06 439.82 358.86 441.26 359 441.18Z" fill="#263238"/>
<path d="M361.781 439.4C361.777 438.142 361.299 436.931 360.441 436.01C359.725 434.993 358.655 434.28 357.441 434.01C358.369 434.734 359.241 435.526 360.051 436.38C360.707 437.339 361.286 438.349 361.781 439.4Z" fill="#263238"/>
<path d="M360 435.57C360.08 435.57 359.66 434.7 359.31 433.26C359.1 432.425 358.976 431.57 358.94 430.71C358.906 430.204 358.906 429.696 358.94 429.19C358.937 428.962 358.995 428.737 359.11 428.54C359.154 428.472 359.222 428.423 359.3 428.405C359.378 428.386 359.461 428.399 359.53 428.44C359.88 428.58 360.06 429.18 360.23 429.66C360.377 430.136 360.478 430.625 360.53 431.12C360.608 431.977 360.581 432.84 360.45 433.69C360.24 435.15 359.95 436.04 360.03 436.07C360.442 435.355 360.714 434.567 360.83 433.75C361.022 432.874 361.09 431.975 361.03 431.08C360.99 430.544 360.893 430.015 360.74 429.5C360.658 429.224 360.558 428.953 360.44 428.69C360.307 428.362 360.058 428.096 359.74 427.94C359.555 427.854 359.345 427.835 359.148 427.888C358.95 427.941 358.778 428.062 358.66 428.23C358.495 428.508 358.408 428.826 358.41 429.15C358.3 430.574 358.463 432.007 358.89 433.37C359.101 434.173 359.479 434.923 360 435.57Z" fill="#263238"/>
<path d="M359.891 435.24C359.891 435.32 360.651 434.96 361.891 434.65C362.615 434.476 363.356 434.376 364.101 434.35C364.526 434.321 364.953 434.348 365.371 434.43C365.555 434.455 365.726 434.539 365.859 434.668C365.992 434.798 366.08 434.967 366.111 435.15C366.119 435.349 366.074 435.546 365.981 435.722C365.888 435.897 365.75 436.045 365.581 436.15C365.237 436.366 364.846 436.497 364.441 436.53C363.71 436.601 362.972 436.526 362.271 436.31C361.619 436.066 360.95 435.869 360.271 435.72C360.835 436.171 361.48 436.51 362.171 436.72C362.913 437.004 363.708 437.123 364.501 437.07C364.994 437.044 365.472 436.892 365.891 436.63C366.138 436.478 366.34 436.262 366.475 436.005C366.611 435.748 366.675 435.46 366.661 435.17C366.625 434.872 366.494 434.594 366.287 434.377C366.079 434.161 365.807 434.018 365.511 433.97C365.042 433.887 364.565 433.867 364.091 433.91C363.313 433.962 362.544 434.106 361.801 434.34C361.103 434.489 360.449 434.797 359.891 435.24Z" fill="#263238"/>
<path d="M340.51 453.8C340.51 453.85 341.03 453.49 341.27 452.61C341.509 451.46 341.302 450.262 340.69 449.26C340.394 448.723 340.06 448.209 339.69 447.72C339.389 447.303 339.037 446.927 338.64 446.6C338.356 446.365 338.007 446.222 337.64 446.19C337.38 446.19 337.25 446.24 337.25 446.27C337.25 446.3 337.8 446.32 338.37 446.9C338.706 447.24 339.005 447.616 339.26 448.02C339.619 448.503 339.952 449.003 340.26 449.52C340.812 450.417 341.052 451.472 340.94 452.52C340.823 452.955 340.679 453.382 340.51 453.8Z" fill="#263238"/>
<path d="M351.581 445.53C351.623 444.989 351.547 444.445 351.359 443.936C351.17 443.427 350.875 442.964 350.491 442.58C350.183 442.133 349.781 441.759 349.313 441.484C348.845 441.209 348.322 441.041 347.781 440.99C348.599 441.57 349.365 442.219 350.071 442.93C350.647 443.753 351.152 444.622 351.581 445.53Z" fill="#263238"/>
<path d="M373.69 440.07C373.211 440.336 372.756 440.644 372.33 440.99C371.108 441.838 369.84 442.616 368.53 443.32C366.591 444.348 364.587 445.247 362.53 446.01C360.19 446.88 357.53 447.7 354.81 448.5C349.26 450.1 344.24 451.56 340.62 452.65L336.31 454C335.778 454.141 335.259 454.328 334.76 454.56C335.305 454.486 335.843 454.369 336.37 454.21L340.7 453C344.35 452 349.38 450.6 354.93 449C357.7 448.19 360.33 447.35 362.67 446.45C364.752 445.658 366.774 444.716 368.72 443.63C370.026 442.89 371.276 442.054 372.46 441.13C372.898 440.811 373.31 440.457 373.69 440.07Z" fill="#263238"/>
<path d="M374.831 440.48C374.002 440.115 373.122 439.879 372.221 439.78C370.03 439.374 367.768 439.653 365.741 440.58C364.646 441.153 363.705 441.984 363.001 443C362.421 443.802 361.935 444.667 361.551 445.58C361.15 446.389 360.864 447.251 360.701 448.14C361.154 447.367 361.555 446.566 361.901 445.74C362.735 443.787 364.181 442.159 366.021 441.1C367.957 440.229 370.098 439.921 372.201 440.21C373.801 440.34 374.811 440.56 374.831 440.48Z" fill="#263238"/>
<path d="M429.44 378.51C429.44 378.51 438.69 381.81 438.72 392.18C438.8 412.03 398.6 433.92 398.6 433.92L345.1 398.48L341.75 397.12C341.75 397.12 414 370 429.44 378.51Z" fill="#263238"/>
<path d="M372.201 416.38C372.694 416.107 373.162 415.792 373.601 415.44C374.471 414.8 375.721 413.86 377.251 412.67C380.321 410.31 384.481 406.95 388.971 403.1C393.461 399.25 397.401 395.64 400.201 392.97C401.601 391.64 402.721 390.54 403.491 389.77C403.907 389.394 404.288 388.983 404.631 388.54C404.171 388.862 403.739 389.223 403.341 389.62L399.941 392.69C397.071 395.28 393.091 398.85 388.611 402.69C384.131 406.53 380.011 409.93 377.021 412.37L373.471 415.27C373.019 415.605 372.594 415.977 372.201 416.38Z" fill="#455A64"/>
<path d="M414.34 385.93C410.841 385.56 407.338 386.592 404.6 388.8C404.69 388.95 406.6 387.7 409.34 386.92C412.08 386.14 414.34 386.1 414.34 385.93Z" fill="#455A64"/>
<path d="M409.731 382.8C408.493 383.325 407.404 384.147 406.56 385.194C405.715 386.24 405.142 387.479 404.891 388.8C405.051 388.8 405.631 387.19 406.981 385.54C408.331 383.89 409.821 382.94 409.731 382.8Z" fill="#455A64"/>
<path d="M432.38 445.68C432.38 445.62 431.74 445.49 431 446.1C430.128 446.913 429.581 448.014 429.46 449.2C429.285 450.366 429.452 451.557 429.94 452.63C430.32 453.44 430.74 453.82 430.79 453.78C430.658 453.335 430.495 452.901 430.3 452.48C429.95 451.452 429.847 450.355 430 449.28C430.119 448.208 430.558 447.198 431.26 446.38C431.83 445.79 432.39 445.77 432.38 445.68Z" fill="#263238"/>
<path d="M417.131 346.06L398.081 394.36L316.051 395.7L314.531 391.26L343.281 390.22L357.101 347.37L417.131 346.06Z" fill="#455A64"/>
<path d="M378.82 367C379.45 366.684 380.158 366.556 380.859 366.632C381.559 366.709 382.223 366.986 382.77 367.43C383.235 367.867 383.557 368.434 383.694 369.056C383.831 369.679 383.778 370.328 383.54 370.92C383.283 371.511 382.866 372.018 382.336 372.384C381.806 372.749 381.184 372.959 380.54 372.99C379.863 373.033 379.19 372.855 378.623 372.481C378.057 372.108 377.627 371.56 377.4 370.92C377.186 370.205 377.204 369.44 377.452 368.735C377.7 368.031 378.165 367.423 378.78 367" fill="#EBEBEB"/>
<path d="M403.66 436.34C403.66 436.34 328.08 386.76 325 385.73C321.92 384.7 314.42 379.8 306.95 381.86C299.48 383.92 292.76 390.63 289.41 400.43C287.49 406.03 286.59 415.58 286.16 422.75C285.587 431.324 288.365 439.785 293.91 446.35C296.366 449.413 299.628 451.73 303.33 453.04C304.12 453.29 304.94 453.5 305.78 453.68C320.07 456.78 334.78 450.36 342.78 438.14L344.54 435.46C344.54 435.46 393.99 453.62 394.76 453.37L403.66 436.34Z" fill="#263238"/>
<path d="M310.16 422.69C310.294 422.757 310.43 422.817 310.57 422.87L311.81 423.36L316.6 425.21L334.41 431.92C341.97 434.74 351.03 438.1 361.2 441.8C371.37 445.5 382.63 449.55 394.67 453.62L394.88 453.7L394.99 453.49L400.9 442.21L403.9 436.46L404.01 436.24L403.8 436.11L346.15 399.51L328.83 388.59L324.13 385.65L322.9 384.9C322.62 384.73 322.47 384.66 322.47 384.66L322.87 384.95L324.07 385.74L328.72 388.74L346 399.83L403.56 436.57L403.46 436.21C402.51 438.04 401.46 439.99 400.46 441.96L394.56 453.24L394.89 453.11C382.89 449.05 371.59 445.01 361.41 441.34L334.58 431.58L316.67 425L311.85 423.24L310.59 422.8L310.16 422.69Z" fill="#455A64"/>
<path d="M318 246.64C319.29 243.15 322.14 241.64 325.75 240.77C327.566 240.347 329.457 240.369 331.262 240.834C333.068 241.299 334.734 242.193 336.12 243.44C337.95 245.11 339.29 247.44 341.55 248.44C345.28 250.13 350.05 247.66 353.55 249.73C354.602 250.349 355.406 251.314 355.827 252.459C356.247 253.605 356.258 254.86 355.858 256.013C355.457 257.166 354.669 258.144 353.629 258.781C352.588 259.419 351.359 259.676 350.15 259.51C352.58 260.65 353.03 264.31 351.36 266.41C349.69 268.51 346.6 269.08 344.01 268.35C341.457 267.47 339.193 265.911 337.46 263.84C335.64 261.84 334.04 259.69 332.06 257.84C330.16 255.909 327.638 254.712 324.94 254.46C321.31 254.32 317.94 256.77 316.05 259.86C314.16 262.95 313.43 266.62 312.9 270.22C312.37 273.82 311.97 277.48 310.58 280.84C310.42 281.24 310.18 281.67 309.77 281.76C309.16 281.89 308.72 281.22 308.48 280.65C305.744 274.228 304.296 267.33 304.22 260.35C304.17 256.35 304.63 252.52 307.14 249.35C309.65 246.18 315.44 244.21 317.97 246.59" fill="#263238"/>
<path d="M309.48 262.77L303.92 303.15C303.697 304.781 303.809 306.44 304.247 308.026C304.686 309.612 305.443 311.093 306.472 312.377C307.501 313.661 308.781 314.723 310.233 315.497C311.686 316.271 313.28 316.742 314.92 316.88C318.025 317.15 321.115 316.216 323.55 314.27C325.985 312.325 327.578 309.518 328 306.43C328.41 303.43 328.76 300.86 328.83 300.55C328.83 300.55 339.24 301 341.38 290.93C342.38 286.06 343.73 275.86 344.82 266.62C345.37 261.838 344.102 257.025 341.268 253.135C338.434 249.244 334.24 246.562 329.52 245.62L328.52 245.43C317.87 243.91 310.67 252.11 309.48 262.77Z" fill="#FFBE9D"/>
<path d="M328.82 300.41C324.139 299.551 319.82 297.32 316.41 294C316.41 294 318.07 301.88 328.32 303L328.82 300.41Z" fill="#EB996E"/>
<path d="M340.47 272.8C340.4 273.176 340.184 273.51 339.87 273.729C339.556 273.947 339.168 274.034 338.79 273.97C338.604 273.949 338.425 273.891 338.262 273.799C338.099 273.707 337.956 273.583 337.842 273.435C337.728 273.286 337.645 273.116 337.599 272.935C337.552 272.754 337.542 272.565 337.57 272.38C337.639 272.002 337.853 271.666 338.168 271.445C338.483 271.224 338.871 271.136 339.25 271.2C339.437 271.222 339.617 271.281 339.78 271.374C339.943 271.467 340.086 271.592 340.199 271.741C340.313 271.891 340.396 272.061 340.442 272.243C340.489 272.425 340.499 272.614 340.47 272.8Z" fill="#263238"/>
<path d="M341.61 271.14C341.39 271.3 340.46 270.27 338.91 269.96C337.36 269.65 336.06 270.21 335.91 269.96C335.76 269.71 336.1 269.56 336.67 269.3C337.43 268.962 338.278 268.874 339.09 269.05C339.898 269.204 340.634 269.615 341.19 270.22C341.62 270.7 341.71 271.08 341.61 271.14Z" fill="#263238"/>
<path d="M325.149 270.28C325.081 270.658 324.866 270.994 324.552 271.215C324.237 271.436 323.848 271.524 323.469 271.46C323.283 271.436 323.104 271.376 322.941 271.283C322.778 271.19 322.635 271.065 322.521 270.916C322.406 270.768 322.323 270.598 322.274 270.416C322.226 270.235 322.214 270.046 322.239 269.86C322.315 269.485 322.531 269.154 322.844 268.934C323.156 268.715 323.542 268.624 323.92 268.68C324.106 268.702 324.287 268.761 324.45 268.854C324.614 268.947 324.757 269.072 324.872 269.221C324.986 269.37 325.07 269.54 325.118 269.722C325.165 269.904 325.176 270.094 325.149 270.28Z" fill="#263238"/>
<path d="M326.3 268.39C326.08 268.54 325.15 267.51 323.6 267.2C322.05 266.89 320.75 267.45 320.6 267.2C320.45 266.95 320.79 266.8 321.36 266.54C322.121 266.207 322.967 266.12 323.78 266.29C324.587 266.453 325.324 266.862 325.89 267.46C326.31 268 326.4 268.32 326.3 268.39Z" fill="#263238"/>
<path d="M329.631 281C330.499 280.903 331.377 280.92 332.241 281.05C332.651 281.05 333.041 281.05 333.161 280.82C333.288 280.423 333.288 279.997 333.161 279.6C332.981 278.6 332.791 277.48 332.591 276.34C331.821 271.72 331.351 267.96 331.531 267.93C331.711 267.9 332.531 271.62 333.261 276.24C333.441 277.38 333.621 278.46 333.781 279.5C333.937 280.029 333.898 280.597 333.671 281.1C333.586 281.226 333.473 281.332 333.342 281.408C333.21 281.484 333.063 281.529 332.911 281.54C332.682 281.572 332.45 281.572 332.221 281.54C331.338 281.469 330.468 281.287 329.631 281Z" fill="#263238"/>
<path d="M324.851 281.18C325.111 281.18 324.771 282.9 325.971 284.38C327.171 285.86 328.971 286.04 328.971 286.28C328.971 286.52 328.511 286.52 327.751 286.39C326.761 286.207 325.866 285.684 325.221 284.91C324.611 284.16 324.313 283.204 324.391 282.24C324.471 281.52 324.741 281.14 324.851 281.18Z" fill="#263238"/>
<path d="M327.91 262.38C327.68 262.78 326.17 262.27 324.3 262.12C322.43 261.97 320.87 262.18 320.7 261.75C320.63 261.55 320.97 261.21 321.64 260.92C322.53 260.569 323.489 260.432 324.44 260.52C325.398 260.593 326.324 260.895 327.14 261.4C327.75 261.8 328 262.2 327.91 262.38Z" fill="#263238"/>
<path d="M341.93 266.54C341.59 266.84 340.6 266.26 339.31 265.98C338.02 265.7 336.89 265.75 336.72 265.33C336.64 265.13 336.88 264.81 337.43 264.57C338.146 264.288 338.933 264.235 339.68 264.42C340.434 264.579 341.117 264.975 341.63 265.55C342 266 342.09 266.39 341.93 266.54Z" fill="#263238"/>
<path d="M308.81 270.41C308.65 270.3 302.28 266.97 301.12 273.92C299.96 280.87 307.18 280.6 307.22 280.4C307.26 280.2 308.81 270.41 308.81 270.41Z" fill="#FFBE9D"/>
<path d="M305.54 277.41C305.54 277.41 305.41 277.48 305.19 277.54C304.881 277.614 304.556 277.567 304.28 277.41C303.875 277.053 303.574 276.593 303.408 276.079C303.243 275.565 303.219 275.016 303.34 274.49C303.42 273.889 303.635 273.315 303.97 272.81C304.065 272.603 304.207 272.421 304.387 272.28C304.566 272.139 304.776 272.043 305 272C305.146 271.988 305.292 272.027 305.413 272.111C305.533 272.195 305.621 272.318 305.66 272.46C305.72 272.66 305.66 272.8 305.66 272.81C305.66 272.82 305.83 272.72 305.82 272.43C305.809 272.252 305.739 272.083 305.62 271.95C305.539 271.86 305.44 271.788 305.33 271.738C305.22 271.688 305.101 271.662 304.98 271.66C304.686 271.668 304.4 271.752 304.148 271.902C303.896 272.053 303.687 272.266 303.54 272.52C303.143 273.074 302.885 273.715 302.79 274.39C302.6 275.8 303.1 277.23 304.06 277.68C304.238 277.766 304.432 277.81 304.63 277.81C304.827 277.81 305.022 277.766 305.2 277.68C305.5 277.58 305.56 277.43 305.54 277.41Z" fill="#EB996E"/>
<path d="M347.32 265C344.97 265.127 342.624 264.694 340.473 263.738C338.323 262.782 336.43 261.329 334.95 259.5C332.95 256.92 331.62 253.55 328.73 251.99C327.735 251.5 326.652 251.213 325.545 251.144C324.438 251.075 323.328 251.227 322.28 251.59C320.193 252.336 318.281 253.499 316.66 255.01C317.58 260.53 315.13 266.01 312.74 271.01C312.534 271.6 312.136 272.103 311.61 272.44C310.67 272.91 309.55 272.17 308.98 271.28C308.181 269.788 307.834 268.096 307.98 266.41C308.001 262.568 308.783 258.768 310.28 255.23C311.8 251.681 314.328 248.656 317.55 246.53C321.683 244.006 326.634 243.185 331.36 244.24C336.059 245.333 340.296 247.876 343.47 251.51C345.017 253.12 346.14 255.089 346.74 257.24" fill="#263238"/>
<path d="M67.4597 427.85C67.5034 427.704 67.5638 427.563 67.6397 427.43L68.1997 426.22C68.8893 424.656 69.4478 423.037 69.8697 421.38C70.9697 417.08 71.3497 410.51 69.7197 402.71C68.8427 398.455 67.6869 394.263 66.2597 390.16C64.7897 385.71 63.0897 380.99 61.6997 375.88C60.1303 370.551 59.3718 365.015 59.4497 359.46C59.6597 353.65 61.3797 347.85 63.2697 342.08C65.1597 336.31 67.1097 330.65 67.6897 324.97C68.3451 319.505 67.2492 313.973 64.5597 309.17C62.0497 304.55 58.9097 300.61 56.5597 296.52C54.357 292.733 52.7324 288.638 51.7397 284.37C50.3232 278.184 50.221 271.769 51.4397 265.54C51.888 263.264 52.5578 261.036 53.4397 258.89C53.4162 259.043 53.3794 259.194 53.3297 259.34L52.9297 260.61C50.5768 268.29 50.3247 276.46 52.1997 284.27C53.2017 288.489 54.8298 292.534 57.0297 296.27C59.3797 300.27 62.5397 304.27 65.0897 308.9C67.8209 313.797 68.9372 319.431 68.2797 325C67.6897 330.78 65.7197 336.47 63.8397 342.24C61.9597 348.01 60.2497 353.74 60.0397 359.45C59.9526 364.949 60.6908 370.43 62.2297 375.71C63.5997 380.79 65.2897 385.51 66.7297 389.98C68.1449 394.107 69.284 398.323 70.1397 402.6C71.7297 410.46 71.2697 417.1 70.1397 421.41C69.6989 423.072 69.1029 424.689 68.3597 426.24C68.0997 426.74 67.8897 427.13 67.7397 427.43C67.6601 427.579 67.5663 427.719 67.4597 427.85Z" fill="#263238"/>
<path d="M59.7495 300.55C59.7495 300.55 54.9595 285.25 63.5495 276.29C63.6161 276.218 63.7013 276.166 63.7958 276.139C63.8902 276.113 63.9902 276.113 64.0845 276.14C64.1789 276.167 64.2639 276.22 64.3301 276.292C64.3963 276.364 64.4411 276.454 64.4595 276.55C64.9195 279.08 65.4895 286.78 59.7495 300.55Z" fill="#F66E46"/>
<path d="M62.6204 281.39C62.6043 282.339 62.4938 283.283 62.2904 284.21C61.9804 286.21 61.6104 288.44 61.2004 290.96C60.7904 293.48 60.4404 295.77 60.1304 297.71C60.0495 298.658 59.8787 299.595 59.6204 300.51C59.5395 299.56 59.5697 298.603 59.7104 297.66C59.8704 295.91 60.1804 293.51 60.6104 290.87C61.0404 288.23 61.5004 285.87 61.8804 284.14C62.0206 283.198 62.2689 282.275 62.6204 281.39Z" fill="#263238"/>
<path d="M65.3691 336.65C65.3691 336.65 68.2991 320.88 80.0791 317C80.172 316.968 80.272 316.962 80.368 316.983C80.4641 317.004 80.5523 317.052 80.6229 317.12C80.6934 317.189 80.7436 317.275 80.7676 317.371C80.7917 317.466 80.7887 317.566 80.7591 317.66C79.9991 320.08 76.8891 327.16 65.3691 336.65Z" fill="#F66E46"/>
<path d="M76.8702 321.05C76.4128 321.882 75.8735 322.666 75.2602 323.39C74.0802 324.97 72.6802 326.81 71.1402 328.85L67.0002 334.32C66.4834 335.116 65.8942 335.862 65.2402 336.55C65.612 335.671 66.0853 334.839 66.6502 334.07C67.6502 332.6 69.0002 330.62 70.6502 328.49C72.3002 326.36 73.7902 324.49 74.9202 323.13C75.4878 322.364 76.1422 321.666 76.8702 321.05Z" fill="#263238"/>
<path d="M62.1886 376.2C62.1886 376.2 60.4086 360.26 70.5486 353.1C70.6284 353.043 70.7227 353.008 70.8209 353.001C70.9191 352.994 71.0174 353.015 71.1046 353.061C71.1918 353.106 71.2646 353.175 71.3147 353.26C71.3649 353.345 71.3904 353.442 71.3886 353.54C71.3586 356.1 70.4486 363.77 62.1886 376.2Z" fill="#F66E46"/>
<path d="M68.6594 357.93C68.4692 358.861 68.1809 359.77 67.7994 360.64C67.1194 362.49 66.3294 364.64 65.4394 367.06L63.1094 373.48C62.8615 374.393 62.5267 375.281 62.1094 376.13C62.2152 375.183 62.4265 374.251 62.7394 373.35C63.2294 371.66 63.9894 369.35 64.9194 366.85C65.8494 364.35 66.7594 362.1 67.4494 360.49C67.7545 359.594 68.1605 358.735 68.6594 357.93Z" fill="#263238"/>
<path d="M71.0588 416C71.0588 416 69.8488 400 80.2388 393.22C80.32 393.164 80.4152 393.132 80.5137 393.127C80.6122 393.123 80.71 393.145 80.7962 393.193C80.8825 393.241 80.9537 393.312 81.0018 393.398C81.05 393.484 81.0732 393.582 81.0688 393.68C80.9388 396.23 79.7588 403.86 71.0588 416Z" fill="#F66E46"/>
<path d="M78.18 398C77.9401 398.925 77.6049 399.824 77.18 400.68C76.43 402.5 75.56 404.68 74.59 407L72.02 413.34C71.758 414.222 71.4166 415.079 71 415.9C71.1344 414.958 71.3795 414.035 71.73 413.15C72.27 411.48 73.12 409.21 74.14 406.74C75.16 404.27 76.14 402.05 76.89 400.47C77.228 399.602 77.6606 398.773 78.18 398Z" fill="#263238"/>
<path d="M52.8694 287.11C52.8694 287.11 38.6594 279.69 38.3794 267.28C38.3751 267.182 38.3983 267.084 38.4464 266.998C38.4946 266.912 38.5658 266.841 38.652 266.793C38.7382 266.745 38.8361 266.722 38.9345 266.727C39.033 266.732 39.1282 266.764 39.2094 266.82C41.3194 268.28 47.1694 273.31 52.8694 287.11Z" fill="#F66E46"/>
<path d="M41.3301 271.54C41.9943 272.218 42.5874 272.962 43.1001 273.76L47.1001 279.3L51.1001 284.83C51.7094 285.556 52.2517 286.336 52.7201 287.16C51.9681 286.558 51.296 285.862 50.7201 285.09C49.5901 283.75 48.1001 281.83 46.5401 279.66C44.9801 277.49 43.6201 275.48 42.6701 274C42.131 273.234 41.6814 272.408 41.3301 271.54Z" fill="#263238"/>
<path d="M68.1289 320C68.1289 320 53.499 313.46 52.459 301.09C52.4507 300.993 52.4693 300.895 52.513 300.808C52.5566 300.721 52.6234 300.647 52.7061 300.596C52.7888 300.544 52.8842 300.516 52.9818 300.515C53.0793 300.514 53.1752 300.54 53.259 300.59C55.459 301.88 61.6089 306.55 68.1289 320Z" fill="#F66E46"/>
<path d="M55.6699 305.14C56.3721 305.778 57.0086 306.485 57.5699 307.25L61.9099 312.54L66.2599 317.81C66.9091 318.482 67.4919 319.216 67.9999 320C67.2374 319.413 66.543 318.742 65.9299 318C64.7199 316.72 63.1199 314.9 61.4299 312.83C59.7399 310.76 58.2599 308.83 57.2299 307.42C56.6254 306.722 56.1021 305.957 55.6699 305.14Z" fill="#263238"/>
<path d="M59.7102 356.64C59.7102 356.64 49.6602 344.14 54.3802 332.64C54.4161 332.549 54.4764 332.47 54.5545 332.411C54.6326 332.352 54.7254 332.316 54.8226 332.307C54.9199 332.298 55.0178 332.316 55.1056 332.358C55.1935 332.401 55.2677 332.468 55.3202 332.55C56.6702 334.76 60.0002 341.71 59.7102 356.64Z" fill="#F66E46"/>
<path d="M55.3699 337.75C55.7063 338.636 55.9509 339.554 56.0999 340.49C56.5199 342.42 57.0099 344.68 57.5599 347.18C58.1099 349.68 58.5599 351.93 59.0299 353.85C59.2974 354.761 59.4815 355.695 59.5799 356.64C59.1359 355.792 58.7999 354.892 58.5799 353.96C58.0799 352.27 57.4899 349.96 56.9299 347.3C56.3699 344.64 55.9299 342.3 55.6499 340.58C55.4534 339.65 55.3595 338.701 55.3699 337.75Z" fill="#263238"/>
<path d="M69.6695 399.78C69.6695 399.78 55.1395 393 54.3195 380.6C54.3132 380.504 54.3333 380.408 54.3778 380.322C54.4222 380.236 54.4892 380.164 54.5715 380.114C54.6539 380.063 54.7485 380.036 54.845 380.036C54.9416 380.035 55.0365 380.061 55.1195 380.11C57.2995 381.48 63.3695 386.25 69.6695 399.78Z" fill="#F66E46"/>
<path d="M57.4492 384.73C58.1435 385.378 58.7701 386.095 59.3192 386.87C60.5392 388.42 61.9792 390.23 63.5692 392.23L67.8292 397.58C68.4697 398.28 69.0454 399.036 69.5492 399.84C68.8052 399.256 68.1338 398.584 67.5492 397.84C66.3692 396.55 64.7992 394.7 63.1492 392.6C61.4992 390.5 59.9992 388.56 58.9992 387.13C58.3981 386.388 57.8785 385.583 57.4492 384.73Z" fill="#263238"/>
<path d="M98.5994 336.73C98.6134 336.85 98.6134 336.971 98.5994 337.09C98.5994 337.37 98.5994 337.7 98.5994 338.09C98.5994 339.09 98.4994 340.36 98.4294 341.98C98.2394 345.4 97.9794 350.16 97.6694 355.87C96.6694 361.67 93.6694 368.1 89.6694 374.34C86.7594 378.94 83.6694 383.13 81.0794 387.02C78.6849 390.416 76.5297 393.975 74.6294 397.67C73.3869 400.177 72.3825 402.795 71.6294 405.49C71.3694 406.44 71.1794 407.19 71.0694 407.7C71.0252 407.963 70.9549 408.221 70.8594 408.47C70.8626 408.205 70.8927 407.94 70.9494 407.68C71.0194 407.16 71.1794 406.4 71.3994 405.43C72.078 402.673 73.0363 399.993 74.2594 397.43C76.118 393.69 78.247 390.091 80.6294 386.66C83.2394 382.74 86.2794 378.55 89.1794 373.98C93.1794 367.76 96.0594 361.43 97.1794 355.72C97.5794 350.03 97.9094 345.27 98.1794 341.85C98.3094 340.23 98.4194 338.93 98.4894 337.97C98.4894 337.57 98.5694 337.23 98.5994 336.97C98.5908 336.89 98.5908 336.81 98.5994 336.73Z" fill="#263238"/>
<path d="M90.0003 373.2C90.0003 373.2 96.1503 358.39 88.4103 348.69C88.3504 348.612 88.2699 348.553 88.178 348.518C88.0861 348.483 87.9863 348.475 87.8898 348.493C87.7934 348.512 87.704 348.557 87.6317 348.624C87.5593 348.69 87.507 348.776 87.4803 348.87C86.7503 351.35 85.4803 359 90.0003 373.2Z" fill="#F66E46"/>
<path d="M88.8285 353.86C89.0936 354.773 89.258 355.712 89.3185 356.66C89.5385 358.4 89.7785 360.81 89.9685 363.48C90.1585 366.15 90.2485 368.57 90.2485 370.32C90.3101 371.27 90.253 372.224 90.0785 373.16C89.9047 372.23 89.8209 371.286 89.8285 370.34C89.6985 368.34 89.5385 366.07 89.3685 363.52C89.1985 360.97 89.0285 358.66 88.8985 356.7C88.7818 355.758 88.7584 354.807 88.8285 353.86Z" fill="#263238"/>
<g opacity="0.3">
<path d="M90.0003 373.2C90.0003 373.2 96.1503 358.39 88.4103 348.69C88.3504 348.612 88.2699 348.553 88.178 348.518C88.0861 348.483 87.9863 348.475 87.8898 348.493C87.7934 348.512 87.704 348.557 87.6317 348.624C87.5593 348.69 87.507 348.776 87.4803 348.87C86.7503 351.35 85.4803 359 90.0003 373.2Z" fill="black"/>
</g>
<path d="M70.9 408.88C70.9 408.88 75.83 393.63 67.33 384.59C67.2642 384.518 67.1797 384.466 67.0859 384.439C66.9921 384.412 66.8927 384.411 66.7986 384.437C66.7045 384.463 66.6193 384.514 66.5525 384.585C66.4857 384.656 66.4399 384.745 66.42 384.84C65.93 387.36 65.29 395.05 70.9 408.88Z" fill="#F66E46"/>
<path d="M68.209 389.69C68.5488 390.581 68.787 391.506 68.919 392.45C69.279 394.16 69.719 396.54 70.129 399.19C70.539 401.84 70.819 404.24 70.959 405.99C71.0949 406.934 71.115 407.891 71.019 408.84C70.7754 407.923 70.6148 406.986 70.539 406.04C70.249 404.04 69.909 401.81 69.539 399.28C69.169 396.75 68.809 394.47 68.539 392.52C68.3362 391.59 68.2257 390.642 68.209 389.69Z" fill="#263238"/>
<g opacity="0.3">
<path d="M70.9 408.88C70.9 408.88 75.83 393.63 67.33 384.59C67.2642 384.518 67.1797 384.466 67.0859 384.439C66.9921 384.412 66.8927 384.411 66.7986 384.437C66.7045 384.463 66.6193 384.514 66.5525 384.585C66.4857 384.656 66.4399 384.745 66.42 384.84C65.93 387.36 65.29 395.05 70.9 408.88Z" fill="black"/>
</g>
<path d="M97.7793 355.11C97.7793 355.11 110.919 345.91 109.589 333.57C109.581 333.472 109.545 333.379 109.486 333.3C109.428 333.221 109.348 333.16 109.257 333.124C109.166 333.088 109.066 333.077 108.97 333.094C108.873 333.111 108.783 333.155 108.709 333.22C106.809 335 101.649 340.69 97.7793 355.11Z" fill="#F66E46"/>
<g opacity="0.3">
<path d="M97.7793 355.11C97.7793 355.11 110.919 345.91 109.589 333.57C109.581 333.472 109.545 333.379 109.486 333.3C109.428 333.221 109.348 333.16 109.257 333.124C109.166 333.088 109.066 333.077 108.97 333.094C108.873 333.111 108.783 333.155 108.709 333.22C106.809 335 101.649 340.69 97.7793 355.11Z" fill="black"/>
</g>
<path d="M107.22 338.18C106.955 339.091 106.589 339.97 106.13 340.8C105.38 342.39 104.29 344.55 103.02 346.91C101.75 349.27 100.53 351.36 99.5802 352.84C99.126 353.676 98.5646 354.449 97.9102 355.14C98.2709 354.263 98.7093 353.419 99.2202 352.62L102.49 346.62L105.75 340.62C106.155 339.758 106.647 338.941 107.22 338.18Z" fill="#263238"/>
<path d="M76.1895 393.76C76.1895 393.76 91.9994 391.29 96.2794 379.63C96.3148 379.538 96.3239 379.438 96.3056 379.341C96.2873 379.245 96.2424 379.155 96.176 379.082C96.1095 379.009 96.0241 378.957 95.9293 378.93C95.8345 378.903 95.7342 378.903 95.6395 378.93C93.1695 379.63 85.9995 382.52 76.1895 393.76Z" fill="#F66E46"/>
<g opacity="0.3">
<path d="M76.1895 393.76C76.1895 393.76 91.9994 391.29 96.2794 379.63C96.3148 379.538 96.3239 379.438 96.3056 379.341C96.2873 379.245 96.2424 379.155 96.176 379.082C96.1095 379.009 96.0241 378.957 95.9293 378.93C95.8345 378.903 95.7342 378.903 95.6395 378.93C93.1695 379.63 85.9995 382.52 76.1895 393.76Z" fill="black"/>
</g>
<path d="M92.1186 382.72C91.4798 383.417 90.7692 384.043 89.9986 384.59C88.6286 385.69 86.6986 387.15 84.5186 388.7C82.3386 390.25 80.3186 391.6 78.8286 392.52C78.0453 393.063 77.1991 393.51 76.3086 393.85C77.0158 393.219 77.7789 392.653 78.5886 392.16L84.1786 388.22L89.7486 384.22C90.4845 383.639 91.2787 383.137 92.1186 382.72Z" fill="#263238"/>
<path d="M61.079 422.92L56.459 454.02H85.259L81.519 422.92H61.079Z" fill="#455A64"/>
<path d="M82.6792 432.55C82.6792 432.72 77.4792 432.85 71.0592 432.85C64.6392 432.85 59.4492 432.72 59.4492 432.55C63.3117 432.254 67.1866 432.154 71.0592 432.25C74.9351 432.154 78.8134 432.254 82.6792 432.55Z" fill="#263238"/>
<path d="M83.25 435C83.25 435.16 77.88 435.3 71.25 435.3C64.62 435.3 59.25 435.16 59.25 435C59.25 434.84 64.62 434.7 71.25 434.7C77.88 434.7 83.25 434.86 83.25 435Z" fill="#263238"/>
</svg>
