<svg width="500" height="500" viewBox="0 0 500 500" fill="none" xmlns="http://www.w3.org/2000/svg">
<path d="M156.221 37.52H34.2812V239.36H156.221V37.52Z" fill="#E0E0E0"/>
<path d="M152.161 37.52H30.2207V239.36H152.161V37.52Z" fill="#EBEBEB"/>
<path d="M146.97 41.61H35.4199V235.26H146.97V41.61Z" fill="#FAFAFA"/>
<path d="M125.24 66.77H56.6504V210.09H125.24V66.77Z" fill="#EBEBEB"/>
<path d="M56.65 159.38C56.49 145.99 68.53 132.92 81.79 131.05C88.11 130.16 94.79 131.41 100.74 128.99C111.28 124.67 114.64 110.66 125.25 106.5L125.73 210.1H56.65V159.38Z" fill="#E0E0E0"/>
<path d="M424.102 93.6834L414.092 93.7375L414.361 143.537L424.371 143.483L424.102 93.6834Z" fill="#E0E0E0"/>
<path d="M353.314 93.8067L327.395 93.9469L327.543 121.436L353.463 121.296L353.314 93.8067Z" fill="#EBEBEB"/>
<path d="M379.113 93.6771L353.193 93.8174L353.342 121.307L379.262 121.167L379.113 93.6771Z" fill="#F5F5F5"/>
<path d="M327.431 101.57C344.651 101.71 361.921 101.57 379.141 101.33C379.205 101.318 379.263 101.284 379.305 101.233C379.346 101.183 379.369 101.12 379.369 101.055C379.369 100.99 379.346 100.927 379.305 100.877C379.263 100.826 379.205 100.792 379.141 100.78C361.915 100.68 344.678 100.783 327.431 101.09C327.368 101.09 327.307 101.115 327.262 101.16C327.217 101.205 327.191 101.266 327.191 101.33C327.191 101.394 327.217 101.455 327.262 101.5C327.307 101.545 327.368 101.57 327.431 101.57Z" fill="#E0E0E0"/>
<path d="M358.33 120.849L311.24 121.104L311.361 143.504L358.451 143.249L358.33 120.849Z" fill="#EBEBEB"/>
<path d="M405.189 120.596L358.1 120.85L358.221 143.25L405.31 142.995L405.189 120.596Z" fill="#F5F5F5"/>
<path d="M311.262 127.35C342.542 127.71 373.932 127.35 405.212 126.89C405.276 126.878 405.333 126.844 405.375 126.793C405.416 126.743 405.439 126.68 405.439 126.615C405.439 126.55 405.416 126.487 405.375 126.437C405.333 126.387 405.276 126.352 405.212 126.34C373.932 126.17 342.542 126.19 311.262 126.88C311.208 126.891 311.159 126.921 311.124 126.964C311.089 127.006 311.07 127.06 311.07 127.115C311.07 127.17 311.089 127.224 311.124 127.267C311.159 127.309 311.208 127.339 311.262 127.35Z" fill="#E0E0E0"/>
<path d="M476.08 143.52H293.65V151.55H476.08V143.52Z" fill="#E0E0E0"/>
<path d="M330.931 147.38H323.521V174.77H330.931V147.38Z" fill="#E0E0E0"/>
<path d="M441.48 147.38H434.07V174.77H441.48V147.38Z" fill="#E0E0E0"/>
<path d="M433.871 75.1105L423.861 75.1647L424.232 143.654L434.242 143.599L433.871 75.1105Z" fill="#EBEBEB"/>
<path d="M449.511 87.8659L433.961 87.9501L434.261 143.449L449.811 143.365L449.511 87.8659Z" fill="#F5F5F5"/>
<path d="M449.39 98.5801C444.213 98.9401 439.017 98.9401 433.84 98.5801C439.017 98.2201 444.213 98.2201 449.39 98.5801Z" fill="#E0E0E0"/>
<path d="M449.39 96.25C444.213 96.61 439.017 96.61 433.84 96.25C439.017 95.89 444.213 95.89 449.39 96.25Z" fill="#E0E0E0"/>
<path d="M449.39 135C444.213 135.36 439.017 135.36 433.84 135C439.017 134.64 444.213 134.64 449.39 135Z" fill="#E0E0E0"/>
<path d="M449.39 132.71C444.212 133.057 439.017 133.057 433.84 132.71C439.017 132.35 444.213 132.35 449.39 132.71Z" fill="#E0E0E0"/>
<path d="M441.872 127.62C441.722 127.62 441.602 122.02 441.602 115.11C441.602 108.2 441.722 102.61 441.872 102.61C442.022 102.61 442.142 108.2 442.142 115.11C442.142 122.02 442.002 127.62 441.872 127.62Z" fill="#E0E0E0"/>
<path d="M466.491 101.51H449.561V143.4H466.491V101.51Z" fill="#EBEBEB"/>
<path d="M431.592 86.83C431.602 87.4017 431.441 87.9633 431.131 88.4435C430.82 88.9236 430.374 89.3005 429.849 89.5262C429.324 89.7518 428.743 89.8161 428.181 89.7106C427.619 89.6052 427.101 89.335 426.693 88.9342C426.286 88.5335 426.006 88.0205 425.891 87.4605C425.776 86.9005 425.83 86.3189 426.046 85.7898C426.263 85.2606 426.632 84.8078 427.106 84.4891C427.581 84.1704 428.14 84.0001 428.712 84C429.468 83.9973 430.194 84.293 430.733 84.8229C431.273 85.3528 431.581 86.0741 431.592 86.83Z" fill="#E0E0E0"/>
<path d="M429.6 94.74H427.82V135.48H429.6V94.74Z" fill="#E0E0E0"/>
<path d="M173.791 412.6C173.791 412.6 164.621 419.6 173.401 428.81C173.476 428.888 173.566 428.951 173.666 428.994C173.766 429.037 173.873 429.059 173.981 429.06L254.091 428.59C254.091 428.59 260.931 420.92 255.251 412.08L173.791 412.6Z" fill="#EBEBEB"/>
<path d="M236.38 419.89C236.38 419.98 226.38 420.05 214.11 420.05C201.84 420.05 191.83 419.98 191.83 419.89C191.83 419.8 201.83 419.73 214.11 419.73C226.39 419.73 236.38 419.8 236.38 419.89Z" fill="#E0E0E0"/>
<path d="M223.92 422.79C223.92 422.88 219.24 422.95 213.45 422.95C207.66 422.95 202.98 422.88 202.98 422.79C202.98 422.7 207.67 422.62 213.45 422.62C219.23 422.62 223.92 422.7 223.92 422.79Z" fill="#E0E0E0"/>
<path d="M244.571 428.33C244.571 428.33 244.751 427.41 245.001 425.93C245.321 424 245.475 422.046 245.461 420.09C245.441 418.131 245.25 416.176 244.891 414.25C244.611 412.77 244.371 411.87 244.421 411.85C244.519 412.048 244.596 412.256 244.651 412.47C244.837 413.037 244.991 413.615 245.111 414.2C245.54 416.131 245.768 418.102 245.791 420.08C245.802 422.058 245.611 424.031 245.221 425.97C245.071 426.71 244.921 427.31 244.801 427.71C244.681 428.11 244.601 428.34 244.571 428.33Z" fill="#E0E0E0"/>
<path d="M250.55 412C250.697 412.175 250.818 412.371 250.91 412.58C251.042 412.814 251.163 413.054 251.27 413.3C251.422 413.626 251.555 413.96 251.67 414.3C251.998 415.161 252.256 416.047 252.44 416.95C252.65 418.062 252.767 419.189 252.79 420.32C252.788 421.453 252.688 422.584 252.49 423.7C252.324 424.608 252.083 425.501 251.77 426.37C251.65 426.75 251.5 427.07 251.38 427.37C251.28 427.617 251.163 427.858 251.03 428.09C250.942 428.3 250.828 428.498 250.69 428.68C250.63 428.68 251.08 427.79 251.56 426.31C252.178 424.371 252.482 422.345 252.46 420.31C252.447 419.196 252.34 418.086 252.14 416.99C251.975 416.095 251.748 415.213 251.46 414.35C251 412.86 250.5 412 250.55 412Z" fill="#E0E0E0"/>
<path d="M186.43 428.44C186.282 428.276 186.155 428.095 186.05 427.9C185.913 427.688 185.79 427.468 185.68 427.24C185.522 426.941 185.378 426.634 185.25 426.32C184.911 425.503 184.65 424.656 184.47 423.79C184.26 422.726 184.156 421.644 184.16 420.56C184.184 419.476 184.318 418.397 184.56 417.34C184.763 416.481 185.047 415.644 185.41 414.84C185.542 414.528 185.692 414.224 185.86 413.93C185.972 413.7 186.102 413.479 186.25 413.27C186.48 412.92 186.62 412.73 186.64 412.75C186.66 412.77 186.18 413.55 185.64 414.93C185.314 415.733 185.056 416.563 184.87 417.41C184.653 418.45 184.53 419.508 184.5 420.57C184.502 421.629 184.596 422.687 184.78 423.73C184.95 424.58 185.184 425.416 185.48 426.23C186 427.62 186.48 428.41 186.43 428.44Z" fill="#E0E0E0"/>
<path d="M177.781 430.39C177.615 430.212 177.477 430.009 177.371 429.79C177.227 429.537 177.104 429.273 177.001 429C176.819 428.676 176.656 428.342 176.511 428C176.125 427.085 175.82 426.138 175.601 425.17C175.042 422.794 174.987 420.328 175.441 417.93C175.617 416.951 175.882 415.991 176.231 415.06C176.361 414.66 176.531 414.32 176.661 414.01C176.776 413.746 176.907 413.489 177.051 413.24C177.157 413.018 177.284 412.807 177.431 412.61C177.491 412.61 176.981 413.56 176.431 415.14C176.121 416.067 175.884 417.016 175.721 417.98C175.533 419.16 175.446 420.355 175.461 421.55C175.513 423.729 175.936 425.883 176.711 427.92C177.281 429.47 177.831 430.36 177.781 430.39Z" fill="#E0E0E0"/>
<path d="M251.15 453V468.32H221.49V453H251.15Z" fill="#EBEBEB"/>
<path d="M155.351 460.79C155.351 460.93 155.351 461.06 155.351 461.2C155.494 463.437 156.487 465.535 158.127 467.063C159.767 468.592 161.929 469.435 164.171 469.42H252.511V468.31H231.511C229.479 468.31 227.531 467.503 226.094 466.066C224.658 464.63 223.851 462.682 223.851 460.65C223.851 458.618 224.658 456.67 226.094 455.234C227.531 453.797 229.479 452.99 231.511 452.99H252.511V451.36L164.151 451.66C162.968 451.663 161.798 451.904 160.71 452.368C159.622 452.833 158.639 453.511 157.818 454.362C156.997 455.214 156.356 456.222 155.932 457.326C155.508 458.43 155.311 459.608 155.351 460.79Z" fill="#E0E0E0"/>
<path d="M251.15 460.85C251.15 460.94 245.05 461.02 237.53 461.02C230.01 461.02 223.91 460.94 223.91 460.85C223.91 460.76 230.01 460.69 237.53 460.69C245.05 460.69 251.15 460.77 251.15 460.85Z" fill="#E0E0E0"/>
<path d="M250.721 464.31C250.721 464.4 244.951 464.47 237.831 464.47C230.711 464.47 224.941 464.4 224.941 464.31C224.941 464.22 230.711 464.15 237.831 464.15C244.951 464.15 250.721 464.22 250.721 464.31Z" fill="#E0E0E0"/>
<path d="M251.151 467.47C251.151 467.56 245.961 467.63 239.561 467.63C233.161 467.63 227.971 467.56 227.971 467.47C227.971 467.38 233.161 467.31 239.561 467.31C245.961 467.31 251.151 467.38 251.151 467.47Z" fill="#E0E0E0"/>
<path d="M251.151 457.75C251.151 457.84 245.151 457.91 237.811 457.91C230.471 457.91 224.471 457.84 224.471 457.75C224.471 457.66 230.471 457.59 237.811 457.59C245.151 457.59 251.151 457.66 251.151 457.75Z" fill="#E0E0E0"/>
<path d="M250.721 454.65C250.721 454.74 245.401 454.81 238.851 454.81C232.301 454.81 226.971 454.74 226.971 454.65C226.971 454.56 232.291 454.49 238.851 454.49C245.411 454.49 250.721 454.56 250.721 454.65Z" fill="#E0E0E0"/>
<path d="M166.06 451.91C165.374 452.601 164.745 453.347 164.18 454.14C162.839 456.075 162.133 458.38 162.16 460.734C162.187 463.088 162.945 465.376 164.33 467.28C164.919 468.057 165.564 468.789 166.26 469.47C166.033 469.338 165.822 469.18 165.63 469C165.083 468.527 164.586 467.997 164.15 467.42C162.679 465.499 161.87 463.154 161.842 460.735C161.815 458.316 162.572 455.953 164 454C164.42 453.413 164.903 452.873 165.44 452.39C165.625 452.204 165.833 452.042 166.06 451.91Z" fill="#F5F5F5"/>
<path d="M163.071 451.58C162.393 452.283 161.765 453.031 161.191 453.82C159.855 455.756 159.153 458.059 159.181 460.411C159.21 462.762 159.968 465.047 161.351 466.95C161.935 467.73 162.581 468.462 163.281 469.14C163.047 469.012 162.832 468.854 162.641 468.67C162.093 468.197 161.597 467.667 161.161 467.09C159.69 465.174 158.879 462.832 158.85 460.417C158.822 458.001 159.576 455.641 161.001 453.69C161.421 453.1 161.904 452.557 162.441 452.07C162.63 451.882 162.842 451.718 163.071 451.58Z" fill="#F5F5F5"/>
<path d="M223.09 451.91C222.413 452.606 221.788 453.352 221.22 454.14C219.879 456.075 219.173 458.38 219.2 460.734C219.227 463.088 219.985 465.376 221.37 467.28C221.959 468.057 222.604 468.789 223.3 469.47C223.069 469.34 222.854 469.182 222.66 469C222.116 468.526 221.624 467.997 221.19 467.42C219.713 465.504 218.897 463.161 218.862 460.742C218.828 458.323 219.578 455.957 221 454C221.417 453.41 221.9 452.87 222.44 452.39C222.638 452.206 222.856 452.045 223.09 451.91Z" fill="#F5F5F5"/>
<path d="M220.112 451.58C219.427 452.276 218.799 453.025 218.232 453.82C216.89 455.753 216.184 458.056 216.211 460.409C216.237 462.762 216.996 465.048 218.382 466.95C218.97 467.727 219.615 468.459 220.312 469.14C220.085 469.008 219.873 468.85 219.682 468.67C219.132 468.2 218.635 467.67 218.202 467.09C216.731 465.174 215.92 462.832 215.891 460.417C215.863 458.001 216.617 455.641 218.042 453.69C218.462 453.1 218.945 452.557 219.482 452.07C219.669 451.879 219.881 451.715 220.112 451.58Z" fill="#F5F5F5"/>
<path d="M176.111 463L176.021 456.76C176.053 456.218 175.982 455.675 175.811 455.16C175.721 454.902 175.562 454.674 175.353 454.498C175.144 454.322 174.891 454.205 174.621 454.16C173.841 453.81 172.621 454.46 172.081 455.36C171.603 456.305 171.392 457.364 171.471 458.42C171.451 460.063 171.532 461.706 171.711 463.34C171.745 464.126 171.943 464.895 172.291 465.6C172.447 465.965 172.714 466.271 173.054 466.475C173.393 466.679 173.789 466.77 174.184 466.735C174.579 466.701 174.953 466.543 175.252 466.283C175.552 466.024 175.761 465.676 175.851 465.29C176.083 464.55 176.172 463.773 176.111 463Z" fill="#F5F5F5"/>
<path d="M210.421 461.15C210.421 461.24 204.031 461.32 196.161 461.32C188.291 461.32 181.891 461.24 181.891 461.15C181.891 461.06 188.281 460.99 196.161 460.99C204.041 460.99 210.421 461.06 210.421 461.15Z" fill="#F5F5F5"/>
<path d="M170.191 451.3L170.031 436.77H177.941L178.211 451.3H170.191Z" fill="#F5F5F5"/>
<path d="M177.471 439.35C176.252 439.517 175.02 439.574 173.791 439.52C172.565 439.574 171.337 439.517 170.121 439.35C171.337 439.19 172.565 439.136 173.791 439.19C175.02 439.136 176.251 439.19 177.471 439.35Z" fill="#E0E0E0"/>
<path d="M177.471 441.6C176.251 441.76 175.02 441.814 173.791 441.76C172.565 441.814 171.337 441.76 170.121 441.6C171.337 441.44 172.565 441.386 173.791 441.44C175.02 441.386 176.251 441.44 177.471 441.6Z" fill="#E0E0E0"/>
<path d="M177.471 443.84C176.251 444 175.02 444.054 173.791 444C172.565 444.054 171.337 444 170.121 443.84C171.337 443.68 172.565 443.626 173.791 443.68C175.02 443.626 176.251 443.68 177.471 443.84Z" fill="#E0E0E0"/>
<path d="M177.471 446.08C176.251 446.24 175.02 446.294 173.791 446.24C172.565 446.294 171.337 446.24 170.121 446.08C171.337 445.92 172.565 445.866 173.791 445.92C175.02 445.866 176.251 445.92 177.471 446.08Z" fill="#E0E0E0"/>
<path d="M177.471 448.32C176.252 448.487 175.02 448.544 173.791 448.49C172.565 448.544 171.337 448.487 170.121 448.32C171.338 448.165 172.565 448.112 173.791 448.16C175.02 448.112 176.251 448.166 177.471 448.32Z" fill="#E0E0E0"/>
<path d="M169.611 436.38H257.271C258.278 441.568 258.278 446.902 257.271 452.09H170.001V451H175.341C175.672 451 175.999 450.935 176.304 450.808C176.609 450.681 176.886 450.495 177.12 450.261C177.353 450.027 177.538 449.749 177.663 449.444C177.789 449.138 177.853 448.81 177.851 448.48V439.79C177.853 439.46 177.789 439.132 177.663 438.826C177.538 438.521 177.353 438.243 177.12 438.009C176.886 437.775 176.609 437.589 176.304 437.462C175.999 437.335 175.672 437.27 175.341 437.27H169.631L169.611 436.38Z" fill="#EBEBEB"/>
<path d="M190.331 444.25H191.791C191.843 444.235 191.898 444.235 191.951 444.25C192 444.275 192.042 444.314 192.07 444.362C192.099 444.409 192.113 444.464 192.111 444.52C192.116 444.553 192.116 444.587 192.111 444.62C192.111 444.74 192.051 444.86 192.011 444.99C191.836 445.604 191.521 446.169 191.091 446.64C190.941 446.829 190.753 446.984 190.539 447.096C190.326 447.208 190.091 447.274 189.851 447.29H189.671C189.461 447.251 189.263 447.167 189.09 447.042C188.917 446.918 188.774 446.757 188.671 446.57C188.366 446.035 188.217 445.425 188.241 444.81C188.244 444.385 188.301 443.961 188.411 443.55C188.571 442.929 188.868 442.351 189.281 441.86C189.435 441.653 189.634 441.483 189.862 441.362C190.09 441.241 190.343 441.172 190.601 441.16C190.791 441.159 190.978 441.2 191.151 441.28C191.565 441.512 191.874 441.895 192.011 442.35C192.02 442.4 192.02 442.45 192.011 442.5C192.024 442.549 192.024 442.601 192.011 442.65C191.984 442.698 191.945 442.739 191.897 442.767C191.85 442.795 191.796 442.81 191.741 442.81C191.708 442.821 191.673 442.821 191.641 442.81C191.594 442.797 191.552 442.774 191.517 442.74C191.482 442.707 191.456 442.666 191.441 442.62C191.397 442.496 191.336 442.378 191.261 442.27C191.188 442.148 191.086 442.047 190.963 441.975C190.841 441.903 190.703 441.864 190.561 441.86C190.386 441.861 190.217 441.921 190.081 442.03C189.713 442.333 189.437 442.73 189.281 443.18C189.06 443.702 188.944 444.263 188.941 444.83C188.926 445.277 189.012 445.721 189.191 446.13C189.245 446.291 189.347 446.431 189.482 446.533C189.618 446.635 189.781 446.693 189.951 446.7C190.093 446.683 190.23 446.636 190.352 446.562C190.475 446.488 190.58 446.388 190.661 446.27C190.996 445.873 191.251 445.414 191.411 444.92C190.741 444.92 190.411 444.92 190.361 444.92C190.268 444.92 190.179 444.883 190.113 444.818C190.048 444.752 190.011 444.663 190.011 444.57V444.46C190.038 444.398 190.083 444.345 190.139 444.307C190.196 444.27 190.263 444.25 190.331 444.25Z" fill="#FAFAFA"/>
<path d="M195.311 441.39C195.311 441.39 195.311 441.46 195.311 441.5C195.371 441.707 195.705 443.517 196.311 446.93C196.316 446.956 196.316 446.984 196.311 447.01C196.325 447.063 196.325 447.118 196.311 447.17C196.288 447.219 196.251 447.26 196.205 447.289C196.159 447.317 196.105 447.331 196.051 447.33H196.001C195.944 447.32 195.891 447.294 195.849 447.255C195.806 447.216 195.776 447.166 195.761 447.11L195.411 445.3H193.611L192.741 447.12C192.748 447.139 192.748 447.161 192.741 447.18C192.711 447.225 192.671 447.261 192.624 447.287C192.577 447.314 192.525 447.328 192.471 447.33C192.411 447.329 192.352 447.311 192.301 447.28C192.258 447.25 192.223 447.209 192.198 447.162C192.174 447.115 192.161 447.063 192.161 447.01C192.152 446.981 192.152 446.949 192.161 446.92C192.211 446.79 192.301 446.6 192.431 446.33C193.691 443.57 194.431 441.95 194.691 441.45C194.715 441.389 194.756 441.336 194.81 441.297C194.863 441.258 194.926 441.235 194.991 441.23C195.054 441.227 195.116 441.239 195.172 441.267C195.229 441.296 195.276 441.338 195.311 441.39ZM194.921 442.61L193.921 444.66H195.301L194.921 442.61Z" fill="#FAFAFA"/>
<path d="M200.2 447.33H197.56C197.5 447.329 197.441 447.311 197.39 447.28C197.345 447.238 197.308 447.187 197.282 447.13C197.256 447.073 197.242 447.012 197.24 446.95C197.24 446.85 197.48 445.04 197.97 441.55C197.965 441.51 197.965 441.47 197.97 441.43C197.992 441.371 198.031 441.321 198.084 441.287C198.136 441.253 198.198 441.236 198.26 441.24C198.306 441.23 198.354 441.23 198.4 441.24C198.453 441.265 198.497 441.305 198.527 441.355C198.557 441.405 198.572 441.462 198.57 441.52L198.4 443C198.1 445.313 197.94 446.533 197.92 446.66H200.17C200.226 446.65 200.284 446.65 200.34 446.66C200.401 446.683 200.452 446.724 200.488 446.778C200.524 446.832 200.542 446.895 200.54 446.96C200.545 446.993 200.545 447.027 200.54 447.06C200.521 447.136 200.477 447.203 200.416 447.252C200.354 447.301 200.279 447.328 200.2 447.33Z" fill="#FAFAFA"/>
<path d="M203.81 441.39C203.81 441.39 203.81 441.46 203.81 441.5C203.87 441.71 204.22 443.5 204.81 446.93C204.814 446.956 204.814 446.984 204.81 447.01C204.807 447.067 204.79 447.122 204.76 447.17C204.737 447.219 204.7 447.26 204.654 447.289C204.607 447.317 204.554 447.331 204.5 447.33H204.45C204.394 447.318 204.342 447.291 204.3 447.253C204.258 447.214 204.227 447.165 204.21 447.11L204 445.3H202.2L201.33 447.12C201.334 447.14 201.334 447.16 201.33 447.18C201.297 447.224 201.255 447.26 201.206 447.286C201.158 447.312 201.105 447.327 201.05 447.33C200.99 447.327 200.932 447.31 200.88 447.28C200.837 447.249 200.801 447.209 200.777 447.162C200.753 447.115 200.74 447.063 200.74 447.01C200.735 446.98 200.735 446.95 200.74 446.92C200.79 446.79 200.88 446.6 201.01 446.33C202.27 443.57 203.01 441.95 203.27 441.45C203.294 441.389 203.335 441.336 203.388 441.297C203.441 441.258 203.504 441.235 203.57 441.23C203.619 441.239 203.665 441.257 203.707 441.285C203.748 441.312 203.783 441.348 203.81 441.39ZM203.42 442.61L202.42 444.66H203.8L203.42 442.61Z" fill="#FAFAFA"/>
<path d="M208 444.51L208.48 445.83C208.75 446.59 208.89 446.98 208.89 447.02C208.906 447.072 208.906 447.128 208.89 447.18C208.861 447.226 208.821 447.264 208.774 447.29C208.727 447.316 208.674 447.33 208.62 447.33C208.5 447.33 208.42 447.26 208.36 447.12C208.3 446.98 208.36 447.02 208.31 446.98C208.17 446.65 207.93 445.98 207.6 445.12L206.11 447.12C206.08 447.168 206.039 447.209 205.99 447.239C205.942 447.268 205.887 447.286 205.83 447.29C205.777 447.3 205.723 447.3 205.67 447.29C205.622 447.264 205.583 447.224 205.556 447.177C205.529 447.129 205.517 447.075 205.52 447.02V447C205.554 446.903 205.609 446.814 205.68 446.74C206.18 446.09 206.68 445.32 207.34 444.43C207.28 444.25 207.22 444.09 207.16 443.93C206.6 442.42 206.31 441.64 206.31 441.59C206.301 441.537 206.301 441.483 206.31 441.43C206.335 441.383 206.372 441.343 206.418 441.314C206.464 441.286 206.516 441.271 206.57 441.27C206.63 441.271 206.689 441.288 206.74 441.32C206.791 441.351 206.833 441.396 206.86 441.45L207.75 443.83L209.51 441.43C209.54 441.383 209.582 441.345 209.631 441.319C209.68 441.293 209.734 441.279 209.79 441.28C209.836 441.27 209.884 441.27 209.93 441.28C209.981 441.306 210.024 441.346 210.052 441.396C210.081 441.446 210.094 441.503 210.09 441.56C210.104 441.609 210.104 441.661 210.09 441.71L208 444.51Z" fill="#FAFAFA"/>
<path d="M214.562 441.25C214.608 441.24 214.656 441.24 214.702 441.25C214.753 441.273 214.797 441.312 214.827 441.36C214.857 441.408 214.873 441.463 214.872 441.52C214.442 444.94 214.202 446.78 214.162 447.06C214.087 447.578 213.892 448.071 213.592 448.5C213.307 448.901 212.888 449.186 212.411 449.303C211.933 449.421 211.43 449.363 210.992 449.14C210.599 448.978 210.271 448.69 210.062 448.32C210.053 448.27 210.053 448.22 210.062 448.17C210.047 448.118 210.047 448.062 210.062 448.01C210.087 447.96 210.125 447.919 210.173 447.89C210.221 447.862 210.276 447.848 210.332 447.85C210.379 447.853 210.424 447.867 210.466 447.889C210.507 447.911 210.543 447.943 210.572 447.98C210.719 448.207 210.918 448.395 211.153 448.529C211.388 448.663 211.651 448.739 211.922 448.75C212.117 448.741 212.308 448.688 212.481 448.597C212.654 448.505 212.804 448.376 212.922 448.22C213.282 447.74 213.484 447.16 213.502 446.56C213.401 446.722 213.269 446.862 213.112 446.97C212.841 447.174 212.511 447.283 212.172 447.28H211.992C211.782 447.243 211.583 447.159 211.409 447.034C211.236 446.909 211.094 446.747 210.992 446.56C210.679 446.028 210.527 445.417 210.552 444.8C210.552 444.48 210.552 444.15 210.552 443.8C210.598 443.26 210.718 442.5 210.912 441.52C210.903 441.491 210.903 441.459 210.912 441.43C210.927 441.367 210.963 441.312 211.014 441.272C211.065 441.232 211.127 441.21 211.192 441.21C211.245 441.213 211.297 441.23 211.342 441.26C211.39 441.282 211.431 441.317 211.459 441.361C211.488 441.406 211.502 441.457 211.502 441.51C211.473 441.912 211.423 442.313 211.352 442.71C211.248 443.322 211.182 443.94 211.152 444.56C211.132 445.047 211.21 445.533 211.382 445.99C211.562 446.42 211.822 446.63 212.162 446.63H212.272C212.604 446.525 212.885 446.3 213.062 446C213.378 445.564 213.599 445.067 213.712 444.54L214.112 441.54C214.106 441.497 214.106 441.453 214.112 441.41C214.124 441.365 214.147 441.323 214.179 441.288C214.211 441.254 214.25 441.228 214.295 441.212C214.339 441.196 214.386 441.191 214.433 441.198C214.479 441.205 214.524 441.223 214.562 441.25Z" fill="#FAFAFA"/>
<path d="M254 452.29C253.91 452.29 253.83 448.69 253.83 444.24C253.83 439.79 253.91 436.18 254 436.18C254.09 436.18 254.16 439.79 254.16 444.24C254.16 448.69 254.07 452.29 254 452.29Z" fill="#F5F5F5"/>
<path d="M182.24 452.29C182.15 452.29 182.08 448.69 182.08 444.24C182.08 439.79 182.15 436.18 182.24 436.18C182.33 436.18 182.4 439.79 182.4 444.24C182.4 448.69 182.33 452.29 182.24 452.29Z" fill="#E0E0E0"/>
<path d="M255.512 452.29C255.432 452.29 255.352 448.69 255.352 444.24C255.352 439.79 255.432 436.18 255.512 436.18C255.592 436.18 255.682 439.79 255.682 444.24C255.682 448.69 255.602 452.29 255.512 452.29Z" fill="#F5F5F5"/>
<path d="M180.811 452.29C180.721 452.29 180.641 448.69 180.641 444.24C180.641 439.79 180.721 436.18 180.811 436.18C180.901 436.18 180.971 439.79 180.971 444.24C180.971 448.69 180.891 452.29 180.811 452.29Z" fill="#E0E0E0"/>
<path d="M232.721 438.83L241.981 446.3L242.061 446.37H241.961L240.731 446.7L232.911 448.75L225.821 445.75L223.821 444.89L223.291 444.66L223.161 444.6H223.111H223.161L223.301 444.66L223.831 444.87L225.831 445.71L232.931 448.71L240.751 446.65L241.991 446.32V446.41L232.741 438.92" fill="#E0E0E0"/>
<path d="M241.131 445.12L241.641 445.59L242.321 445.45L242.021 446.07L242.371 446.67L241.681 446.59L241.221 447.1L241.091 446.42L240.461 446.14L241.061 445.81L241.131 445.12Z" fill="#E0E0E0"/>
<path d="M232.252 448.06L232.592 448.35L233.032 448.23L232.862 448.65L233.112 449.02L232.662 448.99L232.382 449.34L232.272 448.91L231.852 448.75L232.232 448.51L232.252 448.06Z" fill="#E0E0E0"/>
<path d="M222.432 444.04L222.982 444.07L223.322 443.64L223.462 444.17L223.982 444.36L223.512 444.65L223.492 445.21L223.062 444.86L222.542 445.01L222.742 444.49L222.432 444.04Z" fill="#E0E0E0"/>
<path d="M245.291 438.95L245.841 438.99L246.181 438.55L246.321 439.09L246.831 439.28L246.371 439.57L246.351 440.12L245.921 439.77L245.391 439.92L245.601 439.41L245.291 438.95Z" fill="#E0E0E0"/>
<path d="M232.271 438.59L232.621 438.61L232.841 438.34L232.931 438.68L233.261 438.8L232.961 438.99L232.951 439.34L232.681 439.11L232.341 439.21L232.471 438.88L232.271 438.59Z" fill="#E0E0E0"/>
<path d="M246.062 439.34C246.062 439.34 243.062 439.27 239.372 439.12C235.682 438.97 232.682 438.8 232.682 438.76C232.682 438.72 235.682 438.83 239.372 438.99C243.062 439.15 246.062 439.3 246.062 439.34Z" fill="#E0E0E0"/>
<path d="M249.431 436.25H160.521C159.361 433.61 159.071 431.1 160.521 428.85H249.431C249.982 430.006 250.269 431.27 250.269 432.55C250.269 433.83 249.982 435.095 249.431 436.25Z" fill="#E0E0E0"/>
<path d="M227.102 430.96H178.932V433.65H227.102V430.96Z" fill="#EBEBEB"/>
<path d="M163.93 436.29C163.636 436.042 163.398 435.736 163.23 435.39C162.777 434.583 162.501 433.688 162.42 432.766C162.339 431.843 162.455 430.914 162.76 430.04C162.859 429.669 163.044 429.326 163.3 429.04C163.213 429.405 163.106 429.766 162.98 430.12C162.748 430.976 162.666 431.866 162.74 432.75C162.827 433.632 163.06 434.494 163.43 435.3C163.626 435.614 163.793 435.946 163.93 436.29Z" fill="#E0E0E0"/>
<path d="M165.86 436.29C165.56 436.049 165.32 435.741 165.16 435.39C164.701 434.586 164.422 433.692 164.34 432.77C164.262 431.846 164.377 430.916 164.68 430.04C164.789 429.673 164.973 429.332 165.22 429.04C165.139 429.407 165.032 429.768 164.9 430.12C164.672 430.977 164.594 431.867 164.67 432.75C164.748 433.634 164.981 434.498 165.36 435.3C165.547 435.62 165.714 435.95 165.86 436.29Z" fill="#E0E0E0"/>
<path d="M245.83 436.11C246.185 434.937 246.397 433.724 246.46 432.5C246.408 431.271 246.21 430.052 245.87 428.87C246.523 429.964 246.84 431.227 246.78 432.5C246.831 433.771 246.5 435.029 245.83 436.11Z" fill="#F5F5F5"/>
<path d="M244.18 436.1C244.08 436.1 244.45 434.51 244.44 432.55C244.43 430.59 244.07 429.03 244.17 429.01C244.963 431.307 244.963 433.803 244.17 436.1H244.18Z" fill="#F5F5F5"/>
<path d="M300.251 401.76L175.321 401.68C171.749 401.679 168.212 400.974 164.913 399.606C161.613 398.238 158.615 396.233 156.09 393.706C153.566 391.18 151.563 388.18 150.198 384.88C148.832 381.579 148.13 378.042 148.131 374.47L148.191 61.28C148.192 57.7054 148.898 54.1661 150.267 50.8641C151.636 47.5621 153.642 44.5622 156.17 42.0355C158.699 39.5088 161.7 37.5049 165.003 36.1382C168.306 34.7715 171.846 34.0687 175.421 34.07L300.341 34.15C307.555 34.1553 314.472 37.0241 319.572 42.1261C324.672 47.2281 327.538 54.146 327.541 61.36L327.471 374.55C327.471 378.124 326.767 381.663 325.399 384.965C324.031 388.267 322.025 391.267 319.498 393.794C316.97 396.321 313.969 398.325 310.667 399.692C307.364 401.058 303.825 401.761 300.251 401.76Z" fill="#263238"/>
<path d="M299.931 45.32H275.711C274.92 45.3356 274.141 45.5072 273.417 45.8251C272.693 46.143 272.039 46.6009 271.492 47.1725C270.946 47.744 270.518 48.4179 270.233 49.1554C269.948 49.8929 269.811 50.6795 269.831 51.47V55.86C269.85 56.6505 269.712 57.4368 269.425 58.1738C269.139 58.9108 268.71 59.584 268.162 60.1545C267.615 60.7251 266.96 61.1819 266.236 61.4986C265.511 61.8153 264.731 61.9857 263.941 62H216.731C215.94 61.9844 215.161 61.8128 214.437 61.4948C213.713 61.1769 213.059 60.7191 212.512 60.1475C211.966 59.576 211.538 58.9021 211.253 58.1646C210.968 57.4271 210.831 56.6405 210.851 55.85V51.45C210.876 50.6587 210.745 49.8702 210.464 49.13C210.183 48.3897 209.759 47.7124 209.215 47.137C208.671 46.5616 208.019 46.0995 207.295 45.7774C206.572 45.4552 205.792 45.2794 205.001 45.26H196.481H175.291C172.786 45.2547 170.305 45.7432 167.989 46.6974C165.674 47.6517 163.569 49.053 161.795 50.8213C160.021 52.5896 158.613 54.6902 157.651 57.0029C156.69 59.3157 156.194 61.7953 156.191 64.3L156.131 370C156.123 372.5 156.609 374.977 157.56 377.289C158.511 379.602 159.91 381.703 161.675 383.474C163.44 385.245 165.537 386.649 167.846 387.608C170.155 388.567 172.631 389.06 175.131 389.06L299.811 389.13C302.314 389.131 304.793 388.64 307.106 387.683C309.419 386.726 311.521 385.323 313.291 383.555C315.062 381.786 316.467 379.685 317.426 377.373C318.385 375.061 318.88 372.583 318.881 370.08L319.001 64.38C319.001 61.8762 318.508 59.3969 317.549 57.0837C316.591 54.7706 315.186 52.669 313.415 50.899C311.644 49.129 309.542 47.7252 307.228 46.768C304.914 45.8107 302.435 45.3187 299.931 45.32Z" fill="white"/>
<path d="M320.37 93.89C320.37 94.03 283.56 94.15 238.17 94.15C192.78 94.15 156 94 156 93.89C156 93.78 192.8 93.63 238.22 93.63C283.64 93.63 320.37 93.74 320.37 93.89Z" fill="#263238"/>
<path d="M173.151 82.56C173.03 82.5612 172.913 82.5186 172.821 82.44L168.071 78.27C168.015 78.2245 167.97 78.1664 167.941 78.1004C167.911 78.0343 167.897 77.9623 167.901 77.89C167.9 77.8172 167.916 77.7451 167.947 77.6793C167.978 77.6134 168.024 77.5556 168.081 77.51L172.831 73.51C172.933 73.4271 173.064 73.388 173.195 73.4011C173.326 73.4142 173.447 73.4785 173.531 73.58C173.573 73.6302 173.605 73.6883 173.625 73.751C173.644 73.8136 173.651 73.8796 173.644 73.9448C173.638 74.0101 173.618 74.0734 173.587 74.131C173.555 74.1886 173.512 74.2393 173.461 74.28L169.171 77.86L173.471 81.64C173.521 81.6822 173.562 81.734 173.592 81.7923C173.621 81.8506 173.639 81.9142 173.644 81.9795C173.648 82.0447 173.64 82.1102 173.619 82.1722C173.598 82.2341 173.564 82.2912 173.521 82.34C173.481 82.403 173.426 82.4556 173.362 82.4938C173.298 82.532 173.225 82.5547 173.151 82.56Z" fill="#263238"/>
<path d="M276.802 77.62C276.802 77.77 261.332 77.88 242.242 77.88C223.152 77.88 207.682 77.77 207.682 77.62C207.682 77.47 223.152 77.36 242.242 77.36C261.332 77.36 276.802 77.48 276.802 77.62Z" fill="#263238"/>
<path d="M296.821 77.59C296.821 77.946 296.715 78.2941 296.517 78.5901C296.32 78.8861 296.038 79.1168 295.71 79.253C295.381 79.3893 295.019 79.4249 294.67 79.3555C294.32 79.286 294 79.1146 293.748 78.8628C293.496 78.6111 293.325 78.2904 293.255 77.9412C293.186 77.592 293.221 77.2301 293.358 76.9012C293.494 76.5723 293.725 76.2912 294.021 76.0934C294.317 75.8956 294.665 75.79 295.021 75.79C295.498 75.79 295.956 75.9797 296.293 76.3172C296.631 76.6548 296.821 77.1126 296.821 77.59Z" fill="#263238"/>
<path d="M302 77.59C302 77.9464 301.895 78.2948 301.696 78.5911C301.498 78.8873 301.216 79.118 300.887 79.2539C300.557 79.3899 300.195 79.4249 299.846 79.3546C299.496 79.2844 299.175 79.112 298.924 78.8592C298.673 78.6065 298.502 78.2848 298.434 77.935C298.365 77.5852 298.403 77.2229 298.54 76.8942C298.678 76.5655 298.91 76.2851 299.208 76.0885C299.505 75.8919 299.854 75.788 300.21 75.79C300.446 75.79 300.68 75.8366 300.898 75.9272C301.116 76.0178 301.313 76.1505 301.48 76.3178C301.646 76.4851 301.778 76.6836 301.867 76.9019C301.956 77.1203 302.002 77.3541 302 77.59Z" fill="#263238"/>
<path d="M307.192 77.59C307.192 77.946 307.086 78.2941 306.888 78.5901C306.691 78.8861 306.41 79.1168 306.081 79.253C305.752 79.3893 305.39 79.4249 305.041 79.3555C304.691 79.286 304.371 79.1146 304.119 78.8628C303.867 78.6111 303.696 78.2904 303.626 77.9412C303.557 77.592 303.593 77.2301 303.729 76.9012C303.865 76.5723 304.096 76.2912 304.392 76.0934C304.688 75.8956 305.036 75.79 305.392 75.79C305.869 75.79 306.327 75.9797 306.665 76.3172C307.002 76.6548 307.192 77.1126 307.192 77.59Z" fill="#263238"/>
<path d="M222.57 161.05C222.57 162.21 222.09 162.91 221.29 162.91C221.102 162.928 220.913 162.879 220.757 162.771C220.601 162.663 220.489 162.503 220.44 162.32C220.306 162.514 220.125 162.67 219.913 162.774C219.701 162.877 219.466 162.924 219.23 162.91C218.801 162.877 218.399 162.683 218.106 162.367C217.814 162.051 217.651 161.636 217.651 161.205C217.651 160.774 217.814 160.359 218.106 160.043C218.399 159.727 218.801 159.533 219.23 159.5C219.441 159.489 219.652 159.526 219.846 159.61C220.04 159.693 220.213 159.82 220.35 159.98V159.54H221.09V161.82C221.09 162.16 221.25 162.28 221.44 162.28C221.8 162.28 222 161.85 222 161.06C222.006 160.729 221.942 160.401 221.812 160.096C221.682 159.792 221.49 159.518 221.248 159.292C221.005 159.067 220.718 158.895 220.405 158.788C220.092 158.681 219.76 158.64 219.43 158.67C219.083 158.639 218.733 158.68 218.403 158.792C218.073 158.903 217.77 159.083 217.512 159.318C217.255 159.553 217.05 159.839 216.909 160.158C216.769 160.477 216.696 160.822 216.696 161.17C216.696 161.518 216.769 161.863 216.909 162.182C217.05 162.501 217.255 162.787 217.512 163.022C217.77 163.257 218.073 163.436 218.403 163.548C218.733 163.66 219.083 163.701 219.43 163.67C219.881 163.672 220.326 163.569 220.73 163.37L220.91 163.91C220.446 164.123 219.94 164.229 219.43 164.22C219.014 164.244 218.598 164.182 218.207 164.04C217.815 163.897 217.457 163.676 217.154 163.39C216.851 163.104 216.61 162.759 216.445 162.376C216.28 161.994 216.195 161.582 216.195 161.165C216.195 160.748 216.28 160.336 216.445 159.954C216.61 159.571 216.851 159.226 217.154 158.94C217.457 158.654 217.815 158.433 218.207 158.29C218.598 158.148 219.014 158.086 219.43 158.11C219.833 158.08 220.239 158.133 220.62 158.267C221.001 158.402 221.351 158.614 221.646 158.89C221.941 159.167 222.176 159.501 222.335 159.873C222.494 160.245 222.574 160.646 222.57 161.05ZM220.36 161.2C220.348 161.005 220.28 160.818 220.163 160.662C220.046 160.505 219.887 160.387 219.703 160.32C219.52 160.253 219.321 160.242 219.131 160.287C218.941 160.332 218.768 160.432 218.635 160.574C218.501 160.716 218.411 160.894 218.377 161.086C218.343 161.278 218.366 161.476 218.443 161.655C218.521 161.835 218.648 161.987 218.811 162.095C218.974 162.202 219.165 162.26 219.36 162.26C219.497 162.26 219.632 162.233 219.757 162.179C219.883 162.125 219.996 162.046 220.089 161.946C220.183 161.847 220.255 161.729 220.302 161.601C220.349 161.473 220.368 161.336 220.36 161.2Z" fill="#263238"/>
<path d="M260.361 162.87C260.361 163.01 253.121 163.13 244.201 163.13C235.281 163.13 228.051 163.01 228.051 162.87C228.051 162.73 235.281 162.6 244.201 162.6C253.121 162.6 260.361 162.72 260.361 162.87Z" fill="#263238"/>
<path d="M196.47 208.57C194.997 208.917 193.463 208.917 191.99 208.57C193.463 208.223 194.997 208.223 196.47 208.57Z" fill="#263238"/>
<path d="M207.001 219.41C207.001 219.55 201.601 219.67 194.931 219.67C188.261 219.67 182.871 219.55 182.871 219.41C182.871 219.27 188.271 219.15 194.931 219.15C201.591 219.15 207.001 219.27 207.001 219.41Z" fill="#263238"/>
<path d="M245.001 208.57C242.725 208.833 240.431 208.92 238.141 208.83C235.851 208.92 233.558 208.833 231.281 208.57C233.558 208.313 235.851 208.226 238.141 208.31C240.431 208.226 242.724 208.313 245.001 208.57Z" fill="#263238"/>
<path d="M249.062 218.83C249.062 218.97 243.532 219.09 236.712 219.09C229.892 219.09 224.352 218.97 224.352 218.83C224.352 218.69 229.882 218.57 236.712 218.57C243.542 218.57 249.062 218.69 249.062 218.83Z" fill="#263238"/>
<path d="M289.801 208.72C286.725 208.978 283.637 209.064 280.551 208.98C277.465 209.064 274.377 208.978 271.301 208.72C274.377 208.456 277.465 208.37 280.551 208.46C283.637 208.37 286.725 208.456 289.801 208.72Z" fill="#263238"/>
<path d="M293.262 219.26C293.262 219.41 287.932 219.52 281.352 219.52C274.772 219.52 269.432 219.41 269.432 219.26C269.432 219.11 274.762 219 281.352 219C287.942 219 293.262 219.12 293.262 219.26Z" fill="#263238"/>
<path d="M258.711 229.52H190.931C189.523 229.52 188.381 230.662 188.381 232.07V247.92C188.381 249.328 189.523 250.47 190.931 250.47H258.711C260.119 250.47 261.261 249.328 261.261 247.92V232.07C261.261 230.662 260.119 229.52 258.711 229.52Z" fill="#F66E46"/>
<path d="M247.481 240.35C247.481 240.49 238.101 240.61 226.531 240.61C214.961 240.61 205.531 240.49 205.531 240.35C205.531 240.21 214.911 240.09 226.531 240.09C238.151 240.09 247.481 240.2 247.481 240.35Z" fill="white"/>
<path d="M285.741 229.13H269.661C268.352 229.13 267.291 230.191 267.291 231.5V248.23C267.291 249.539 268.352 250.6 269.661 250.6H285.741C287.05 250.6 288.111 249.539 288.111 248.23V231.5C288.111 230.191 287.05 229.13 285.741 229.13Z" fill="#EBEBEB"/>
<path d="M275.451 238.77H279.941L277.891 241.92L275.451 238.77Z" fill="#263238"/>
<path d="M261.26 266.05C261.26 266.2 249.67 266.31 235.38 266.31C221.09 266.31 209.5 266.2 209.5 266.05C209.5 265.9 221.09 265.79 235.38 265.79C249.67 265.79 261.26 265.91 261.26 266.05Z" fill="#E0E0E0"/>
<path d="M276.32 275.8C276.32 275.94 259.32 276.06 238.32 276.06C217.32 276.06 200.32 275.94 200.32 275.8C200.32 275.66 217.32 275.54 238.32 275.54C259.32 275.54 276.32 275.66 276.32 275.8Z" fill="#E0E0E0"/>
<path d="M320 292.7C320 292.85 283.55 292.97 238.58 292.97C193.61 292.97 157.16 292.85 157.16 292.7C157.16 292.55 193.61 292.44 238.58 292.44C283.55 292.44 320 292.56 320 292.7Z" fill="#263238"/>
<path d="M240.201 311.67C239.944 308.604 239.857 305.526 239.941 302.45C239.857 299.378 239.944 296.303 240.201 293.24C240.465 296.302 240.552 299.378 240.461 302.45C240.552 305.526 240.465 308.604 240.201 311.67Z" fill="#263238"/>
<path d="M230.091 176.52L225.411 187.26H223.411L218.721 176.52H220.881L224.451 184.8L228.061 176.52H230.091Z" fill="#F66E46"/>
<path d="M238.101 183.78H231.671C231.79 184.383 232.127 184.92 232.618 185.29C233.109 185.659 233.719 185.833 234.331 185.78C234.743 185.797 235.154 185.726 235.536 185.573C235.919 185.419 236.265 185.187 236.551 184.89L237.551 186.07C237.133 186.521 236.621 186.875 236.05 187.105C235.48 187.335 234.865 187.435 234.251 187.4C231.511 187.4 229.731 185.64 229.731 183.2C229.711 182.637 229.808 182.076 230.016 181.553C230.225 181.029 230.54 180.555 230.941 180.16C231.343 179.765 231.823 179.458 232.349 179.258C232.876 179.058 233.439 178.97 234.001 179C234.558 178.98 235.113 179.076 235.631 179.282C236.148 179.489 236.617 179.801 237.007 180.199C237.396 180.598 237.699 181.073 237.894 181.595C238.089 182.117 238.174 182.674 238.141 183.23C238.131 183.36 238.111 183.59 238.101 183.78ZM231.661 182.5H236.301C236.245 181.934 235.975 181.411 235.545 181.039C235.115 180.667 234.559 180.474 233.991 180.5C233.422 180.479 232.866 180.673 232.434 181.043C232.002 181.414 231.726 181.934 231.661 182.5Z" fill="#F66E46"/>
<path d="M244.71 179V180.82C244.565 180.79 244.418 180.773 244.27 180.77C243.938 180.744 243.604 180.794 243.293 180.914C242.983 181.034 242.703 181.223 242.475 181.465C242.246 181.708 242.075 181.999 241.974 182.316C241.873 182.634 241.844 182.97 241.89 183.3V187.3H240V179.11H241.83V180.3C242.159 179.855 242.596 179.501 243.1 179.274C243.604 179.046 244.159 178.952 244.71 179Z" fill="#F66E46"/>
<path d="M246.08 176.57C246.081 176.412 246.114 176.257 246.178 176.112C246.241 175.968 246.333 175.838 246.448 175.731C246.563 175.623 246.699 175.54 246.847 175.487C246.995 175.433 247.153 175.41 247.31 175.42C247.463 175.408 247.618 175.427 247.763 175.476C247.909 175.526 248.043 175.604 248.157 175.707C248.271 175.81 248.363 175.935 248.427 176.075C248.492 176.215 248.526 176.366 248.53 176.52C248.502 176.826 248.361 177.11 248.135 177.317C247.908 177.524 247.612 177.639 247.305 177.639C246.998 177.639 246.702 177.524 246.475 177.317C246.249 177.11 246.108 176.826 246.08 176.52V176.57ZM246.34 179.07H248.26V187.26H246.34V179.07Z" fill="#F66E46"/>
<path d="M254 175.77C254.612 175.743 255.218 175.9 255.74 176.22L255.2 177.66C254.889 177.442 254.52 177.324 254.14 177.32C253.34 177.32 252.93 177.76 252.93 178.64V179.13H255.19V180.66H253V187.26H251V180.66H249.66V179.13H251V178.61C250.968 178.215 251.025 177.818 251.167 177.447C251.309 177.077 251.532 176.744 251.82 176.471C252.108 176.199 252.453 175.994 252.83 175.873C253.208 175.751 253.607 175.716 254 175.77ZM257.44 176.57C257.441 176.412 257.474 176.257 257.538 176.112C257.601 175.968 257.693 175.838 257.808 175.731C257.923 175.623 258.059 175.54 258.207 175.487C258.355 175.433 258.513 175.41 258.67 175.42C258.823 175.408 258.978 175.427 259.123 175.476C259.269 175.526 259.403 175.604 259.517 175.707C259.631 175.81 259.723 175.935 259.788 176.075C259.852 176.215 259.887 176.366 259.89 176.52C259.863 176.826 259.721 177.11 259.495 177.317C259.268 177.524 258.972 177.639 258.665 177.639C258.358 177.639 258.062 177.524 257.836 177.317C257.609 177.11 257.468 176.826 257.44 176.52V176.57ZM257.7 179.07H259.62V187.26H257.7V179.07Z" fill="#F66E46"/>
<path d="M269.76 183.78H263.34C263.456 184.382 263.792 184.92 264.281 185.289C264.77 185.658 265.379 185.833 265.99 185.78C266.403 185.793 266.814 185.721 267.198 185.568C267.582 185.415 267.93 185.184 268.22 184.89L269.22 186.07C268.803 186.523 268.291 186.877 267.72 187.107C267.149 187.337 266.534 187.437 265.92 187.4C263.18 187.4 261.4 185.64 261.4 183.2C261.385 182.643 261.484 182.088 261.691 181.571C261.899 181.053 262.211 180.584 262.608 180.192C263.004 179.8 263.477 179.494 263.997 179.292C264.517 179.091 265.073 178.998 265.63 179.02C266.187 179 266.742 179.096 267.259 179.302C267.777 179.509 268.246 179.821 268.635 180.22C269.025 180.618 269.327 181.093 269.523 181.615C269.718 182.137 269.802 182.694 269.77 183.25C269.79 183.36 269.78 183.59 269.76 183.78ZM263.32 182.5H268C267.942 181.933 267.669 181.411 267.238 181.039C266.806 180.667 266.249 180.474 265.68 180.5C265.107 180.473 264.544 180.665 264.107 181.036C263.669 181.407 263.388 181.93 263.32 182.5Z" fill="#F66E46"/>
<path d="M279.66 175.88V187.26H277.82V186.2C277.485 186.585 277.067 186.889 276.598 187.09C276.128 187.291 275.62 187.383 275.11 187.36C273.999 187.36 272.933 186.919 272.147 186.133C271.361 185.347 270.92 184.281 270.92 183.17C270.92 182.059 271.361 180.993 272.147 180.207C272.933 179.421 273.999 178.98 275.11 178.98C275.602 178.958 276.093 179.045 276.548 179.235C277.003 179.425 277.41 179.714 277.74 180.08V175.88H279.66ZM277.77 183.16C277.746 182.683 277.584 182.224 277.302 181.839C277.02 181.453 276.631 181.159 276.184 180.993C275.736 180.827 275.25 180.795 274.785 180.902C274.319 181.01 273.896 181.251 273.567 181.597C273.237 181.942 273.017 182.377 272.932 182.846C272.847 183.316 272.902 183.8 273.089 184.239C273.277 184.678 273.589 185.052 273.988 185.316C274.386 185.579 274.853 185.719 275.33 185.72C275.662 185.726 275.992 185.663 276.299 185.535C276.606 185.407 276.883 185.217 277.113 184.976C277.342 184.736 277.519 184.45 277.632 184.137C277.745 183.825 277.792 183.492 277.77 183.16Z" fill="#F66E46"/>
<path d="M203.611 189.95C208.256 189.95 212.021 186.185 212.021 181.54C212.021 176.895 208.256 173.13 203.611 173.13C198.966 173.13 195.201 176.895 195.201 181.54C195.201 186.185 198.966 189.95 203.611 189.95Z" fill="#F66E46"/>
<path d="M199.811 181.7L200.891 180.62L202.981 182.47L207.071 178.53L208.071 179.61L202.821 184.55L199.811 181.7Z" fill="white"/>
<path d="M239.76 389.09H173.76C169.039 389.074 164.517 387.186 161.188 383.839C157.858 380.492 155.992 375.961 156 371.24V311.67H239.81L239.76 389.09Z" fill="#EBEBEB"/>
<path d="M300.63 389.25L239 389.09V311.67H319.18V370.74C319.078 375.624 317.089 380.279 313.631 383.729C310.173 387.18 305.514 389.158 300.63 389.25Z" fill="#455A64"/>
<path d="M320 311.67C320 311.81 283.55 311.93 238.59 311.93C193.63 311.93 157.17 311.81 157.17 311.67C157.17 311.53 193.61 311.41 238.59 311.41C283.57 311.41 320 311.53 320 311.67Z" fill="#263238"/>
<path d="M237.371 357C237.371 357 237.281 357 237.141 356.86L236.511 356.4L234.131 354.62L225.431 347.98C223.601 346.59 221.581 344.98 219.431 343.41C218.857 343.077 218.201 342.912 217.538 342.935C216.874 342.958 216.231 343.168 215.681 343.54C215.127 343.999 214.606 344.497 214.121 345.03L212.531 346.64L198.531 360.78L197.671 361.65L197.511 361.81L197.331 361.68L189.251 355.68L185.411 352.81C184.887 352.313 184.226 351.984 183.514 351.864C182.801 351.745 182.069 351.841 181.411 352.14C180.794 352.497 180.235 352.946 179.751 353.47L178.171 354.94L175.171 357.74L169.771 362.74L161.941 369.96L159.791 371.9L159.231 372.4C159.105 372.513 159.035 372.563 159.021 372.55C159.07 372.48 159.127 372.416 159.191 372.36L159.721 371.83L161.801 369.83L169.521 362.49L174.881 357.43L177.881 354.62L179.451 353.14L180.251 352.39C180.55 352.119 180.887 351.893 181.251 351.72C181.981 351.367 182.802 351.248 183.601 351.38C184.006 351.443 184.398 351.571 184.761 351.76C185.116 351.949 185.451 352.174 185.761 352.43L189.611 355.28L197.701 361.28H197.361L198.221 360.4L212.221 346.29L213.821 344.69C214.326 344.137 214.87 343.622 215.451 343.15C216.075 342.736 216.802 342.506 217.549 342.485C218.297 342.464 219.036 342.652 219.681 343.03C221.901 344.68 223.841 346.26 225.681 347.68L234.281 354.45L236.611 356.31L237.201 356.81C237.266 356.866 237.323 356.93 237.371 357Z" fill="#263238"/>
<path d="M204.661 331C204.601 331 204.661 330.36 204.331 329.25C203.9 327.697 202.964 326.332 201.671 325.37C200.786 324.71 199.758 324.267 198.671 324.08C197.434 323.86 196.161 323.971 194.981 324.4C193.674 324.878 192.539 325.734 191.721 326.86C190.838 328.062 190.361 329.514 190.361 331.005C190.361 332.496 190.838 333.948 191.721 335.15C192.505 336.215 193.572 337.039 194.8 337.53C196.028 338.021 197.368 338.16 198.671 337.93C199.76 337.742 200.789 337.296 201.671 336.63C202.964 335.668 203.9 334.303 204.331 332.75C204.631 331.65 204.601 331 204.661 331C204.676 331.156 204.676 331.314 204.661 331.47C204.662 331.918 204.611 332.364 204.511 332.8C204.139 334.437 203.209 335.894 201.881 336.92C200.965 337.638 199.892 338.128 198.751 338.35C197.363 338.619 195.928 338.489 194.611 337.976C193.295 337.463 192.15 336.587 191.311 335.45C190.357 334.164 189.842 332.606 189.842 331.005C189.842 329.404 190.357 327.846 191.311 326.56C192.191 325.36 193.41 324.452 194.811 323.95C196.074 323.503 197.434 323.399 198.751 323.65C199.891 323.877 200.963 324.366 201.881 325.08C203.207 326.108 204.137 327.564 204.511 329.2C204.612 329.64 204.662 330.089 204.661 330.54C204.676 330.693 204.676 330.847 204.661 331Z" fill="#263238"/>
<path d="M316.702 354.52C316.702 354.52 316.622 354.52 316.482 354.38L315.882 353.93L313.582 352.14L305.192 345.49C303.432 344.1 301.492 342.49 299.422 340.92C298.868 340.587 298.228 340.428 297.583 340.461C296.938 340.495 296.318 340.721 295.802 341.11C295.276 341.576 294.778 342.074 294.312 342.6L292.792 344.21L279.402 358.3L278.562 359.17L278.402 359.34L278.212 359.2L270.422 353.2L266.722 350.33C266.224 349.83 265.58 349.501 264.883 349.389C264.186 349.278 263.471 349.39 262.842 349.71C262.255 350.085 261.721 350.535 261.252 351.05L259.742 352.52L256.852 355.31L251.662 360.31L244.152 367.51L242.092 369.45L241.542 369.94C241.422 370.05 241.352 370.11 241.342 370.1C241.39 370.03 241.447 369.966 241.512 369.91C241.642 369.76 241.812 369.59 242.012 369.38L244.012 367.38L251.412 360.06L256.552 355.01C257.482 354.11 258.432 353.17 259.422 352.2L260.922 350.73L261.692 349.98C261.966 349.712 262.275 349.483 262.612 349.3C263.317 348.927 264.123 348.79 264.912 348.91C265.31 348.968 265.696 349.093 266.052 349.28C266.405 349.472 266.74 349.696 267.052 349.95L270.752 352.81L278.552 358.81H278.202L279.042 357.93L292.462 343.87L293.992 342.27C294.479 341.725 295 341.21 295.552 340.73C296.143 340.294 296.85 340.044 297.583 340.01C298.316 339.976 299.043 340.161 299.672 340.54C301.822 342.19 303.672 343.77 305.452 345.19L313.732 351.97L315.962 353.84L316.532 354.33L316.702 354.52Z" fill="#263238"/>
<path d="M282.702 328.77C282.652 328.77 282.702 328.13 282.382 327.03C281.956 325.475 281.019 324.108 279.722 323.15C278.974 322.591 278.123 322.186 277.218 321.958C276.313 321.73 275.372 321.684 274.448 321.821C273.525 321.959 272.639 322.278 271.839 322.76C271.04 323.242 270.344 323.878 269.792 324.63C268.909 325.832 268.433 327.284 268.433 328.775C268.433 330.266 268.909 331.718 269.792 332.92C270.609 334.045 271.744 334.898 273.052 335.37C274.158 335.779 275.349 335.901 276.515 335.726C277.681 335.552 278.784 335.085 279.722 334.37C281.017 333.41 281.954 332.044 282.382 330.49C282.519 329.913 282.626 329.329 282.702 328.74C282.728 328.896 282.728 329.054 282.702 329.21C282.703 329.658 282.652 330.104 282.552 330.54C282.208 332.18 281.307 333.65 280.002 334.7C279.083 335.411 278.011 335.897 276.872 336.12C275.556 336.381 274.193 336.277 272.932 335.82C271.532 335.322 270.313 334.417 269.432 333.22C268.478 331.934 267.963 330.376 267.963 328.775C267.963 327.174 268.478 325.616 269.432 324.33C270.271 323.193 271.416 322.317 272.732 321.804C274.049 321.291 275.484 321.161 276.872 321.43C278.011 321.653 279.083 322.14 280.002 322.85C281.331 323.88 282.261 325.34 282.632 326.98C282.732 327.416 282.783 327.862 282.782 328.31C282.782 328.467 282.755 328.623 282.702 328.77Z" fill="#263238"/>
<path d="M240.23 154.49C253.021 154.49 263.39 144.121 263.39 131.33C263.39 118.539 253.021 108.17 240.23 108.17C227.439 108.17 217.07 118.539 217.07 131.33C217.07 144.121 227.439 154.49 240.23 154.49Z" fill="#F5F5F5"/>
<path d="M255.201 148.9C254.806 145.226 253.044 141.835 250.266 139.399C247.487 136.964 243.895 135.661 240.201 135.75C231.981 135.75 226.351 141.97 225.201 148.95C225.201 148.95 230.281 154.57 240.201 154.49C250.121 154.41 255.201 148.9 255.201 148.9Z" fill="#E0E0E0"/>
<path d="M249.654 129.067C250.456 124.102 247.082 119.427 242.117 118.625C237.153 117.822 232.478 121.196 231.675 126.161C230.873 131.126 234.247 135.801 239.212 136.603C244.176 137.405 248.851 134.031 249.654 129.067Z" fill="#E0E0E0"/>
<path d="M255.09 148.11C254.807 146.629 254.333 145.19 253.68 143.83C252.838 142.309 251.727 140.954 250.4 139.83C248.658 138.359 246.653 137.232 244.49 136.51L244.01 136.36L244.45 136.13C245.977 135.3 247.231 134.047 248.06 132.52C248.782 131.175 249.143 129.665 249.108 128.139C249.073 126.612 248.642 125.121 247.858 123.811C247.074 122.501 245.964 121.416 244.636 120.663C243.308 119.91 241.807 119.514 240.28 119.514C238.754 119.514 237.253 119.91 235.925 120.663C234.597 121.416 233.486 122.501 232.703 123.811C231.919 125.121 231.488 126.612 231.453 128.139C231.417 129.665 231.778 131.175 232.5 132.52C232.921 133.3 233.453 134.014 234.08 134.64C234.688 135.225 235.359 135.742 236.08 136.18L236.48 136.43L236.02 136.56C233.807 137.143 231.772 138.267 230.1 139.83C228.831 141.032 227.782 142.447 227 144.01C226.496 145.013 226.088 146.061 225.78 147.14C225.67 147.51 225.6 147.8 225.55 147.99C225.537 148.09 225.51 148.187 225.47 148.28C225.453 148.181 225.453 148.079 225.47 147.98C225.47 147.78 225.55 147.48 225.64 147.11C225.903 146.006 226.281 144.934 226.77 143.91C227.529 142.293 228.572 140.827 229.85 139.58C231.535 137.956 233.597 136.777 235.85 136.15L235.79 136.53C235.035 136.084 234.331 135.558 233.69 134.96C233.025 134.306 232.459 133.558 232.01 132.74C231.021 130.895 230.681 128.771 231.043 126.709C231.406 124.647 232.451 122.767 234.01 121.37C235.719 119.831 237.936 118.979 240.235 118.979C242.535 118.979 244.752 119.831 246.46 121.37C247.576 122.372 248.432 123.63 248.957 125.035C249.481 126.44 249.658 127.951 249.473 129.439C249.287 130.927 248.744 132.348 247.891 133.581C247.037 134.814 245.898 135.822 244.57 136.52V136.13C246.777 136.885 248.816 138.063 250.57 139.6C251.913 140.772 253.023 142.186 253.84 143.77C254.126 144.356 254.364 144.965 254.55 145.59C254.706 146.043 254.823 146.508 254.9 146.98C254.95 147.33 254.99 147.62 255.02 147.86C255.05 148.1 255.11 148.11 255.09 148.11Z" fill="#263238"/>
<path d="M263.39 131.33C263.359 131.206 263.342 131.078 263.34 130.95C263.34 130.68 263.34 130.32 263.26 129.86L263.21 129.05C263.21 128.75 263.11 128.43 263.05 128.05C262.946 127.242 262.783 126.443 262.56 125.66C262.017 123.502 261.151 121.439 259.99 119.54C257.244 114.956 252.986 111.471 247.95 109.685C242.913 107.898 237.412 107.921 232.39 109.75C231.361 110.121 230.359 110.562 229.39 111.07C228.412 111.606 227.473 112.211 226.58 112.88C225.666 113.558 224.797 114.297 223.98 115.09C223.172 115.926 222.421 116.815 221.73 117.75C220.309 119.664 219.205 121.795 218.46 124.06C216.887 128.755 216.887 133.835 218.46 138.53C219.205 140.798 220.309 142.932 221.73 144.85C222.423 145.783 223.175 146.672 223.98 147.51C224.797 148.303 225.666 149.042 226.58 149.72C227.475 150.386 228.414 150.99 229.39 151.53C233.991 153.956 239.27 154.776 244.39 153.86C247.605 153.269 250.658 152.003 253.349 150.147C256.039 148.29 258.306 145.885 260 143.09C261.162 141.189 262.029 139.122 262.57 136.96C262.793 136.18 262.956 135.384 263.06 134.58C263.12 134.23 263.18 133.91 263.22 133.58L263.27 132.77C263.27 132.31 263.33 131.95 263.35 131.67C263.353 131.545 263.369 131.421 263.4 131.3C263.413 131.426 263.413 131.554 263.4 131.68C263.4 131.95 263.4 132.32 263.4 132.78C263.4 133.03 263.4 133.3 263.4 133.59C263.4 133.88 263.31 134.22 263.27 134.59C263.181 135.403 263.031 136.209 262.82 137C262.301 139.192 261.451 141.293 260.3 143.23C258.615 146.083 256.343 148.545 253.635 150.453C250.926 152.361 247.844 153.673 244.59 154.3C240.475 155.07 236.228 154.725 232.29 153.3C231.241 152.922 230.219 152.475 229.23 151.96C228.229 151.414 227.266 150.799 226.35 150.12C225.413 149.428 224.525 148.673 223.69 147.86C222.863 147.01 222.094 146.104 221.39 145.15C219.93 143.192 218.795 141.01 218.03 138.69C217.263 136.3 216.856 133.81 216.82 131.3C216.853 128.786 217.264 126.291 218.04 123.9C218.8 121.582 219.931 119.404 221.39 117.45C222.094 116.492 222.863 115.583 223.69 114.73C224.529 113.925 225.418 113.174 226.35 112.48C227.266 111.8 228.229 111.186 229.23 110.64C230.219 110.125 231.241 109.678 232.29 109.3C236.224 107.875 240.468 107.53 244.58 108.3C247.836 108.925 250.921 110.236 253.631 112.144C256.341 114.053 258.615 116.516 260.3 119.37C261.451 121.303 262.301 123.401 262.82 125.59C263.031 126.384 263.181 127.193 263.27 128.01C263.27 128.36 263.37 128.69 263.4 129.01C263.43 129.33 263.4 129.58 263.4 129.83C263.4 130.29 263.4 130.66 263.4 130.93C263.412 131.063 263.408 131.197 263.39 131.33Z" fill="#263238"/>
<path d="M144.441 236.53C132.281 242.83 122.951 253.68 116.251 265.62C109.551 277.56 105.251 290.67 100.941 303.68L97.1914 370.78C111.341 346.71 122.701 318.41 125.771 290.65L116.351 289.81C122.671 288.81 127.971 284.27 131.351 278.81C134.731 273.35 136.461 267.12 138.151 260.97L126.661 262.67C135.725 256.563 142.092 247.203 144.441 236.53Z" fill="#455A64"/>
<path d="M144.441 236.53C132.281 242.83 122.951 253.68 116.251 265.62C109.551 277.56 105.251 290.67 100.941 303.68L97.1914 370.78C111.341 346.71 122.701 318.41 125.771 290.65L116.351 289.81C122.671 288.81 127.971 284.27 131.351 278.81C134.731 273.35 136.461 267.12 138.151 260.97L126.661 262.67C135.725 256.563 142.092 247.203 144.441 236.53Z" fill="#455A64"/>
<path d="M95.0904 386.51C95.0904 386.51 64.3804 349.74 64.7304 314.64H77.1404C77.1404 314.64 63.6604 305.78 64.7304 300.82C65.8004 295.86 66.1504 277.06 66.1504 277.06L77.5004 279.9C77.5004 279.9 68.9904 275.65 67.9204 268.9C66.8504 262.15 70.4004 231 70.4004 231C70.4004 231 84.2304 245.53 88.4904 260.42C92.7504 275.31 103.91 292.68 100.63 338.06C97.3504 383.44 95.0904 386.51 95.0904 386.51Z" fill="#455A64"/>
<path d="M110.671 390C110.671 390 143.951 367.83 151.341 339.53L141.341 336.82C141.341 336.82 154.121 332.64 154.341 328.42C154.561 324.2 158.341 309.01 158.341 309.01L148.601 308.81C148.601 308.81 156.371 307.25 158.701 302.07C161.031 296.89 165.091 271 165.091 271C165.091 271 150.791 279.67 144.091 290.71C137.391 301.75 124.631 313.27 117.341 350.47C110.051 387.67 110.671 390 110.671 390Z" fill="#455A64"/>
<path d="M78.8008 263C78.8008 263 78.8008 263.13 78.9008 263.38C79.0008 263.63 79.0608 264.04 79.1708 264.51C79.4008 265.51 79.7208 267.01 80.1708 268.88C80.6208 270.75 81.0908 273.1 81.6208 275.8C82.1508 278.5 82.8008 281.58 83.4208 284.99C84.7408 291.81 86.1208 299.99 87.5508 308.99C88.9808 317.99 90.3208 328.06 91.5508 338.58C92.7808 349.1 93.6908 359.16 94.4108 368.31C95.1308 377.46 95.6008 385.72 95.8708 392.65C96.0508 396.12 96.1308 399.26 96.2208 402.02C96.3108 404.78 96.3608 407.15 96.3808 409.09C96.4008 411.03 96.3808 412.51 96.4308 413.56V414.72C96.4308 414.98 96.4308 415.12 96.4308 415.12C96.414 414.987 96.414 414.853 96.4308 414.72V413.56C96.4308 412.51 96.3408 411.01 96.2808 409.09C96.2208 407.17 96.1508 404.78 96.0308 402.03C95.9108 399.28 95.8008 396.14 95.6108 392.67C95.2808 385.74 94.7308 377.5 94.0308 368.35C93.3308 359.2 92.3308 349.16 91.1308 338.64C89.9308 328.12 88.5308 318.13 87.1308 309.06C85.7308 299.99 84.3808 291.84 83.1308 285.06C82.5308 281.64 81.9208 278.57 81.4108 275.86C80.9008 273.15 80.4108 270.86 80.0408 268.92C79.6708 266.98 79.3708 265.57 79.1708 264.54C79.0808 264.05 79.0008 263.68 78.9508 263.39C78.8886 263.265 78.8384 263.134 78.8008 263Z" fill="#263238"/>
<path d="M90.8308 409C90.8308 409 62.7208 377.13 54.0008 357.85L60.5908 355C55.8108 355.79 50.9208 353.74 47.2108 350.62C43.5008 347.5 40.7908 343.4 38.1208 339.36L46.8008 337.89C38.8124 335.622 32.0066 330.36 27.8008 323.2C38.0408 324.89 47.3108 330.51 54.9408 337.55C61.1308 343.24 66.3608 349.85 71.3908 356.61C73.8514 359.898 75.9912 363.414 77.7808 367.11C82.5408 376.9 90.8508 397.31 90.8308 409Z" fill="#455A64"/>
<path d="M151.781 289.57C151.752 289.682 151.709 289.79 151.651 289.89L151.221 290.82C150.811 291.66 150.221 292.82 149.501 294.35C148.781 295.88 147.831 297.76 146.791 299.95C145.751 302.14 144.541 304.62 143.271 307.39C140.671 312.92 137.691 319.54 134.481 326.94C131.271 334.34 127.921 342.56 124.551 351.24C121.181 359.92 118.191 368.24 115.551 375.89C112.911 383.54 110.691 390.44 108.891 396.27C107.971 399.18 107.201 401.83 106.491 404.15C105.781 406.47 105.201 408.47 104.731 410.15C104.261 411.83 103.891 413.03 103.621 413.92L103.321 414.92C103.293 415.034 103.253 415.145 103.201 415.25C103.214 415.132 103.238 415.015 103.271 414.9C103.331 414.65 103.421 414.33 103.521 413.9L104.521 410.1C104.961 408.46 105.521 406.44 106.191 404.1C106.861 401.76 107.621 399.1 108.521 396.2C110.271 390.35 112.521 383.43 115.071 375.78C117.621 368.13 120.691 359.78 124.071 351.09C127.451 342.4 130.841 334.2 134.071 326.79C137.301 319.38 140.331 312.79 142.961 307.28C144.261 304.51 145.491 302.04 146.561 299.86C147.631 297.68 148.561 295.86 149.351 294.3L151.151 290.81L151.631 289.91C151.67 289.792 151.72 289.678 151.781 289.57Z" fill="#263238"/>
<path d="M93.2209 422.69C93.1553 422.499 93.1116 422.301 93.0909 422.1L92.8209 420.41C92.7109 419.67 92.5809 418.77 92.3809 417.73C92.1809 416.69 92.0209 415.5 91.7309 414.2C91.2309 411.59 90.5109 408.51 89.5909 405.11C88.6709 401.71 87.4809 398.05 86.0509 394.25C84.6209 390.45 83.0509 386.92 81.5309 383.75C80.0109 380.58 78.5309 377.81 77.1309 375.52C76.4809 374.35 75.8309 373.34 75.2809 372.44C74.7309 371.54 74.2809 370.76 73.8409 370.14L72.9209 368.69C72.8088 368.526 72.7117 368.352 72.6309 368.17C72.7778 368.305 72.9057 368.46 73.0109 368.63L74.0109 370.03C74.4409 370.63 74.9609 371.39 75.5309 372.28C76.1009 373.17 76.7709 374.17 77.4409 375.33C78.8409 377.6 80.3709 380.39 81.9609 383.54C83.5509 386.69 85.0909 390.26 86.5409 394.06C87.9909 397.86 89.1309 401.58 90.0509 404.99C90.9709 408.4 91.6409 411.51 92.0509 414.13C92.3109 415.44 92.4609 416.64 92.6209 417.69C92.7809 418.74 92.9009 419.64 92.9709 420.38C93.0409 421.12 93.1009 421.64 93.1409 422.09C93.1942 422.286 93.2211 422.487 93.2209 422.69Z" fill="#263238"/>
<path d="M130.311 415.19H68.791V427.74H130.311V415.19Z" fill="#F66E46"/>
<path d="M74.6504 427.74L81.3104 469.95H118.48L124.68 427.74H74.6504Z" fill="#F66E46"/>
<path d="M126.541 427.74C126.541 427.88 114.901 428 100.541 428C86.181 428 74.541 427.88 74.541 427.74C74.541 427.6 86.181 427.47 100.541 427.47C114.901 427.47 126.541 427.59 126.541 427.74Z" fill="#263238"/>
<g opacity="0.3">
<path d="M144.441 236.53C132.281 242.83 122.951 253.68 116.251 265.62C109.551 277.56 105.251 290.67 100.941 303.68L97.1914 370.78C111.341 346.71 122.701 318.41 125.771 290.65L116.351 289.81C122.671 288.81 127.971 284.27 131.351 278.81C134.731 273.35 136.461 267.12 138.151 260.97L126.661 262.67C135.725 256.563 142.092 247.203 144.441 236.53Z" fill="black"/>
</g>
<path d="M430.869 290.69C430.869 290.69 441.069 307.62 442.589 323.74C444.109 339.86 433.339 470.12 433.339 470.12H306.439C306.439 470.12 340.439 309.27 351.559 298.95L352.319 288.25L430.869 290.69Z" fill="#263238"/>
<path d="M436.288 303.6C436.316 304.357 436.299 305.115 436.238 305.87C436.092 308.041 435.686 310.186 435.028 312.26C434 315.56 432.396 318.651 430.288 321.39C428.975 323.104 427.465 324.658 425.788 326.02C423.896 327.508 421.89 328.846 419.788 330.02C417.598 331.3 415.258 332.54 412.918 334.02C410.466 335.469 408.234 337.26 406.288 339.34C404.301 341.649 402.767 344.312 401.768 347.19C400.77 350.275 400.076 353.45 399.698 356.67C399.248 359.97 398.958 363.38 398.508 366.86C398.104 370.426 397.299 373.935 396.108 377.32C394.818 380.84 392.71 384.004 389.958 386.55C387.079 389.086 383.819 391.154 380.298 392.68C373.298 395.89 365.938 397.94 359.728 401.68C356.683 403.483 354.017 405.861 351.878 408.68C349.923 411.463 348.422 414.537 347.428 417.79C345.428 424.13 344.528 430.46 342.868 436.19C342.648 436.9 342.428 437.61 342.218 438.31C342.008 439.01 341.728 439.68 341.488 440.36C340.975 441.679 340.394 442.971 339.748 444.23C339.158 445.48 338.408 446.62 337.748 447.76C337.378 448.31 336.998 448.85 336.628 449.38L336.078 450.17L335.478 450.92C332.66 454.517 329.284 457.64 325.478 460.17C322.612 462.085 319.522 463.643 316.278 464.81C314.228 465.529 312.125 466.087 309.988 466.48L308.318 466.73L307.738 466.8L308.308 466.68L309.968 466.38C312.089 465.948 314.175 465.36 316.208 464.62C323.712 461.83 330.29 457.007 335.208 450.69L335.798 449.95L336.348 449.16L337.448 447.55C338.108 446.42 338.848 445.29 339.448 444.04C340.086 442.795 340.657 441.516 341.158 440.21C341.398 439.54 341.628 438.86 341.868 438.21C342.108 437.56 342.298 436.81 342.508 436.1C344.148 430.41 344.988 424.1 347.028 417.67C348.035 414.368 349.557 411.246 351.538 408.42C353.711 405.53 356.429 403.094 359.538 401.25C365.828 397.44 373.168 395.39 380.148 392.19C383.621 390.703 386.837 388.678 389.678 386.19C392.36 383.705 394.416 380.621 395.678 377.19C396.842 373.812 397.62 370.313 397.998 366.76C398.448 363.3 398.748 359.89 399.208 356.58C399.598 353.33 400.302 350.125 401.308 347.01C402.339 344.078 403.91 341.365 405.938 339.01C407.923 336.91 410.196 335.102 412.688 333.64C415.048 332.2 417.398 330.96 419.578 329.71C421.678 328.532 423.683 327.195 425.578 325.71C427.238 324.374 428.738 322.85 430.048 321.17C432.148 318.469 433.762 315.424 434.818 312.17C435.5 310.115 435.94 307.987 436.128 305.83C436.208 305.09 436.208 304.53 436.238 304.14C436.268 303.75 436.288 303.6 436.288 303.6Z" fill="#455A64"/>
<path d="M439.849 315.44C439.922 315.606 439.985 315.776 440.039 315.95C440.219 316.445 440.363 316.953 440.469 317.47C440.856 319.479 440.819 321.546 440.359 323.54C439.641 326.698 438.223 329.654 436.209 332.19C433.485 335.469 430.395 338.424 426.999 341C423.369 344 419.239 347.21 416.069 351.75C414.427 354.08 413.277 356.721 412.689 359.51C412.136 362.482 411.802 365.49 411.689 368.51C411.57 371.72 411.125 374.91 410.359 378.03C409.52 381.281 408.294 384.42 406.709 387.38C403.371 393.63 398.533 398.953 392.629 402.87C386.519 406.87 379.629 408.79 373.579 411.8C370.581 413.21 367.821 415.079 365.399 417.34C363.151 419.579 361.334 422.213 360.039 425.11C357.469 430.77 356.409 436.66 354.979 442.02C354.316 444.625 353.501 447.19 352.539 449.7C351.622 452.009 350.452 454.21 349.049 456.26C347.749 458.103 346.231 459.781 344.529 461.26C343.749 461.99 342.899 462.59 342.109 463.21C341.319 463.83 340.479 464.34 339.639 464.78C336.844 466.419 333.806 467.6 330.639 468.28C328.649 468.694 326.622 468.905 324.589 468.91L323.009 468.83H322.469H323.009H324.589C326.607 468.776 328.616 468.532 330.589 468.1C333.709 467.386 336.699 466.189 339.449 464.55C340.269 464.11 341.039 463.55 341.869 462.98C342.699 462.41 343.489 461.76 344.259 461.03C345.933 459.546 347.423 457.868 348.699 456.03C350.073 453.995 351.22 451.815 352.119 449.53C353.061 447.031 353.859 444.48 354.509 441.89C355.929 436.55 356.959 430.63 359.509 424.89C360.82 421.935 362.664 419.247 364.949 416.96C367.407 414.66 370.211 412.761 373.259 411.33C379.359 408.28 386.259 406.33 392.259 402.42C400.92 396.676 407.164 387.944 409.799 377.89C410.557 374.799 411.002 371.64 411.129 368.46C411.229 365.409 411.563 362.37 412.129 359.37C412.733 356.526 413.91 353.834 415.589 351.46C418.829 346.87 423.009 343.65 426.649 340.68C430.086 338.152 433.223 335.24 435.999 332C438.008 329.508 439.439 326.602 440.189 323.49C440.652 321.523 440.72 319.483 440.389 317.49C440.099 316.13 439.809 315.45 439.849 315.44Z" fill="#455A64"/>
<path d="M311.049 224.86C311.049 224.86 319.279 281.62 331.939 287.13C338.319 289.92 343.449 287.52 346.939 281.13C350.429 274.74 359.339 228.31 359.339 228.31L334.709 227.73L333.789 236.96L324.289 219.29L311.049 224.86Z" fill="#936760"/>
<path d="M347.36 261.92C347.311 261.761 347.241 261.609 347.15 261.47L346.48 260.23L344 255.68C341.88 251.84 339 246.52 335.79 240.63C332.58 234.74 329.79 229.43 327.72 225.5L325.28 220.91L324.61 219.67C324.45 219.39 324.36 219.24 324.34 219.25C324.385 219.409 324.445 219.563 324.52 219.71L325.12 220.99C325.65 222.1 326.43 223.69 327.42 225.66C329.42 229.58 332.19 234.96 335.42 240.85C338.65 246.74 341.56 252.04 343.75 255.85C344.85 257.75 345.75 259.27 346.4 260.32L347.15 261.52C347.207 261.66 347.277 261.794 347.36 261.92Z" fill="#6F4C47"/>
<path d="M433.189 238.13L426.159 269.58L429.488 290.69H352.229L357.279 192.16L376.539 190.52L423.599 198.47L433.189 238.13Z" fill="#F66E46"/>
<path d="M413.539 197.9C413.539 197.9 433.659 196.05 443.249 209.74C449.119 218.12 457.349 237.37 457.349 237.37L430.559 242L413.539 197.9Z" fill="#F66E46"/>
<g opacity="0.3">
<path d="M425.739 238.5C424.378 235.718 422.256 233.38 419.618 231.759C416.98 230.137 413.935 229.298 410.839 229.34C409.499 229.34 407.989 229.7 407.279 230.83C406.569 231.96 406.959 233.58 407.479 234.89C408.149 236.6 409.039 238.41 410.679 239.23C411.879 239.83 413.289 239.8 414.579 240.23C416.118 240.821 417.526 241.712 418.719 242.85C419.789 243.648 420.713 244.626 421.449 245.74C421.943 246.685 422.3 247.695 422.509 248.74C423.819 253.88 424.859 264.49 426.159 269.63L427.599 265.2C427.639 260.973 427.676 256.747 427.709 252.52C427.749 247.72 427.749 242.8 425.739 238.5Z" fill="black"/>
</g>
<path d="M401.719 264.72C401.719 264.64 402.719 264.82 404.459 264.95C406.655 265.124 408.863 265.07 411.049 264.79C413.235 264.497 415.386 263.984 417.469 263.26C419.069 262.7 420.029 262.26 420.059 262.33C419.868 262.489 419.656 262.62 419.429 262.72C418.832 263.037 418.217 263.321 417.589 263.57C413.414 265.229 408.89 265.821 404.429 265.29C403.756 265.212 403.088 265.095 402.429 264.94C402.181 264.908 401.941 264.834 401.719 264.72Z" fill="#263238"/>
<path d="M368 266.1C368 265.98 379 269.1 392.41 273.1C405.82 277.1 416.74 280.38 416.7 280.51C416.66 280.64 405.7 277.51 392.28 273.51C378.86 269.51 368 266.23 368 266.1Z" fill="#263238"/>
<g opacity="0.3">
<path d="M402.27 264.85C403.255 266.311 404.621 267.475 406.219 268.217C407.817 268.959 409.588 269.25 411.34 269.06C413.012 268.873 414.595 268.207 415.898 267.143C417.202 266.078 418.171 264.661 418.69 263.06C413.465 265.076 407.805 265.693 402.27 264.85Z" fill="black"/>
</g>
<g opacity="0.3">
<path d="M413.769 279.51L413.489 279.62C406.589 280.85 400.119 279.62 393.489 277.26C386.859 274.9 380.719 271.52 374.609 268.09L413.769 279.51Z" fill="black"/>
</g>
<path d="M357.28 192.16C357.28 192.16 344.54 193.72 339.6 204.6C336.205 212.36 333.332 220.337 331 228.48L357 234.33C357 234.33 361.09 212.33 361.4 204.6C361.75 196.11 362.09 191.91 357.28 192.16Z" fill="#F66E46"/>
<path d="M354.83 237.81C354.599 235.387 354.526 232.952 354.61 230.52C354.538 228.09 354.621 225.659 354.86 223.24C355.091 225.659 355.164 228.091 355.08 230.52C355.152 232.953 355.068 235.388 354.83 237.81Z" fill="#263238"/>
<path d="M368.939 122.45C375.809 114.05 385.049 109.21 395.939 109.03C402.059 108.93 404.599 110.2 409.009 111.39C413.417 112.456 417.31 115.036 420.009 118.68C423.139 123.12 425.769 128.09 426.359 133.48C426.959 139.03 427.569 144.61 427.149 150.17C426.729 155.73 425.229 161.32 421.949 165.84L407.799 168.3C399.979 168.56 392.059 168.82 384.449 167.04C376.839 165.26 369.449 161.16 365.369 154.49C359.709 145.22 362.059 130.86 368.939 122.45Z" fill="#263238"/>
<path d="M417.658 173.8C417.658 173.8 417.888 174.15 418.508 174.54C419.391 175.088 420.385 175.43 421.418 175.54C422.976 175.712 424.55 175.394 425.918 174.63C427.58 173.624 428.79 172.016 429.297 170.14C429.803 168.265 429.568 166.266 428.638 164.56C427.843 163.213 426.647 162.147 425.218 161.51C424.276 161.084 423.252 160.873 422.218 160.89C421.84 160.863 421.46 160.936 421.118 161.1C422.457 161.154 423.773 161.459 424.998 162C426.258 162.656 427.3 163.663 427.998 164.9C428.768 166.438 428.945 168.205 428.495 169.865C428.045 171.525 427 172.962 425.558 173.9C424.35 174.613 422.96 174.961 421.558 174.9C420.199 174.79 418.874 174.416 417.658 173.8Z" fill="#E0E0E0"/>
<path d="M355.22 163.52C355.355 161.909 355.856 160.351 356.687 158.964C357.517 157.578 358.654 156.399 360.01 155.52C361.388 154.685 362.995 154.31 364.6 154.448C366.205 154.587 367.725 155.232 368.94 156.29L371.17 158.94C372.892 159.74 374.324 161.057 375.264 162.707C376.205 164.358 376.609 166.26 376.42 168.15C376.161 170.034 375.371 171.805 374.142 173.255C372.913 174.706 371.295 175.776 369.48 176.34C367.651 176.854 365.722 176.889 363.876 176.443C362.031 175.996 360.331 175.083 358.94 173.79C357.579 172.474 356.537 170.865 355.892 169.085C355.247 167.305 355.017 165.402 355.22 163.52Z" fill="#263238"/>
<path d="M357.999 173.06C357.455 172.223 357.189 171.237 357.239 170.24C357.359 168.43 358.669 166.06 360.469 163.89C362.051 162.025 363.976 160.481 366.139 159.34C367.799 158.45 368.939 158.13 368.899 158.01C367.848 158.097 366.827 158.4 365.899 158.9C363.583 159.944 361.533 161.496 359.899 163.44C358.992 164.499 358.222 165.668 357.609 166.92C357.055 167.939 356.744 169.071 356.699 170.23C356.678 171.023 356.897 171.804 357.329 172.47C357.729 172.93 357.999 173.09 357.999 173.06Z" fill="#455A64"/>
<path d="M364.869 177.24C365.099 177.24 364.139 172.95 365.499 167.89C366.859 162.83 369.719 159.57 369.499 159.44C368.75 160.018 368.116 160.73 367.629 161.54C366.331 163.418 365.373 165.51 364.799 167.72C364.222 169.927 364.033 172.218 364.239 174.49C364.28 175.437 364.493 176.369 364.869 177.24Z" fill="#455A64"/>
<path d="M407.8 191.25C407.71 186.25 407.59 182.25 407.59 182.25C407.59 182.25 419.13 180.98 422.31 166.2C423.9 158.85 424.19 146.66 424.11 136.69C424.04 127.69 416.39 115.49 405.31 115.45L400.38 114.87L381.52 122.37C380.204 122.432 378.959 122.987 378.032 123.924C377.106 124.861 376.566 126.113 376.52 127.43L376 190.57L394.23 234.83L407.31 217.1L407.8 191.25Z" fill="#936760"/>
<path d="M400.139 162.73C400.249 161.973 400.633 161.282 401.219 160.79C401.755 160.329 402.428 160.056 403.135 160.015C403.841 159.973 404.542 160.165 405.129 160.56C405.737 161.028 406.209 161.651 406.496 162.363C406.782 163.075 406.873 163.851 406.759 164.61C406.435 165.065 406.018 165.445 405.535 165.725C405.052 166.004 404.514 166.177 403.959 166.23C403.782 166.24 403.605 166.24 403.429 166.23C402.549 166.226 401.702 165.89 401.059 165.29C400.722 164.96 400.464 164.559 400.305 164.116C400.146 163.672 400.089 163.198 400.139 162.73Z" fill="#6F4C47"/>
<path d="M416.779 146.89C416.758 147.39 416.543 147.861 416.178 148.203C415.813 148.545 415.329 148.731 414.829 148.72C414.585 148.727 414.341 148.684 414.114 148.595C413.886 148.506 413.678 148.373 413.503 148.202C413.327 148.031 413.188 147.827 413.093 147.602C412.998 147.377 412.949 147.135 412.949 146.89C412.973 146.391 413.189 145.921 413.553 145.58C413.917 145.238 414.4 145.052 414.899 145.06C415.144 145.053 415.387 145.096 415.615 145.185C415.843 145.274 416.05 145.407 416.226 145.578C416.401 145.749 416.54 145.953 416.635 146.178C416.73 146.403 416.779 146.645 416.779 146.89Z" fill="#263238"/>
<path d="M420.438 142.22C420.188 142.45 418.798 141.3 416.738 141.22C414.678 141.14 413.118 142.06 412.908 141.8C412.698 141.54 413.068 141.24 413.748 140.8C414.676 140.235 415.754 139.966 416.838 140.03C417.91 140.088 418.936 140.483 419.768 141.16C420.368 141.65 420.558 142.11 420.438 142.22Z" fill="#263238"/>
<path d="M407.509 157.81C408.609 157.526 409.742 157.385 410.879 157.39C411.409 157.39 411.879 157.29 412.019 156.93C412.098 156.392 412.007 155.843 411.759 155.36C411.329 154.06 410.889 152.69 410.419 151.27C408.579 145.45 407.269 140.68 407.509 140.61C407.749 140.54 409.429 145.19 411.269 151.01C411.709 152.44 412.139 153.81 412.539 155.12C412.837 155.769 412.894 156.503 412.699 157.19C412.615 157.373 412.488 157.534 412.33 157.659C412.172 157.784 411.987 157.87 411.789 157.91C411.494 157.978 411.191 158.005 410.889 157.99C409.759 158.076 408.623 158.016 407.509 157.81Z" fill="#263238"/>
<path d="M407.588 182.24C400.56 181.962 393.748 179.74 387.908 175.82C387.908 175.82 392.658 186.45 407.668 185.87L407.588 182.24Z" fill="#6F4C47"/>
<path d="M401.37 158.9C401.71 158.9 401.59 161.13 403.37 162.82C405.15 164.51 407.59 164.4 407.59 164.71C407.59 164.85 407.04 165.12 406.03 165.09C404.72 165.035 403.47 164.522 402.5 163.64C401.574 162.789 401.012 161.614 400.93 160.36C400.94 159.42 401.22 158.88 401.37 158.9Z" fill="#263238"/>
<path d="M419.999 134.46C419.629 134.94 418.069 134.52 416.219 134.57C414.369 134.62 412.819 135.02 412.439 134.57C412.269 134.34 412.499 133.86 413.159 133.39C414.066 132.801 415.127 132.491 416.209 132.5C417.284 132.463 418.346 132.749 419.259 133.32C419.999 133.75 420.189 134.22 419.999 134.46Z" fill="#263238"/>
<path d="M392.828 146.35C392.804 146.855 392.981 147.349 393.32 147.724C393.659 148.099 394.133 148.324 394.638 148.35C394.881 148.372 395.126 148.345 395.358 148.272C395.59 148.199 395.805 148.08 395.992 147.923C396.178 147.766 396.331 147.573 396.442 147.356C396.553 147.139 396.62 146.903 396.638 146.66C396.663 146.155 396.486 145.661 396.147 145.286C395.808 144.911 395.333 144.686 394.828 144.66C394.586 144.637 394.341 144.662 394.108 144.735C393.875 144.808 393.659 144.926 393.473 145.084C393.286 145.241 393.133 145.434 393.023 145.652C392.912 145.869 392.846 146.107 392.828 146.35Z" fill="#263238"/>
<path d="M392.238 141.48C392.468 141.73 393.938 140.68 395.998 140.72C398.058 140.76 399.548 141.82 399.778 141.57C400.008 141.32 399.658 141.01 399.008 140.57C398.134 139.937 397.087 139.588 396.008 139.57C394.937 139.544 393.885 139.863 393.008 140.48C392.338 140.92 392.118 141.36 392.238 141.48Z" fill="#263238"/>
<path d="M391.05 137.05C391.45 137.53 393.05 137.05 394.96 137.05C396.87 137.05 398.49 137.43 398.87 136.94C399.03 136.71 398.79 136.24 398.09 135.78C397.13 135.218 396.032 134.934 394.92 134.96C393.814 134.952 392.729 135.257 391.79 135.84C391.11 136.34 390.88 136.82 391.05 137.05Z" fill="#263238"/>
<path d="M379.1 152.49C379.16 151.37 378.02 148.69 376.93 148.49C374.03 147.88 368.73 147.82 368.28 155.26C367.65 165.42 377.98 163.95 378.02 163.66C378.06 163.37 378.9 156.32 379.1 152.49Z" fill="#936760"/>
<path d="M375.449 159.74C375.399 159.74 375.259 159.85 374.949 159.97C374.519 160.122 374.046 160.104 373.629 159.92C372.579 159.46 371.779 157.69 371.839 155.86C371.867 154.985 372.089 154.128 372.489 153.35C372.601 153.037 372.79 152.757 373.038 152.535C373.286 152.313 373.585 152.157 373.909 152.08C374.114 152.04 374.326 152.073 374.509 152.174C374.691 152.274 374.833 152.436 374.909 152.63C375.029 152.92 374.959 153.12 375.009 153.14C375.059 153.16 375.239 152.98 375.179 152.56C375.14 152.305 375.013 152.071 374.819 151.9C374.684 151.78 374.525 151.689 374.353 151.634C374.181 151.579 373.999 151.56 373.819 151.58C373.396 151.635 372.994 151.798 372.652 152.054C372.311 152.31 372.041 152.649 371.869 153.04C371.385 153.893 371.114 154.85 371.079 155.83C371.019 157.89 371.949 159.83 373.399 160.38C373.666 160.476 373.951 160.51 374.233 160.481C374.515 160.451 374.787 160.359 375.029 160.21C375.409 160 375.479 159.76 375.449 159.74Z" fill="#6F4C47"/>
<path d="M376.509 148.48L379.099 151.16C390.249 140.49 412.049 113.76 410.829 115.35C405.747 113.452 400.271 112.858 394.899 113.62C386.599 115.03 370.899 119.18 371.119 128.97C371.339 138.76 376.509 148.48 376.509 148.48Z" fill="#263238"/>
<path d="M376.749 173.8C376.749 173.8 376.519 174.15 375.909 174.54C375.024 175.089 374.026 175.431 372.989 175.54C371.434 175.712 369.865 175.394 368.499 174.63C366.838 173.624 365.627 172.016 365.119 170.141C364.611 168.266 364.844 166.268 365.769 164.56C366.569 163.212 367.767 162.146 369.199 161.51C370.141 161.082 371.166 160.871 372.199 160.89C372.581 160.867 372.963 160.939 373.309 161.1C371.975 161.169 370.666 161.487 369.449 162.04C368.19 162.696 367.148 163.704 366.449 164.94C365.679 166.478 365.503 168.245 365.953 169.905C366.403 171.565 367.448 173.002 368.889 173.94C370.116 174.662 371.528 175.01 372.949 174.94C374.278 174.808 375.568 174.42 376.749 173.8Z" fill="#E0E0E0"/>
<path d="M361.738 146.24C361.774 146.039 361.827 145.841 361.898 145.65C362.083 145.098 362.313 144.563 362.588 144.05C363.64 142.166 365.09 140.535 366.838 139.27C369.432 137.419 372.324 136.025 375.388 135.15C378.788 134.05 382.628 133.15 386.388 131.57C389.927 130.089 393.283 128.203 396.388 125.95C398.934 124.102 401.307 122.026 403.478 119.75C404.935 118.209 406.304 116.586 407.578 114.89L408.578 113.48C408.702 113.306 408.843 113.146 408.998 113C408.927 113.19 408.83 113.368 408.708 113.53C408.488 113.87 408.188 114.37 407.708 114.99C406.496 116.75 405.159 118.421 403.708 119.99C401.559 122.321 399.192 124.441 396.638 126.32C393.502 128.624 390.101 130.544 386.508 132.04C382.907 133.42 379.235 134.608 375.508 135.6C372.482 136.438 369.617 137.773 367.028 139.55C365.298 140.769 363.838 142.332 362.738 144.14C361.998 145.45 361.798 146.26 361.738 146.24Z" fill="#455A64"/>
<path d="M364.698 147.84C364.673 147.08 364.809 146.323 365.098 145.62C365.862 143.676 367.193 142.007 368.918 140.83C371.038 139.25 374.068 138.27 377.398 137.51C381.025 136.786 384.56 135.663 387.938 134.16C391.299 132.621 394.456 130.673 397.338 128.36C399.687 126.465 401.843 124.345 403.778 122.03C405.077 120.46 406.276 118.81 407.368 117.09L408.228 115.67C408.322 115.499 408.432 115.338 408.558 115.19C408.506 115.378 408.426 115.557 408.318 115.72C408.118 116.11 407.858 116.6 407.538 117.2C406.506 118.971 405.343 120.662 404.058 122.26C399.791 127.565 394.347 131.803 388.158 134.64C384.749 136.164 381.175 137.291 377.508 138C374.178 138.74 371.218 139.66 369.128 141.16C367.436 142.278 366.102 143.862 365.288 145.72C365.026 146.407 364.829 147.116 364.698 147.84Z" fill="#455A64"/>
<path d="M312.079 230.4C311.509 230.19 310.759 222.1 310.759 222.1C310.759 222.1 302.669 215.63 301.569 213C300.469 210.37 300.629 204.1 300.629 204.1L313.879 195.1C313.879 195.1 321.709 202.1 323.759 204.86C324.909 206.4 325.759 210.65 326.359 214.09C326.839 217.015 326.95 219.988 326.689 222.94L326.499 225.22C326.499 225.22 321.169 233.78 312.079 230.4Z" fill="#936760"/>
<path d="M302.179 214.59C301.227 213.744 300.322 212.846 299.469 211.9C297.749 210.04 295.839 208.3 297.469 206.33C297.714 206.004 298.025 205.734 298.382 205.538C298.739 205.341 299.133 205.223 299.539 205.19C299.539 205.19 298.539 203.46 299.409 202.37C299.654 202.048 299.973 201.789 300.338 201.615C300.703 201.441 301.105 201.357 301.509 201.37C301.509 201.37 300.219 198.89 301.409 197.22C301.863 196.61 302.477 196.139 303.184 195.86C303.891 195.581 304.661 195.505 305.409 195.64C305.409 195.64 300.039 184.7 299.719 184.14C298.519 182.07 298.629 179.81 301.029 179.56C301.909 179.47 302.669 180.16 304.949 183.56C307.229 186.96 311.049 192.71 311.049 192.71C311.049 192.71 315.219 196.24 317.309 198.22C319.399 200.2 323.769 204.84 324.499 206.22C326.369 209.81 325.969 215.59 325.969 215.59L310.769 222.1C310.769 222.1 303.159 215.46 302.179 214.59Z" fill="#936760"/>
<path d="M299.999 205.57C300.629 205.941 301.231 206.359 301.799 206.82L303.709 208.24C304.096 208.518 304.457 208.829 304.789 209.17C305.178 209.548 305.431 210.043 305.509 210.58C305.559 210.857 305.533 211.143 305.435 211.407C305.336 211.671 305.169 211.903 304.949 212.08C304.524 212.375 304 212.493 303.489 212.41C303.062 212.365 302.64 212.278 302.229 212.15C301.839 212.04 301.489 211.93 301.159 211.82C300.519 211.61 299.999 211.42 299.649 211.27C299.299 211.12 299.119 211.03 299.129 211C299.139 210.97 299.939 211.23 301.229 211.59C301.978 211.82 302.744 211.991 303.519 212.1C303.946 212.151 304.378 212.052 304.739 211.82C304.909 211.674 305.038 211.487 305.113 211.277C305.188 211.066 305.208 210.84 305.169 210.62C305.094 210.157 304.873 209.73 304.539 209.4C304.232 209.069 303.898 208.765 303.539 208.49L301.669 207C301.072 206.573 300.513 206.094 299.999 205.57Z" fill="#6F4C47"/>
<path d="M313.229 202.33C312.798 201.565 312.554 200.708 312.519 199.83C312.367 198.967 312.418 198.08 312.669 197.24C312.779 197.24 312.669 198.4 312.859 199.8C313.049 201.2 313.329 202.3 313.229 202.33Z" fill="#6F4C47"/>
<path d="M320.589 203.44C318.655 202.575 316.512 202.287 314.419 202.61C312.333 202.932 310.309 203.573 308.419 204.51C306.899 205.23 305.239 206.29 305.029 207.96C304.819 209.63 306.389 211.23 308.089 211.56C309.819 211.752 311.566 211.403 313.089 210.56C314.6 209.697 316.212 209.025 317.889 208.56" fill="#936760"/>
<path d="M317.909 208.61C317.909 208.61 317.459 208.72 316.669 209.02C315.573 209.468 314.502 209.972 313.458 210.53C312.724 210.909 311.958 211.223 311.169 211.47C310.251 211.772 309.278 211.87 308.319 211.76C307.231 211.618 306.241 211.059 305.559 210.2C305.187 209.75 304.945 209.207 304.858 208.63C304.795 208.026 304.913 207.416 305.199 206.88C305.819 205.901 306.712 205.126 307.768 204.65C308.704 204.181 309.665 203.767 310.649 203.41C312.316 202.786 314.078 202.447 315.858 202.41C317.057 202.381 318.251 202.56 319.389 202.94C319.7 203.043 320.004 203.167 320.298 203.31C320.401 203.356 320.498 203.413 320.589 203.48C320.589 203.48 320.159 203.3 319.349 203.07C318.214 202.753 317.036 202.614 315.858 202.66C314.11 202.741 312.387 203.109 310.759 203.75C309.791 204.105 308.846 204.52 307.929 204.99C306.935 205.439 306.093 206.169 305.509 207.09C305.249 207.555 305.144 208.091 305.208 208.62C305.281 209.136 305.492 209.624 305.819 210.03C306.45 210.82 307.358 211.342 308.358 211.49C309.276 211.597 310.206 211.511 311.089 211.24C311.868 211.006 312.627 210.708 313.358 210.35C314.419 209.81 315.511 209.336 316.629 208.93C316.936 208.829 317.25 208.749 317.569 208.69C317.678 208.647 317.792 208.62 317.909 208.61Z" fill="#6F4C47"/>
<path d="M300.189 205.71C302.719 207.6 305.189 209.81 307.469 211.94C308.093 212.624 308.887 213.131 309.769 213.41C310.479 213.56 311.709 212.41 312.279 211.91L304.109 203.33" fill="#936760"/>
<path d="M304.109 203.33C304.358 203.507 304.586 203.712 304.789 203.94L306.549 205.72C308.039 207.24 310.099 209.37 312.409 211.79L312.529 211.92L312.389 212.04C311.953 212.431 311.496 212.799 311.019 213.14C310.814 213.276 310.596 213.393 310.369 213.49C310.248 213.54 310.12 213.57 309.989 213.58C309.857 213.607 309.721 213.607 309.589 213.58C309.137 213.446 308.713 213.229 308.339 212.94C307.609 212.38 307.029 211.77 306.419 211.23C305.219 210.13 304.139 209.15 303.219 208.34C302.299 207.53 301.529 206.89 300.999 206.45C300.715 206.234 300.444 206 300.189 205.75C300.507 205.917 300.805 206.119 301.079 206.35C301.639 206.75 302.429 207.35 303.369 208.15C304.309 208.95 305.429 209.9 306.629 211C307.239 211.53 307.849 212.15 308.539 212.67C308.88 212.933 309.266 213.13 309.679 213.25C309.884 213.274 310.092 213.254 310.288 213.192C310.484 213.13 310.666 213.027 310.819 212.89C311.289 212.558 311.739 212.201 312.169 211.82V212C309.859 209.57 307.839 207.41 306.389 205.85L304.699 204C304.49 203.789 304.293 203.565 304.109 203.33Z" fill="#6F4C47"/>
<path d="M301.809 200.73L310.049 210.01C310.594 210.703 311.253 211.298 311.999 211.77C312.373 212.003 312.799 212.14 313.238 212.168C313.678 212.196 314.118 212.114 314.519 211.93C315.017 211.585 315.385 211.085 315.567 210.507C315.748 209.929 315.731 209.307 315.519 208.74C315.074 207.609 314.392 206.586 313.519 205.74C311.032 202.92 308.769 199.911 306.749 196.74" fill="#936760"/>
<path d="M306.769 196.71C306.769 196.71 306.859 196.8 306.999 197L307.599 197.87C308.129 198.62 308.889 199.7 309.869 201.01C310.849 202.32 312.079 203.83 313.499 205.46C314.303 206.276 314.977 207.21 315.499 208.23C315.76 208.806 315.861 209.442 315.789 210.07C315.737 210.735 315.438 211.356 314.949 211.81C314.694 212.027 314.394 212.184 314.071 212.273C313.748 212.361 313.409 212.377 313.079 212.32C312.454 212.227 311.865 211.972 311.369 211.58C310.513 210.822 309.721 209.996 308.999 209.11L305.209 204.78C304.159 203.57 303.309 202.57 302.679 201.84L301.999 201C301.914 200.909 301.84 200.808 301.779 200.7C301.779 200.7 301.879 200.78 302.049 200.95L302.779 201.72L305.389 204.59L309.239 208.87C309.954 209.734 310.737 210.54 311.579 211.28C312.028 211.635 312.563 211.866 313.129 211.95C313.411 211.997 313.7 211.983 313.976 211.908C314.252 211.834 314.509 211.702 314.729 211.52C315.151 211.121 315.408 210.579 315.449 210C315.515 209.433 315.425 208.86 315.189 208.34C314.663 207.344 313.989 206.434 313.189 205.64C311.769 204 310.569 202.45 309.609 201.12C308.649 199.79 307.909 198.69 307.419 197.91C307.179 197.52 306.989 197.22 306.869 197.01C306.825 196.914 306.792 196.813 306.769 196.71Z" fill="#6F4C47"/>
<path d="M319.339 218C319.032 218.162 318.686 218.235 318.339 218.21C317.528 218.254 316.717 218.111 315.969 217.79C315.207 217.483 314.523 217.008 313.969 216.4C313.728 216.163 313.546 215.871 313.439 215.55C314.157 216.387 315.061 217.045 316.079 217.47C317.096 217.895 318.199 218.077 319.299 218H319.339Z" fill="#6F4C47"/>
<path d="M424.128 191.84L421.248 228.18C421.2 228.802 420.908 229.38 420.436 229.788C419.965 230.196 419.351 230.401 418.729 230.36L398.478 229C398.162 228.981 397.852 228.899 397.568 228.758C397.284 228.617 397.032 228.42 396.825 228.179C396.619 227.939 396.464 227.659 396.368 227.356C396.272 227.054 396.238 226.736 396.268 226.42L399.578 190.11C399.632 189.494 399.925 188.923 400.394 188.519C400.863 188.115 401.471 187.911 402.088 187.95L421.919 189.24C422.236 189.261 422.546 189.346 422.83 189.489C423.114 189.632 423.367 189.831 423.573 190.073C423.779 190.316 423.934 190.597 424.029 190.9C424.125 191.204 424.159 191.523 424.128 191.84Z" fill="#455A64"/>
<path d="M453.118 238.1C453.118 238.1 459.168 278.98 458.928 284.47C458.688 289.96 452.478 302.15 444.118 303.34C435.758 304.53 427.878 296.89 427.638 286.86C427.398 276.83 426.158 245.11 426.158 245.11L432.398 241.67L453.118 238.1Z" fill="#936760"/>
<path d="M418.67 204.32C418.67 204.32 424.93 208.17 426.78 209.18C428.63 210.19 428.39 217.65 428.39 217.65L438.93 242.15L426.23 246.7C426.23 246.7 421.7 238.13 420.4 237.05C419.51 236.35 418.49 235.834 417.4 235.53C417.4 235.53 416.75 237.91 414.8 236.83C413.253 235.809 411.865 234.566 410.68 233.14C410.68 233.14 408.94 234.23 408.29 232.93C407.64 231.63 406.56 228.81 406.56 228.81C406.56 228.81 410.24 224.04 411.76 224.04C413.28 224.04 421.08 224.47 421.08 224.47C421.08 224.47 420.65 223.82 418.48 222.96C416.31 222.1 403.41 218.29 402.8 218.06C401.89 217.71 400.87 215.34 403.69 215.12C406.51 214.9 422.38 217.74 422.38 217.74C422.38 217.74 423.25 213.64 422.6 212.74C421.95 211.84 416.28 208.22 418.67 204.32Z" fill="#936760"/>
<path d="M410.628 233C410.518 232.41 410.535 231.803 410.678 231.22C410.814 230.541 411.165 229.924 411.678 229.46C412.354 228.971 413.175 228.724 414.008 228.76C415.433 228.668 416.863 228.718 418.278 228.91C418.87 228.948 419.451 229.083 419.998 229.31C419.998 229.46 417.318 229.01 413.998 229.23C413.263 229.193 412.535 229.389 411.918 229.79C411.471 230.191 411.154 230.717 411.008 231.3C410.912 231.873 410.785 232.44 410.628 233Z" fill="#6F4C47"/>
<path d="M413.148 233.73C413.978 234.07 414.79 234.454 415.578 234.88C416.432 235.16 417.267 235.494 418.078 235.88C417.145 235.942 416.213 235.741 415.388 235.3C414.504 235.008 413.725 234.462 413.148 233.73Z" fill="#6F4C47"/>
<path d="M421.629 217.65C422.472 217.777 423.255 218.165 423.868 218.758C424.481 219.351 424.894 220.121 425.049 220.96C424.919 220.96 424.489 219.96 423.539 219.1C422.589 218.24 421.579 217.78 421.629 217.65Z" fill="#6F4C47"/>
<path d="M313.419 436.42C313.279 436.42 318.739 413.42 325.619 385.14C332.499 356.86 338.179 334 338.319 334C338.459 334 332.999 357 326.119 385.29C319.239 413.58 313.559 436.45 313.419 436.42Z" fill="#455A64"/>
<path d="M463.07 469.8C463.07 469.94 367.67 470.06 250.01 470.06C132.35 470.06 36.9199 469.94 36.9199 469.8C36.9199 469.66 132.31 469.54 250.01 469.54C367.71 469.54 463.07 469.65 463.07 469.8Z" fill="#263238"/>
<path d="M413.399 109.18L416.339 98.57C412.447 92.264 411.055 84.7301 412.436 77.4496C413.817 70.169 417.872 63.6686 423.803 59.2262C429.735 54.7838 437.113 52.7208 444.488 53.4429C451.863 54.165 458.702 57.6199 463.658 63.1283C468.615 68.6368 471.332 75.8003 471.275 83.2104C471.218 90.6206 468.391 97.7414 463.35 103.173C458.309 108.604 451.418 111.953 444.032 112.561C436.647 113.17 429.301 110.993 423.439 106.46L413.399 109.18Z" fill="white"/>
<path d="M413.399 109.18L414.069 108.98L415.999 108.44L423.419 106.36L423.349 106.55C423.33 106.528 423.319 106.5 423.319 106.47C423.319 106.44 423.33 106.412 423.349 106.39C423.372 106.376 423.398 106.368 423.424 106.368C423.451 106.368 423.477 106.376 423.499 106.39C427.441 109.415 432.086 111.39 436.999 112.13C440.144 112.613 443.348 112.573 446.479 112.01C452.312 110.997 457.704 108.251 461.953 104.128C466.202 100.006 469.111 94.6994 470.299 88.9C471.166 84.4708 471.015 79.9026 469.859 75.54C468.674 70.9837 466.401 66.7833 463.234 63.2996C460.067 59.8159 456.102 57.1531 451.679 55.54C447.137 53.8723 442.253 53.3512 437.46 54.023C432.668 54.6949 428.116 56.5388 424.207 59.3914C420.298 62.244 417.153 66.017 415.052 70.376C412.95 74.735 411.957 79.5451 412.159 84.38C412.368 89.3636 413.841 94.2121 416.439 98.47C416.449 98.5026 416.449 98.5374 416.439 98.57C415.439 101.98 414.709 104.57 414.189 106.4C413.939 107.29 413.739 107.96 413.599 108.4C413.459 108.84 413.389 109.11 413.389 109.11C413.389 109.11 413.439 108.89 413.549 108.44C413.659 107.99 413.849 107.3 414.089 106.44C414.569 104.61 415.289 101.94 416.209 98.44V98.54C413.063 93.4813 411.516 87.591 411.771 81.6391C412.026 75.6873 414.072 69.9509 417.639 65.18C422.214 59.071 428.953 54.9428 436.473 53.6414C443.994 52.3399 451.727 53.9637 458.089 58.18C460.072 59.5242 461.891 61.0948 463.509 62.86C465.14 64.6474 466.56 66.6171 467.739 68.73C471.037 74.9165 472.097 82.0521 470.739 88.93C469.533 94.8179 466.574 100.203 462.252 104.379C457.929 108.555 452.445 111.327 446.519 112.33C443.343 112.891 440.095 112.918 436.909 112.41C431.947 111.617 427.267 109.576 423.309 106.48L423.479 106.32C423.49 106.33 423.499 106.343 423.505 106.356C423.511 106.37 423.514 106.385 423.514 106.4C423.514 106.415 423.511 106.43 423.505 106.444C423.499 106.457 423.49 106.47 423.479 106.48L415.929 108.48L413.999 109L413.399 109.18Z" fill="#263238"/>
<path d="M428.309 83.79L431.769 80.32L438.449 86.26L451.559 73.64L454.779 77.11L437.959 92.94L428.309 83.79Z" fill="#F66E46"/>
</svg>
