<svg width="500" height="500" viewBox="0 0 500 500" fill="none" xmlns="http://www.w3.org/2000/svg">
<path d="M449.9 398.49H416.78V398.74H449.9V398.49Z" fill="#EBEBEB"/>
<path d="M331.22 401.21H322.53V401.46H331.22V401.21Z" fill="#EBEBEB"/>
<path d="M415.78 389.21H396.59V389.46H415.78V389.21Z" fill="#EBEBEB"/>
<path d="M95.65 390.89H52.46V391.14H95.65V390.89Z" fill="#EBEBEB"/>
<path d="M110.89 390.89H104.56V391.14H110.89V390.89Z" fill="#EBEBEB"/>
<path d="M225.15 395.11H131.47V395.36H225.15V395.11Z" fill="#EBEBEB"/>
<path d="M238.4 337.8H45.3C43.7856 337.8 42.3332 337.198 41.2624 336.128C40.1916 335.057 39.59 333.604 39.59 332.09V60.66C39.6032 59.1543 40.2106 57.7147 41.28 56.6547C42.3494 55.5947 43.7942 54.9999 45.3 55H238.4C239.15 55 239.892 55.1477 240.585 55.4346C241.278 55.7216 241.907 56.1422 242.438 56.6724C242.968 57.2026 243.388 57.8321 243.675 58.5249C243.962 59.2176 244.11 59.9602 244.11 60.71V332.09C244.11 332.84 243.962 333.582 243.675 334.275C243.388 334.968 242.968 335.597 242.438 336.128C241.907 336.658 241.278 337.078 240.585 337.365C239.892 337.652 239.15 337.8 238.4 337.8ZM45.3 55.2C43.8527 55.2026 42.4655 55.7787 41.4421 56.8021C40.4187 57.8255 39.8426 59.2127 39.84 60.66V332.09C39.8426 333.537 40.4187 334.924 41.4421 335.948C42.4655 336.971 43.8527 337.547 45.3 337.55H238.4C239.847 337.547 241.234 336.971 242.258 335.948C243.281 334.924 243.857 333.537 243.86 332.09V60.66C243.857 59.2127 243.281 57.8255 242.258 56.8021C241.234 55.7787 239.847 55.2026 238.4 55.2H45.3Z" fill="#EBEBEB"/>
<path d="M454.7 337.8H261.6C260.086 337.8 258.633 337.198 257.562 336.128C256.492 335.057 255.89 333.604 255.89 332.09V60.66C255.903 59.1543 256.511 57.7147 257.58 56.6547C258.649 55.5947 260.094 54.9999 261.6 55H454.7C456.214 55 457.667 55.6016 458.738 56.6724C459.808 57.7433 460.41 59.1956 460.41 60.71V332.09C460.41 333.604 459.808 335.057 458.738 336.128C457.667 337.198 456.214 337.8 454.7 337.8ZM261.6 55.2C260.153 55.2026 258.766 55.7787 257.742 56.8021C256.719 57.8255 256.143 59.2127 256.14 60.66V332.09C256.143 333.537 256.719 334.924 257.742 335.948C258.766 336.971 260.153 337.547 261.6 337.55H454.7C456.147 337.547 457.535 336.971 458.558 335.948C459.581 334.924 460.157 333.537 460.16 332.09V60.66C460.157 59.2127 459.581 57.8255 458.558 56.8021C457.535 55.7787 456.147 55.2026 454.7 55.2H261.6Z" fill="#EBEBEB"/>
<path d="M500 382.4H0V382.65H500V382.4Z" fill="#EBEBEB"/>
<path d="M350.07 376.59H445.25V249.94H350.07V376.59Z" fill="#F5F5F5"/>
<path d="M331.91 376.59H350.07V249.94H331.91V376.59Z" fill="#E6E6E6"/>
<path d="M356.25 290.1H438.58V259.34H356.25V290.1Z" fill="#FAFAFA"/>
<path d="M408.15 259.34L407.79 263.44C407.735 264.093 407.435 264.702 406.952 265.145C406.468 265.588 405.836 265.832 405.18 265.83H389.65C388.994 265.832 388.362 265.588 387.878 265.145C387.394 264.702 387.095 264.093 387.04 263.44L386.68 259.34H408.15Z" fill="#EBEBEB"/>
<path d="M356.25 324.21H438.58V293.45H356.25V324.21Z" fill="#FAFAFA"/>
<path d="M408.15 293.46L407.79 297.56C407.732 298.213 407.433 298.82 406.949 299.262C406.466 299.705 405.835 299.95 405.18 299.95H389.65C388.995 299.95 388.364 299.705 387.88 299.262C387.397 298.82 387.097 298.213 387.04 297.56L386.68 293.46H408.15Z" fill="#EBEBEB"/>
<path d="M356.25 358.33H438.58V327.57H356.25V358.33Z" fill="#FAFAFA"/>
<path d="M408.15 327.57L407.79 331.67C407.735 332.323 407.435 332.932 406.952 333.375C406.468 333.818 405.836 334.062 405.18 334.06H389.65C388.994 334.062 388.362 333.818 387.878 333.375C387.394 332.932 387.095 332.323 387.04 331.67L386.68 327.57H408.15Z" fill="#EBEBEB"/>
<path d="M356.25 382.92H437.58L438.58 376.58H356.25V382.92Z" fill="#E6E6E6"/>
<path d="M339.25 382.92H356.25V376.58H338.25L339.25 382.92Z" fill="#E0E0E0"/>
<path d="M394.48 250.08H426.98L423.38 208.87H390.88L394.48 250.08Z" fill="#FAFAFA"/>
<path d="M394.48 250.08H392.93L389.32 208.87H390.88L394.48 250.08Z" fill="#EBEBEB"/>
<path d="M397.43 245.88H423.3L420.43 213.07H394.56L397.43 245.88Z" fill="#F0F0F0"/>
<path d="M399.32 243.18H420.93L418.54 215.77H396.92L399.32 243.18Z" fill="#E6E6E6"/>
<path d="M385.35 250.08L387.58 224.57H355.23L353 250.08H385.35Z" fill="#F0F0F0"/>
<path d="M385.35 250.08L387.58 224.57H389.32L387.09 250.08H385.35Z" fill="#E0E0E0"/>
<path d="M382.28 247.48L384.06 227.17H358.3L356.52 247.48H382.28Z" fill="#EBEBEB"/>
<path d="M380.31 245.81L381.79 228.85H360.27L358.79 245.81H380.31Z" fill="#F5F5F5"/>
<path d="M310.64 365.77C310.64 372.53 309.58 376.9 307.8 379.71C307.115 380.739 306.184 381.58 305.09 382.157C303.997 382.733 302.776 383.026 301.54 383.01H291.75C290.514 383.026 289.293 382.733 288.2 382.157C287.106 381.58 286.175 380.739 285.49 379.71C283.71 376.9 282.64 372.53 282.64 365.77C282.64 355.96 286.92 348.11 288.32 341.85C288.82 339.59 287.14 332.67 287.14 332.67H306.14C306.14 332.67 304.47 339.59 304.97 341.85C306.37 348.11 310.64 356 310.64 365.77Z" fill="#EBEBEB"/>
<path d="M343 326.09C343 317.57 329.65 321.09 326.29 307.9C325.01 302.9 335.87 291.57 335.87 291.57H302C302 291.57 312.86 302.9 311.58 307.9C308.22 321.11 294.87 317.57 294.87 326.09C294.87 335.46 313.7 354.99 314.61 376.97C314.69 378.97 311.07 382.97 311.07 382.97H326.79C326.79 382.97 323.16 378.89 323.25 376.97C324.17 355 343 335.46 343 326.09Z" fill="#F5F5F5"/>
<path d="M332.77 348.21C334.77 344.07 330.67 330.01 330.67 330.01H345.34C345.34 330.01 341.27 344.07 343.24 348.21C344.63 351.13 347.78 353 347.78 356.45V377.22C347.78 382.6 343.38 383.01 338 383.01C332.62 383.01 328.22 382.6 328.22 377.22V356.45C328.22 353 331.38 351.13 332.77 348.21Z" fill="#F0F0F0"/>
<path d="M165.15 225.53C156.73 221.88 151.92 214.18 154.44 208.36C156.96 202.54 165.86 200.78 174.29 204.43C182.72 208.08 187.52 215.78 185 221.6C182.48 227.42 173.58 229.18 165.15 225.53ZM171.86 210C167.86 208.29 163.74 209.11 162.56 211.84C161.38 214.57 163.63 218.17 167.56 219.84C171.49 221.51 175.68 220.73 176.86 218C178.04 215.27 175.81 211.75 171.86 210Z" fill="#E6E6E6"/>
<path d="M175.07 210.36L171.07 208.63L195.27 152.69C195.383 152.426 195.547 152.188 195.753 151.988C195.959 151.788 196.202 151.631 196.469 151.526C196.736 151.421 197.021 151.37 197.308 151.376C197.595 151.382 197.878 151.444 198.14 151.56C198.402 151.673 198.64 151.837 198.839 152.042C199.038 152.247 199.194 152.49 199.299 152.755C199.404 153.021 199.456 153.305 199.451 153.591C199.446 153.876 199.384 154.158 199.27 154.42L175.07 210.36Z" fill="#E6E6E6"/>
<path d="M201.12 159.83L193.43 156.47L195.17 152.47L202.85 155.83L201.12 159.83Z" fill="#E6E6E6"/>
<path d="M197.33 164.31L191.83 161.92L193.56 157.91L199.06 160.3L197.33 164.31Z" fill="#E6E6E6"/>
<path d="M191.319 165.552L189.586 169.553L195.753 172.223L197.486 168.222L191.319 165.552Z" fill="#E6E6E6"/>
<path d="M176.62 204.39L174.42 203.44C173.894 203.21 173.481 202.78 173.272 202.246C173.062 201.712 173.072 201.117 173.3 200.59C173.529 200.063 173.957 199.647 174.491 199.435C175.026 199.224 175.622 199.232 176.15 199.46L178.35 200.41C178.876 200.64 179.289 201.07 179.498 201.604C179.708 202.138 179.698 202.733 179.47 203.26C179.241 203.787 178.813 204.203 178.279 204.414C177.744 204.626 177.148 204.617 176.62 204.39Z" fill="#E6E6E6"/>
<path d="M348.47 185.16C350.978 186.744 352.958 189.039 354.155 191.754C355.353 194.468 355.714 197.478 355.192 200.398C354.671 203.318 353.291 206.017 351.228 208.149C349.165 210.282 346.514 211.751 343.612 212.368C340.71 212.986 337.691 212.725 334.938 211.618C332.186 210.512 329.826 208.609 328.16 206.155C326.493 203.7 325.597 200.805 325.585 197.838C325.572 194.871 326.444 191.968 328.09 189.5C330.22 186.225 333.562 183.929 337.383 183.116C341.203 182.302 345.191 183.037 348.47 185.16ZM336.32 203.39C337.459 204.191 338.81 204.635 340.202 204.664C341.595 204.693 342.964 204.307 344.135 203.554C345.306 202.801 346.226 201.715 346.777 200.437C347.328 199.158 347.486 197.744 347.229 196.376C346.973 195.007 346.314 193.746 345.337 192.754C344.36 191.762 343.109 191.084 341.745 190.806C340.38 190.529 338.964 190.664 337.677 191.196C336.39 191.727 335.291 192.63 334.52 193.79C333.487 195.302 333.096 197.162 333.433 198.962C333.771 200.762 334.809 202.355 336.32 203.39Z" fill="#E6E6E6"/>
<path d="M334.71 201.61L338.85 204.37L309.23 249.69C308.864 250.239 308.295 250.619 307.648 250.749C307.001 250.878 306.329 250.746 305.78 250.38C305.509 250.2 305.276 249.967 305.094 249.697C304.913 249.426 304.786 249.123 304.722 248.803C304.658 248.484 304.658 248.155 304.721 247.835C304.784 247.515 304.909 247.211 305.09 246.94L334.71 201.61Z" fill="#E6E6E6"/>
<path d="M305.28 237.05L314 242.9L309.65 249.43L300.92 243.57C300.32 243.165 299.904 242.54 299.763 241.83C299.623 241.12 299.769 240.383 300.17 239.78L301.48 237.78C301.889 237.182 302.518 236.77 303.23 236.634C303.941 236.497 304.678 236.647 305.28 237.05Z" fill="#E6E6E6"/>
<path d="M227.54 98.5599L222.94 110.46C222.841 110.715 222.694 110.949 222.505 111.147C222.316 111.345 222.09 111.505 221.84 111.616C221.59 111.727 221.32 111.787 221.046 111.794C220.773 111.801 220.5 111.753 220.245 111.655C219.99 111.556 219.756 111.409 219.558 111.22C219.359 111.031 219.2 110.805 219.089 110.555C218.978 110.305 218.918 110.035 218.911 109.761C218.904 109.488 218.951 109.215 219.05 108.96L223.65 97.0599C224.361 95.2098 224.31 93.1531 223.508 91.3406C222.706 89.528 221.218 88.1074 219.37 87.3899L215.11 85.7399C213.262 85.0275 211.208 85.0757 209.396 85.874C207.584 86.6723 206.161 88.1558 205.44 89.9999L203.56 94.8599L199.68 93.3599L201.56 88.4999C202.11 87.0737 202.936 85.7699 203.99 84.6628C205.044 83.5558 206.306 82.6672 207.703 82.0478C209.101 81.4285 210.607 81.0904 212.135 81.053C213.663 81.0156 215.184 81.2796 216.61 81.8299L220.87 83.4699C222.299 84.0221 223.606 84.8506 224.715 85.908C225.823 86.9654 226.713 88.231 227.333 89.6325C227.952 91.0339 228.289 92.5437 228.325 94.0755C228.36 95.6074 228.094 97.1312 227.54 98.5599Z" fill="#F0F0F0"/>
<path d="M226.81 100.43C226.493 100.022 226.071 99.708 225.59 99.52L202.39 90.52C201.685 90.2547 200.905 90.2769 200.216 90.5818C199.528 90.8867 198.987 91.4499 198.71 92.15L189.71 115.36C189.44 116.063 189.459 116.844 189.765 117.533C190.071 118.221 190.637 118.759 191.34 119.03L214.54 128.03C214.889 128.165 215.26 128.231 215.634 128.222C216.008 128.213 216.377 128.131 216.719 127.979C217.061 127.828 217.369 127.611 217.627 127.339C217.884 127.068 218.086 126.749 218.22 126.4L227.22 103.2C227.398 102.742 227.454 102.246 227.382 101.761C227.31 101.275 227.113 100.817 226.81 100.43ZM209.19 118.36L201.84 115.52L205.73 108.73C205.428 108.122 205.283 107.449 205.308 106.77C205.332 106.092 205.525 105.431 205.87 104.846C206.214 104.261 206.699 103.772 207.281 103.422C207.862 103.072 208.521 102.872 209.199 102.841C209.877 102.81 210.552 102.949 211.163 103.245C211.774 103.541 212.301 103.984 212.697 104.535C213.094 105.086 213.346 105.727 213.432 106.4C213.518 107.073 213.435 107.757 213.19 108.39C212.989 108.919 212.679 109.399 212.279 109.799C211.879 110.199 211.399 110.509 210.87 110.71L209.19 118.36Z" fill="#E6E6E6"/>
<path d="M69.15 369.46H254.28V269.83H69.15V369.46Z" fill="#E6E6E6"/>
<path d="M239.44 382.39H251.08V373.6H239.44V382.39Z" fill="#E6E6E6"/>
<path d="M55.02 382.39H66.66L66.66 262.42H55.02L55.02 382.39Z" fill="#E6E6E6"/>
<path d="M66.52 262.41V382.41H72.73V375.69H251.08V382.41H257.29V262.41H66.52ZM72.73 273.27H158.8V314.94H72.73V273.27ZM251.08 364.8H165V273.27H251.07L251.08 364.8ZM72.73 364.8V321.15H158.8V364.8H72.73Z" fill="#F0F0F0"/>
<path d="M165 364.81H245.26V277.76H165V364.81Z" fill="#F5F5F5"/>
<path d="M168.64 318.67C168.64 319.408 168.859 320.129 169.269 320.742C169.678 321.356 170.261 321.834 170.943 322.116C171.624 322.398 172.374 322.472 173.098 322.328C173.821 322.184 174.486 321.829 175.008 321.307C175.529 320.786 175.884 320.121 176.028 319.398C176.172 318.674 176.098 317.924 175.816 317.243C175.534 316.561 175.056 315.978 174.442 315.569C173.829 315.159 173.108 314.94 172.37 314.94C171.88 314.94 171.395 315.036 170.943 315.224C170.49 315.411 170.079 315.686 169.733 316.032C169.386 316.379 169.111 316.79 168.924 317.243C168.737 317.695 168.64 318.18 168.64 318.67Z" fill="#FAFAFA"/>
<path d="M172.37 322.4C173.083 322.398 173.78 322.191 174.379 321.805C174.978 321.418 175.454 320.868 175.75 320.22C175.978 320.705 176.098 321.234 176.1 321.77C176.1 322.759 175.707 323.708 175.008 324.407C174.308 325.107 173.359 325.5 172.37 325.5C171.381 325.5 170.432 325.107 169.733 324.407C169.033 323.708 168.64 322.759 168.64 321.77C168.642 321.234 168.762 320.705 168.99 320.22C169.286 320.868 169.762 321.418 170.361 321.805C170.96 322.191 171.657 322.398 172.37 322.4Z" fill="#E0E0E0"/>
<path d="M214.14 364.8H194.99L185.84 277.75H204.99L214.14 364.8Z" fill="#FAFAFA"/>
<path d="M190.09 364.8H186.28L177.13 277.75H180.94L190.09 364.8Z" fill="#FAFAFA"/>
<path d="M139.41 314.9H146.99V277.67H139.41V314.9Z" fill="#FAFAFA"/>
<path d="M107.96 314.9H115.54V277.67H107.96V314.9Z" fill="#F5F5F5"/>
<path d="M131.82 314.9H139.4V280.28H131.82V314.9Z" fill="#F5F5F5"/>
<path d="M115.54 314.9H123.12V280.28H115.54V314.9Z" fill="#FAFAFA"/>
<path d="M123.13 314.9H128.03V277.67H123.13V314.9Z" fill="#EBEBEB"/>
<path d="M128.02 314.9H131.81V280.28H128.02V314.9Z" fill="#FAFAFA"/>
<path d="M100.38 314.9H107.96V277.67H100.38V314.9Z" fill="#EBEBEB"/>
<path d="M92.79 314.9H100.37V280.28H92.79V314.9Z" fill="#E6E6E6"/>
<path d="M76.51 314.9H84.09V280.28H76.51V314.9Z" fill="#E6E6E6"/>
<path d="M84.1 314.9H89V277.67H84.1V314.9Z" fill="#FAFAFA"/>
<path d="M89 314.9H92.79V280.28H89V314.9Z" fill="#EBEBEB"/>
<path d="M72.72 314.9H76.51V278.55H72.72V314.9Z" fill="#EBEBEB"/>
<path d="M80.3 327.57H72.72V364.8H80.3V327.57Z" fill="#EBEBEB"/>
<path d="M111.74 327.57H104.16V364.8H111.74V327.57Z" fill="#FAFAFA"/>
<path d="M87.88 330.19H80.3V364.81H87.88V330.19Z" fill="#FAFAFA"/>
<path d="M104.16 330.19H96.58V364.81H104.16V330.19Z" fill="#EBEBEB"/>
<path d="M96.5801 327.57H91.6801V364.8H96.5801V327.57Z" fill="#FAFAFA"/>
<path d="M91.68 330.19H87.89V364.81H91.68V330.19Z" fill="#F5F5F5"/>
<path d="M119.33 327.57H111.75V364.8H119.33V327.57Z" fill="#EBEBEB"/>
<path d="M126.91 330.19H119.33V364.81H126.91V330.19Z" fill="#F5F5F5"/>
<path d="M143.19 330.19H135.61V364.81H143.19V330.19Z" fill="#E6E6E6"/>
<path d="M135.61 327.57H130.71V364.8H135.61V327.57Z" fill="#FAFAFA"/>
<path d="M151.89 327.57H146.99V364.8H151.89V327.57Z" fill="#FAFAFA"/>
<path d="M130.71 330.19H126.92V364.81H130.71V330.19Z" fill="#EBEBEB"/>
<path d="M146.98 328.45H143.19V364.8H146.98V328.45Z" fill="#EBEBEB"/>
<path d="M81.1801 198.29C80.3943 198.677 79.7453 199.294 79.3201 200.06C78.7401 201.24 80.5501 203.43 80.5501 203.43C80.9865 203.722 81.4851 203.907 82.0061 203.971C82.5271 204.036 83.0559 203.977 83.5501 203.8L85.0501 203.12C85.0501 203.12 82.4801 198.65 81.2301 198.6L81.1801 198.29Z" fill="#E6E6E6"/>
<path d="M87.63 198.25C87.81 200.37 86.5 203.05 84.63 203.25C82.76 203.45 81 201 80.78 198.85C80.56 196.7 82.12 196.52 84.01 196.36C85.9 196.2 87.44 196.13 87.63 198.25Z" fill="#E6E6E6"/>
<path d="M82.0801 197.63C82.0801 197.63 83.5301 198.78 86.5101 198.11C86.5101 198.11 81.8101 201.24 82.0801 197.63Z" fill="#E6E6E6"/>
<path d="M83.36 197.21C83.36 197.21 85.03 196.92 85.05 197.61C85.05 197.61 86.47 197.53 86.27 196.94C86.07 196.35 83.36 197.21 83.36 197.21Z" fill="#E6E6E6"/>
<g opacity="0.2">
<path d="M82.0801 197.63C82.0801 197.63 83.5301 198.78 86.5101 198.11C86.5101 198.11 81.8101 201.24 82.0801 197.63Z" fill="#FAFAFA"/>
</g>
<g opacity="0.2">
<path d="M83.36 197.21C83.36 197.21 85.03 196.92 85.05 197.61C85.05 197.61 86.47 197.53 86.27 196.94C86.07 196.35 83.36 197.21 83.36 197.21Z" fill="#FAFAFA"/>
</g>
<path d="M81.4301 203.88C81.7526 204.364 82.2056 204.746 82.7365 204.983C83.2673 205.221 83.8545 205.303 84.4301 205.22C84.9988 205.134 85.5435 204.931 86.0291 204.623C86.5147 204.315 86.9306 203.908 87.2501 203.43C87.8738 202.466 88.2198 201.348 88.2501 200.2C88.2501 199.91 88.2501 199.2 87.9001 199.05C87.5501 198.9 87.3201 199.45 87.1601 199.68C86.6932 200.351 86.1606 200.974 85.5701 201.54C84.9861 202.1 84.3383 202.591 83.6401 203C83.4401 203.06 81.5401 204.05 81.4301 203.88Z" fill="#E6E6E6"/>
<path d="M89.55 199.65C89.7228 200.084 89.7832 200.554 89.7255 201.017C89.6678 201.481 89.4939 201.922 89.22 202.3C88.8258 202.768 88.3476 203.158 87.81 203.45C87.44 203.67 86.97 203.88 86.61 203.65C86.25 203.42 86.26 202.83 86.35 202.38C86.49 201.69 86.64 201 86.82 200.31C86.9053 199.619 87.0941 198.945 87.38 198.31C87.69 197.87 88.12 198.13 88.59 198.46C89.0165 198.758 89.3494 199.17 89.55 199.65Z" fill="#E6E6E6"/>
<g opacity="0.2">
<path d="M81.91 202.71C81.5462 202.681 81.1973 202.553 80.9012 202.339C80.6051 202.126 80.3729 201.836 80.23 201.5C80.03 200.99 80.03 199.72 80.69 199.55C80.8891 200.672 81.3034 201.745 81.91 202.71Z" fill="#FAFAFA"/>
</g>
<g opacity="0.2">
<path d="M86.84 202.65C87.1857 202.549 87.5014 202.365 87.7594 202.114C88.0175 201.863 88.2099 201.553 88.32 201.21C88.43 200.83 88.32 198.89 87.71 199.7C87.52 199.97 87.56 200.82 87.46 201.17C87.3122 201.686 87.1041 202.183 86.84 202.65Z" fill="#FAFAFA"/>
</g>
<g opacity="0.2">
<path d="M84.2 203.85C84.4788 204.083 84.8282 204.214 85.1913 204.223C85.5544 204.233 85.9098 204.119 86.2 203.9C86.12 204.28 84.94 204.59 84.58 204.7C83.58 204.98 83.12 204.56 82.2 204.17C82.15 204.17 83.61 204.39 84.2 203.85Z" fill="#FAFAFA"/>
</g>
<path d="M82.55 242.8L82.64 213.95L84.12 205.18L84.68 205.27L83.21 214L83.1 243.35L82.55 242.8Z" fill="#E0E0E0"/>
<path d="M83.15 213.8L82.7 214.15C82.1915 213.439 81.7433 212.686 81.36 211.9C80.6101 210.347 79.6659 208.895 78.55 207.58L78.97 207.19C80.1192 208.542 81.0935 210.034 81.87 211.63C82.2367 212.387 82.6648 213.113 83.15 213.8Z" fill="#E0E0E0"/>
<path d="M83.5 209.93C84.2738 209.72 84.9474 209.242 85.4 208.58C85.8485 207.795 86.1341 206.928 86.24 206.03C85.24 206.33 84.17 205.85 83.14 205.97C82.7287 206.021 82.3345 206.165 81.9878 206.392C81.641 206.62 81.351 206.923 81.14 207.28C80.6 208.21 80.38 209.28 80.86 209.69C81.6754 210.11 82.6223 210.196 83.5 209.93Z" fill="#E6E6E6"/>
<path d="M79.66 207.94C79.1962 208.229 78.6751 208.413 78.1329 208.48C77.5908 208.548 77.0404 208.496 76.52 208.33C75.52 208 75.19 206.44 74.78 205.43C76.0672 205.31 77.3628 205.31 78.65 205.43C78.922 205.447 79.1868 205.523 79.4255 205.655C79.6641 205.786 79.8706 205.969 80.03 206.19C80.1799 206.417 80.2413 206.691 80.2026 206.96C80.1639 207.229 80.0278 207.475 79.82 207.65L79.66 207.94Z" fill="#E6E6E6"/>
<path d="M74.93 209.63C75.3428 209.219 75.8404 208.903 76.3879 208.705C76.9355 208.506 77.5198 208.429 78.1 208.48C78.5645 208.566 79.0023 208.76 79.3776 209.046C79.7529 209.333 80.0553 209.704 80.26 210.13C80.1043 210.426 79.8718 210.676 79.5868 210.852C79.3018 211.028 78.9748 211.124 78.64 211.13C77.9581 211.14 77.2802 211.025 76.64 210.79C76.0012 210.549 75.3227 210.43 74.64 210.44L74.93 209.63Z" fill="#E6E6E6"/>
<path d="M94.18 204.67C94.8136 205.269 95.2496 206.047 95.43 206.9C95.64 208.21 93.27 209.76 93.27 209.76C92.7637 209.916 92.2277 209.949 91.7061 209.857C91.1844 209.765 90.6922 209.55 90.27 209.23L89 208.13C89 208.13 92.78 204.62 94 204.95L94.18 204.67Z" fill="#E6E6E6"/>
<path d="M88 202.74C87.21 204.74 87.68 207.65 89.44 208.36C91.2 209.07 93.58 207.29 94.38 205.36C95.18 203.43 93.8 202.7 92 202C90.2 201.3 88.82 200.77 88 202.74Z" fill="#E6E6E6"/>
<path d="M93.51 203.77C93.51 203.77 91.78 204.45 89.13 202.93C89.13 202.93 92.7 207.3 93.51 203.77Z" fill="#E6E6E6"/>
<path d="M92.4101 203C92.4101 203 90.9001 202.23 90.6701 202.89C90.6701 202.89 89.3401 202.4 89.6701 201.89C90.0001 201.38 92.4101 203 92.4101 203Z" fill="#E6E6E6"/>
<g opacity="0.2">
<path d="M93.51 203.77C93.51 203.77 91.78 204.45 89.13 202.93C89.13 202.93 92.7 207.3 93.51 203.77Z" fill="#FAFAFA"/>
</g>
<g opacity="0.2">
<path d="M92.4101 203C92.4101 203 90.9001 202.23 90.6701 202.89C90.6701 202.89 89.3401 202.4 89.6701 201.89C90.0001 201.38 92.4101 203 92.4101 203Z" fill="#FAFAFA"/>
</g>
<path d="M92.29 209.94C91.8416 210.299 91.3027 210.527 90.7327 210.6C90.1628 210.672 89.584 210.586 89.06 210.35C88.5421 210.1 88.0817 209.745 87.7082 209.308C87.3346 208.871 87.056 208.361 86.89 207.81C86.58 206.698 86.58 205.522 86.89 204.41C86.95 204.12 87.15 203.41 87.56 203.41C87.97 203.41 87.99 203.96 88.08 204.23C88.3302 205.014 88.6655 205.769 89.08 206.48C89.4805 207.173 89.9604 207.818 90.51 208.4C90.61 208.57 92.14 210.07 92.29 209.94Z" fill="#E6E6E6"/>
<path d="M85.78 203.51C85.4837 203.87 85.2856 204.3 85.205 204.759C85.1244 205.219 85.164 205.691 85.32 206.13C85.5474 206.699 85.8875 207.216 86.32 207.65C86.6 207.97 86.99 208.31 87.4 208.19C87.81 208.07 87.97 207.51 88.02 207.06C88.09 206.35 88.15 205.65 88.18 204.94C88.2847 204.261 88.2847 203.569 88.18 202.89C88.02 202.37 87.52 202.49 86.98 202.67C86.5086 202.831 86.0924 203.122 85.78 203.51Z" fill="#E6E6E6"/>
<g opacity="0.2">
<path d="M92.1801 208.67C92.5415 208.766 92.923 208.754 93.278 208.637C93.6331 208.52 93.9464 208.302 94.1801 208.01C94.5101 207.59 94.8801 206.37 94.3101 206.01C93.7759 207.024 93.053 207.927 92.1801 208.67Z" fill="#FAFAFA"/>
</g>
<g opacity="0.2">
<path d="M87.48 207.17C87.1759 206.975 86.9251 206.708 86.7505 206.392C86.5759 206.076 86.4829 205.721 86.48 205.36C86.48 204.96 87.19 203.15 87.48 204.1C87.58 204.41 87.29 205.21 87.29 205.57C87.2926 206.109 87.3563 206.646 87.48 207.17Z" fill="#FAFAFA"/>
</g>
<g opacity="0.2">
<path d="M89.65 209.09C89.3247 209.222 88.9648 209.243 88.6265 209.148C88.2882 209.054 87.9906 208.851 87.78 208.57C87.78 208.95 88.78 209.57 89.09 209.81C89.92 210.36 90.52 210.1 91.52 210C91.52 210 90.06 209.79 89.65 209.09Z" fill="#FAFAFA"/>
</g>
<path d="M81.73 238.49L82.09 237.31L82.57 235.72L83.13 233.86L87.62 219.09L88.18 214.85L88.68 211.09L88.78 210.31L89.06 210.34V210.35L89.35 210.38L89.34 210.45L89.24 211.19L88.71 215.21L88.28 218.49L88.18 219.21L88.14 219.32L83.13 235.82L82.56 237.67L82.31 238.53L81.95 239.7L81.73 238.49Z" fill="#E0E0E0"/>
<path d="M87.73 218.92L88.06 219.38C88.7529 218.847 89.4017 218.258 90 217.62C91.1852 216.352 92.5297 215.243 94 214.32L93.71 213.83C92.2113 214.778 90.8431 215.918 89.64 217.22C89.0452 217.832 88.4068 218.4 87.73 218.92Z" fill="#E0E0E0"/>
<path d="M88.54 215.12C87.8586 214.695 87.3541 214.038 87.12 213.27C86.9183 212.386 86.9013 211.471 87.07 210.58C87.93 211.16 89.07 211.01 90.07 211.43C90.4485 211.6 90.7831 211.854 91.0483 212.173C91.3134 212.492 91.5022 212.867 91.6 213.27C91.84 214.27 91.7401 215.39 91.1601 215.66C90.2497 215.833 89.3079 215.639 88.54 215.12Z" fill="#E6E6E6"/>
<path d="M92.7899 214.34C93.1469 214.753 93.5894 215.083 94.0868 215.307C94.5841 215.532 95.1243 215.645 95.6699 215.64C96.7599 215.64 97.5099 214.22 98.1899 213.37C96.9988 212.874 95.7632 212.492 94.4999 212.23C94.2356 212.165 93.9602 212.161 93.6938 212.216C93.4274 212.271 93.1767 212.385 92.9599 212.55C92.7474 212.721 92.6055 212.965 92.5612 213.234C92.5169 213.503 92.5735 213.78 92.7199 214.01L92.7899 214.34Z" fill="#E6E6E6"/>
<path d="M96.8199 217.34C96.5457 216.828 96.1613 216.383 95.6945 216.037C95.2276 215.691 94.6899 215.453 94.1199 215.34C93.6509 215.285 93.1755 215.341 92.7324 215.505C92.2893 215.668 91.891 215.934 91.5699 216.28C91.6293 216.612 91.7767 216.921 91.9966 217.176C92.2165 217.431 92.5008 217.622 92.8199 217.73C93.4658 217.935 94.1436 218.019 94.8199 217.98C95.4964 217.936 96.1751 218.021 96.8199 218.23V217.34Z" fill="#E6E6E6"/>
<path d="M73.9199 203.51C73.2214 204.036 72.6985 204.761 72.4199 205.59C72.0599 206.86 74.2299 208.68 74.2299 208.68C74.7083 208.889 75.2291 208.982 75.7502 208.953C76.2713 208.923 76.7782 208.771 77.2299 208.51L78.5899 207.56C78.5899 207.56 75.2599 203.63 74.0199 203.81L73.9199 203.51Z" fill="#E6E6E6"/>
<path d="M80.26 202.32C80.82 204.37 80.01 207.24 78.18 207.74C76.35 208.24 74.18 206.19 73.63 204.14C73.08 202.09 74.53 201.61 76.36 201.14C78.19 200.67 79.7 200.27 80.26 202.32Z" fill="#E6E6E6"/>
<path d="M74.6899 202.7C74.6899 202.7 76.3199 203.58 79.1299 202.38C79.1299 202.38 75.0799 206.31 74.6899 202.7Z" fill="#E6E6E6"/>
<path d="M75.87 202.06C75.87 202.06 77.46 201.47 77.61 202.15C77.61 202.15 78.99 201.82 78.69 201.27C78.39 200.72 75.87 202.06 75.87 202.06Z" fill="#E6E6E6"/>
<g opacity="0.2">
<path d="M74.6899 202.7C74.6899 202.7 76.3199 203.58 79.1299 202.38C79.1299 202.38 75.0799 206.31 74.6899 202.7Z" fill="#FAFAFA"/>
</g>
<g opacity="0.2">
<path d="M75.87 202.06C75.87 202.06 77.46 201.47 77.61 202.15C77.61 202.15 78.99 201.82 78.69 201.27C78.39 200.72 75.87 202.06 75.87 202.06Z" fill="#FAFAFA"/>
</g>
<path d="M75.17 209C75.5729 209.41 76.0812 209.701 76.6388 209.84C77.1964 209.98 77.7817 209.962 78.33 209.79C78.8747 209.602 79.3744 209.303 79.7978 208.913C80.2212 208.522 80.5591 208.048 80.79 207.52C81.2452 206.459 81.3975 205.293 81.23 204.15C81.23 203.86 81.09 203.15 80.68 203.08C80.27 203.01 80.18 203.58 80.06 203.84C79.7245 204.584 79.3123 205.291 78.83 205.95C78.3513 206.594 77.7974 207.178 77.18 207.69C77 207.8 75.31 209.12 75.17 209Z" fill="#E6E6E6"/>
<path d="M82.4001 203.35C82.6493 203.744 82.7939 204.195 82.8201 204.661C82.8464 205.126 82.7534 205.591 82.5501 206.01C82.2527 206.547 81.8516 207.02 81.3701 207.4C81.0501 207.68 80.6201 207.97 80.2301 207.81C79.8401 207.65 79.7401 207.07 79.7501 206.61C79.7501 205.9 79.7501 205.2 79.8301 204.49C79.7983 203.817 79.8657 203.143 80.0301 202.49C80.2501 201.99 80.7301 202.17 81.2501 202.41C81.7129 202.611 82.111 202.937 82.4001 203.35Z" fill="#E6E6E6"/>
<g opacity="0.2">
<path d="M75.44 207.73C75.0744 207.777 74.703 207.718 74.3699 207.56C74.0367 207.402 73.7557 207.152 73.56 206.84C73.28 206.38 73.05 205.12 73.66 204.84C74.0662 205.907 74.6701 206.887 75.44 207.73Z" fill="#FAFAFA"/>
</g>
<g opacity="0.2">
<path d="M80.28 206.79C80.6016 206.627 80.8784 206.388 81.0859 206.093C81.2934 205.799 81.4253 205.458 81.47 205.1C81.47 204.71 81.02 202.83 80.6 203.73C80.5504 204.222 80.5504 204.718 80.6 205.21C80.554 205.747 80.4466 206.277 80.28 206.79Z" fill="#FAFAFA"/>
</g>
<g opacity="0.2">
<path d="M77.9001 208.44C78.2087 208.608 78.5638 208.669 78.9108 208.615C79.2578 208.561 79.5773 208.394 79.8201 208.14C79.8201 208.52 78.7101 209.04 78.3701 209.22C77.4801 209.66 76.9101 209.34 75.9301 209.13C75.9301 209.13 77.4101 209.08 77.9001 208.44Z" fill="#FAFAFA"/>
</g>
<path d="M83.27 247.06L78.17 218.66L78.05 209.76L78.62 209.75L78.74 218.61L83.91 247.5L83.27 247.06Z" fill="#E0E0E0"/>
<path d="M78.65 218.42L78.26 218.84C77.6351 218.222 77.0631 217.553 76.55 216.84C75.5294 215.454 74.3365 214.204 73 213.12L73.35 212.67C74.7245 213.794 75.951 215.087 77 216.52C77.4973 217.197 78.0491 217.833 78.65 218.42Z" fill="#E0E0E0"/>
<path d="M78.2901 214.55C79.0176 214.209 79.5967 213.616 79.9201 212.88C80.2249 212.028 80.3509 211.123 80.2901 210.22C79.3601 210.7 78.2201 210.41 77.2301 210.71C76.8336 210.837 76.4711 211.053 76.1698 211.34C75.8684 211.628 75.636 211.98 75.4901 212.37C75.1301 213.37 75.1001 214.45 75.6501 214.78C76.5258 215.056 77.4751 214.973 78.2901 214.55Z" fill="#E6E6E6"/>
<path d="M74.1601 213.28C73.7594 213.647 73.2834 213.923 72.7651 214.087C72.2469 214.251 71.6991 214.3 71.1601 214.23C70.0801 214.09 69.5001 212.61 68.9301 211.69C70.1704 211.331 71.4433 211.097 72.7301 210.99C72.9992 210.956 73.2725 210.982 73.5302 211.067C73.7879 211.152 74.0235 211.293 74.2201 211.48C74.4085 211.677 74.5186 211.936 74.5296 212.209C74.5407 212.481 74.4519 212.748 74.2801 212.96L74.1601 213.28Z" fill="#E6E6E6"/>
<path d="M69.81 215.79C70.1431 215.314 70.5761 214.916 71.0786 214.624C71.5812 214.332 72.1413 214.153 72.72 214.1C73.1933 214.099 73.6603 214.21 74.0826 214.423C74.5049 214.637 74.8707 214.948 75.15 215.33C75.0538 215.654 74.8706 215.946 74.6203 216.174C74.3699 216.401 74.062 216.555 73.73 216.62C73.0692 216.745 72.3908 216.745 71.73 216.62C71.0692 216.495 70.3908 216.495 69.73 216.62L69.81 215.79Z" fill="#E6E6E6"/>
<path d="M85.35 229.63H79.35C79.1282 229.621 78.9095 229.685 78.7284 229.814C78.5474 229.942 78.4142 230.127 78.35 230.34C77.2453 234.262 76.7297 238.326 76.82 242.4C76.82 249.4 78.66 258.82 79.24 261.59C79.2847 261.821 79.4095 262.029 79.5924 262.177C79.7754 262.325 80.0047 262.404 80.24 262.4H84.4C84.6354 262.404 84.8647 262.325 85.0477 262.177C85.2306 262.029 85.3554 261.821 85.4 261.59C85.98 258.82 87.82 249.45 87.82 242.4C87.9104 238.326 87.3947 234.262 86.29 230.34C86.2287 230.137 86.1046 229.96 85.9357 229.832C85.7668 229.704 85.5617 229.634 85.35 229.63Z" fill="#F0F0F0"/>
<path d="M250 427.01C357.082 427.01 443.89 421.942 443.89 415.69C443.89 409.438 357.082 404.37 250 404.37C142.917 404.37 56.11 409.438 56.11 415.69C56.11 421.942 142.917 427.01 250 427.01Z" fill="#F5F5F5"/>
<path d="M120.78 376.77C120.616 376.76 120.463 376.686 120.353 376.565C120.243 376.443 120.184 376.284 120.19 376.12C120.93 346.73 122.44 298.52 122.52 298.25C122.573 298.09 122.685 297.956 122.834 297.876C122.983 297.796 123.157 297.776 123.32 297.82C123.482 297.871 123.617 297.983 123.698 298.132C123.778 298.282 123.797 298.457 123.75 298.62C123.75 298.68 122.2 347.06 121.46 376.15C121.459 376.234 121.441 376.316 121.407 376.393C121.374 376.469 121.325 376.538 121.265 376.596C121.204 376.654 121.133 376.699 121.055 376.729C120.977 376.759 120.893 376.773 120.81 376.77H120.78Z" fill="#263238"/>
<path d="M116.83 278.63C117.08 280.89 119.83 288.74 122.05 288.5C124.27 288.26 125.28 280 125.05 277.74C124.932 276.653 124.387 275.657 123.534 274.971C122.682 274.286 121.592 273.967 120.505 274.085C119.418 274.203 118.422 274.748 117.736 275.601C117.051 276.453 116.732 277.543 116.85 278.63H116.83Z" fill="#F66E46"/>
<path d="M127.82 303.39C127.57 301.12 124.82 293.27 122.6 293.52C120.38 293.77 119.38 302.01 119.6 304.28C119.718 305.367 120.263 306.363 121.115 307.049C121.968 307.734 123.058 308.053 124.145 307.935C125.232 307.817 126.228 307.272 126.914 306.419C127.599 305.567 127.918 304.477 127.8 303.39H127.82Z" fill="#F66E46"/>
<path d="M110 296.5C112.26 296.26 120.11 293.55 119.86 291.28C119.61 289.01 111.37 288.06 109.11 288.28C108.572 288.339 108.05 288.503 107.575 288.763C107.1 289.023 106.681 289.374 106.341 289.796C106.002 290.218 105.749 290.703 105.597 291.222C105.445 291.742 105.397 292.287 105.455 292.825C105.513 293.364 105.677 293.885 105.937 294.36C106.197 294.835 106.548 295.255 106.971 295.594C107.393 295.933 107.877 296.186 108.397 296.338C108.917 296.49 109.462 296.539 110 296.48V296.5Z" fill="#F66E46"/>
<path d="M134.7 285.52C132.44 285.76 124.59 288.52 124.84 290.74C125.09 292.96 133.33 293.96 135.59 293.74C136.136 293.692 136.667 293.536 137.152 293.28C137.637 293.024 138.066 292.674 138.414 292.251C138.762 291.827 139.022 291.338 139.179 290.813C139.335 290.287 139.385 289.736 139.326 289.191C139.267 288.646 139.099 288.118 138.834 287.638C138.568 287.159 138.209 286.737 137.778 286.398C137.347 286.059 136.853 285.809 136.325 285.664C135.796 285.518 135.244 285.48 134.7 285.55V285.52Z" fill="#F66E46"/>
<path d="M109.69 286.14C111.46 287.57 118.93 291.2 120.36 289.43C121.79 287.66 116.63 281.14 114.86 279.71C114.442 279.34 113.952 279.058 113.422 278.882C112.891 278.706 112.331 278.64 111.774 278.687C111.217 278.734 110.675 278.894 110.182 279.156C109.689 279.419 109.254 279.779 108.904 280.214C108.553 280.65 108.295 281.152 108.145 281.69C107.994 282.229 107.955 282.792 108.028 283.346C108.102 283.9 108.287 284.433 108.572 284.913C108.858 285.394 109.238 285.811 109.69 286.14Z" fill="#F66E46"/>
<path d="M135 295.88C133.23 294.45 125.76 290.82 124.34 292.59C122.92 294.36 128.06 300.88 129.84 302.3C130.259 302.657 130.746 302.927 131.272 303.093C131.797 303.259 132.35 303.317 132.899 303.266C133.447 303.214 133.98 303.053 134.465 302.791C134.95 302.53 135.378 302.174 135.723 301.745C136.068 301.315 136.324 300.821 136.475 300.291C136.625 299.761 136.668 299.206 136.601 298.66C136.533 298.113 136.357 297.585 136.082 297.108C135.807 296.63 135.439 296.213 135 295.88Z" fill="#F66E46"/>
<path d="M117.46 303.64C118.89 301.87 122.52 294.4 120.74 292.98C118.96 291.56 112.46 296.7 111.03 298.48C110.346 299.333 110.028 300.422 110.147 301.509C110.266 302.596 110.812 303.591 111.665 304.275C112.518 304.959 113.607 305.277 114.694 305.158C115.781 305.039 116.776 304.493 117.46 303.64Z" fill="#F66E46"/>
<path d="M127.19 278.37C125.77 280.15 122.13 287.61 123.91 289.04C125.69 290.47 132.19 285.31 133.62 283.54C133.99 283.122 134.272 282.633 134.448 282.102C134.624 281.572 134.69 281.011 134.643 280.454C134.596 279.897 134.436 279.356 134.174 278.862C133.911 278.369 133.551 277.934 133.116 277.584C132.68 277.234 132.178 276.975 131.64 276.825C131.102 276.674 130.538 276.635 129.984 276.708C129.43 276.782 128.897 276.967 128.417 277.253C127.936 277.538 127.519 277.919 127.19 278.37Z" fill="#F66E46"/>
<g opacity="0.6">
<path d="M116.83 278.63C117.08 280.89 119.83 288.74 122.05 288.5C124.27 288.26 125.28 280 125.05 277.74C124.932 276.653 124.387 275.657 123.534 274.971C122.682 274.286 121.592 273.967 120.505 274.085C119.418 274.203 118.422 274.748 117.736 275.601C117.051 276.453 116.732 277.543 116.85 278.63H116.83Z" fill="white"/>
<path d="M127.82 303.39C127.57 301.12 124.82 293.27 122.6 293.52C120.38 293.77 119.38 302.01 119.6 304.28C119.718 305.367 120.263 306.363 121.115 307.049C121.968 307.734 123.058 308.053 124.145 307.935C125.232 307.817 126.228 307.272 126.914 306.419C127.599 305.567 127.918 304.477 127.8 303.39H127.82Z" fill="white"/>
<path d="M110 296.5C112.26 296.26 120.11 293.55 119.86 291.28C119.61 289.01 111.37 288.06 109.11 288.28C108.572 288.339 108.05 288.503 107.575 288.763C107.1 289.023 106.681 289.374 106.341 289.796C106.002 290.218 105.749 290.703 105.597 291.222C105.445 291.742 105.397 292.287 105.455 292.825C105.513 293.364 105.677 293.885 105.937 294.36C106.197 294.835 106.548 295.255 106.971 295.594C107.393 295.933 107.877 296.186 108.397 296.338C108.917 296.49 109.462 296.539 110 296.48V296.5Z" fill="white"/>
<path d="M134.7 285.52C132.44 285.76 124.59 288.52 124.84 290.74C125.09 292.96 133.33 293.96 135.59 293.74C136.136 293.692 136.667 293.536 137.152 293.28C137.637 293.024 138.066 292.674 138.414 292.251C138.762 291.827 139.022 291.338 139.179 290.813C139.335 290.287 139.385 289.736 139.326 289.191C139.267 288.646 139.099 288.118 138.834 287.638C138.568 287.159 138.209 286.737 137.778 286.398C137.347 286.059 136.853 285.809 136.325 285.664C135.796 285.518 135.244 285.48 134.7 285.55V285.52Z" fill="white"/>
<path d="M109.69 286.14C111.46 287.57 118.93 291.2 120.36 289.43C121.79 287.66 116.63 281.14 114.86 279.71C114.442 279.34 113.952 279.058 113.422 278.882C112.891 278.706 112.331 278.64 111.774 278.687C111.217 278.734 110.675 278.894 110.182 279.156C109.689 279.419 109.254 279.779 108.904 280.214C108.553 280.65 108.295 281.152 108.145 281.69C107.994 282.229 107.955 282.792 108.028 283.346C108.102 283.9 108.287 284.433 108.572 284.913C108.858 285.394 109.238 285.811 109.69 286.14Z" fill="white"/>
<path d="M135 295.88C133.23 294.45 125.76 290.82 124.34 292.59C122.92 294.36 128.06 300.88 129.84 302.3C130.259 302.657 130.746 302.927 131.272 303.093C131.797 303.259 132.35 303.317 132.899 303.266C133.447 303.214 133.98 303.053 134.465 302.791C134.95 302.53 135.378 302.174 135.723 301.745C136.068 301.315 136.324 300.821 136.475 300.291C136.625 299.761 136.668 299.206 136.601 298.66C136.533 298.113 136.357 297.585 136.082 297.108C135.807 296.63 135.439 296.213 135 295.88Z" fill="white"/>
<path d="M117.46 303.64C118.89 301.87 122.52 294.4 120.74 292.98C118.96 291.56 112.46 296.7 111.03 298.48C110.346 299.333 110.028 300.422 110.147 301.509C110.266 302.596 110.812 303.591 111.665 304.275C112.518 304.959 113.607 305.277 114.694 305.158C115.781 305.039 116.776 304.493 117.46 303.64Z" fill="white"/>
<path d="M127.19 278.37C125.77 280.15 122.13 287.61 123.91 289.04C125.69 290.47 132.19 285.31 133.62 283.54C133.99 283.122 134.272 282.633 134.448 282.102C134.624 281.572 134.69 281.011 134.643 280.454C134.596 279.897 134.436 279.356 134.174 278.862C133.911 278.369 133.551 277.934 133.116 277.584C132.68 277.234 132.178 276.975 131.64 276.825C131.102 276.674 130.538 276.635 129.984 276.708C129.43 276.782 128.897 276.967 128.417 277.253C127.936 277.538 127.519 277.919 127.19 278.37Z" fill="white"/>
</g>
<path d="M117.47 291.54C117.576 292.499 117.964 293.404 118.585 294.142C119.205 294.881 120.031 295.419 120.957 295.688C121.883 295.957 122.868 295.946 123.788 295.656C124.707 295.366 125.521 294.81 126.125 294.059C126.729 293.307 127.096 292.393 127.181 291.432C127.266 290.471 127.065 289.507 126.602 288.661C126.139 287.815 125.436 287.125 124.581 286.678C123.727 286.231 122.759 286.047 121.8 286.15C121.161 286.219 120.542 286.412 119.979 286.721C119.415 287.029 118.918 287.445 118.516 287.946C118.113 288.447 117.814 289.022 117.635 289.639C117.455 290.256 117.399 290.902 117.47 291.54Z" fill="#F66E46"/>
<path d="M118 355.24C112.37 355.36 102.73 350.16 98.9399 345.08C95.1499 340 105.88 343.08 104.76 339.08C103.64 335.08 90.3499 338.08 87.8799 332.26C85.4099 326.44 95.0099 327.77 94.6199 324.8C94.2299 321.83 84.2899 322.46 81.0799 316.3C77.8699 310.14 86.6299 313.56 85.2499 311.01C83.8699 308.46 72.8799 297.71 77.4599 295.45C82.0399 293.19 92.3399 304.38 95.7899 305.63C99.2399 306.88 100.02 299.12 104.5 302.81C108.98 306.5 105.69 322.72 110.97 324.81C114.9 326.39 113.21 318.98 117.73 320.81C125.61 324.08 120.24 355.19 118 355.24Z" fill="#F66E46"/>
<g opacity="0.2">
<path d="M118 355.24C112.37 355.36 102.73 350.16 98.9399 345.08C95.1499 340 105.88 343.08 104.76 339.08C103.64 335.08 90.3499 338.08 87.8799 332.26C85.4099 326.44 95.0099 327.77 94.6199 324.8C94.2299 321.83 84.2899 322.46 81.0799 316.3C77.8699 310.14 86.6299 313.56 85.2499 311.01C83.8699 308.46 72.8799 297.71 77.4599 295.45C82.0399 293.19 92.3399 304.38 95.7899 305.63C99.2399 306.88 100.02 299.12 104.5 302.81C108.98 306.5 105.69 322.72 110.97 324.81C114.9 326.39 113.21 318.98 117.73 320.81C125.61 324.08 120.24 355.19 118 355.24Z" fill="white"/>
</g>
<path d="M126.05 348.09C126.14 348.25 125.3 349.09 128.05 349.16C134.9 349.44 147.05 348.98 151.56 342.75C158.06 333.86 143.08 334.68 144.56 329.75C146.04 324.82 162.11 328.85 165.25 321.85C168.39 314.85 156.68 316.22 157.25 312.61C157.82 309 170.07 313.68 174.12 306.25C178.17 298.82 167.44 302.8 169.12 299.72C170.8 296.64 184.52 283.86 179 281C173.48 278.14 160.69 291.52 156.47 293C152.25 294.48 151.27 281.32 145.73 285.71C140.19 290.1 143.82 309.89 137.35 312.35C132.53 314.18 135.16 307.08 129.21 307.35C121.14 307.68 118.48 335.44 126.05 348.09Z" fill="#F66E46"/>
<g opacity="0.3">
<path d="M126.05 348.09C126.14 348.25 125.3 349.09 128.05 349.16C134.9 349.44 147.05 348.98 151.56 342.75C158.06 333.86 143.08 334.68 144.56 329.75C146.04 324.82 162.11 328.85 165.25 321.85C168.39 314.85 156.68 316.22 157.25 312.61C157.82 309 170.07 313.68 174.12 306.25C178.17 298.82 167.44 302.8 169.12 299.72C170.8 296.64 184.52 283.86 179 281C173.48 278.14 160.69 291.52 156.47 293C152.25 294.48 151.27 281.32 145.73 285.71C140.19 290.1 143.82 309.89 137.35 312.35C132.53 314.18 135.16 307.08 129.21 307.35C121.14 307.68 118.48 335.44 126.05 348.09Z" fill="white"/>
</g>
<path d="M120.92 372.33C120.861 372.324 120.804 372.306 120.752 372.277C120.7 372.249 120.655 372.21 120.619 372.163C120.582 372.116 120.556 372.063 120.54 372.006C120.525 371.948 120.522 371.889 120.53 371.83C126.15 325.83 152.66 307.11 152.93 306.93C152.978 306.897 153.032 306.874 153.089 306.862C153.146 306.85 153.204 306.85 153.261 306.86C153.318 306.871 153.373 306.893 153.421 306.925C153.47 306.956 153.512 306.997 153.545 307.045C153.578 307.093 153.601 307.147 153.613 307.204C153.625 307.261 153.625 307.319 153.615 307.376C153.604 307.434 153.582 307.488 153.551 307.537C153.519 307.585 153.478 307.627 153.43 307.66C153.17 307.85 126.99 326.35 121.43 371.94C121.423 371.999 121.403 372.057 121.374 372.109C121.344 372.16 121.304 372.206 121.257 372.242C121.209 372.278 121.155 372.305 121.097 372.32C121.039 372.335 120.979 372.339 120.92 372.33Z" fill="#263238"/>
<path d="M146.85 313.32C146.76 313.318 146.674 313.288 146.602 313.234C146.53 313.18 146.477 313.106 146.45 313.02C146.412 312.907 146.42 312.784 146.472 312.677C146.525 312.57 146.617 312.489 146.73 312.45C146.9 312.4 150.85 311.15 157.31 312.52C157.425 312.546 157.526 312.616 157.591 312.715C157.656 312.814 157.681 312.934 157.66 313.05C157.636 313.167 157.567 313.269 157.467 313.335C157.368 313.4 157.247 313.424 157.13 313.4C150.91 312.08 147.05 313.29 147.01 313.3C146.958 313.317 146.904 313.324 146.85 313.32Z" fill="#263238"/>
<path d="M142 318.91C141.885 318.907 141.776 318.86 141.695 318.778C141.615 318.695 141.57 318.585 141.57 318.47C141.43 304.55 149.49 293.68 149.57 293.57C149.643 293.48 149.747 293.42 149.862 293.403C149.977 293.387 150.094 293.414 150.19 293.48C150.237 293.516 150.277 293.56 150.307 293.611C150.337 293.662 150.357 293.718 150.365 293.776C150.374 293.835 150.371 293.895 150.356 293.952C150.341 294.009 150.315 294.063 150.28 294.11C150.2 294.21 142.28 304.86 142.46 318.46C142.46 318.578 142.414 318.691 142.332 318.775C142.249 318.859 142.138 318.907 142.02 318.91H142Z" fill="#263238"/>
<path d="M134.06 330.69C134.003 330.689 133.947 330.676 133.895 330.652C133.844 330.628 133.798 330.593 133.76 330.55C133.718 330.509 133.685 330.46 133.662 330.406C133.639 330.352 133.627 330.294 133.627 330.235C133.627 330.176 133.639 330.118 133.662 330.064C133.685 330.01 133.718 329.961 133.76 329.92C133.82 329.87 139.76 324.35 147.6 327.15C147.697 327.2 147.772 327.284 147.812 327.385C147.852 327.486 147.854 327.599 147.817 327.701C147.781 327.804 147.708 327.89 147.613 327.943C147.518 327.996 147.407 328.013 147.3 327.99C140 325.37 134.43 330.52 134.38 330.57C134.338 330.611 134.287 330.643 134.232 330.663C134.177 330.684 134.119 330.693 134.06 330.69Z" fill="#263238"/>
<path d="M129.93 338.91C129.846 338.905 129.766 338.877 129.697 338.829C129.629 338.782 129.574 338.716 129.54 338.64C127.563 333.111 127.07 327.159 128.11 321.38C128.118 321.322 128.138 321.266 128.169 321.216C128.199 321.166 128.239 321.122 128.287 321.088C128.334 321.053 128.388 321.028 128.446 321.015C128.503 321.002 128.562 321 128.62 321.01C128.736 321.03 128.84 321.094 128.909 321.189C128.978 321.285 129.007 321.403 128.99 321.52C128.001 327.135 128.473 332.91 130.36 338.29C130.383 338.343 130.395 338.4 130.396 338.458C130.397 338.516 130.387 338.574 130.365 338.628C130.344 338.682 130.312 338.731 130.272 338.772C130.231 338.814 130.183 338.847 130.13 338.87C130.067 338.898 129.999 338.911 129.93 338.91Z" fill="#263238"/>
<path d="M121.09 388.77C120.978 388.765 120.873 388.718 120.795 388.638C120.717 388.558 120.672 388.452 120.67 388.34L120.09 376.15C118.38 335.62 90.5899 308.06 90.3099 307.79C90.2434 307.705 90.2101 307.598 90.216 307.49C90.2219 307.381 90.2667 307.279 90.3421 307.201C90.4175 307.123 90.5185 307.075 90.6265 307.066C90.7345 307.057 90.8422 307.086 90.9299 307.15C91.2099 307.43 119.26 335.22 120.98 376.15L121.56 388.34C121.563 388.458 121.519 388.572 121.439 388.658C121.358 388.744 121.248 388.795 121.13 388.8L121.09 388.77Z" fill="#263238"/>
<path d="M101.77 323H101.7C101.653 322.997 101.607 322.979 101.57 322.95L101.42 322.9C97.8045 321.389 93.9181 320.634 89.9999 320.68C89.8822 320.683 89.7682 320.639 89.6822 320.559C89.5962 320.479 89.5451 320.368 89.5399 320.25C89.5386 320.191 89.5489 320.132 89.5703 320.077C89.5917 320.022 89.6237 319.972 89.6646 319.929C89.7055 319.886 89.7543 319.852 89.8084 319.828C89.8625 319.804 89.9208 319.791 89.9799 319.79C94.0304 319.742 98.0483 320.518 101.79 322.07L101.93 322.13H102.01C102.099 322.173 102.17 322.245 102.212 322.334C102.254 322.424 102.264 322.524 102.24 322.62C102.225 322.732 102.168 322.833 102.08 322.904C101.993 322.974 101.882 323.009 101.77 323Z" fill="#263238"/>
<path d="M105.7 328.23C105.642 328.226 105.585 328.211 105.532 328.184C105.48 328.158 105.434 328.121 105.397 328.076C105.359 328.031 105.331 327.979 105.315 327.923C105.298 327.867 105.293 327.808 105.3 327.75C106.37 315.75 100.18 305.94 100.11 305.85C100.053 305.749 100.037 305.631 100.066 305.519C100.094 305.407 100.164 305.31 100.262 305.248C100.359 305.187 100.477 305.165 100.59 305.188C100.703 305.21 100.804 305.276 100.87 305.37C100.93 305.47 107.29 315.55 106.18 327.83C106.175 327.888 106.158 327.944 106.132 327.996C106.105 328.047 106.068 328.093 106.023 328.13C105.979 328.167 105.927 328.195 105.872 328.212C105.816 328.23 105.758 328.236 105.7 328.23Z" fill="#263238"/>
<path d="M109.76 335.16C109.647 335.158 109.539 335.111 109.46 335.03C107.973 333.684 106.174 332.729 104.226 332.251C102.278 331.773 100.241 331.786 98.2999 332.29C98.1846 332.321 98.0618 332.304 97.9587 332.244C97.8555 332.184 97.7804 332.086 97.7499 331.97C97.735 331.914 97.7314 331.855 97.7394 331.797C97.7474 331.739 97.7669 331.683 97.7967 331.633C97.8265 331.583 97.866 331.539 97.9129 331.504C97.9598 331.469 98.0132 331.444 98.0699 331.43C100.16 330.871 102.359 330.853 104.458 331.378C106.557 331.902 108.489 332.953 110.07 334.43C110.112 334.471 110.145 334.52 110.168 334.574C110.191 334.628 110.203 334.686 110.203 334.745C110.203 334.804 110.191 334.862 110.168 334.916C110.145 334.97 110.112 335.019 110.07 335.06C110.028 335.097 109.978 335.124 109.925 335.141C109.872 335.159 109.816 335.165 109.76 335.16Z" fill="#263238"/>
<path d="M114.91 346.58C114.844 346.579 114.778 346.562 114.72 346.53C114.668 346.504 114.621 346.467 114.583 346.423C114.545 346.378 114.516 346.326 114.499 346.27C114.481 346.214 114.475 346.155 114.48 346.097C114.485 346.039 114.502 345.982 114.53 345.93C116.568 341.325 117.391 336.274 116.92 331.26C116.912 331.142 116.95 331.026 117.027 330.936C117.103 330.846 117.212 330.79 117.33 330.78C117.389 330.775 117.448 330.781 117.504 330.799C117.56 330.817 117.612 330.846 117.657 330.884C117.701 330.922 117.738 330.969 117.764 331.021C117.791 331.074 117.806 331.131 117.81 331.19C118.32 336.371 117.462 341.595 115.32 346.34C115.282 346.415 115.223 346.478 115.15 346.52C115.077 346.563 114.994 346.584 114.91 346.58Z" fill="#263238"/>
<path d="M146.16 390.69C146.16 404.9 139.76 416.43 120.4 416.43C101.92 416.43 94.6499 404.9 94.6499 390.69C94.6461 385.529 96.1968 380.487 99.0999 376.22H141.71C144.613 380.487 146.164 385.529 146.16 390.69Z" fill="#F66E46"/>
<path opacity="0.7" d="M146.16 390.69C146.16 404.9 139.76 416.43 120.4 416.43C101.92 416.43 94.6499 404.9 94.6499 390.69C94.6461 385.529 96.1968 380.487 99.0999 376.22H141.71C144.613 380.487 146.164 385.529 146.16 390.69Z" fill="white"/>
<path d="M294.1 403.86L304.06 402.41L301.55 379.11L291.58 380.56L294.1 403.86Z" fill="#E8BFBF"/>
<path d="M311.72 402.76C312.583 402.694 313.399 402.342 314.04 401.76C314.174 401.59 314.265 401.39 314.305 401.178C314.345 400.966 314.333 400.747 314.27 400.54C314.24 400.412 314.179 400.294 314.092 400.196C314.004 400.098 313.894 400.024 313.77 399.98C312.44 399.5 308.77 402.19 308.39 402.49C308.349 402.52 308.319 402.562 308.303 402.611C308.287 402.659 308.286 402.711 308.3 402.76C308.316 402.805 308.347 402.843 308.386 402.87C308.425 402.897 308.472 402.911 308.52 402.91C309.589 402.955 310.66 402.905 311.72 402.76ZM313.12 400.42C313.268 400.386 313.422 400.386 313.57 400.42C313.622 400.436 313.669 400.466 313.706 400.507C313.743 400.547 313.768 400.596 313.78 400.65C313.821 400.787 313.829 400.932 313.803 401.073C313.777 401.214 313.718 401.346 313.63 401.46C313.12 402.09 311.49 402.46 309.23 402.46C310.413 401.575 311.739 400.899 313.15 400.46L313.12 400.42Z" fill="#F66E46"/>
<path d="M308.58 402.92H308.66C309.77 402.19 311.76 399.65 311.38 398.56C311.302 398.368 311.159 398.21 310.976 398.113C310.794 398.016 310.582 397.986 310.38 398.03C310.141 398.037 309.906 398.093 309.689 398.194C309.472 398.296 309.278 398.441 309.12 398.62C308.05 399.86 308.26 402.62 308.26 402.7C308.261 402.74 308.27 402.779 308.287 402.816C308.304 402.852 308.329 402.884 308.36 402.91C308.394 402.927 308.431 402.937 308.469 402.938C308.507 402.94 308.545 402.934 308.58 402.92ZM310.25 398.5L310.39 398.43C310.83 398.43 310.88 398.58 310.89 398.63C311.13 399.3 309.8 401.25 308.7 402.15C308.6 400.999 308.87 399.847 309.47 398.86C309.681 398.641 309.966 398.509 310.27 398.49L310.25 398.5Z" fill="#F66E46"/>
<path d="M303 398.28L294.17 400.39C293.978 400.429 293.808 400.537 293.692 400.694C293.575 400.851 293.521 401.045 293.54 401.24L293.83 414.03C293.859 414.242 293.93 414.446 294.039 414.631C294.147 414.816 294.291 414.977 294.462 415.106C294.633 415.235 294.827 415.329 295.035 415.383C295.242 415.437 295.458 415.45 295.67 415.42C295.733 415.425 295.797 415.425 295.86 415.42C299.68 414.42 301.49 413.82 306.35 412.69C309.35 412.01 318.78 411.29 322.65 409.57C326.52 407.85 325.01 403.93 323.25 404.3C317.57 405.52 310.25 403.09 306.14 399.39C305.62 399.08 303.65 398.13 303 398.28Z" fill="#263238"/>
<path opacity="0.2" d="M301.55 379.11L302.84 391.12L292.88 392.58L291.58 380.57L301.55 379.11Z" fill="black"/>
<path d="M306.87 386.18L288.44 389.62C288.44 389.62 279.49 376.84 277.8 367.77C276.04 358.32 277.92 326.16 277.8 325.77C272.59 308.17 258.42 262.57 251.59 245.77C247.8 236.47 245.14 230.21 245.14 230.21L247.05 229.78L262.1 223.62L273.1 225.68C273.1 225.68 306.41 293.05 309.9 318.39C312.47 337.29 306.87 386.18 306.87 386.18Z" fill="#F66E46"/>
<path opacity="0.3" d="M306.87 386.18L288.44 389.62C288.44 389.62 279.49 376.84 277.8 367.77C276.04 358.32 277.92 326.16 277.8 325.77C272.59 308.17 258.42 262.57 251.59 245.77C247.8 236.47 245.14 230.21 245.14 230.21L247.05 229.78L262.1 223.62L273.1 225.68C273.1 225.68 306.41 293.05 309.9 318.39C312.47 337.29 306.87 386.18 306.87 386.18Z" fill="white"/>
<path opacity="0.2" d="M273.46 310.49C268.25 292.89 257.73 266.2 250.89 249.42L246.36 233.42L245.49 230.34L247.08 233.25L264.93 272.79C272.81 288 273.58 310.92 273.46 310.49Z" fill="black"/>
<path d="M192.57 398.38L201.45 402.12L210.92 381.79L202.05 378.05L192.57 398.38Z" fill="#E8BFBF"/>
<path d="M207.23 406.37C207.933 406.81 208.766 406.997 209.59 406.9C209.79 406.847 209.975 406.745 210.126 406.604C210.278 406.463 210.393 406.286 210.46 406.09C210.511 405.976 210.531 405.85 210.519 405.725C210.507 405.601 210.462 405.482 210.39 405.38C209.63 404.26 205.3 404.27 204.82 404.27C204.772 404.275 204.727 404.292 204.688 404.32C204.65 404.348 204.619 404.386 204.6 404.43C204.588 404.475 204.589 404.522 204.603 404.567C204.617 404.611 204.644 404.65 204.68 404.68C205.476 405.321 206.33 405.886 207.23 406.37ZM209.63 405.37C209.768 405.427 209.889 405.521 209.98 405.64C210.004 405.684 210.017 405.734 210.017 405.785C210.017 405.836 210.004 405.885 209.98 405.93C209.933 406.058 209.857 406.173 209.758 406.267C209.66 406.361 209.54 406.43 209.41 406.47C208.65 406.67 207.2 406.03 205.41 404.75C206.836 404.718 208.256 404.931 209.61 405.38L209.63 405.37Z" fill="#F66E46"/>
<path d="M204.72 404.72H204.8C206.07 404.79 209.04 403.95 209.37 402.9C209.424 402.705 209.406 402.496 209.32 402.313C209.233 402.13 209.085 401.983 208.9 401.9C208.713 401.769 208.501 401.679 208.277 401.636C208.053 401.593 207.822 401.598 207.6 401.65C206.06 401.99 204.69 404.22 204.6 404.31C204.583 404.344 204.574 404.382 204.574 404.42C204.574 404.458 204.583 404.496 204.6 404.53C204.602 404.569 204.614 404.607 204.635 404.641C204.656 404.674 204.685 404.701 204.72 404.72ZM208.51 402.25H208.65C209 402.48 208.94 402.64 208.92 402.69C208.73 403.33 206.61 404.09 205.25 404.17C205.817 403.224 206.672 402.485 207.69 402.06C207.981 402.01 208.281 402.071 208.53 402.23L208.51 402.25Z" fill="#F66E46"/>
<path d="M203.06 398L195.06 394.64C194.887 394.553 194.686 394.535 194.5 394.591C194.314 394.647 194.157 394.772 194.06 394.94L187.06 404.94C186.962 405.12 186.9 405.319 186.878 405.523C186.857 405.727 186.876 405.934 186.934 406.131C186.993 406.328 187.09 406.511 187.219 406.671C187.349 406.83 187.509 406.963 187.69 407.06L187.86 407.14C191.35 408.57 193.11 409.09 197.5 410.97C200.19 412.13 207.89 416.92 211.85 417.77C215.81 418.62 216.85 414.77 215.29 414.04C210.22 411.77 205.96 405.77 204.85 400.58C204.6 400.08 203.62 398.23 203.06 398Z" fill="#263238"/>
<path opacity="0.2" d="M211.31 382.03L206.18 392.38L197.39 388.44L202.51 378.08L211.31 382.03Z" fill="black"/>
<path d="M213.16 393.31L195.48 383.89C195.48 383.89 192.09 371.3 195.48 363.27C202 347.82 218.98 325.1 219.09 324.67C223.62 306.89 231.56 258.18 234.28 240.27C235.78 230.34 236.67 228.2 236.67 228.2L238.54 228.81L265.54 228.86C265.54 228.86 270.64 269.86 251.08 333.26C246.22 349.04 238.08 362.16 224.65 379.91C221.054 384.572 217.219 389.045 213.16 393.31Z" fill="#F66E46"/>
<path opacity="0.3" d="M213.16 393.31L195.48 383.89C195.48 383.89 192.09 371.3 195.48 363.27C202 347.82 218.98 325.1 219.09 324.67C223.62 306.89 231.56 258.18 234.28 240.27C235.78 230.34 236.67 228.2 236.67 228.2L238.54 228.81L265.54 228.86C265.54 228.86 270.64 269.86 251.08 333.26C246.22 349.04 238.08 362.16 224.65 379.91C221.054 384.572 217.219 389.045 213.16 393.31Z" fill="white"/>
<path d="M289.56 195.39C289.969 192.14 291.346 189.088 293.51 186.63C294.06 186.05 296.17 185.17 297.37 184.39C303.24 180.54 315 175.73 315 175.73L318.63 178.89C318.63 178.89 311.47 185.81 307.21 189.13C306.37 189.79 305.4 190.58 304.38 191.42C302.52 192.96 293.8 198.71 292.14 200.16L289.56 195.39Z" fill="#E8BFBF"/>
<path d="M325.34 173.94L318.63 178.94L314.87 176.17C315.835 174.948 316.874 173.786 317.98 172.69C318.32 172.36 318.591 171.965 318.776 171.529C318.962 171.093 319.058 170.624 319.06 170.15C318.984 168.603 319.33 167.065 320.06 165.7C320.058 165.673 320.058 165.647 320.06 165.62C320.402 165.139 320.874 164.765 321.421 164.542C321.968 164.319 322.566 164.256 323.148 164.361C323.729 164.466 324.268 164.734 324.702 165.134C325.136 165.534 325.448 166.049 325.6 166.62L326.6 170.2C326.784 170.878 326.762 171.595 326.538 172.261C326.313 172.927 325.897 173.511 325.34 173.94Z" fill="#E8BFBF"/>
<path d="M291.7 196.73L289.93 198.35C289.38 197.91 288.51 197.2 287.41 196.28C278.79 189.13 257.18 171.77 265.79 166.82C273.18 162.57 281.02 175.56 284.93 179.47C286.766 181.427 288.357 183.599 289.67 185.94C291.51 189.26 292.87 193.27 291.7 196.73Z" fill="#263238"/>
<path d="M289.66 184.39C286.594 186.634 284.001 189.461 282.03 192.71C282.752 195.073 283.972 197.254 285.607 199.107C287.242 200.959 289.255 202.44 291.51 203.45C294.016 197.766 295.091 191.555 294.64 185.36C293.08 185 291.22 184.73 289.66 184.39Z" fill="#263238"/>
<path d="M242.21 165.81C239.12 166.81 235.59 166 233.61 168.57C231.63 171.14 231.04 174.51 231.04 177.75C231.222 182.257 231.913 186.728 233.1 191.08C234.34 196.413 235.583 201.73 236.83 207.03C237.68 210.67 236.78 227.58 237.69 227.86C237.69 227.86 265.96 227.31 273.05 226.31C273.05 226.31 273.66 208.93 274.23 203.01C274.36 201.7 276.35 196.12 276.58 194.72C277.69 188.12 275.52 183.47 273.24 177.17C273.24 177.17 268.24 167.1 265.79 166.82C261.44 166.33 250.8 163 242.21 165.81Z" fill="#263238"/>
<path d="M241 174.14C240.9 173.56 235.88 163.42 231.07 170.51C224.38 180.37 223.93 192.75 223.93 192.75C223.93 192.75 219.82 204.75 222.68 207.41C225.54 210.07 228.68 211.73 230.68 210.24C232.092 209.007 233.218 207.482 233.98 205.77C233.98 205.77 242.78 184.46 241 174.14Z" fill="#263238"/>
<path d="M240.69 162.05C240.202 162.489 239.821 163.034 239.577 163.642C239.332 164.251 239.23 164.908 239.278 165.563C239.326 166.217 239.524 166.852 239.855 167.418C240.186 167.984 240.643 168.467 241.19 168.83C240.897 169.858 240.899 170.948 241.198 171.975C241.497 173.002 242.079 173.923 242.878 174.634C243.678 175.344 244.661 175.814 245.716 175.991C246.77 176.167 247.853 176.042 248.84 175.63C248 177.15 248.95 179.16 250.42 180.1C251.971 180.902 253.676 181.359 255.42 181.44C257.171 181.523 258.85 182.157 260.22 183.25L265.56 175.56C266.344 174.62 266.853 173.481 267.03 172.27C267.08 171.06 266.16 169.72 264.95 169.81C265.557 169.155 265.894 168.296 265.896 167.404C265.898 166.512 265.564 165.651 264.96 164.994C264.356 164.337 263.526 163.932 262.637 163.859C261.747 163.786 260.863 164.05 260.16 164.6C260.246 164.075 260.176 163.537 259.959 163.052C259.742 162.567 259.388 162.156 258.94 161.87C258.031 161.322 257 161.009 255.94 160.96L240.69 162.05Z" fill="#263238"/>
<path d="M243.9 149C245.29 154.1 246.98 163.51 243.61 167.23C249.786 169.896 255.345 173.807 259.94 178.72C261.154 177.604 261.986 176.135 262.32 174.52C262.654 172.905 262.472 171.226 261.8 169.72C261.407 168.764 260.826 167.896 260.09 167.17C259.355 166.443 258.481 165.872 257.52 165.49C253.8 163.91 253.77 160.26 254.39 156.75L243.9 149Z" fill="#E8BFBF"/>
<path opacity="0.2" d="M246 157.69L249.51 158.64C251.015 159.049 252.588 159.141 254.13 158.91C254.001 159.991 254.113 161.088 254.46 162.12C253.285 162.574 252.004 162.676 250.772 162.415C249.54 162.154 248.41 161.541 247.52 160.65C246.871 159.743 246.359 158.746 246 157.69Z" fill="black"/>
<path d="M237.09 144.65C240.8 152.49 242.21 155.89 247.93 158.39C256.55 162.16 265.35 155.86 264.05 147.07C262.87 139.16 256.99 127.65 247.84 127.61C245.826 127.591 243.84 128.087 242.071 129.051C240.302 130.015 238.808 131.414 237.732 133.117C236.655 134.819 236.031 136.769 235.919 138.78C235.806 140.791 236.21 142.798 237.09 144.61V144.65Z" fill="#E8BFBF"/>
<path d="M241.17 129.67C238.46 128.41 235.1 129.44 232.84 131.42C230.58 133.4 229.15 136.26 227.84 139.01C227.051 140.473 226.446 142.028 226.04 143.64C225.636 145.271 225.857 146.994 226.66 148.47C227.088 149.159 227.675 149.737 228.37 150.156C229.065 150.575 229.85 150.823 230.66 150.88C231.158 150.911 231.639 151.077 232.049 151.36C232.46 151.644 232.785 152.035 232.99 152.49C233.195 153.331 233.195 154.209 232.99 155.05C232.8 155.866 232.8 156.714 232.99 157.53C233.263 158.171 233.71 158.723 234.281 159.123C234.852 159.522 235.524 159.754 236.22 159.79C237.613 159.828 239 159.605 240.31 159.13C240.709 158.994 241.137 158.966 241.55 159.051C241.963 159.135 242.346 159.328 242.66 159.61C242.82 159.757 242.955 159.929 243.06 160.12C243.162 160.293 243.31 160.435 243.488 160.53C243.666 160.624 243.866 160.668 244.067 160.655C244.268 160.643 244.461 160.575 244.626 160.459C244.791 160.344 244.92 160.185 245 160C246.21 157.12 244.45 152.53 241.83 149C240.44 147.14 240.51 147.61 239.97 145.35C239.51 143.47 240.2 141.51 241.04 139.77C242.17 137.44 243.61 135.18 243.16 132.4C243.075 131.817 242.85 131.264 242.503 130.788C242.156 130.313 241.699 129.929 241.17 129.67Z" fill="#263238"/>
<path d="M237.32 152.68C238.555 153.99 240.26 154.757 242.06 154.81C244.45 154.87 245.06 152.59 243.9 150.64C242.9 148.89 240.36 146.76 238.2 147.64C236.04 148.52 235.82 151 237.32 152.68Z" fill="#E8BFBF"/>
<path d="M252 143.26C252.28 143.94 252.83 144.31 253.26 144.13C253.69 143.95 253.8 143.3 253.56 142.63C253.32 141.96 252.74 141.63 252.3 141.76C251.86 141.89 251.77 142.6 252 143.26Z" fill="#263238"/>
<path d="M259.35 140.1C259.62 140.79 260.17 141.15 260.6 140.98C261.03 140.81 261.14 140.15 260.9 139.48C260.66 138.81 260.08 138.48 259.65 138.61C259.22 138.74 259.09 139.45 259.35 140.1Z" fill="#263238"/>
<path d="M259.46 138.73L260.85 137.64C260.85 137.64 260.55 139.19 259.46 138.73Z" fill="#263238"/>
<path d="M257.45 141.57C259.15 143.25 260.45 143.57 262.27 144.71C262.252 145.169 262.088 145.61 261.802 145.97C261.516 146.33 261.123 146.589 260.68 146.71L257.45 141.57Z" fill="#ED847E"/>
<path d="M259.9 149.92C260.218 149.803 260.526 149.659 260.82 149.49C260.866 149.464 260.901 149.422 260.916 149.371C260.931 149.321 260.925 149.266 260.9 149.22C260.871 149.175 260.827 149.142 260.775 149.127C260.724 149.112 260.668 149.117 260.62 149.14C259.855 149.584 258.995 149.84 258.111 149.885C257.228 149.93 256.346 149.764 255.54 149.4C255.491 149.375 255.434 149.371 255.382 149.388C255.329 149.404 255.286 149.441 255.26 149.49C255.246 149.513 255.237 149.539 255.233 149.566C255.23 149.593 255.232 149.621 255.24 149.647C255.247 149.673 255.26 149.698 255.277 149.719C255.294 149.74 255.316 149.757 255.34 149.77C256.052 150.098 256.822 150.28 257.605 150.306C258.388 150.332 259.168 150.2 259.9 149.92Z" fill="#263238"/>
<path d="M251.76 137.81C251.755 137.902 251.722 137.989 251.664 138.061C251.607 138.133 251.528 138.185 251.44 138.21C249.52 138.78 248.67 141.21 248.67 141.21C248.652 141.264 248.624 141.314 248.587 141.356C248.55 141.399 248.505 141.435 248.454 141.46C248.404 141.486 248.349 141.501 248.292 141.505C248.236 141.51 248.179 141.503 248.125 141.485C248.071 141.467 248.021 141.439 247.978 141.402C247.935 141.365 247.9 141.32 247.875 141.269C247.849 141.219 247.834 141.164 247.83 141.107C247.825 141.051 247.832 140.994 247.85 140.94C247.92 140.84 248.85 138.05 251.19 137.35C251.301 137.322 251.419 137.337 251.52 137.393C251.62 137.448 251.695 137.54 251.73 137.65C251.754 137.7 251.764 137.755 251.76 137.81Z" fill="#263238"/>
<path d="M260.61 136.63C260.536 136.683 260.446 136.711 260.355 136.711C260.264 136.711 260.174 136.683 260.1 136.63C258.54 135.37 256.05 136.06 256.04 136.07C255.986 136.087 255.928 136.093 255.871 136.087C255.815 136.082 255.76 136.065 255.709 136.038C255.659 136.011 255.615 135.974 255.579 135.93C255.543 135.886 255.516 135.835 255.5 135.78C255.469 135.67 255.481 135.552 255.536 135.451C255.59 135.35 255.681 135.275 255.79 135.24C255.91 135.24 258.79 134.42 260.64 135.94C260.727 136.014 260.782 136.118 260.795 136.231C260.808 136.344 260.778 136.458 260.71 136.55C260.682 136.582 260.648 136.609 260.61 136.63Z" fill="#263238"/>
<path d="M252.16 141.87L253.55 140.79C253.55 140.79 253.23 142.34 252.16 141.87Z" fill="#263238"/>
<path d="M241.77 128.36C240.676 128.456 239.618 128.8 238.675 129.364C237.733 129.929 236.931 130.7 236.33 131.62C235.53 132.86 235.25 134.74 236.43 135.62C237.032 135.987 237.725 136.178 238.43 136.17C241.43 136.44 245.22 134.09 245.22 134.09C244.05 129.09 254.48 125.27 259.62 132.97C261.13 135.23 260.72 136.87 263.23 137.92C264.41 138.41 265.97 138.27 266.73 139.31C267.98 141.02 265.57 143.92 267.1 145.39C268.15 146.39 270.53 146.01 270.68 147.46C270.74 148.14 270.3 149.12 270.95 149.32C271.31 149.43 271.65 149.1 271.88 148.8C272.505 148.129 272.964 147.32 273.22 146.44C273.342 146 273.315 145.531 273.143 145.108C272.971 144.685 272.664 144.33 272.27 144.1C271.63 143.81 269.94 144.1 270.05 144.82C269.791 143.234 269.707 141.624 269.8 140.02C270.08 138.68 271.36 137.51 270.97 136.19C270.58 134.87 268.89 134.19 267.44 134.01C265.99 133.83 264.34 133.62 263.44 132.46C262.54 131.3 262.9 129.3 262.58 127.69C262.312 126.684 261.81 125.755 261.115 124.98C260.42 124.205 259.551 123.605 258.58 123.23C252.73 120.72 243.76 121.08 241.77 128.36Z" fill="#263238"/>
<path d="M258.24 155L238.24 165.05C235.06 166.643 232.592 169.37 231.323 172.692C230.053 176.014 230.073 179.692 231.38 183L241 207.6C242.298 210.905 244.782 213.607 247.967 215.177C251.152 216.747 254.808 217.073 258.22 216.09L279.72 209.89C281.627 209.343 283.398 208.404 284.921 207.133C286.443 205.861 287.683 204.286 288.562 202.508C289.44 200.729 289.937 198.787 290.021 196.805C290.105 194.824 289.775 192.846 289.05 191L277.9 162.58C277.181 160.731 276.085 159.053 274.681 157.653C273.276 156.252 271.595 155.16 269.744 154.447C267.894 153.733 265.915 153.414 263.934 153.509C261.953 153.604 260.014 154.112 258.24 155ZM254.93 197.24C253.333 197.866 251.587 198.004 249.911 197.637C248.236 197.27 246.707 196.415 245.518 195.179C244.329 193.943 243.533 192.382 243.231 190.694C242.929 189.006 243.135 187.266 243.822 185.695C244.509 184.123 245.646 182.791 247.091 181.866C248.535 180.941 250.221 180.466 251.936 180.5C253.651 180.533 255.317 181.075 256.724 182.056C258.131 183.036 259.215 184.413 259.84 186.01C260.261 187.072 260.467 188.207 260.448 189.349C260.429 190.491 260.184 191.618 259.728 192.665C259.271 193.713 258.613 194.659 257.789 195.451C256.966 196.243 255.994 196.865 254.93 197.28V197.24Z" fill="#F66E46"/>
<path d="M258.24 155L238.24 165.05C235.06 166.643 232.592 169.37 231.323 172.692C230.053 176.014 230.073 179.692 231.38 183L241 207.6C242.298 210.905 244.782 213.607 247.967 215.177C251.152 216.747 254.808 217.073 258.22 216.09L279.72 209.89C281.627 209.343 283.398 208.404 284.921 207.133C286.443 205.861 287.683 204.286 288.562 202.508C289.44 200.729 289.937 198.787 290.021 196.805C290.105 194.824 289.775 192.846 289.05 191L277.9 162.58C277.181 160.731 276.085 159.053 274.681 157.653C273.276 156.252 271.595 155.16 269.744 154.447C267.894 153.733 265.915 153.414 263.934 153.509C261.953 153.604 260.014 154.112 258.24 155ZM254.93 197.24C253.333 197.866 251.587 198.004 249.911 197.637C248.236 197.27 246.707 196.415 245.518 195.179C244.329 193.943 243.533 192.382 243.231 190.694C242.929 189.006 243.135 187.266 243.822 185.695C244.509 184.123 245.646 182.791 247.091 181.866C248.535 180.941 250.221 180.466 251.936 180.5C253.651 180.533 255.317 181.075 256.724 182.056C258.131 183.036 259.215 184.413 259.84 186.01C260.261 187.072 260.467 188.207 260.448 189.349C260.429 190.491 260.184 191.618 259.728 192.665C259.271 193.713 258.613 194.659 257.789 195.451C256.966 196.243 255.994 196.865 254.93 197.28V197.24Z" fill="#F66E46"/>
<path opacity="0.1" d="M289.05 191L277.9 162.58C277.181 160.731 276.085 159.053 274.681 157.653C273.276 156.252 271.595 155.16 269.744 154.447C267.894 153.733 265.915 153.414 263.934 153.509C261.953 153.604 260.013 154.112 258.24 155L252.43 158L248.53 160L238.25 165.17C235.097 166.759 232.647 169.465 231.377 172.76C230.108 176.055 230.109 179.705 231.38 183L241 207.6C242.298 210.905 244.782 213.607 247.967 215.177C251.152 216.747 254.808 217.073 258.22 216.09L279.73 209.89C281.432 209.399 283.027 208.592 284.43 207.51C285.484 206.716 286.417 205.772 287.2 204.71C288.652 202.772 289.584 200.495 289.907 198.095C290.231 195.696 289.936 193.253 289.05 191ZM254.93 197.26C253.334 197.883 251.589 198.02 249.916 197.652C248.242 197.284 246.715 196.429 245.527 195.194C244.339 193.959 243.544 192.4 243.242 190.714C242.94 189.027 243.144 187.289 243.829 185.718C244.513 184.148 245.648 182.815 247.09 181.889C248.531 180.963 250.215 180.485 251.928 180.515C253.641 180.545 255.307 181.082 256.715 182.058C258.123 183.035 259.211 184.406 259.84 186C260.262 187.062 260.47 188.198 260.452 189.341C260.433 190.485 260.189 191.613 259.732 192.662C259.276 193.71 258.617 194.658 257.792 195.45C256.968 196.243 255.995 196.865 254.93 197.28V197.26Z" fill="white"/>
<path d="M258.44 156.92L239.69 166.34C236.715 167.833 234.406 170.384 233.215 173.492C232.023 176.6 232.036 180.041 233.25 183.14L242.3 206.2C243.51 209.307 245.837 211.85 248.824 213.33C251.812 214.81 255.245 215.12 258.45 214.2L278.61 208.38C280.395 207.865 282.052 206.984 283.477 205.792C284.902 204.6 286.062 203.124 286.884 201.458C287.706 199.792 288.17 197.973 288.249 196.117C288.328 194.261 288.018 192.409 287.34 190.68L276.89 164C276.213 162.268 275.181 160.696 273.862 159.385C272.543 158.074 270.964 157.053 269.228 156.387C267.492 155.72 265.635 155.423 263.778 155.515C261.92 155.607 260.102 156.086 258.44 156.92ZM243.69 192.37C243.065 190.773 242.927 189.028 243.294 187.353C243.661 185.678 244.517 184.15 245.752 182.961C246.988 181.772 248.548 180.977 250.236 180.675C251.923 180.373 253.663 180.578 255.234 181.264C256.805 181.95 258.137 183.087 259.063 184.531C259.988 185.974 260.464 187.659 260.432 189.373C260.399 191.088 259.859 192.754 258.88 194.161C257.901 195.568 256.526 196.654 254.93 197.28C253.87 197.697 252.737 197.901 251.598 197.881C250.459 197.86 249.335 197.614 248.291 197.158C247.247 196.702 246.303 196.044 245.513 195.222C244.724 194.401 244.104 193.431 243.69 192.37Z" fill="#F66E46"/>
<path opacity="0.1" d="M258.44 156.92L239.69 166.34C236.715 167.833 234.406 170.384 233.215 173.492C232.023 176.6 232.036 180.041 233.25 183.14L242.3 206.2C243.51 209.307 245.837 211.85 248.824 213.33C251.812 214.81 255.245 215.12 258.45 214.2L278.61 208.38C280.395 207.865 282.052 206.984 283.477 205.792C284.902 204.6 286.062 203.124 286.884 201.458C287.706 199.792 288.17 197.973 288.249 196.117C288.328 194.261 288.018 192.409 287.34 190.68L276.89 164C276.213 162.268 275.181 160.696 273.862 159.385C272.543 158.074 270.964 157.053 269.228 156.387C267.492 155.72 265.635 155.423 263.778 155.515C261.92 155.607 260.102 156.086 258.44 156.92ZM243.69 192.37C243.065 190.773 242.927 189.028 243.294 187.353C243.661 185.678 244.517 184.15 245.752 182.961C246.988 181.772 248.548 180.977 250.236 180.675C251.923 180.373 253.663 180.578 255.234 181.264C256.805 181.95 258.137 183.087 259.063 184.531C259.988 185.974 260.464 187.659 260.432 189.373C260.399 191.088 259.859 192.754 258.88 194.161C257.901 195.568 256.526 196.654 254.93 197.28C253.87 197.697 252.737 197.901 251.598 197.881C250.459 197.86 249.335 197.614 248.291 197.158C247.247 196.702 246.303 196.044 245.513 195.222C244.724 194.401 244.104 193.431 243.69 192.37Z" fill="#F66E46"/>
<path d="M351.62 148L351.05 149L350.73 149.58L349.82 151.23L350.2 155.46C350.22 155.639 350.2 155.82 350.14 155.99C350.078 156.174 349.977 156.342 349.845 156.484C349.712 156.625 349.55 156.737 349.37 156.81L341.47 159.9C341.289 159.972 341.095 160.002 340.901 159.988C340.707 159.974 340.519 159.917 340.35 159.82C340.238 159.764 340.137 159.69 340.05 159.6L335.58 155.05L329.22 157.54L330.14 159.89L323.79 162.37L325.3 166.24L320.63 168.07C320.443 168.142 320.244 168.174 320.044 168.164C319.844 168.154 319.648 168.101 319.47 168.01C319.348 167.952 319.237 167.874 319.14 167.78L316.45 165.25L310.09 167.73L311.61 171.6L304.93 174.22L306.45 178.1C306.51 178.251 306.539 178.412 306.536 178.575C306.533 178.737 306.498 178.897 306.433 179.046C306.368 179.194 306.274 179.329 306.157 179.441C306.04 179.553 305.901 179.641 305.75 179.7L287.46 186.86L279.52 166.61L345.7 140.7L346.7 141.23L350.05 142.96C350.492 143.179 350.885 143.486 351.205 143.861C351.525 144.237 351.766 144.673 351.913 145.144C352.06 145.615 352.109 146.111 352.059 146.602C352.009 147.093 351.859 147.568 351.62 148Z" fill="#F66E46"/>
<g opacity="0.1">
<path d="M351.62 148L351.05 149L350.73 149.58L349.82 151.23L350.2 155.46C350.22 155.639 350.2 155.82 350.14 155.99C350.078 156.174 349.977 156.342 349.845 156.484C349.712 156.625 349.55 156.737 349.37 156.81L341.47 159.9C341.289 159.972 341.095 160.002 340.901 159.988C340.707 159.974 340.519 159.917 340.35 159.82C340.238 159.764 340.137 159.69 340.05 159.6L335.58 155.05L329.22 157.54L330.14 159.89L323.79 162.37L325.3 166.24L320.63 168.07C320.443 168.142 320.244 168.174 320.044 168.164C319.844 168.154 319.648 168.101 319.47 168.01C319.348 167.952 319.237 167.874 319.14 167.78L316.45 165.25L310.09 167.73L311.61 171.6L304.93 174.22L306.45 178.1C306.51 178.251 306.539 178.412 306.536 178.575C306.533 178.737 306.498 178.897 306.433 179.046C306.368 179.194 306.274 179.329 306.157 179.441C306.04 179.553 305.901 179.641 305.75 179.7L287.46 186.86L279.52 166.61L345.7 140.7L346.7 141.23L350.05 142.96C350.492 143.179 350.885 143.486 351.205 143.861C351.525 144.237 351.766 144.673 351.913 145.144C352.06 145.615 352.109 146.111 352.059 146.602C352.009 147.093 351.859 147.568 351.62 148Z" fill="white"/>
</g>
<path d="M351.36 145.72L280.6 173.42L278.54 168.22L346 141.81L349.36 143.53C350.64 144.19 351.37 144.8 351.36 145.72Z" fill="#F66E46"/>
<path opacity="0.1" d="M351.36 145.72L280.6 173.42L278.54 168.22L346 141.81L349.36 143.53C350.64 144.19 351.37 144.8 351.36 145.72Z" fill="black"/>
<path d="M350 149.62L349.32 151.16C349.314 151.186 349.314 151.214 349.32 151.24L349.71 155.42C349.735 155.569 349.735 155.721 349.71 155.87C349.703 155.895 349.691 155.918 349.674 155.937C349.656 155.956 349.634 155.971 349.61 155.98L341.02 159.36C340.999 159.372 340.975 159.379 340.95 159.379C340.925 159.379 340.901 159.372 340.88 159.36C340.794 159.308 340.717 159.244 340.65 159.17L335.73 154.23C335.705 154.213 335.675 154.204 335.645 154.204C335.615 154.204 335.585 154.213 335.56 154.23L328.56 156.97C328.522 156.988 328.491 157.019 328.474 157.058C328.458 157.096 328.456 157.14 328.47 157.18L329.3 159.29C329.308 159.31 329.312 159.331 329.312 159.352C329.312 159.373 329.307 159.394 329.299 159.414C329.291 159.433 329.278 159.451 329.263 159.466C329.248 159.481 329.23 159.492 329.21 159.5L323.26 161.84C323.24 161.848 323.222 161.859 323.207 161.874C323.191 161.889 323.179 161.907 323.171 161.926C323.162 161.946 323.158 161.967 323.158 161.988C323.158 162.009 323.162 162.03 323.17 162.05L324.6 165.68C324.61 165.699 324.615 165.721 324.616 165.742C324.616 165.764 324.612 165.786 324.603 165.806C324.595 165.826 324.582 165.844 324.566 165.858C324.55 165.873 324.531 165.884 324.51 165.89L320.15 167.61C320.129 167.622 320.105 167.629 320.08 167.629C320.055 167.629 320.031 167.622 320.01 167.61C319.919 167.558 319.834 167.494 319.76 167.42L316.56 164.48C316.536 164.466 316.508 164.459 316.48 164.459C316.452 164.459 316.424 164.466 316.4 164.48L309.47 167.21C309.449 167.216 309.43 167.227 309.414 167.242C309.398 167.256 309.385 167.274 309.376 167.294C309.368 167.314 309.364 167.336 309.364 167.357C309.365 167.379 309.37 167.4 309.38 167.42L310.84 171.14C310.85 171.159 310.855 171.181 310.856 171.202C310.856 171.224 310.852 171.246 310.843 171.266C310.835 171.286 310.822 171.304 310.806 171.318C310.79 171.333 310.771 171.344 310.75 171.35L284.14 181.82C284.101 181.833 284.059 181.831 284.022 181.815C283.985 181.798 283.956 181.768 283.94 181.73L281.2 175C281.186 174.96 281.188 174.916 281.204 174.878C281.221 174.839 281.252 174.808 281.29 174.79L350.63 147.5C350.66 147.489 350.693 147.487 350.724 147.494C350.755 147.502 350.783 147.518 350.805 147.542C350.826 147.566 350.84 147.595 350.845 147.627C350.849 147.659 350.844 147.691 350.83 147.72L350 149.62Z" fill="#F66E46"/>
<path opacity="0.1" d="M350 149.62L349.32 151.16C349.314 151.186 349.314 151.214 349.32 151.24L349.71 155.42C349.735 155.569 349.735 155.721 349.71 155.87C349.703 155.895 349.691 155.918 349.674 155.937C349.656 155.956 349.634 155.971 349.61 155.98L341.02 159.36C340.999 159.372 340.975 159.379 340.95 159.379C340.925 159.379 340.901 159.372 340.88 159.36C340.794 159.308 340.717 159.244 340.65 159.17L335.73 154.23C335.705 154.213 335.675 154.204 335.645 154.204C335.615 154.204 335.585 154.213 335.56 154.23L328.56 156.97C328.522 156.988 328.491 157.019 328.474 157.058C328.458 157.096 328.456 157.14 328.47 157.18L329.3 159.29C329.308 159.31 329.312 159.331 329.312 159.352C329.312 159.373 329.307 159.394 329.299 159.414C329.291 159.433 329.278 159.451 329.263 159.466C329.248 159.481 329.23 159.492 329.21 159.5L323.26 161.84C323.24 161.848 323.222 161.859 323.207 161.874C323.191 161.889 323.179 161.907 323.171 161.926C323.162 161.946 323.158 161.967 323.158 161.988C323.158 162.009 323.162 162.03 323.17 162.05L324.6 165.68C324.61 165.699 324.615 165.721 324.616 165.742C324.616 165.764 324.612 165.786 324.603 165.806C324.595 165.826 324.582 165.844 324.566 165.858C324.55 165.873 324.531 165.884 324.51 165.89L320.15 167.61C320.129 167.622 320.105 167.629 320.08 167.629C320.055 167.629 320.031 167.622 320.01 167.61C319.919 167.558 319.834 167.494 319.76 167.42L316.56 164.48C316.536 164.466 316.508 164.459 316.48 164.459C316.452 164.459 316.424 164.466 316.4 164.48L309.47 167.21C309.449 167.216 309.43 167.227 309.414 167.242C309.398 167.256 309.385 167.274 309.376 167.294C309.368 167.314 309.364 167.336 309.364 167.357C309.365 167.379 309.37 167.4 309.38 167.42L310.84 171.14C310.85 171.159 310.855 171.181 310.856 171.202C310.856 171.224 310.852 171.246 310.843 171.266C310.835 171.286 310.822 171.304 310.806 171.318C310.79 171.333 310.771 171.344 310.75 171.35L284.14 181.82C284.101 181.833 284.059 181.831 284.022 181.815C283.985 181.798 283.956 181.768 283.94 181.73L281.2 175C281.186 174.96 281.188 174.916 281.204 174.878C281.221 174.839 281.252 174.808 281.29 174.79L350.63 147.5C350.66 147.489 350.693 147.487 350.724 147.494C350.755 147.502 350.783 147.518 350.805 147.542C350.826 147.566 350.84 147.595 350.845 147.627C350.849 147.659 350.844 147.691 350.83 147.72L350 149.62Z" fill="black"/>
<path opacity="0.3" d="M248.07 179C246.07 179.786 244.348 181.147 243.121 182.912C241.894 184.676 241.218 186.765 241.178 188.913C241.137 191.062 241.735 193.174 242.895 194.983C244.055 196.792 245.725 198.217 247.694 199.078C249.663 199.938 251.843 200.195 253.959 199.817C256.074 199.439 258.03 198.442 259.579 196.953C261.129 195.463 262.202 193.548 262.663 191.449C263.124 189.35 262.952 187.161 262.17 185.16C261.652 183.827 260.876 182.61 259.885 181.578C258.895 180.546 257.711 179.721 256.401 179.148C255.09 178.576 253.68 178.268 252.25 178.242C250.821 178.217 249.4 178.474 248.07 179ZM254.93 197.3C253.333 197.926 251.587 198.064 249.911 197.697C248.236 197.331 246.707 196.475 245.518 195.239C244.329 194.003 243.533 192.443 243.231 190.754C242.929 189.066 243.135 187.326 243.822 185.755C244.509 184.183 245.647 182.851 247.091 181.926C248.535 181.001 250.221 180.526 251.936 180.56C253.651 180.593 255.317 181.135 256.724 182.116C258.131 183.097 259.215 184.473 259.84 186.07C260.671 188.208 260.621 190.588 259.701 192.689C258.78 194.79 257.065 196.441 254.93 197.28V197.3Z" fill="white"/>
<path opacity="0.1" d="M287.21 204.7C286.431 205.762 285.501 206.706 284.45 207.5L248.52 159.91C248.52 159.91 251.69 158.32 252.41 157.84C252.416 157.893 252.433 157.944 252.46 157.99C254 161.32 282.24 198 287.21 204.7Z" fill="white"/>
<path opacity="0.1" d="M282 209C281.78 209.1 271.31 212.29 271.31 212.29L259.64 196.84C261.401 195.08 262.504 192.769 262.766 190.293C263.027 187.817 262.43 185.326 261.076 183.237C259.721 181.148 257.69 179.588 255.323 178.816C252.956 178.045 250.395 178.11 248.07 179C247.587 179.181 247.122 179.405 246.68 179.67L236.36 166C236.36 166 245.43 161.68 246.43 161C246.7 162.93 282 208.6 282 209Z" fill="white"/>
<path d="M239.19 133.94C238.603 134.636 238.184 135.457 237.965 136.341C237.746 137.225 237.732 138.147 237.925 139.037C238.119 139.926 238.513 140.76 239.079 141.473C239.645 142.186 240.367 142.76 241.19 143.15C242.05 143.55 242.99 143.74 243.83 144.15C244.268 144.327 244.656 144.611 244.956 144.976C245.256 145.341 245.461 145.775 245.55 146.24C245.65 147.24 244.88 148.24 244.96 149.24C245.046 149.708 245.228 150.153 245.495 150.547C245.762 150.942 246.107 151.276 246.51 151.53C247.32 152.036 248.004 152.72 248.51 153.53C248.624 153.735 248.694 153.962 248.716 154.196C248.738 154.43 248.712 154.666 248.638 154.89C248.565 155.113 248.447 155.319 248.29 155.494C248.134 155.67 247.943 155.811 247.73 155.91C247.622 156.1 247.566 156.316 247.566 156.535C247.566 156.754 247.622 156.969 247.73 157.16C247.858 157.29 248.026 157.373 248.208 157.397C248.389 157.42 248.573 157.383 248.73 157.29C249.441 156.845 250.031 156.232 250.448 155.505C250.865 154.777 251.096 153.958 251.12 153.12C251.11 152.289 250.867 151.478 250.418 150.78C249.969 150.081 249.332 149.523 248.58 149.17C248.485 148.871 248.451 148.555 248.48 148.242C248.509 147.93 248.601 147.626 248.75 147.35C249.2 146.21 249.66 145.06 250.12 143.92C250.194 143.64 250.206 143.348 250.156 143.063C250.106 142.778 249.995 142.507 249.83 142.27C249.489 141.926 249.075 141.663 248.62 141.5L245.67 140.24C244.56 139.76 241.25 135.34 245.17 134.05C244.934 133.549 244.565 133.124 244.102 132.82C243.64 132.517 243.103 132.347 242.55 132.33C241.9 132.298 241.253 132.429 240.666 132.71C240.08 132.991 239.572 133.414 239.19 133.94Z" fill="#263238"/>
<path d="M244.54 129.18L244.24 132.67C245.24 131.07 247.03 127.96 246.97 128.08C246.2 128.5 245.31 128.76 244.54 129.18Z" fill="#263238"/>
<path d="M245.86 131.09L249.96 127.3C249.426 127.115 248.851 127.084 248.301 127.212C247.751 127.339 247.248 127.619 246.85 128.02C246.88 127.93 246.24 129.87 245.86 131.09Z" fill="#263238"/>
<path d="M237.53 225.7C232.2 232.32 233.97 237.39 226.61 249.11C235.9 255.99 246.08 257.11 258.73 256.11C260.23 253.46 260.98 250.7 262.48 248.05C264.62 250.71 266.34 252.94 268.48 255.61C275.11 254.61 282.99 252.7 288.23 249.32C283.6 244.01 280.72 237.38 277.76 231.53C276.37 228.78 276.95 227.63 273.26 224.03C261.51 224.57 249.86 224.85 238.12 225.4C238.44 225.45 237.22 225.68 237.53 225.7Z" fill="#263238"/>
<path d="M239 224.59L238.27 227.68C238.16 227.93 238.45 228.16 238.84 228.13L271.23 226.7C271.353 226.715 271.478 226.686 271.582 226.618C271.686 226.551 271.763 226.448 271.8 226.33L271.97 223.26C271.97 223.06 271.7 222.88 271.36 222.91L239.55 224.31C239.442 224.305 239.335 224.329 239.238 224.378C239.142 224.427 239.06 224.5 239 224.59Z" fill="#F66E46"/>
<path d="M239 224.59L238.27 227.68C238.16 227.93 238.45 228.16 238.84 228.13L271.23 226.7C271.353 226.715 271.478 226.686 271.582 226.618C271.686 226.551 271.763 226.448 271.8 226.33L271.97 223.26C271.97 223.06 271.7 222.88 271.36 222.91L239.55 224.31C239.442 224.305 239.335 224.329 239.238 224.378C239.142 224.427 239.06 224.5 239 224.59Z" fill="#F66E46"/>
<path d="M246.13 228.14H245.19C245.01 228.14 244.86 228.06 244.87 227.95L245.12 223.95C245.12 223.83 245.29 223.73 245.47 223.73L246.42 223.68C246.59 223.68 246.74 223.76 246.73 223.88L246.48 227.88C246.47 228 246.31 228.13 246.13 228.14Z" fill="#263238"/>
<path d="M269.51 227.13H268.57C268.39 227.13 268.24 227.05 268.25 226.94L268.5 222.94C268.5 222.82 268.67 222.71 268.85 222.71H269.79C269.97 222.71 270.11 222.79 270.1 222.9L269.85 226.9C269.85 227 269.7 227.12 269.51 227.13Z" fill="#263238"/>
<path d="M250.31 208.72C250.37 209.01 252.88 213.01 254.86 212.72C255.142 212.681 255.428 212.717 255.692 212.824C255.955 212.931 256.185 213.106 256.36 213.33C257.15 214.33 257.63 214.95 258.16 215.63C258.58 216.167 259.171 216.544 259.834 216.7C260.497 216.857 261.194 216.783 261.81 216.49C262.18 216.32 262.55 216.13 262.92 215.93C263.517 215.618 263.992 215.114 264.268 214.499C264.544 213.884 264.604 213.194 264.44 212.54C264.073 211.065 263.504 209.649 262.75 208.33C262.527 207.86 262.182 207.46 261.75 207.17C259.671 206.375 257.495 205.863 255.28 205.65C253.58 205.72 251.92 208 250.31 208.72Z" fill="#E8BFBF"/>
<path d="M255.38 205.53C255.38 205.53 228.8 197.48 223.06 202.84C219.69 205.99 221.28 208.97 223.17 210.84C224.57 212.27 227.62 211.92 229.62 211.84L250.56 209.78L255.38 205.53Z" fill="#E8BFBF"/>
<path d="M240.1 201.85C239.981 201.134 239.685 200.46 239.24 199.887C238.795 199.315 238.214 198.862 237.55 198.57C236.219 198.006 234.803 197.668 233.36 197.57L223.36 196.3C221.563 198.516 220.553 201.267 220.49 204.12C220.561 206.879 221.57 209.531 223.35 211.64C224.95 208.55 227.06 205.37 230.18 203.83C233.3 202.29 236.68 201.23 240.1 201.85Z" fill="#263238"/>
<path opacity="0.1" d="M233.25 153.3C233.25 153.24 233.25 153.21 233.25 153.2C233.46 153.14 233.43 153.18 233.25 153.3Z" fill="white"/>
<path d="M299.29 110.26L306.69 124L336.91 98.34C336.963 98.2939 336.997 98.2296 337.004 98.1598C337.012 98.09 336.993 98.0199 336.952 97.9633C336.91 97.9067 336.849 97.8677 336.78 97.8542C336.711 97.8406 336.64 97.8534 336.58 97.89L308.25 116.59L303.89 108.07L299.29 110.26Z" fill="#F66E46"/>
<path d="M282.59 137.63L294.81 124C292.978 122.217 291.516 120.089 290.507 117.74C289.498 115.391 288.962 112.866 288.93 110.31C288.93 97.73 302.09 87.5 318.27 87.5C334.45 87.5 347.62 97.73 347.62 110.31C347.62 122.89 334.45 133.11 318.27 133.11C312.576 133.159 306.954 131.824 301.89 129.22L282.59 137.63ZM318.27 88.82C302.81 88.82 290.27 98.47 290.27 110.33C290.311 112.819 290.857 115.274 291.877 117.545C292.896 119.816 294.367 121.855 296.2 123.54L296.64 123.97L287.59 134.06L302 127.8L302.28 127.95C307.212 130.542 312.708 131.875 318.28 131.83C333.75 131.83 346.33 122.19 346.33 110.33C346.33 98.47 333.74 88.82 318.27 88.82Z" fill="#F66E46"/>
</svg>
