<svg width="500" height="500" viewBox="0 0 500 500" fill="none" xmlns="http://www.w3.org/2000/svg">
<path d="M358.97 314.42H431.23V258.68H358.97V314.42Z" fill="#EBEBEB"/>
<path d="M364.13 309.55H372.84V299.71H364.13V309.55Z" fill="white"/>
<path d="M409.19 258.82H400.98V270.71H409.19V258.82Z" fill="#FAFAFA"/>
<path d="M409.19 302.36H400.98V314.25H409.19V302.36Z" fill="#FAFAFA"/>
<path d="M377 314.8C376.87 314.8 376.77 302.54 376.77 287.42C376.77 272.3 376.87 260.04 377 260.04C377.13 260.04 377.23 272.3 377.23 287.42C377.23 302.54 377.13 314.8 377 314.8Z" fill="#E0E0E0"/>
<path d="M329.5 410.4H454.18V314.23H329.5V410.4Z" fill="#EBEBEB"/>
<path d="M338.41 402.01H353.43V385.03H338.41V402.01Z" fill="white"/>
<path d="M416.14 314.48H401.98V335H416.14V314.48Z" fill="#FAFAFA"/>
<path d="M416.14 389.59H401.98V410.11H416.14V389.59Z" fill="#FAFAFA"/>
<path d="M360.621 411.06C360.401 411.06 360.221 389.91 360.221 363.82C360.221 337.73 360.401 316.58 360.621 316.58C360.841 316.58 361.011 337.73 361.011 363.82C361.011 389.91 360.841 411.06 360.621 411.06Z" fill="#E0E0E0"/>
<path d="M450.221 114.21L456.901 127.74L471.831 129.91L461.031 140.45L463.581 155.32L450.221 148.3L436.861 155.32L439.411 140.45L428.611 129.91L443.541 127.74L450.221 114.21Z" fill="#EBEBEB"/>
<path d="M52.5106 288.97L56.7206 297.5L66.1306 298.86L59.3206 305.5L60.9306 314.88L52.5106 310.45L44.0906 314.88L45.7006 305.5L38.8906 298.86L48.3006 297.5L52.5106 288.97Z" fill="#EBEBEB"/>
<path d="M57.7305 214.66L67.0805 233.6L87.9805 236.64L72.8605 251.38L76.4305 272.2L57.7305 262.37L39.0405 272.2L42.6105 251.38L27.4805 236.64L48.3805 233.6L57.7305 214.66Z" fill="#EBEBEB"/>
<path d="M444.27 175.32L448.3 183.49L457.31 184.8L450.79 191.15L452.33 200.12L444.27 195.89L436.21 200.12L437.75 191.15L431.23 184.8L440.24 183.49L444.27 175.32Z" fill="#EBEBEB"/>
<path d="M312.05 43.07L316.08 51.23L325.09 52.54L318.57 58.9L320.11 67.87L312.05 63.63L303.99 67.87L305.53 58.9L299.01 52.54L308.02 51.23L312.05 43.07Z" fill="#EBEBEB"/>
<path d="M404.221 130.41L406.861 135.75L412.761 136.61L408.491 140.77L409.501 146.64L404.221 143.87L398.951 146.64L399.961 140.77L395.691 136.61L401.591 135.75L404.221 130.41Z" fill="#EBEBEB"/>
<path d="M160.921 400.11L166.061 410.51L177.541 412.18L169.231 420.28L171.201 431.72L160.921 426.32L150.651 431.72L152.611 420.28L144.301 412.18L155.791 410.51L160.921 400.11Z" fill="#EBEBEB"/>
<path d="M174.481 389.76L176.601 394.06L181.351 394.75L177.911 398.1L178.721 402.83L174.481 400.59L170.241 402.83L171.051 398.1L167.611 394.75L172.361 394.06L174.481 389.76Z" fill="#EBEBEB"/>
<path d="M364.13 349.92L368.65 359.07L378.75 360.54L371.44 367.66L373.17 377.72L364.13 372.97L355.1 377.72L356.83 367.66L349.52 360.54L359.62 359.07L364.13 349.92Z" fill="#F66E46"/>
<path d="M385.679 341.81L387.809 346.12L392.559 346.81L389.119 350.17L389.929 354.91L385.679 352.67L381.419 354.91L382.239 350.17L378.789 346.81L383.549 346.12L385.679 341.81Z" fill="#F66E46"/>
<path d="M357.439 103.66L360.999 92.6C357.606 85.7674 356.576 78.0025 358.069 70.5216C359.563 63.0407 363.496 56.2666 369.252 51.2605C375.008 46.2544 382.262 43.2991 389.878 42.8578C397.494 42.4164 405.041 44.5138 411.337 48.8214C417.633 53.129 422.322 59.4035 424.669 66.6617C427.017 73.92 426.891 81.752 424.31 88.9308C421.729 96.1095 416.84 102.229 410.409 106.332C403.977 110.434 396.366 112.287 388.769 111.6C381.356 111.095 374.341 108.059 368.899 103L357.439 103.66Z" fill="#FAFAFA"/>
<path d="M357.44 103.66L358.2 103.6L360.41 103.44L368.9 102.86C373.108 106.752 378.291 109.434 383.9 110.62C385.631 111.005 387.39 111.256 389.16 111.37L391.96 111.48C392.9 111.48 393.87 111.37 394.84 111.32C403.612 110.524 411.741 106.381 417.54 99.75C420.808 96.0668 423.234 91.7159 424.65 87C426.1 81.9607 426.394 76.6588 425.51 71.49C425.29 70.1612 424.982 68.8484 424.59 67.56C424.412 66.9074 424.195 66.2662 423.94 65.64C423.69 65 423.47 64.36 423.2 63.73C422.086 61.1867 420.676 58.7835 419 56.57C418.164 55.4666 417.259 54.4178 416.29 53.43C415.819 52.9263 415.318 52.4521 414.79 52.01C414.28 51.56 413.79 51.07 413.25 50.66L411.61 49.44L410.79 48.84L409.91 48.32L408.18 47.32C407.59 46.99 406.97 46.74 406.37 46.44C401.774 44.265 396.748 43.1485 391.664 43.1727C386.579 43.1969 381.565 44.3613 376.99 46.58C369.062 50.3873 362.906 57.1023 359.8 65.33C359.63 65.79 359.47 66.25 359.31 66.7C359.129 67.144 358.985 67.6023 358.88 68.07C358.65 68.99 358.43 69.9 358.21 70.79C357.906 72.5339 357.699 74.2933 357.59 76.06C357.366 81.7752 358.569 87.4561 361.09 92.59L358.41 100.77L357.7 102.89C357.54 103.37 357.45 103.62 357.45 103.62C357.45 103.62 357.51 103.39 357.66 102.92L358.3 100.82L360.87 92.53V92.61C358.281 87.4666 357.03 81.7544 357.23 76C357.324 74.2135 357.521 72.4338 357.82 70.67C358.04 69.77 358.27 68.85 358.49 67.92C358.596 67.4472 358.736 66.9826 358.91 66.53C359.08 66.07 359.24 65.61 359.41 65.14C361.08 60.6541 363.663 56.5637 366.996 53.1279C370.329 49.6921 374.339 46.9857 378.772 45.1799C383.205 43.3742 387.964 42.5085 392.749 42.6376C397.534 42.7667 402.24 43.8878 406.57 45.93C407.18 46.22 407.81 46.48 408.41 46.82L410.17 47.87L411.05 48.4L411.89 49.01L413.55 50.24C414.1 50.67 414.6 51.16 415.12 51.61C415.653 52.0615 416.16 52.5422 416.64 53.05C417.622 54.058 418.541 55.1268 419.39 56.25C421.098 58.4761 422.538 60.8962 423.68 63.46C423.95 64.1 424.17 64.76 424.42 65.4C424.685 66.052 424.909 66.7199 425.09 67.4C425.485 68.7113 425.793 70.0477 426.01 71.4C426.913 76.6456 426.612 82.0278 425.13 87.14C423.709 91.9457 421.255 96.3826 417.94 100.14C412.053 106.834 403.818 111.008 394.94 111.8C393.94 111.8 392.94 111.94 392.02 111.94L389.19 111.82C387.402 111.695 385.627 111.434 383.88 111.04C378.25 109.807 373.064 107.062 368.88 103.1H368.96L360.39 103.55L358.21 103.65C357.68 103.66 357.44 103.66 357.44 103.66Z" fill="#263238"/>
<path d="M372.311 76L377.981 71.08L387.531 80.89L408.951 63.05L413.481 68.7L386.041 91.04L372.311 76Z" fill="#F66E46"/>
<path d="M298.11 349.49L106.35 392.23C105.24 392.484 104.091 392.515 102.969 392.323C101.846 392.131 100.773 391.718 99.8114 391.109C98.8493 390.501 98.0173 389.707 97.3631 388.776C96.7089 387.844 96.2456 386.792 95.9998 385.68L33.8098 106.43C33.5621 105.324 33.5351 104.179 33.7303 103.062C33.9256 101.945 34.3393 100.878 34.9477 99.921C35.5562 98.9642 36.3474 98.1368 37.2761 97.4863C38.2048 96.8358 39.2527 96.3749 40.3598 96.13L232.12 53.39C233.227 53.1421 234.372 53.115 235.49 53.3101C236.607 53.5053 237.675 53.9189 238.633 54.5272C239.591 55.1356 240.419 55.9268 241.07 56.8556C241.722 57.7844 242.184 58.8325 242.43 59.94L304.66 339.19C304.908 340.296 304.935 341.441 304.739 342.558C304.544 343.675 304.13 344.742 303.522 345.699C302.913 346.656 302.122 347.483 301.194 348.134C300.265 348.784 299.217 349.245 298.11 349.49Z" fill="#E0E0E0"/>
<path d="M298.11 349.49L298.75 349.31C299.372 349.108 299.971 348.843 300.54 348.52C301.473 347.972 302.296 347.256 302.97 346.41C303.888 345.25 304.491 343.872 304.72 342.41C304.865 341.526 304.865 340.624 304.72 339.74C304.56 338.81 304.31 337.83 304.09 336.81C303.63 334.81 303.09 332.53 302.59 330.11C301.503 325.263 300.253 319.687 298.84 313.38C293.21 288.21 285.07 251.79 275.01 206.78C270.01 184.28 264.49 159.63 258.58 133.16C255.633 119.933 252.583 106.267 249.43 92.16C247.863 85.1067 246.27 77.9567 244.65 70.71C243.83 67.09 243.02 63.44 242.19 59.77C241.739 57.9407 240.687 56.3161 239.201 55.1572C237.716 53.9983 235.884 53.3724 234 53.38C233.061 53.4008 232.127 53.5351 231.22 53.78L228.42 54.4L222.79 55.66L211.43 58.19L188.31 63.35L140.67 74L40.4301 96.32C38.3112 96.7896 36.4547 98.0574 35.2461 99.86C34.0375 101.663 33.5698 103.862 33.9401 106C34.8501 110.25 35.8301 114.51 36.7601 118.75C38.6534 127.217 40.5301 135.633 42.3901 144L53.3901 193.41C60.6101 225.8 67.5701 257 74.2001 286.8C80.8301 316.6 87.1201 344.8 93.0201 371.31C93.7534 374.643 94.4834 377.923 95.2101 381.15C95.5801 382.77 95.9101 384.41 96.3001 386C96.7201 387.566 97.5809 388.979 98.7801 390.07C99.9716 391.145 101.44 391.866 103.02 392.15C103.804 392.278 104.6 392.301 105.39 392.22C106.17 392.12 106.96 391.93 107.74 391.75L117.05 389.68L152.38 381.82L259 358.13L288 351.71L295.54 350.05L298.11 349.49L295.55 350.09L288.01 351.79L259.01 358.28L152.41 382.11L117.12 390L107.81 392.08C107.03 392.25 106.25 392.45 105.43 392.56C104.61 392.644 103.783 392.617 102.97 392.48C101.316 392.193 99.7777 391.439 98.5376 390.307C97.2974 389.174 96.4066 387.711 95.9701 386.09C95.5701 384.48 95.2401 382.86 94.8701 381.24C94.1434 377.993 93.4101 374.713 92.6701 371.4C86.7701 344.93 80.4601 316.65 73.8201 286.89C67.1801 257.13 60.2201 225.89 52.9901 193.5L41.9901 144.1C40.1301 135.74 38.2534 127.317 36.3601 118.83C35.4201 114.59 34.4501 110.35 33.5301 106.06C33.1451 103.82 33.6379 101.517 34.906 99.631C36.1742 97.7446 38.1203 96.4191 40.3401 95.93L140.59 73.58L188.26 63L211.37 57.85L222.73 55.32L228.37 54L231.17 53.38C232.095 53.1403 233.045 53.0127 234 53C235.952 53.0045 237.847 53.6586 239.386 54.859C240.925 56.0595 242.02 57.738 242.5 59.63C243.32 63.31 244.14 66.95 244.95 70.58C246.583 77.8333 248.19 84.9733 249.77 92C252.897 106.1 255.94 119.767 258.9 133C264.79 159.47 270.27 184.12 275.28 206.63C285.28 251.63 293.38 288.08 298.98 313.26C300.37 319.55 301.61 325.15 302.69 329.99C303.22 332.42 303.69 334.65 304.17 336.7C304.39 337.7 304.64 338.7 304.79 339.63C304.94 340.524 304.94 341.436 304.79 342.33C304.562 343.819 303.948 345.222 303.01 346.4C302.327 347.245 301.497 347.96 300.56 348.51C299.984 348.834 299.374 349.092 298.74 349.28L298.11 349.49Z" fill="#263238"/>
<g opacity="0.3">
<path d="M116.071 382.34L290.791 342.4L285.271 308.16L275.361 288.97L108.221 354.62L116.071 382.34Z" fill="black"/>
</g>
<g opacity="0.3">
<path d="M189.02 63.63L195.63 74.54L196.91 80.33L192.43 81.33L189.02 63.63Z" fill="black"/>
</g>
<path d="M43.7598 108.05L104.38 380.05L294.39 337.71L283.55 289.07L233.77 65.7L43.7598 108.05Z" fill="white"/>
<path d="M43.76 108.05L233.76 65.54H233.92V65.71C250.78 141.3 271.81 235.63 294.57 337.71V337.92H294.37L104.37 380.25H104.19V380.06C68.5 219.44 44.12 109.68 43.75 108.06C44.12 109.72 68.66 219.45 104.56 380.06L104.33 379.92L294.33 337.55L294.17 337.8C271.44 235.74 250.43 141.41 233.6 65.8L233.8 65.93L43.76 108.05Z" fill="#263238"/>
<path d="M97.2645 75.6857L181.06 57.0166C182.699 56.6515 184.415 56.9523 185.832 57.8529C187.249 58.7534 188.25 60.1799 188.615 61.8186L193.456 83.5458L97.2837 104.972L92.4473 83.2646C92.2632 82.4505 92.242 81.6081 92.3848 80.7857C92.5275 79.9634 92.8315 79.1774 93.2792 78.473C93.7269 77.7686 94.3095 77.1597 94.9935 76.6813C95.6774 76.203 96.4492 75.8646 97.2645 75.6857Z" fill="#263238"/>
<path d="M149.07 53.15L124.6 58.6L132.13 78.94L150.56 74.83L149.07 53.15Z" fill="#263238"/>
<path d="M181.06 57C181.06 57.11 162.35 61.38 139.22 66.54C116.09 71.7 97.2996 75.81 97.2696 75.7C97.2396 75.59 115.98 71.32 139.13 66.16C162.28 61 181 56.92 181.06 57Z" fill="#455A64"/>
<path d="M98.4593 100C98.3493 100 97.3793 96.1001 96.2993 91.2401C95.2193 86.3801 94.4193 82.4101 94.5393 82.3801C94.6593 82.3501 95.6193 86.2801 96.6993 91.1501C97.7793 96.0201 98.5693 100 98.4593 100Z" fill="#455A64"/>
<path d="M188.871 77.64C188.068 75.0094 187.4 72.3392 186.871 69.64C186.209 67.0018 185.682 64.3317 185.291 61.64C186.093 64.2542 186.76 66.9076 187.291 69.59C187.954 72.2447 188.482 74.9315 188.871 77.64Z" fill="#455A64"/>
<path d="M185.061 82.3901C185.061 82.5001 165.851 86.8801 142.111 92.1701C118.371 97.4601 99.1106 101.67 99.0606 101.55C99.0106 101.43 118.261 97.06 142.061 91.77C165.861 86.48 185.001 82.2801 185.061 82.3901Z" fill="#455A64"/>
<path d="M134.449 161.51C134.449 161.63 121.499 164.61 105.449 168.19C89.3992 171.77 76.4492 174.56 76.3792 174.45C76.3092 174.34 89.3792 171.35 105.379 167.78C121.379 164.21 134.419 161.4 134.449 161.51Z" fill="#263238"/>
<path d="M231.16 150.62C231.16 150.74 197.29 158.39 155.46 167.71C113.63 177.03 79.6802 184.5 79.6602 184.39C79.6402 184.28 113.52 176.62 155.37 167.3C197.22 157.98 231.14 150.51 231.16 150.62Z" fill="#263238"/>
<path d="M233.25 160C233.25 160.11 199.37 167.76 157.54 177.09C115.71 186.42 81.7703 193.88 81.7403 193.76C81.7103 193.64 115.61 186 157.45 176.68C199.29 167.36 233.22 159.86 233.25 160Z" fill="#263238"/>
<path d="M235.33 169.32C235.33 169.43 201.46 177.08 159.63 186.4C117.8 195.72 83.8503 203.2 83.8203 203.08C83.7903 202.96 117.69 195.32 159.54 185.99C201.39 176.66 235.3 169.21 235.33 169.32Z" fill="#263238"/>
<path d="M237.41 178.67C237.41 178.78 203.54 186.43 161.71 195.75C119.88 205.07 85.9302 212.54 85.9102 212.43C85.8902 212.32 119.77 204.67 161.62 195.34C203.47 186.01 237.39 178.55 237.41 178.67Z" fill="#263238"/>
<path d="M239.5 188C239.5 188.12 205.62 195.77 163.79 205.09C121.96 214.41 88 221.89 88 221.78C88 221.67 121.87 214.02 163.71 204.69C205.55 195.36 239.47 187.9 239.5 188Z" fill="#263238"/>
<path d="M117.37 253.81C117.329 253.71 117.299 253.606 117.28 253.5L117.06 252.61C116.87 251.8 116.6 250.67 116.27 249.26C115.6 246.37 114.66 242.31 113.54 237.45L113.76 237.59L97.36 241.27C97.36 241.27 97.66 240.8 97.52 241.02V241.09V241.23L97.58 241.51L97.71 242.07L97.95 243.18C98.12 243.92 98.28 244.65 98.44 245.38C98.76 246.82 99.08 248.24 99.38 249.62C99.99 252.37 100.56 254.97 101.09 257.36L100.87 257.22L112.72 254.67L116.09 253.97L116.99 253.8L117.31 253.74C117.31 253.74 117.23 253.74 117.03 253.83L116.18 254.04L112.88 254.82L101 257.65H100.82V257.47L99.08 249.74C98.77 248.36 98.45 246.94 98.08 245.5C97.92 244.77 97.75 244.04 97.59 243.3C97.5 242.94 97.42 242.56 97.34 242.19L97.21 241.63L97.15 241.35V241.21V241.14V241.09C97.01 241.32 97.34 240.79 97.31 240.84L113.72 237.21H113.9V237.39L116.48 249.39C116.77 250.79 117 251.91 117.17 252.71C117.24 253.07 117.29 253.35 117.34 253.58C117.36 253.655 117.37 253.732 117.37 253.81Z" fill="#263238"/>
<path d="M239.27 213.38L124.855 238.871L126.982 248.417L241.397 222.926L239.27 213.38Z" fill="#E0E0E0"/>
<path d="M123.709 282.27C123.672 282.166 123.642 282.059 123.619 281.95C123.559 281.72 123.489 281.42 123.399 281.06C123.209 280.25 122.939 279.13 122.609 277.72C121.939 274.82 120.999 270.72 119.879 265.9L120.099 266.04L103.699 269.72C103.699 269.78 103.999 269.25 103.859 269.48V269.53V269.6V269.74L103.919 270.02L104.049 270.58C104.129 270.96 104.209 271.33 104.299 271.7L104.779 273.89C105.099 275.34 105.419 276.75 105.719 278.13C106.329 280.88 106.899 283.48 107.429 285.87L107.209 285.73L119.069 283.19L122.429 282.49L123.329 282.31C123.434 282.281 123.541 282.264 123.649 282.26L123.379 282.34L122.519 282.55L119.219 283.34L107.289 286.09H107.109V285.91L105.369 278.18C105.059 276.8 104.739 275.38 104.369 273.94C104.209 273.22 104.039 272.48 103.879 271.75C103.799 271.38 103.709 271.01 103.629 270.63L103.499 270.07L103.439 269.79V269.65V269.53L103.599 269.27L119.999 265.69H120.179V265.86C121.239 270.79 122.179 274.86 122.759 277.86C123.049 279.26 123.279 280.38 123.449 281.18C123.519 281.54 123.569 281.82 123.619 282.05C123.659 282.119 123.689 282.193 123.709 282.27Z" fill="#263238"/>
<path d="M245.606 241.841L131.191 267.332L133.318 276.878L247.733 251.387L245.606 241.841Z" fill="#E0E0E0"/>
<path d="M130.05 310.72C130.05 310.72 130.05 310.6 129.96 310.4C129.87 310.2 129.83 309.87 129.74 309.51C129.55 308.7 129.28 307.58 128.95 306.17C128.28 303.28 127.34 299.17 126.22 294.35L126.44 294.49L110 298.17C110 298.23 110.3 297.7 110.16 297.93V298V298.07V298.21L110.22 298.49L110.35 299.05C110.43 299.43 110.51 299.8 110.6 300.17L111.08 302.36C111.4 303.81 111.72 305.22 112.02 306.6L113.73 314.34L113.51 314.21L125.37 311.66L128.73 310.96L129.63 310.78C129.736 310.768 129.843 310.768 129.95 310.78L129.68 310.86L128.82 311.07L125.52 311.86L113.59 314.61H113.41V314.43C112.88 312.05 112.29 309.43 111.67 306.7C111.36 305.32 111.04 303.91 110.67 302.46C110.51 301.74 110.34 301.01 110.18 300.27C110.1 299.9 110.01 299.53 109.93 299.16L109.81 298.6L109.74 298.32V298.17V298C109.6 298.22 109.93 297.69 109.9 297.75L126.31 294.12H126.49V294.3L129.07 306.3C129.36 307.7 129.59 308.82 129.76 309.63C129.83 309.98 129.89 310.26 129.93 310.49C129.98 310.561 130.021 310.638 130.05 310.72Z" fill="#263238"/>
<path d="M251.954 270.301L137.539 295.792L139.666 305.338L254.081 279.847L251.954 270.301Z" fill="#E0E0E0"/>
<path d="M101.609 247.94L103.329 245.23L108.439 248.07L115.019 238.15L117.559 239.91L109.079 252.41L101.609 247.94Z" fill="#F66E46"/>
<path d="M107.74 275.44L109.46 272.73L114.57 275.57L121.14 265.65L123.69 267.41L115.2 279.9L107.74 275.44Z" fill="#F66E46"/>
<path d="M114.029 303.63L115.749 300.93L120.849 303.77L127.429 293.85L129.969 295.6L121.489 308.1L114.029 303.63Z" fill="#F66E46"/>
<path d="M166.4 339C166.4 339.12 156.76 341.37 144.82 344C132.88 346.63 123.18 348.72 123.16 348.61C123.14 348.5 132.79 346.25 144.73 343.61C156.67 340.97 166.37 338.9 166.4 339Z" fill="#263238"/>
<path d="M187.94 333.86C185.33 334.664 182.68 335.332 180 335.86C177.361 336.516 174.691 337.04 172 337.43C174.607 336.628 177.254 335.961 179.93 335.43C184.32 334.46 187.92 333.75 187.94 333.86Z" fill="#263238"/>
<path d="M259.279 311.41C259.279 311.52 250.609 313.56 239.869 315.95C229.129 318.34 220.389 320.19 220.369 320.08C220.349 319.97 229.029 317.94 239.779 315.54C250.529 313.14 259.259 311.3 259.279 311.41Z" fill="#263238"/>
<path d="M249.999 337.73C249.999 337.73 250.089 337.46 250.189 336.94C250.322 336.171 250.281 335.382 250.069 334.63C249.714 333.441 249.252 332.286 248.689 331.18C247.892 329.712 247.424 328.087 247.319 326.42C247.343 325.394 247.581 324.384 248.019 323.456C248.456 322.528 249.083 321.701 249.859 321.03C250.769 320.275 251.857 319.765 253.019 319.55C254.181 319.335 255.38 319.421 256.499 319.8C257.729 320.174 258.825 320.892 259.659 321.87C260.104 322.397 260.366 323.052 260.409 323.74C260.421 324.11 260.313 324.473 260.103 324.778C259.892 325.082 259.589 325.31 259.239 325.43C258.585 325.642 257.917 325.805 257.239 325.92L255.239 326.33C253.899 326.6 252.539 326.84 251.139 327.02C248.428 327.411 245.675 327.428 242.959 327.07C241.732 326.806 240.451 327.013 239.369 327.65C238.51 328.516 237.782 329.503 237.209 330.58C236.861 331.11 236.378 331.538 235.809 331.82C235.231 332.075 234.578 332.104 233.979 331.9C232.951 331.442 231.972 330.879 231.059 330.22C230.636 329.938 230.154 329.757 229.649 329.69C229.178 329.638 228.703 329.755 228.309 330.02C227.618 330.653 227.045 331.405 226.619 332.24C226.164 332.956 225.543 333.552 224.808 333.977C224.074 334.402 223.247 334.643 222.399 334.68C221.117 334.731 219.864 334.287 218.899 333.44C218.294 332.916 217.818 332.259 217.509 331.52C217.401 331.267 217.324 331.002 217.279 330.73C217.279 330.73 217.369 331 217.589 331.49C217.914 332.197 218.396 332.82 218.999 333.31C219.94 334.106 221.149 334.514 222.379 334.45C223.188 334.409 223.975 334.171 224.672 333.758C225.368 333.345 225.954 332.769 226.379 332.08C226.819 331.206 227.416 330.419 228.139 329.76C228.595 329.444 229.147 329.298 229.699 329.35C230.247 329.431 230.771 329.626 231.239 329.92C232.137 330.555 233.095 331.101 234.099 331.55C234.613 331.723 235.173 331.698 235.669 331.48C236.178 331.227 236.605 330.836 236.899 330.35C237.494 329.245 238.249 328.234 239.139 327.35C239.693 326.955 240.342 326.713 241.019 326.65C241.684 326.579 242.355 326.579 243.019 326.65C245.706 326.998 248.427 326.981 251.109 326.6C252.489 326.42 253.839 326.17 255.179 325.91L257.179 325.51C257.821 325.391 258.456 325.234 259.079 325.04C259.353 324.953 259.591 324.779 259.757 324.544C259.924 324.31 260.008 324.027 259.999 323.74C259.954 323.141 259.723 322.572 259.339 322.11C258.55 321.171 257.509 320.477 256.339 320.11C255.279 319.75 254.144 319.666 253.042 319.865C251.94 320.064 250.906 320.541 250.039 321.25C249.294 321.884 248.69 322.667 248.267 323.549C247.843 324.431 247.609 325.392 247.579 326.37C247.669 328 248.106 329.592 248.859 331.04C249.413 332.162 249.858 333.334 250.189 334.54C250.385 335.313 250.402 336.12 250.239 336.9C250.192 337.185 250.112 337.464 249.999 337.73Z" fill="#263238"/>
<path d="M270.671 324.93C270.502 324.998 270.328 325.051 270.151 325.09L268.631 325.45L263.051 326.74C258.351 327.84 251.851 329.38 244.701 331.19C237.551 333 231.101 334.75 226.451 336.03L220.931 337.55L219.421 337.95C219.247 338.004 219.07 338.044 218.891 338.07C219.052 337.982 219.223 337.915 219.401 337.87L220.881 337.4C222.171 336.99 224.041 336.4 226.361 335.75C231.011 334.39 237.441 332.6 244.601 330.75C251.761 328.9 258.261 327.44 262.991 326.43C265.351 325.92 267.271 325.52 268.601 325.26L270.131 324.97C270.309 324.94 270.49 324.927 270.671 324.93Z" fill="#263238"/>
<path d="M188.648 105.507L110.982 122.811L114.233 137.403L191.899 120.1L188.648 105.507Z" fill="#E0E0E0"/>
<path d="M262.121 342.31L287.211 474.87L310.141 432.5L353.601 458.01L307.471 328.93L262.121 342.31Z" fill="#F66E46"/>
<g opacity="0.3">
<path d="M270.56 386.89C272.949 387.34 275.411 387.203 277.735 386.491C280.059 385.778 282.175 384.512 283.9 382.8C286.19 380.44 287.71 377.22 290.59 375.64C293.18 374.22 296.37 374.42 299.22 375.21C302.07 376 304.75 377.31 307.6 378.05C310.413 378.767 313.339 378.916 316.21 378.491C319.08 378.065 321.837 377.072 324.32 375.57L317.08 355.47L283.48 351.27L267.48 370.52L270.56 386.89Z" fill="black"/>
</g>
<path d="M308.51 427.24C308.37 427.24 304.63 413.5 300.16 396.49C295.69 379.48 292.16 365.64 292.32 365.61C292.48 365.58 296.19 379.33 300.66 396.36C305.13 413.39 308.65 427.2 308.51 427.24Z" fill="#263238"/>
<path d="M265.791 349.2L240.701 481.76L217.771 439.4L174.311 464.9L220.441 335.82L265.791 349.2Z" fill="#F66E46"/>
<g opacity="0.3">
<path d="M206.641 374.43C206.641 374.43 213.781 380.3 222.291 377.6C230.801 374.9 236.091 374.32 240.701 377.6C245.311 380.88 257.781 391.55 257.781 391.55L260.671 376.26L243.921 353.26L226.441 356.79L214.001 358L209.371 366.77L206.641 374.43Z" fill="black"/>
</g>
<path d="M412.9 229.54C412.9 239.05 400.75 247.24 398.97 256.23C397.14 265.49 405.2 277.7 401.67 286.23C398.14 294.76 383.67 297.82 378.54 305.53C373.41 313.24 376.11 327.68 369.54 334.26C362.97 340.84 348.54 338.07 340.81 343.26C333.08 348.45 330.18 362.79 321.51 366.39C312.99 369.92 300.78 361.86 291.51 363.69C282.51 365.47 274.33 377.62 264.82 377.62C255.31 377.62 247.11 365.47 238.12 363.69C228.86 361.86 216.65 369.92 208.12 366.39C199.59 362.86 196.54 348.39 188.83 343.26C181.12 338.13 166.68 340.83 160.09 334.26C153.5 327.69 156.28 313.26 151.09 305.53C145.9 297.8 131.56 294.9 127.97 286.23C124.38 277.56 132.5 265.5 130.67 256.23C128.89 247.23 116.73 239.05 116.73 229.54C116.73 220.03 128.89 211.83 130.67 202.84C132.5 193.58 124.43 181.37 127.97 172.84C131.51 164.31 145.97 161.25 151.09 153.55C156.21 145.85 153.52 131.4 160.09 124.81C166.66 118.22 181.09 121 188.83 115.81C196.57 110.62 199.45 96.2801 208.12 92.6901C216.79 89.1001 228.85 97.2201 238.12 95.3901C247.12 93.6101 255.31 81.4501 264.82 81.4501C274.33 81.4501 282.52 93.6101 291.51 95.3901C300.77 97.2201 312.98 89.1501 321.51 92.6901C330.18 96.2801 333.1 110.69 340.81 115.81C348.52 120.93 362.96 118.24 369.54 124.81C376.12 131.38 373.35 145.81 378.54 153.55C383.73 161.29 398.07 164.17 401.67 172.84C405.27 181.51 397.14 193.57 398.97 202.84C400.75 211.83 412.9 220 412.9 229.54Z" fill="#F66E46"/>
<path d="M230.171 146.53C230.171 146.53 230.061 146.4 229.901 146.12C229.741 145.84 229.491 145.39 229.221 144.9C228.631 143.84 227.821 142.28 226.861 140.34C224.931 136.46 222.431 131 220.021 124.84C217.611 118.68 215.761 112.96 214.551 108.84C213.951 106.75 213.491 105.06 213.201 103.84C213.071 103.3 212.961 102.84 212.881 102.48C212.829 102.325 212.802 102.163 212.801 102C212.878 102.146 212.939 102.3 212.981 102.46L213.391 103.79C213.781 105.02 214.291 106.68 214.901 108.69C216.201 112.82 218.111 118.49 220.501 124.69C222.891 130.89 225.351 136.3 227.191 140.22L229.401 144.85L229.991 146.11C230.063 146.244 230.124 146.385 230.171 146.53Z" fill="#263238"/>
<path d="M243.35 141.52C243.175 141.171 243.044 140.801 242.96 140.42C242.75 139.7 242.47 138.65 242.14 137.35C241.48 134.76 240.66 131.14 239.92 127.12C239.18 123.1 238.66 119.43 238.36 116.77C238.2 115.44 238.1 114.36 238.04 113.61C237.994 113.225 237.994 112.835 238.04 112.45C238.155 112.821 238.232 113.203 238.27 113.59L238.75 116.72C239.15 119.37 239.75 123.02 240.46 127.03C241.17 131.04 241.96 134.66 242.52 137.27C242.79 138.49 243.01 139.53 243.19 140.37C243.282 140.747 243.335 141.132 243.35 141.52Z" fill="#263238"/>
<path d="M266.601 139.21C266.451 139.21 266.081 127.99 265.771 114.16C265.461 100.33 265.321 89.1 265.461 89.09C265.601 89.08 265.981 100.3 266.291 114.15C266.601 128 266.741 139.21 266.601 139.21Z" fill="#263238"/>
<path d="M290 116.16C290.14 116.16 288.52 121.81 286.39 128.69C284.26 135.57 282.39 141.1 282.29 141.06C282.19 141.02 283.77 135.41 285.9 128.53C288.03 121.65 289.85 116.12 290 116.16Z" fill="#263238"/>
<path d="M299.541 145.15C299.561 144.985 299.604 144.823 299.671 144.67L300.121 143.35C300.521 142.21 301.121 140.57 301.921 138.55C303.491 134.55 305.731 128.96 308.291 122.86C310.851 116.76 313.231 111.27 314.981 107.31C315.841 105.39 316.551 103.81 317.091 102.63L317.681 101.37C317.831 101.09 317.911 100.94 317.931 100.95C317.894 101.107 317.844 101.261 317.781 101.41L317.271 102.71L315.321 107.46C313.611 111.52 311.321 117 308.771 123.07C306.221 129.14 303.961 134.62 302.261 138.69L300.311 143.43L299.761 144.71C299.706 144.865 299.632 145.013 299.541 145.15Z" fill="#263238"/>
<path d="M312 151.67C312.152 151.316 312.343 150.981 312.57 150.67C312.97 150.03 313.57 149.12 314.31 148.01C315.81 145.8 317.97 142.78 320.48 139.56C322.99 136.34 325.4 133.56 327.18 131.56C328.07 130.56 328.81 129.77 329.33 129.23C329.58 128.93 329.866 128.662 330.18 128.43C329.987 128.771 329.751 129.087 329.48 129.37C328.94 130.03 328.26 130.84 327.48 131.8C325.77 133.86 323.42 136.71 320.91 139.93C318.4 143.15 316.21 146.12 314.63 148.28L312.76 150.83C312.537 151.136 312.282 151.417 312 151.67Z" fill="#263238"/>
<path d="M330.22 166.57C330.12 166.47 338.04 158.95 347.89 149.78C357.74 140.61 365.82 133.26 365.89 133.36C365.96 133.46 358.08 140.99 348.22 150.16C338.36 159.33 330.32 166.68 330.22 166.57Z" fill="#263238"/>
<path d="M362 169.68C361.036 170.29 360.034 170.838 359 171.32C357.12 172.32 354.57 173.71 351.75 175.32C348.93 176.93 346.33 178.27 344.4 179.17C343.4 179.62 342.66 179.97 342.1 180.17C341.827 180.313 341.534 180.414 341.23 180.47C342.195 179.86 343.197 179.312 344.23 178.83C346.11 177.83 348.66 176.44 351.48 174.83C354.3 173.22 356.9 171.83 358.83 170.98C359.83 170.53 360.57 170.18 361.13 169.98C361.402 169.833 361.696 169.732 362 169.68Z" fill="#263238"/>
<path d="M391.39 181.87C391.44 182.01 382.02 185.45 370.39 189.56C358.76 193.67 349.23 196.88 349.19 196.75C349.15 196.62 358.55 193.17 370.19 189.06C381.83 184.95 391.34 181.74 391.39 181.87Z" fill="#263238"/>
<path d="M400.75 235.34C400.75 235.48 390.5 234.63 377.89 233.43C365.28 232.23 355.06 231.14 355.08 230.99C355.1 230.84 365.32 231.71 377.94 232.91C390.56 234.11 400.76 235.2 400.75 235.34Z" fill="#263238"/>
<path d="M393.221 283.3C393.161 283.43 383.591 279.03 371.851 273.49C360.111 267.95 350.641 263.34 350.701 263.21C350.761 263.08 360.331 267.47 372.071 273.02C383.811 278.57 393.281 283.17 393.221 283.3Z" fill="#263238"/>
<path d="M361.74 328.93C361.63 329.02 354.74 321.01 346.33 311.05C337.92 301.09 331.2 292.92 331.33 292.83C331.46 292.74 338.33 300.74 346.74 310.71C355.15 320.68 361.85 328.83 361.74 328.93Z" fill="#263238"/>
<path d="M335.46 335C335.149 334.653 334.871 334.278 334.63 333.88C334.12 333.14 333.4 332.05 332.54 330.7C330.8 327.99 328.47 324.2 326.01 319.95C323.55 315.7 321.45 311.78 320.01 308.95C319.28 307.52 318.69 306.36 318.31 305.55C318.084 305.138 317.897 304.706 317.75 304.26C318.033 304.633 318.28 305.032 318.49 305.45C318.97 306.33 319.59 307.45 320.34 308.78C321.89 311.59 324.05 315.47 326.5 319.72C328.95 323.97 331.23 327.78 332.89 330.53C333.67 331.85 334.33 332.94 334.84 333.8C335.09 334.176 335.298 334.578 335.46 335Z" fill="#263238"/>
<path d="M319.141 357.9C319.141 357.9 319.041 357.77 318.881 357.49L318.231 356.27C317.661 355.2 316.891 353.64 315.971 351.7C314.131 347.81 311.761 342.35 309.511 336.17C307.261 329.99 305.561 324.29 304.511 320.17C303.961 318.09 303.511 316.39 303.291 315.22C303.181 314.68 303.091 314.22 303.011 313.86C302.972 313.703 302.948 313.542 302.941 313.38C303.023 313.523 303.081 313.678 303.111 313.84L303.491 315.17C303.841 316.41 304.301 318.06 304.861 320.07C306.041 324.2 307.791 329.88 310.041 336.07C312.291 342.26 314.591 347.69 316.351 351.62L318.451 356.25C318.671 356.75 318.861 357.17 319.021 357.51C319.078 357.634 319.118 357.765 319.141 357.9Z" fill="#263238"/>
<path d="M286.081 341.81C285.864 340.66 285.721 339.498 285.651 338.33C285.421 336.18 285.051 333.21 284.511 329.96C283.971 326.71 283.341 323.79 282.861 321.68C282.546 320.55 282.306 319.401 282.141 318.24C282.29 318.518 282.404 318.814 282.481 319.12C282.681 319.7 282.931 320.54 283.221 321.59C283.791 323.68 284.471 326.59 285.021 329.88C285.499 332.668 285.833 335.478 286.021 338.3C286.091 339.38 286.131 340.3 286.131 340.87C286.156 341.184 286.14 341.5 286.081 341.81Z" fill="#263238"/>
<path d="M264.451 370.6C264.428 370.431 264.428 370.259 264.451 370.09C264.451 369.69 264.451 369.2 264.451 368.62C264.451 367.34 264.451 365.49 264.451 363.21C264.531 358.64 264.741 352.34 265.101 345.39C265.461 338.44 265.911 332.14 266.281 327.59C266.461 325.31 266.631 323.47 266.761 322.2C266.831 321.62 266.881 321.13 266.921 320.74C266.933 320.566 266.966 320.395 267.021 320.23C267.044 320.403 267.044 320.577 267.021 320.75C267.021 321.14 267.021 321.63 266.951 322.22C266.871 323.57 266.771 325.39 266.641 327.61C266.371 332.24 266.011 338.5 265.641 345.41C265.271 352.32 265.011 358.66 264.841 363.22C264.761 365.44 264.691 367.22 264.641 368.62C264.641 369.21 264.581 369.69 264.561 370.09C264.55 370.264 264.513 370.436 264.451 370.6Z" fill="#263238"/>
<path d="M246.871 320.23C246.864 321.092 246.763 321.95 246.571 322.79C246.311 324.35 245.891 326.5 245.341 328.85C244.791 331.2 244.211 333.32 243.751 334.85C243.551 335.686 243.26 336.498 242.881 337.27C242.97 336.416 243.141 335.572 243.391 334.75L244.831 328.75C245.351 326.5 245.831 324.46 246.211 322.75C246.35 321.891 246.571 321.047 246.871 320.23Z" fill="#263238"/>
<path d="M215.08 305C213.77 307.166 212.31 309.238 210.71 311.2C209.242 313.265 207.642 315.232 205.92 317.09C207.227 314.922 208.688 312.85 210.29 310.89C211.751 308.82 213.351 306.852 215.08 305Z" fill="#263238"/>
<path d="M198.411 293.76C198.511 293.85 192.311 301.14 184.551 310.03C176.791 318.92 170.401 326.03 170.291 325.96C170.181 325.89 176.391 318.58 184.151 309.69C191.911 300.8 198.301 293.66 198.411 293.76Z" fill="#263238"/>
<path d="M190.06 281.35C187.607 283.715 185.034 285.952 182.35 288.05C178 291.63 174.4 294.45 174.35 294.34C176.804 291.98 179.377 289.747 182.06 287.65C184.619 285.417 187.289 283.315 190.06 281.35Z" fill="#263238"/>
<path d="M180.301 262.64C180.361 262.77 171.721 267.07 160.991 272.23C150.261 277.39 141.531 281.48 141.461 281.35C141.391 281.22 150.041 276.93 160.771 271.76C171.501 266.59 180.241 262.51 180.301 262.64Z" fill="#263238"/>
<path d="M176.38 253.31C176.093 253.436 175.79 253.524 175.48 253.57C174.89 253.71 174.04 253.89 172.99 254.08C170.88 254.48 167.94 254.92 164.68 255.25C161.42 255.58 158.45 255.72 156.3 255.75C155.23 255.75 154.36 255.75 153.76 255.75C153.447 255.77 153.133 255.74 152.83 255.66C153.977 255.503 155.132 255.412 156.29 255.39C158.43 255.26 161.38 255.06 164.63 254.73C167.88 254.4 170.81 254.02 172.93 253.73C174.069 253.509 175.222 253.368 176.38 253.31Z" fill="#263238"/>
<path d="M173.211 231.76C172.628 231.808 172.043 231.808 171.461 231.76L166.701 231.52C162.701 231.32 157.141 231.14 151.011 231.17C144.881 231.2 139.321 231.45 135.311 231.69L130.561 231.98C129.98 232.046 129.395 232.067 128.811 232.04C129.379 231.904 129.957 231.817 130.541 231.78C131.661 231.65 133.281 231.49 135.281 231.32C139.281 230.99 144.861 230.69 151.001 230.65C157.141 230.61 162.711 230.86 166.731 231.15C168.731 231.3 170.361 231.44 171.481 231.56C172.061 231.586 172.639 231.653 173.211 231.76Z" fill="#263238"/>
<path d="M175.171 212.84C175.171 212.98 168.661 211.29 160.711 209.07C152.761 206.85 146.351 204.95 146.391 204.81C146.431 204.67 152.901 206.35 160.851 208.57C168.801 210.79 175.211 212.7 175.171 212.84Z" fill="#263238"/>
<path d="M179.361 197C179.2 196.991 179.042 196.957 178.891 196.9L177.561 196.5C176.421 196.14 174.771 195.58 172.761 194.85C167.509 192.922 162.362 190.718 157.341 188.25C152.322 185.779 147.438 183.042 142.711 180.05C140.901 178.9 139.451 177.94 138.471 177.25L137.351 176.44C137.101 176.25 136.971 176.15 136.981 176.13C137.132 176.191 137.276 176.268 137.411 176.36L138.591 177.08C139.591 177.72 141.071 178.63 142.901 179.74C146.571 181.96 151.711 184.89 157.571 187.74C163.431 190.59 168.891 192.91 172.891 194.47C174.891 195.24 176.501 195.85 177.631 196.27L178.921 196.76C179.074 196.828 179.221 196.908 179.361 197Z" fill="#263238"/>
<path d="M188.77 181C188.69 181.11 183.63 177.69 177.47 173.35C171.31 169.01 166.38 165.4 166.47 165.28C166.56 165.16 171.61 168.59 177.78 172.93C183.95 177.27 188.85 180.91 188.77 181Z" fill="#263238"/>
<path d="M168.881 132.42C168.881 132.42 169.021 132.5 169.261 132.69L170.261 133.57L173.951 136.83L186.061 147.64L198.221 158.39L201.901 161.66L202.901 162.57C203.022 162.669 203.129 162.784 203.221 162.91C203.221 162.91 203.081 162.84 202.831 162.65L201.831 161.82C200.921 161.09 199.631 160.01 198.041 158.67C194.861 155.99 190.521 152.24 185.771 148.03C181.021 143.82 176.771 139.94 173.771 137.1C172.251 135.68 171.031 134.53 170.191 133.71L169.241 132.77C169.001 132.55 168.861 132.43 168.881 132.42Z" fill="#263238"/>
<path d="M200.07 133.33C200.07 133.33 200.34 133.55 200.75 134.02C201.16 134.49 201.75 135.18 202.44 136.02C203.83 137.76 205.68 140.22 207.6 143.02C209.52 145.82 211.13 148.44 212.24 150.37C212.8 151.37 213.24 152.12 213.52 152.67C213.693 152.944 213.828 153.24 213.92 153.55C213.187 152.596 212.519 151.594 211.92 150.55C210.73 148.67 209.07 146.1 207.16 143.3C205.25 140.5 203.45 138.03 202.16 136.24C201.406 135.312 200.709 134.341 200.07 133.33Z" fill="#263238"/>
<g opacity="0.2">
<path d="M160.1 124.82L203.61 162.91L214.42 154.26L189.18 115.58C189.18 115.58 187.24 117 182.18 118.44C177.35 119.83 163 120.2 160.1 124.82Z" fill="black"/>
</g>
<g opacity="0.2">
<path d="M208.531 92.6001L229.771 145.77L243.351 141.52L238.821 95.4001C238.821 95.4001 236.491 95.9501 231.301 95.2901C226.271 94.6501 214.081 89.8801 208.531 92.6001Z" fill="black"/>
</g>
<g opacity="0.3">
<path d="M265.17 81.47L266.6 139.21L279.32 139.82L292.2 95.5C289.524 94.9686 286.979 93.9152 284.71 92.4C280.31 89.58 271.33 81 265.17 81.47Z" fill="black"/>
</g>
<g opacity="0.2">
<path d="M320.651 92.38L299.541 145.61L311.001 151.1L340.051 115.24C337.868 113.397 336.006 111.204 334.541 108.75C331.801 104.32 327.081 94.15 320.651 92.38Z" fill="black"/>
</g>
<g opacity="0.2">
<path d="M370.23 125.59L330.91 166.59L339.67 178.4L378.09 152.76C376.825 150.43 375.969 147.9 375.56 145.28C374.64 140.28 374.51 131.2 370.23 125.59Z" fill="black"/>
</g>
<g opacity="0.2">
<path d="M401.27 171.85L348.32 193.64L352.71 207.17L398.78 202.17C398.78 202.17 398.49 200.75 399.1 195.56C399.68 190.53 405 179.29 401.27 171.85Z" fill="black"/>
</g>
<g opacity="0.2">
<path d="M413.001 229.54L355.271 231.54L354.791 244.27L398.791 257.15C399.083 255.317 399.671 253.544 400.531 251.9C403.811 245.78 413.001 237.14 413.001 229.54Z" fill="black"/>
</g>
<g opacity="0.2">
<path d="M402.35 284.12L349.2 263.41L343.83 275L380 303.63C381.902 301.809 384.005 300.212 386.27 298.87C390.67 296.06 401.13 291.51 402.35 284.12Z" fill="black"/>
</g>
<g opacity="0.2">
<path d="M324.18 283.3L311.02 294.3C312.02 295.3 329.55 325.14 340.36 343.56C340.5 343.439 340.647 343.325 340.8 343.22C347.91 338.46 360.57 340.37 367.71 335.66L324.18 283.3Z" fill="black"/>
<path d="M300.001 304.18L280.361 310.88L289.661 364.2C290.265 363.987 290.884 363.817 291.511 363.69C300.771 361.86 312.981 369.92 321.511 366.39C322.679 365.889 323.765 365.215 324.731 364.39L300.001 304.18Z" fill="black"/>
<path d="M264.141 377.6L267.271 307.94L250.271 303.63L237.641 363.63L238.101 363.71C246.901 365.42 254.911 377 264.141 377.6Z" fill="black"/>
<path d="M221.44 296.11C221.44 296.11 199 326.17 187.26 342.35C187.803 342.624 188.331 342.927 188.84 343.26C196.55 348.42 199.46 362.79 208.13 366.39C208.53 366.55 208.94 366.68 209.35 366.8L240.7 307.46L221.44 296.11Z" fill="black"/>
<path d="M198.411 271.91L150.551 304.8C150.731 305.04 150.931 305.27 151.091 305.52C156.291 313.28 153.521 327.67 160.091 334.25C160.697 334.846 161.368 335.372 162.091 335.82C179.001 316.76 209.361 282.54 210.461 281.35L198.411 271.91Z" fill="black"/>
<path d="M187.441 248.42L130.851 257.56C131.761 266.64 124.601 278.1 127.971 286.22C128.174 286.716 128.418 287.195 128.701 287.65C148.501 277.79 189.871 257.28 191.591 257.17L187.441 248.42Z" fill="black"/>
<path d="M184.35 216.9L130.86 201.47C130.81 201.93 130.75 202.39 130.67 202.84C128.89 211.84 116.73 220.03 116.73 229.54C116.733 230.173 116.787 230.805 116.89 231.43H182.18L184.35 216.9Z" fill="black"/>
<path d="M128.191 172.43C148.191 183.14 187.261 204.81 187.261 204.81L196.881 186.54L151.701 152.54C151.501 152.89 151.311 153.25 151.091 153.54C146.001 161.13 132.071 164.09 128.191 172.43Z" fill="black"/>
</g>
<path d="M412.901 229.54L412.841 228.9C412.817 228.273 412.73 227.65 412.581 227.04C411.999 224.642 410.982 222.371 409.581 220.34C407.861 217.58 405.26 214.49 402.581 210.58C401.067 208.5 399.905 206.186 399.141 203.73C398.49 200.863 398.49 197.887 399.141 195.02C399.701 191.97 400.611 188.83 401.401 185.5C402.191 182.17 402.931 178.57 402.191 174.89C401.772 173.027 400.919 171.29 399.701 169.82C398.394 168.323 396.902 166.999 395.261 165.88C391.941 163.52 388.121 161.64 384.471 159.18C382.582 157.963 380.867 156.496 379.371 154.82C377.902 153.001 376.835 150.891 376.241 148.63C374.961 144.08 374.671 139.22 373.701 134.36C373.277 131.885 372.442 129.499 371.231 127.3C369.915 125.086 367.919 123.357 365.541 122.37C363.085 121.383 360.515 120.711 357.891 120.37C355.241 119.93 352.521 119.62 349.801 119.14C347.014 118.738 344.312 117.884 341.801 116.61C339.311 115.113 337.202 113.06 335.641 110.61C333.981 108.23 332.551 105.67 331.031 103.14C329.575 100.551 327.83 98.136 325.831 95.9401C323.77 93.7186 320.959 92.3398 317.941 92.0701C314.857 91.956 311.774 92.3169 308.801 93.1401C305.801 93.8701 302.721 94.7601 299.571 95.3501C296.386 96.1005 293.065 96.0386 289.911 95.1701C286.836 93.9639 283.96 92.302 281.381 90.2401C278.711 88.2401 276.111 86.2401 273.261 84.4601C270.411 82.6801 267.181 81.3901 263.821 81.7701H263.191C262.981 81.7701 262.781 81.8601 262.581 81.9001C262.171 82.0001 261.751 82.0701 261.351 82.1901C260.545 82.4463 259.757 82.7536 258.991 83.1101C257.444 83.8457 255.959 84.7052 254.551 85.6801C251.711 87.6801 249.021 89.8601 246.101 91.8401C244.647 92.8578 243.108 93.7478 241.501 94.5001C239.853 95.2369 238.09 95.6802 236.291 95.8101C232.682 95.8332 229.09 95.3244 225.631 94.3001C222.147 93.3055 218.594 92.5734 215.001 92.1101C213.206 91.9335 211.395 92.0552 209.641 92.4701C207.893 92.956 206.281 93.8389 204.931 95.0501C202.171 97.4601 200.251 100.7 198.331 103.88C196.518 107.21 194.399 110.364 192.001 113.3C190.731 114.755 189.206 115.965 187.501 116.87C185.76 117.693 183.931 118.317 182.051 118.73C178.291 119.56 174.451 119.91 170.661 120.59C166.871 121.27 163.001 122.34 160.261 125C158.938 126.409 157.917 128.073 157.261 129.89C156.598 131.723 156.113 133.615 155.811 135.54C155.111 139.4 154.811 143.36 153.811 147.25C153.381 149.224 152.663 151.125 151.681 152.89C150.645 154.639 149.288 156.176 147.681 157.42C144.521 159.96 140.931 161.84 137.491 163.94C135.767 164.977 134.114 166.126 132.541 167.38C130.976 168.631 129.66 170.164 128.661 171.9C127.708 173.668 127.226 175.652 127.261 177.66C127.296 179.679 127.534 181.689 127.971 183.66C128.811 187.66 130.081 191.59 130.761 195.66C131.164 197.749 131.245 199.887 131.001 202C130.717 204.108 130.038 206.143 129.001 208C126.911 211.65 124.191 214.86 121.781 218.26C120.543 219.936 119.465 221.723 118.561 223.6C117.57 225.43 117.051 227.479 117.051 229.56C117.051 231.641 117.57 233.69 118.561 235.52C119.463 237.397 120.541 239.185 121.781 240.86C124.191 244.26 126.911 247.47 129.001 251.12C130.019 252.942 130.697 254.935 131.001 257C131.255 259.085 131.187 261.196 130.801 263.26C130.131 267.37 128.861 271.31 128.011 275.31C127.577 277.282 127.34 279.292 127.301 281.31C127.261 283.321 127.74 285.308 128.691 287.08C129.682 288.822 130.995 290.359 132.561 291.61C134.134 292.864 135.787 294.013 137.511 295.05C140.951 297.15 144.511 299.05 147.711 301.57C149.315 302.817 150.672 304.353 151.711 306.1C152.7 307.859 153.419 309.757 153.841 311.73C154.781 315.63 155.101 319.59 155.841 323.45C156.151 325.375 156.64 327.266 157.301 329.1C157.942 330.916 158.945 332.584 160.251 334C163.021 336.69 166.921 337.76 170.661 338.44C174.401 339.12 178.291 339.44 182.051 340.3C183.934 340.715 185.766 341.339 187.511 342.16C189.214 343.069 190.738 344.278 192.011 345.73C194.385 348.671 196.484 351.825 198.281 355.15C200.201 358.33 202.121 361.57 204.881 363.98C206.229 365.189 207.837 366.072 209.581 366.56C211.35 367.007 213.182 367.156 215.001 367C218.587 366.518 222.133 365.772 225.611 364.77C229.072 363.738 232.668 363.225 236.281 363.25C238.08 363.386 239.843 363.832 241.491 364.57C243.097 365.325 244.635 366.215 246.091 367.23C249.011 369.23 251.691 371.44 254.541 373.38C255.943 374.362 257.425 375.225 258.971 375.96C259.738 376.315 260.526 376.622 261.331 376.88C261.741 376.99 262.151 377.07 262.561 377.17L263.181 377.3H263.801C267.171 377.68 270.411 376.3 273.251 374.61C276.091 372.92 278.701 370.79 281.361 368.83C283.944 366.768 286.823 365.106 289.901 363.9C293.055 363.037 296.376 362.975 299.561 363.72C302.711 364.32 305.751 365.21 308.791 365.94C311.77 366.754 314.854 367.115 317.941 367.01C320.955 366.73 323.76 365.348 325.821 363.13C327.814 360.926 329.558 358.508 331.021 355.92C332.531 353.4 333.961 350.84 335.621 348.45C337.191 346.004 339.302 343.952 341.791 342.45C344.3 341.175 347.003 340.324 349.791 339.93C352.521 339.44 355.231 339.13 357.881 338.7C360.507 338.342 363.077 337.654 365.531 336.65C367.907 335.66 369.902 333.931 371.221 331.72C372.424 329.519 373.256 327.133 373.681 324.66C374.681 319.8 374.941 314.93 376.231 310.38C376.819 308.119 377.886 306.012 379.361 304.2C380.852 302.519 382.568 301.052 384.461 299.84C388.111 297.38 391.931 295.5 395.241 293.14C396.89 292.023 398.386 290.695 399.691 289.19C400.907 287.724 401.757 285.99 402.171 284.13C402.519 282.334 402.57 280.493 402.321 278.68C402.114 276.942 401.8 275.219 401.381 273.52C400.581 270.19 399.681 267.05 399.121 264C398.47 261.133 398.47 258.157 399.121 255.29C399.889 252.836 401.051 250.522 402.561 248.44C405.271 244.53 407.881 241.44 409.561 238.68C410.963 236.65 411.98 234.379 412.561 231.98C412.71 231.371 412.797 230.747 412.821 230.12L412.881 229.49C412.881 229.49 412.881 229.7 412.881 230.12C412.861 230.75 412.781 231.376 412.641 231.99C412.071 234.408 411.054 236.697 409.641 238.74C407.931 241.52 405.341 244.62 402.641 248.53C401.14 250.596 399.995 252.898 399.251 255.34C398.6 258.177 398.6 261.124 399.251 263.96C399.811 266.96 400.721 270.13 401.531 273.46C401.966 275.172 402.3 276.909 402.531 278.66C402.78 280.496 402.729 282.36 402.381 284.18C401.963 286.082 401.099 287.858 399.861 289.36C398.543 290.882 397.034 292.226 395.371 293.36C392.031 295.74 388.221 297.63 384.591 300.08C382.737 301.285 381.055 302.734 379.591 304.39C378.146 306.174 377.103 308.247 376.531 310.47C375.261 314.97 374.981 319.83 374.001 324.72C373.578 327.233 372.736 329.656 371.511 331.89C370.16 334.166 368.112 335.947 365.671 336.97C363.192 337.988 360.595 338.687 357.941 339.05C355.281 339.49 352.561 339.8 349.851 340.29C347.099 340.683 344.43 341.524 341.951 342.78C339.531 344.248 337.479 346.249 335.951 348.63C334.311 351 332.881 353.55 331.361 356.09C329.889 358.704 328.132 361.145 326.121 363.37C323.994 365.663 321.095 367.088 317.981 367.37C314.851 367.493 311.72 367.132 308.701 366.3C305.651 365.57 302.611 364.69 299.491 364.1C296.375 363.371 293.128 363.429 290.041 364.27C287.01 365.465 284.175 367.106 281.631 369.14C278.981 371.09 276.371 373.19 273.491 374.95C272.741 375.35 272.031 375.82 271.251 376.15C270.861 376.33 270.481 376.52 270.091 376.68L268.881 377.11C267.24 377.673 265.497 377.878 263.771 377.71L263.121 377.66C262.911 377.66 262.701 377.57 262.481 377.53C262.061 377.43 261.631 377.35 261.221 377.23C260.39 376.973 259.578 376.659 258.791 376.29C257.221 375.546 255.716 374.673 254.291 373.68C251.421 371.68 248.731 369.5 245.841 367.53C244.405 366.534 242.89 365.658 241.311 364.91C239.713 364.199 238.004 363.77 236.261 363.64C232.695 363.624 229.147 364.133 225.731 365.15C222.217 366.184 218.63 366.949 215.001 367.44C213.146 367.621 211.274 367.496 209.461 367.07C207.644 366.564 205.967 365.647 204.561 364.39C201.721 361.9 199.781 358.63 197.861 355.44C196.081 352.141 193.999 349.014 191.641 346.1C190.412 344.692 188.934 343.522 187.281 342.65C185.576 341.84 183.785 341.23 181.941 340.83C178.221 340.01 174.391 339.66 170.571 338.97C168.646 338.65 166.755 338.155 164.921 337.49C163.06 336.808 161.359 335.753 159.921 334.39C158.556 332.932 157.51 331.205 156.851 329.32C156.175 327.458 155.677 325.536 155.361 323.58C154.661 319.69 154.361 315.73 153.361 311.89C152.945 309.966 152.244 308.116 151.281 306.4C150.268 304.704 148.945 303.215 147.381 302.01C144.281 299.52 140.701 297.64 137.251 295.53C135.51 294.48 133.84 293.318 132.251 292.05C130.633 290.753 129.276 289.162 128.251 287.36C127.263 285.517 126.767 283.451 126.811 281.36C126.834 279.29 127.076 277.229 127.531 275.21C128.381 271.21 129.651 267.21 130.311 263.21C130.688 261.195 130.752 259.134 130.501 257.1C130.198 255.079 129.519 253.132 128.501 251.36C126.501 247.76 123.741 244.57 121.311 241.14C120.044 239.431 118.936 237.61 118.001 235.7C116.983 233.799 116.451 231.676 116.451 229.52C116.451 227.364 116.983 225.241 118.001 223.34C118.923 221.436 120.022 219.621 121.281 217.92C123.711 214.49 126.421 211.3 128.461 207.71C129.478 205.934 130.157 203.984 130.461 201.96C130.694 199.925 130.626 197.866 130.261 195.85C129.591 191.85 128.321 187.85 127.471 183.85C127.024 181.833 126.786 179.776 126.761 177.71C126.721 175.619 127.22 173.552 128.211 171.71C129.242 169.916 130.599 168.329 132.211 167.03C133.797 165.759 135.468 164.597 137.211 163.55C140.661 161.44 144.211 159.55 147.341 157.07C148.902 155.865 150.222 154.375 151.231 152.68C152.189 150.96 152.887 149.106 153.301 147.18C154.231 143.34 154.551 139.39 155.301 135.5C155.613 133.545 156.109 131.623 156.781 129.76C157.384 127.853 158.433 126.118 159.842 124.699C161.251 123.28 162.978 122.217 164.881 121.6C166.715 120.936 168.606 120.44 170.531 120.12C174.351 119.43 178.181 119.12 181.901 118.27C183.741 117.858 185.532 117.248 187.241 116.45C188.889 115.571 190.363 114.398 191.591 112.99C193.949 110.076 196.031 106.95 197.811 103.65C199.731 100.46 201.671 97.1901 204.521 94.7101C205.934 93.4349 207.626 92.507 209.461 92.0001C211.275 91.5782 213.146 91.4533 215.001 91.6301C218.608 92.1124 222.174 92.8611 225.671 93.8701C229.086 94.8955 232.635 95.4077 236.201 95.3901C237.928 95.2523 239.619 94.8194 241.201 94.1101C242.785 93.3721 244.301 92.4953 245.731 91.4901C248.631 89.4901 251.321 87.3001 254.191 85.3501C255.614 84.354 257.119 83.4808 258.691 82.7401C259.477 82.3736 260.285 82.0563 261.111 81.7901C261.531 81.6701 261.961 81.6001 262.381 81.5001L263.011 81.3601H263.661C265.387 81.197 267.129 81.4015 268.771 81.9601L269.981 82.3901C270.371 82.5501 270.751 82.7401 271.141 82.9201C271.931 83.2601 272.641 83.7201 273.381 84.1201C276.271 85.8801 278.871 87.9801 281.531 89.9301C284.073 91.962 286.904 93.6034 289.931 94.8001C293.017 95.6458 296.266 95.7043 299.381 94.9701C302.501 94.3901 305.541 93.5101 308.591 92.7801C311.611 91.9495 314.74 91.5853 317.871 91.7001C320.984 91.9861 323.882 93.4103 326.011 95.7001C328.024 97.9287 329.785 100.374 331.261 102.99C332.781 105.52 334.201 108.08 335.841 110.44C337.366 112.826 339.419 114.831 341.841 116.3C344.318 117.56 346.988 118.402 349.741 118.79C352.451 119.28 355.171 119.59 357.831 120.03C360.484 120.398 363.081 121.097 365.561 122.11C368.002 123.132 370.052 124.909 371.411 127.18C372.632 129.416 373.473 131.839 373.901 134.35C374.901 139.24 375.161 144.1 376.421 148.6C376.999 150.82 378.042 152.892 379.481 154.68C380.942 156.342 382.624 157.795 384.481 159C388.111 161.45 391.931 163.34 395.261 165.72C396.924 166.854 398.433 168.198 399.751 169.72C400.99 171.219 401.857 172.991 402.281 174.89C402.629 176.713 402.68 178.581 402.431 180.42C402.201 182.168 401.867 183.902 401.431 185.61C400.631 188.95 399.711 192.08 399.151 195.12C398.5 197.957 398.5 200.904 399.151 203.74C399.895 206.183 401.04 208.484 402.541 210.55C405.231 214.47 407.821 217.55 409.541 220.34C410.951 222.384 411.968 224.673 412.541 227.09C412.681 227.704 412.761 228.33 412.781 228.96C412.901 229.32 412.901 229.54 412.901 229.54Z" fill="#263238"/>
<path d="M237 367C237.14 367 233.45 382 228.76 400.42C224.07 418.84 220.15 433.75 220.01 433.72C219.87 433.69 223.56 418.72 228.25 400.29C232.94 381.86 236.9 366.92 237 367Z" fill="#263238"/>
<path d="M264.821 320.32C314.957 320.32 355.601 279.676 355.601 229.54C355.601 179.404 314.957 138.76 264.821 138.76C214.685 138.76 174.041 179.404 174.041 229.54C174.041 279.676 214.685 320.32 264.821 320.32Z" fill="white"/>
<path d="M208.921 198.08C207.671 199.33 200.791 211.85 200.161 222.18C199.531 232.51 201.021 290.49 201.021 290.49L201.291 294.34C217.631 313.45 277.031 341.89 330.531 294.24L333.531 258.57L324.701 183.06L294.001 175.55L286.811 163.9L238.891 175.12L234.611 185.22L208.921 198.08Z" fill="#455A64"/>
<path d="M283.521 133.54C285.631 125.69 287.701 117.79 288.431 109.7C289.161 101.61 288.491 93.25 285.271 85.79C284.781 84.66 280.731 77.11 279.511 77.3C278.641 77.43 281.261 84.53 280.861 85.3C277.011 92.77 276.311 101.54 277.421 109.87C278.566 117.959 280.612 125.895 283.521 133.53" fill="#263238"/>
<path d="M282.721 102.54C282.341 82.17 270.161 65.42 249.811 66.37L247.931 66.57C238.829 67.5296 230.422 71.8801 224.381 78.7562C218.341 85.6323 215.11 94.5302 215.331 103.68C215.771 121.33 216.471 140.83 217.581 150.21C219.871 169.62 239.581 170.6 239.581 170.6L240.491 183.37L248.841 192.44L287.551 168.44L282.721 102.54Z" fill="#FFBF9D"/>
<path d="M239.631 170.75C239.631 170.75 251.961 170.18 264.151 160.6C264.151 160.6 260.071 178.21 240.491 178.5L239.631 170.75Z" fill="#FF9A6C"/>
<path d="M226.521 119.51C226.59 120.24 226.943 120.914 227.505 121.385C228.066 121.857 228.79 122.088 229.521 122.03C229.877 122.021 230.228 121.941 230.552 121.795C230.877 121.648 231.169 121.439 231.411 121.178C231.653 120.917 231.841 120.61 231.963 120.276C232.085 119.941 232.139 119.586 232.121 119.23C232.05 118.501 231.696 117.829 231.135 117.358C230.575 116.887 229.852 116.654 229.121 116.71C228.765 116.718 228.414 116.797 228.089 116.943C227.763 117.088 227.471 117.298 227.228 117.559C226.986 117.821 226.798 118.128 226.677 118.463C226.555 118.798 226.502 119.154 226.521 119.51Z" fill="#263238"/>
<path d="M220.34 111.31C220.72 111.63 222.66 109.86 225.65 109.55C228.64 109.24 230.98 110.55 231.27 110.1C231.41 109.93 230.99 109.31 229.96 108.71C228.574 107.954 226.989 107.644 225.42 107.82C223.867 107.98 222.404 108.628 221.24 109.67C220.39 110.48 220.15 111.16 220.34 111.31Z" fill="#263238"/>
<path d="M252.911 117.27C252.98 118 253.333 118.674 253.895 119.145C254.456 119.617 255.181 119.848 255.911 119.79C256.267 119.781 256.618 119.701 256.942 119.555C257.267 119.408 257.559 119.198 257.801 118.938C258.043 118.677 258.231 118.37 258.353 118.036C258.475 117.701 258.529 117.346 258.511 116.99C258.443 116.259 258.09 115.585 257.529 115.111C256.968 114.638 256.243 114.404 255.511 114.46C255.155 114.47 254.804 114.551 254.48 114.699C254.155 114.846 253.863 115.057 253.621 115.319C253.379 115.58 253.191 115.888 253.07 116.223C252.948 116.558 252.894 116.914 252.911 117.27Z" fill="#263238"/>
<path d="M249.73 109.43C250.11 109.76 252.06 107.98 255.04 107.67C258.02 107.36 260.38 108.67 260.66 108.23C260.8 108.05 260.39 107.43 259.36 106.84C257.972 106.08 256.382 105.77 254.81 105.95C253.255 106.103 251.789 106.752 250.63 107.8C249.79 108.6 249.55 109.29 249.73 109.43Z" fill="#263238"/>
<path d="M241.43 133.52C241.43 133.35 239.54 133.22 236.49 133.15C235.72 133.15 234.98 133.08 234.8 132.57C234.649 131.791 234.743 130.984 235.07 130.26L236.71 124.26C238.97 115.66 240.52 108.62 240.18 108.53C239.84 108.44 237.71 115.34 235.45 123.95L233.91 130C233.534 130.96 233.505 132.021 233.83 133C233.967 133.261 234.161 133.486 234.399 133.66C234.636 133.833 234.91 133.949 235.2 134C235.635 134.053 236.075 134.053 236.51 134C239.56 133.87 241.44 133.69 241.43 133.52Z" fill="#263238"/>
<path d="M250.44 134.66C249.95 134.66 250.29 137.92 247.76 140.52C245.23 143.12 241.76 143.12 241.76 143.58C241.76 143.78 242.59 144.13 244.06 144.01C245.953 143.832 247.723 142.993 249.06 141.64C250.335 140.331 251.052 138.578 251.06 136.75C251.11 135.38 250.66 134.62 250.44 134.66Z" fill="#263238"/>
<path d="M248.62 97.2901C249 98.0701 251.94 97.3701 255.49 97.4301C259.04 97.4901 261.98 98.1401 262.36 97.3601C262.53 96.9901 261.96 96.2801 260.73 95.6101C259.098 94.819 257.308 94.408 255.495 94.408C253.682 94.408 251.892 94.819 250.26 95.6101C249 96.2101 248.45 96.9201 248.62 97.2901Z" fill="#263238"/>
<path d="M220.53 101.25C221.12 101.87 223.11 100.95 225.58 100.65C228.05 100.35 230.2 100.65 230.58 99.87C230.76 99.5 230.36 98.87 229.38 98.31C228.067 97.6697 226.594 97.4334 225.146 97.631C223.699 97.8286 222.343 98.4512 221.25 99.42C220.47 100.21 220.26 100.94 220.53 101.25Z" fill="#263238"/>
<path d="M282.65 117.11C282.97 116.93 295.59 111.75 296.57 125.11C297.55 138.47 284 136.65 283.91 136.27C283.82 135.89 282.65 117.11 282.65 117.11Z" fill="#FFBF9D"/>
<path d="M287.61 130.92C287.67 130.92 287.85 131.06 288.26 131.21C288.83 131.407 289.454 131.375 290 131.12C291.37 130.5 292.39 128.18 292.28 125.77C292.234 124.624 291.93 123.503 291.39 122.49C291.234 122.083 290.981 121.721 290.654 121.433C290.326 121.146 289.934 120.942 289.51 120.84C289.239 120.786 288.958 120.83 288.717 120.964C288.475 121.098 288.289 121.312 288.19 121.57C288.03 121.96 288.14 122.22 288.07 122.25C288 122.28 287.77 122.04 287.83 121.49C287.883 121.152 288.048 120.842 288.3 120.61C288.648 120.307 289.1 120.153 289.56 120.18C290.116 120.246 290.644 120.454 291.095 120.786C291.545 121.117 291.902 121.56 292.13 122.07C292.787 123.182 293.158 124.44 293.21 125.73C293.32 128.42 292.13 131.04 290.21 131.73C289.861 131.862 289.486 131.913 289.114 131.88C288.741 131.847 288.381 131.731 288.06 131.54C287.66 131.24 287.57 130.94 287.61 130.92Z" fill="#FF9A6C"/>
<path d="M222.541 81C220.311 79.94 226.341 72.53 231.541 69.78C239.331 65.63 251.431 62.6 258.961 64.22C268.031 66.22 275.711 70.12 280.701 77.94C285.691 85.76 287.981 95.09 288.321 104.36C288.421 107.19 288.321 110.15 286.961 112.63C285.291 115.7 281.831 117.79 282.251 121.85C282.351 122.583 282.304 123.329 282.111 124.043C281.919 124.758 281.586 125.426 281.131 126.01C278.851 128.77 275.711 126.52 274.181 124.16C270.911 119.16 270.181 112.91 269.541 106.93C269.081 102.69 268.631 98.35 269.541 94.19C270.041 91.92 270.961 89.75 271.341 87.46C271.721 85.17 271.491 82.62 269.971 80.86C269.617 80.4909 269.229 80.1561 268.811 79.86C266.844 78.35 264.509 77.3926 262.048 77.0867C259.587 76.7808 257.088 77.1375 254.811 78.12C247.461 81.26 234.891 86.06 231.371 83.72C226.321 80.36 225.001 78 225.001 78L222.541 81Z" fill="#263238"/>
<path d="M208.92 198.08C208.15 199.15 197.22 202.78 193.07 209.69C188.92 216.6 184.82 247.62 184.82 247.62L182.18 268C187.38 276.22 194.36 287.11 201.76 294.79L208.92 198.08Z" fill="#455A64"/>
<g opacity="0.3">
<path d="M291.051 228C291.346 232.183 292.138 236.315 293.411 240.31C294.841 244.24 297.351 247.94 301.021 249.97C302.551 250.81 304.281 251.37 305.571 252.57C306.861 253.77 307.641 255.71 308.891 257.12C310.455 258.671 312.384 259.802 314.501 260.41C320.458 262.594 326.779 263.613 333.121 263.41C333.321 261.27 333.331 253.41 333.531 251.26L291.051 228Z" fill="black"/>
</g>
<path d="M324.701 183.06C324.701 183.06 338.481 187.14 342.521 193.01C346.561 198.88 353.711 221.64 355.181 225.86C356.651 230.08 355.361 239.86 352.611 246.86C349.861 253.86 345.081 259.95 336.831 260.86C328.581 261.77 315.541 257.01 312.601 253.86C309.661 250.71 308.451 243.74 308.451 243.74C312.115 243.098 315.728 242.192 319.261 241.03" fill="#455A64"/>
<path d="M319.26 241.1L319.09 241.17L318.57 241.36C318.11 241.52 317.42 241.75 316.51 242.02C313.881 242.806 311.21 243.447 308.51 243.94L308.62 243.79C308.955 245.508 309.427 247.197 310.03 248.84C310.359 249.771 310.757 250.677 311.22 251.55C311.695 252.483 312.32 253.331 313.07 254.06C313.917 254.787 314.851 255.405 315.85 255.9C316.906 256.454 317.991 256.952 319.1 257.39C321.48 258.342 323.927 259.117 326.42 259.71C329.111 260.37 331.869 260.723 334.64 260.76C335.361 260.766 336.082 260.733 336.8 260.66C337.524 260.577 338.242 260.45 338.95 260.28C340.403 259.953 341.798 259.411 343.09 258.67C345.78 257.114 348.039 254.911 349.66 252.26C351.375 249.507 352.688 246.524 353.56 243.4C354.272 241 354.803 238.55 355.15 236.07C355.522 233.669 355.643 231.236 355.51 228.81C355.431 227.643 355.192 226.492 354.8 225.39C354.42 224.27 354.05 223.16 353.69 222.06L351.54 215.63C350.12 211.45 348.72 207.5 347.32 203.83C346.091 200.415 344.61 197.096 342.89 193.9C342.095 192.542 341.034 191.358 339.77 190.42C338.669 189.544 337.498 188.758 336.27 188.07C334.297 186.945 332.257 185.943 330.16 185.07C328.44 184.36 327.08 183.86 326.16 183.53L325.11 183.16C324.985 183.127 324.865 183.08 324.75 183.02C324.876 183.036 325 183.067 325.12 183.11L326.19 183.43C327.13 183.73 328.51 184.2 330.25 184.88C332.365 185.715 334.425 186.68 336.42 187.77C337.67 188.458 338.864 189.244 339.99 190.12C341.291 191.075 342.386 192.282 343.21 193.67C344.969 196.883 346.48 200.226 347.73 203.67C349.16 207.33 350.57 211.29 352 215.47C352.71 217.56 353.43 219.71 354.17 221.9C354.54 222.99 354.91 224.1 355.28 225.22C355.691 226.36 355.944 227.551 356.03 228.76C356.172 231.222 356.055 233.692 355.68 236.13C355.327 238.636 354.789 241.113 354.07 243.54C353.177 246.717 351.83 249.748 350.07 252.54C348.403 255.262 346.078 257.521 343.31 259.11C341.976 259.869 340.537 260.425 339.04 260.76C338.312 260.933 337.574 261.064 336.83 261.15C336.09 261.15 335.35 261.28 334.63 261.25C331.821 261.199 329.026 260.83 326.3 260.15C323.784 259.547 321.317 258.754 318.92 257.78C317.804 257.328 316.712 256.818 315.65 256.25C314.621 255.735 313.66 255.093 312.79 254.34C312.016 253.574 311.374 252.685 310.89 251.71C310.426 250.824 310.028 249.905 309.7 248.96C309.114 247.287 308.656 245.572 308.33 243.83V243.7H308.46C311.98 243.09 314.68 242.4 316.51 241.9L318.59 241.31L319.12 241.16C319.2 241.1 319.26 241.09 319.26 241.1Z" fill="#263238"/>
<path d="M344.55 233.73C344.45 233.73 344.13 232.03 342.98 229.49C341.47 226.188 339.361 223.194 336.76 220.66C335.319 219.288 333.689 218.13 331.92 217.22L330.71 216.68C330.31 216.5 329.89 216.42 329.51 216.29C328.791 216.063 328.05 215.909 327.3 215.83L326.8 215.76H325.44C324.971 215.753 324.502 215.793 324.04 215.88C323.639 215.961 323.23 216.004 322.82 216.01C323.199 215.853 323.595 215.742 324 215.68C324.466 215.548 324.947 215.477 325.43 215.47H326.33H326.82L327.34 215.53C328.115 215.584 328.883 215.718 329.63 215.93C330.05 216.035 330.464 216.162 330.87 216.31L332.13 216.85C333.965 217.756 335.651 218.936 337.13 220.35C339.788 222.918 341.894 226.001 343.32 229.41C343.575 229.99 343.795 230.584 343.98 231.19C344.135 231.645 344.261 232.109 344.36 232.58C344.46 232.956 344.524 233.341 344.55 233.73Z" fill="#263238"/>
<path d="M352.071 221.36C351.503 219.905 350.806 218.502 349.991 217.17C347.919 214.007 344.817 211.658 341.211 210.52C336.981 209.23 332.871 209.63 330.001 209.9L326.571 210.31C326.155 210.385 325.733 210.422 325.311 210.42C325.706 210.266 326.119 210.161 326.541 210.11C327.341 209.95 328.541 209.74 329.961 209.54C333.751 208.878 337.639 209.041 341.361 210.02C343.398 210.632 345.29 211.653 346.921 213.02C348.256 214.155 349.397 215.499 350.301 217C350.919 217.985 351.413 219.043 351.771 220.15C351.917 220.54 352.018 220.946 352.071 221.36Z" fill="#263238"/>
<path d="M341.681 206.57C336.29 205.299 330.655 205.52 325.381 207.21C326.073 206.759 326.832 206.421 327.631 206.21C329.523 205.628 331.483 205.292 333.461 205.21C335.439 205.14 337.418 205.321 339.351 205.75C340.164 205.905 340.949 206.182 341.681 206.57Z" fill="#263238"/>
<path d="M319.381 186.5C319.461 186.5 319.261 187.91 319.101 190.17C318.681 195.959 319.181 201.777 320.581 207.41L320.221 207.53C319.811 206.38 319.491 205.44 319.281 204.78C319.15 204.458 319.056 204.123 319.001 203.78C319.204 204.091 319.366 204.427 319.481 204.78C319.751 205.41 320.121 206.33 320.581 207.47L320.221 207.58C319.429 204.813 318.903 201.977 318.651 199.11C318.389 196.144 318.416 193.16 318.731 190.2C318.861 189.07 319.011 188.2 319.131 187.53C319.164 187.176 319.249 186.83 319.381 186.5Z" fill="#263238"/>
<path d="M299.891 160.85C299.891 160.85 292.741 160.85 291.841 169.44C291.151 176.04 291.841 182.44 291.841 185.34C291.841 188.24 290.571 198.51 290.571 198.51C290.571 198.51 285.691 202.84 285.771 208.04C285.851 213.24 289.571 214.86 289.571 214.86C288.947 216.471 288.809 218.23 289.176 219.919C289.542 221.608 290.395 223.152 291.631 224.36C291.631 224.36 289.561 229.15 291.261 232.36C292.24 233.957 293.769 235.141 295.561 235.69C295.267 236.322 295.113 237.01 295.108 237.706C295.103 238.403 295.247 239.093 295.532 239.729C295.816 240.365 296.234 240.932 296.756 241.393C297.279 241.854 297.894 242.197 298.561 242.4C300.963 243.144 303.479 243.452 305.991 243.31L311.331 243.21L316.031 245.81C316.031 245.81 324.091 242.3 324.291 237.55L324.501 232.8C324.501 232.8 322.191 225 322.001 222.5C321.811 220 323.861 214.03 322.621 211.35C321.381 208.67 317.051 207.09 317.461 203.35C317.871 199.61 317.051 197.53 315.191 195.46C313.331 193.39 305.121 189.27 305.121 189.27C305.121 189.27 303.011 183.27 303.011 179.16C303.011 175.05 307.121 162.42 299.891 160.85Z" fill="#FFBF9D"/>
<path d="M304.711 190.83C304.096 191.333 303.425 191.763 302.711 192.11C301.451 192.85 299.711 193.83 297.711 194.89C295.711 195.95 293.971 196.89 292.711 197.54C292.03 197.952 291.305 198.287 290.551 198.54C291.163 198.031 291.835 197.598 292.551 197.25C293.811 196.51 295.551 195.53 297.551 194.47C299.551 193.41 301.291 192.47 302.551 191.82C303.23 191.408 303.955 191.076 304.711 190.83Z" fill="#FF9A6C"/>
<path d="M309.411 207C309.411 207 309.211 207.23 308.781 207.56C308.184 208.029 307.563 208.466 306.921 208.87C304.809 210.223 302.564 211.356 300.221 212.25C297.878 213.159 295.449 213.829 292.971 214.25C291.971 214.4 291.241 214.49 290.711 214.52C290.434 214.572 290.149 214.572 289.871 214.52C289.871 214.44 291.031 214.28 292.871 213.89C295.297 213.38 297.681 212.685 300.001 211.81C302.316 210.915 304.556 209.838 306.701 208.59C307.577 208.014 308.481 207.484 309.411 207Z" fill="#FF9A6C"/>
<path d="M315.551 201.85C315.681 201.9 315.411 202.85 314.551 203.58C313.691 204.31 312.771 204.53 312.741 204.4C312.711 204.27 313.451 203.89 314.201 203.19C314.951 202.49 315.411 201.79 315.551 201.85Z" fill="#FF9A6C"/>
<path d="M312.6 221.15C311.64 221.617 310.634 221.985 309.6 222.25C307.14 222.982 304.634 223.553 302.1 223.96C299.566 224.373 297.007 224.614 294.44 224.68C293.376 224.762 292.307 224.729 291.25 224.58C292.301 224.431 293.359 224.344 294.42 224.32C296.42 224.18 299.07 223.92 302.02 223.45C304.97 222.98 307.6 222.37 309.5 221.89C310.518 221.583 311.553 221.336 312.6 221.15Z" fill="#FF9A6C"/>
<path d="M319.14 220C319.292 219.479 319.476 218.968 319.69 218.47C320.087 217.249 320.22 215.957 320.08 214.68C319.921 213.404 319.484 212.179 318.8 211.09C318.476 210.655 318.179 210.201 317.91 209.73C317.91 209.68 318.48 210.05 319.11 210.88C319.919 211.977 320.429 213.265 320.59 214.619C320.751 215.972 320.558 217.344 320.03 218.6C319.62 219.51 319.19 220 319.14 220Z" fill="#FF9A6C"/>
<path d="M313 235.63C312.18 235.932 311.327 236.133 310.46 236.23C308.382 236.558 306.283 236.722 304.18 236.72C302.072 236.716 299.968 236.539 297.89 236.19C297.021 236.092 296.168 235.887 295.35 235.58C296.218 235.595 297.084 235.679 297.94 235.83C300.012 236.064 302.094 236.188 304.18 236.2C306.261 236.196 308.34 236.082 310.41 235.86C311.265 235.715 312.132 235.638 313 235.63Z" fill="#FF9A6C"/>
<path d="M300.281 179.26C300.281 179.32 299.951 179.59 299.281 179.83C298.399 180.125 297.463 180.22 296.54 180.11C295.616 179.999 294.729 179.685 293.941 179.19C293.341 178.8 293.061 178.46 293.101 178.41C294.207 178.965 295.385 179.363 296.601 179.59C297.838 179.656 299.077 179.545 300.281 179.26Z" fill="#FF9A6C"/>
<path d="M320.62 220.57C320.71 220.816 320.75 221.078 320.74 221.34C320.74 222.051 320.656 222.759 320.49 223.45C320.3 224.32 319.97 225.33 319.65 226.45C319.262 227.622 319.136 228.864 319.28 230.09C319.45 231.36 320.4 232.38 320.55 233.67C320.652 234.76 320.373 235.853 319.76 236.76C319.387 237.362 318.955 237.925 318.47 238.44C318.13 238.81 317.92 238.99 317.89 238.97C317.86 238.95 318.58 238.09 319.44 236.58C319.957 235.729 320.178 234.73 320.07 233.74C319.95 232.65 318.99 231.63 318.76 230.18C318.607 228.877 318.754 227.557 319.19 226.32C319.54 225.19 319.9 224.2 320.13 223.32C320.36 222.417 320.524 221.498 320.62 220.57Z" fill="#FF9A6C"/>
<path d="M323.311 226.85C323.474 227.143 323.589 227.461 323.651 227.79C323.831 228.4 324.071 229.3 324.291 230.42C324.563 231.738 324.723 233.076 324.771 234.42C324.857 236.101 324.549 237.779 323.871 239.32C323.084 240.796 322.042 242.119 320.791 243.23C319.797 244.136 318.737 244.968 317.621 245.72C316.671 246.37 315.871 246.85 315.311 247.16C315.036 247.346 314.737 247.494 314.421 247.6C314.371 247.53 315.571 246.77 317.421 245.42C318.494 244.639 319.516 243.791 320.481 242.88C321.67 241.793 322.664 240.512 323.421 239.09C324.062 237.619 324.366 236.024 324.311 234.42C324.288 233.096 324.168 231.776 323.951 230.47C323.561 228.24 323.231 226.87 323.311 226.85Z" fill="#263238"/>
<path d="M247.861 193.56C247.445 193.315 247.056 193.027 246.701 192.7L243.701 190.19L241.621 188.44C241.265 188.107 240.869 187.822 240.441 187.59C240.233 187.484 240.004 187.428 239.771 187.428C239.538 187.428 239.308 187.484 239.101 187.59C238.241 188.04 237.661 189.14 236.931 190.06C236.201 190.98 235.481 192.06 234.721 193.06C233.521 194.68 232.351 196.23 231.281 197.67L230.631 198.53L230.841 197.47C231.414 194.496 232.247 191.578 233.331 188.75C233.731 187.75 234.091 186.89 234.331 186.34C234.443 186.045 234.595 185.765 234.781 185.51C234.712 185.815 234.615 186.113 234.491 186.4C234.281 186.97 233.971 187.8 233.611 188.86C232.633 191.703 231.868 194.614 231.321 197.57L230.871 197.37L234.301 192.75L236.511 189.75L237.571 188.34C237.907 187.839 238.36 187.427 238.891 187.14C239.169 187.018 239.471 186.961 239.774 186.973C240.077 186.985 240.374 187.066 240.641 187.21C241.095 187.466 241.515 187.778 241.891 188.14L243.891 189.94L246.811 192.57C247.186 192.872 247.537 193.203 247.861 193.56Z" fill="#263238"/>
<path d="M290.081 185.11C289.965 185.241 289.834 185.359 289.691 185.46L288.511 186.38L284.101 189.69L269.391 200.52L269.171 200.68L269.021 200.45C268.901 200.27 268.781 200.07 268.651 199.88L261.271 188.22L261.541 188.31C258.697 189.44 255.954 190.808 253.341 192.4C252.401 192.97 251.671 193.4 251.171 193.77C250.928 193.953 250.666 194.111 250.391 194.24C250.603 194.019 250.837 193.822 251.091 193.65C251.571 193.3 252.281 192.79 253.211 192.18C255.79 190.501 258.522 189.068 261.371 187.9L261.541 187.83L261.641 187.98C263.811 191.35 266.361 195.34 269.091 199.6C269.221 199.79 269.341 199.99 269.461 200.17L269.081 200.1L283.891 189.4L288.391 186.21L289.631 185.37C289.921 185.18 290.071 185.09 290.081 185.11Z" fill="#263238"/>
<path d="M200.331 224.88C200.377 225.11 200.397 225.345 200.391 225.58C200.391 226.1 200.391 226.77 200.441 227.58C200.441 229.39 200.531 231.92 200.581 235.02C200.701 241.3 200.951 250.02 201.281 259.57C201.611 269.12 201.801 277.84 201.821 284.13C201.821 287.28 201.821 289.82 201.821 291.58C201.821 292.41 201.821 293.09 201.771 293.58C201.782 293.818 201.765 294.056 201.721 294.29C201.707 294.054 201.707 293.816 201.721 293.58C201.721 293.07 201.721 292.39 201.661 291.58C201.661 289.76 201.581 287.23 201.521 284.14C201.411 277.85 201.151 269.14 200.831 259.58C200.511 250.02 200.311 241.31 200.291 235.02C200.291 231.88 200.291 229.33 200.291 227.58C200.291 226.74 200.291 226.07 200.291 225.58C200.29 225.346 200.303 225.112 200.331 224.88Z" fill="#263238"/>
<path d="M248.191 315.2C248.158 315.11 248.138 315.016 248.131 314.92C248.131 314.7 248.131 314.42 248.041 314.07C247.961 313.28 247.851 312.19 247.721 310.8C247.441 307.96 247.121 303.8 246.801 298.75C246.481 293.7 246.211 287.58 246.041 280.84C245.871 274.1 245.851 266.67 246.041 258.84C246.231 251.01 246.581 243.64 247.041 236.91C247.501 230.18 248.041 224.12 248.581 219.05C249.121 213.98 249.581 209.87 250.021 207.05C250.221 205.66 250.371 204.58 250.481 203.8C250.541 203.45 250.581 203.17 250.621 202.95C250.626 202.854 250.647 202.76 250.681 202.67C250.697 202.766 250.697 202.864 250.681 202.96C250.681 203.18 250.631 203.46 250.601 203.81C250.511 204.59 250.391 205.68 250.231 207.07C249.891 209.91 249.451 214.01 248.961 219.07C248.471 224.13 247.961 230.2 247.531 236.93C247.101 243.66 246.771 251.07 246.591 258.85C246.411 266.63 246.461 274.04 246.591 280.78C246.721 287.52 246.971 293.58 247.251 298.67C247.531 303.76 247.781 307.89 248.001 310.73C248.091 312.12 248.171 313.22 248.221 314.01C248.221 314.36 248.221 314.64 248.271 314.86C248.254 314.975 248.227 315.089 248.191 315.2Z" fill="#263238"/>
<path d="M218.391 151.52L217.331 152.22L214.211 154.22C212.831 155.11 211.211 156.38 209.311 157.78C208.311 158.5 207.391 159.37 206.311 160.25L204.681 161.62C204.121 162.1 203.591 162.62 203.021 163.17C197.491 168.329 192.632 174.165 188.561 180.54L186.781 183.4C186.151 184.35 185.671 185.4 185.091 186.4C184.511 187.4 183.941 188.48 183.421 189.58C182.901 190.68 182.421 191.81 181.881 192.95C181.631 193.52 181.351 194.08 181.111 194.67C180.871 195.26 180.661 195.86 180.431 196.47C179.981 197.67 179.501 198.88 179.061 200.13C178.321 202.66 177.381 205.22 176.821 207.95C173.971 219.762 173.495 232.023 175.421 244.02C177.928 259.469 184.398 274.005 194.198 286.209C203.998 298.412 216.794 307.867 231.338 313.65C245.882 319.433 261.677 321.347 277.181 319.205C292.686 317.064 307.37 310.939 319.801 301.43C322.94 299.017 325.926 296.412 328.741 293.63L330.741 291.51C331.421 290.81 332.081 290.1 332.741 289.35L334.641 287.16C335.241 286.4 335.831 285.64 336.431 284.89C345.477 273.239 351.512 259.538 354.001 245C354.587 241.625 354.984 238.219 355.191 234.8C355.291 233.11 355.291 231.44 355.351 229.8C355.411 228.16 355.231 226.49 355.171 224.86C355.171 224.05 355.101 223.23 355.071 222.42C355.041 221.61 354.891 220.82 354.811 220.02C354.611 218.43 354.421 216.85 354.231 215.29C354.041 213.73 353.631 212.21 353.331 210.69C353.081 209.183 352.747 207.69 352.331 206.22L351.091 201.89C350.897 201.18 350.66 200.482 350.381 199.8C350.121 199.11 349.861 198.42 349.611 197.74C349.081 196.39 348.611 195.01 348.041 193.74C347.471 192.47 346.851 191.18 346.261 189.93C341.912 180.889 336.078 172.641 329.001 165.53C323.64 160.202 317.657 155.539 311.181 151.64L307.361 149.45C306.785 149.112 306.191 148.805 305.581 148.53L303.901 147.73L300.901 146.31C300.001 145.85 299.111 145.59 298.361 145.31L294.881 143.97L293.701 143.49L294.901 143.92L298.391 145.22C299.151 145.52 300.041 145.78 300.951 146.22L303.951 147.62L305.641 148.42C306.254 148.688 306.851 148.988 307.431 149.32L311.261 151.5C317.779 155.374 323.8 160.029 329.191 165.36C336.31 172.466 342.186 180.718 346.571 189.77C347.161 191.04 347.761 192.31 348.371 193.61C348.981 194.91 349.371 196.28 349.951 197.61L350.731 199.67C351.01 200.355 351.247 201.056 351.441 201.77C351.861 203.21 352.281 204.65 352.701 206.12C353.135 207.596 353.485 209.095 353.751 210.61C354.051 212.13 354.411 213.61 354.671 215.22C354.931 216.83 355.051 218.38 355.251 219.98C355.341 220.78 355.471 221.58 355.521 222.39C355.571 223.2 355.591 224.02 355.621 224.84C355.681 226.48 355.771 228.13 355.811 229.84C355.851 231.55 355.761 233.19 355.651 234.84C354.63 253.145 348.062 270.706 336.821 285.19L335.001 287.47L333.081 289.68C332.461 290.43 331.791 291.15 331.081 291.85L329.081 293.99C326.248 296.789 323.242 299.407 320.081 301.83C307.59 311.379 292.837 317.528 277.261 319.678C261.686 321.829 245.819 319.907 231.207 314.099C216.595 308.292 203.738 298.798 193.887 286.543C184.037 274.287 177.53 259.689 175.001 244.17C173.987 237.914 173.651 231.568 174.001 225.24C174.253 219.404 175.094 213.607 176.511 207.94C177.071 205.2 178.021 202.64 178.761 200.09C179.211 198.85 179.701 197.63 180.161 196.42C180.391 195.82 180.621 195.22 180.841 194.62C181.061 194.02 181.371 193.47 181.621 192.89C182.151 191.75 182.621 190.63 183.171 189.52C183.721 188.41 184.311 187.38 184.861 186.33C185.411 185.28 185.931 184.24 186.561 183.28L188.361 180.42C192.454 174.036 197.35 168.204 202.931 163.07C203.501 162.54 204.031 162 204.591 161.52L206.231 160.15C207.311 159.28 208.231 158.42 209.231 157.7C211.181 156.3 212.781 155.05 214.171 154.17L217.321 152.17C218.001 151.73 218.391 151.52 218.391 151.52Z" fill="#263238"/>
</svg>
